%TF.GenerationSoftware,KiCad,Pcbnew,9.0.7*%
%TF.CreationDate,2026-01-19T16:38:05-08:00*%
%TF.ProjectId,CoCoProtoBoard,436f436f-5072-46f7-946f-426f6172642e,rev?*%
%TF.SameCoordinates,Original*%
%TF.FileFunction,Copper,L1,Top*%
%TF.FilePolarity,Positive*%
%FSLAX46Y46*%
G04 Gerber Fmt 4.6, Leading zero omitted, Abs format (unit mm)*
G04 Created by KiCad (PCBNEW 9.0.7) date 2026-01-19 16:38:05*
%MOMM*%
%LPD*%
G01*
G04 APERTURE LIST*
%TA.AperFunction,ConnectorPad*%
%ADD10R,6.350000X1.270000*%
%TD*%
%TA.AperFunction,ComponentPad*%
%ADD11C,1.600000*%
%TD*%
%TA.AperFunction,ComponentPad*%
%ADD12O,1.600000X1.600000*%
%TD*%
%TA.AperFunction,ViaPad*%
%ADD13C,0.800000*%
%TD*%
%TA.AperFunction,ViaPad*%
%ADD14C,1.000000*%
%TD*%
%TA.AperFunction,Conductor*%
%ADD15C,0.500000*%
%TD*%
%TA.AperFunction,Conductor*%
%ADD16C,0.350000*%
%TD*%
%TA.AperFunction,Conductor*%
%ADD17C,1.000000*%
%TD*%
%TA.AperFunction,Conductor*%
%ADD18C,2.000000*%
%TD*%
%TA.AperFunction,Conductor*%
%ADD19C,1.270000*%
%TD*%
G04 APERTURE END LIST*
D10*
%TO.P,P1,3,~{HALT}*%
%TO.N,Net-(P1-~{HALT})*%
X95250000Y-82550000D03*
%TO.P,P1,5,~{RESET}*%
%TO.N,Net-(P1-~{RESET})*%
X95250000Y-85090000D03*
%TO.P,P1,7,Q*%
%TO.N,Net-(P1-Q)*%
X95250000Y-87630000D03*
%TO.P,P1,9,+5V*%
%TO.N,+5V*%
X95250000Y-90170000D03*
%TO.P,P1,11,D1*%
%TO.N,Net-(P1-D1)*%
X95250000Y-92710000D03*
%TO.P,P1,13,D3*%
%TO.N,Net-(P1-D3)*%
X95250000Y-95250000D03*
%TO.P,P1,15,D5*%
%TO.N,Net-(P1-D5)*%
X95250000Y-97790000D03*
%TO.P,P1,17,D7*%
%TO.N,Net-(P1-D7)*%
X95250000Y-100330000D03*
%TO.P,P1,19,A0*%
%TO.N,Net-(P1-A0)*%
X95250000Y-102870000D03*
%TO.P,P1,21,A2*%
%TO.N,Net-(P1-A2)*%
X95250000Y-105410000D03*
%TO.P,P1,23,A4*%
%TO.N,Net-(P1-A4)*%
X95250000Y-107950000D03*
%TO.P,P1,25,A6*%
%TO.N,Net-(P1-A6)*%
X95250000Y-110490000D03*
%TO.P,P1,27,A8*%
%TO.N,Net-(P1-A8)*%
X95250000Y-113030000D03*
%TO.P,P1,29,A10*%
%TO.N,Net-(P1-A10)*%
X95250000Y-115570000D03*
%TO.P,P1,31,A12*%
%TO.N,Net-(P1-A12)*%
X95250000Y-118110000D03*
%TO.P,P1,33,GND*%
%TO.N,GND*%
X95250000Y-120650000D03*
%TO.P,P1,35,SND*%
%TO.N,Net-(P1-SND)*%
X95250000Y-123190000D03*
%TO.P,P1,37,A13*%
%TO.N,Net-(P1-A13)*%
X95250000Y-125730000D03*
%TO.P,P1,39,A15*%
%TO.N,Net-(P1-A15)*%
X95250000Y-128270000D03*
%TD*%
D11*
%TO.P,REF\u002A\u002A,1*%
%TO.N,GND*%
X178690000Y-148540000D03*
%TD*%
%TO.P,REF\u002A\u002A,1*%
%TO.N,GND*%
X178690000Y-59740000D03*
%TD*%
%TO.P,REF\u002A\u002A,1*%
%TO.N,GND*%
X141440000Y-59740000D03*
%TD*%
%TO.P,REF\u002A\u002A,1*%
%TO.N,GND*%
X141440000Y-148540000D03*
%TD*%
%TO.P,REF\u002A\u002A,1*%
%TO.N,GND*%
X107040000Y-148540000D03*
%TD*%
D12*
%TO.P,P2,1,Pin_1*%
%TO.N,Net-(P1-D0)*%
X115570000Y-58420000D03*
X118110000Y-58420000D03*
%TO.P,P2,2,Pin_2*%
%TO.N,Net-(P1-D1)*%
X115570000Y-60960000D03*
X118110000Y-60960000D03*
%TO.P,P2,3,Pin_3*%
%TO.N,Net-(P1-D2)*%
X115570000Y-63500000D03*
X118110000Y-63500000D03*
%TO.P,P2,4,Pin_4*%
%TO.N,Net-(P1-D3)*%
X115570000Y-66040000D03*
X118110000Y-66040000D03*
%TO.P,P2,5,Pin_5*%
%TO.N,Net-(P1-D4)*%
X115570000Y-68580000D03*
X118110000Y-68580000D03*
%TO.P,P2,6,Pin_6*%
%TO.N,Net-(P1-D5)*%
X115570000Y-71120000D03*
X118110000Y-71120000D03*
%TO.P,P2,7,Pin_7*%
%TO.N,Net-(P1-D6)*%
X115570000Y-73660000D03*
X118110000Y-73660000D03*
%TO.P,P2,8,Pin_8*%
%TO.N,Net-(P1-D7)*%
X115570000Y-76200000D03*
X118110000Y-76200000D03*
%TD*%
%TO.P,P4,1,Pin_1*%
%TO.N,Net-(P1-~{HALT})*%
X115570000Y-124460000D03*
X118110000Y-124460000D03*
%TO.P,P4,2,Pin_2*%
%TO.N,Net-(P1-~{NMI})*%
X115570000Y-127000000D03*
X118110000Y-127000000D03*
%TO.P,P4,3,Pin_3*%
%TO.N,Net-(P1-~{RESET})*%
X115570000Y-129540000D03*
X118110000Y-129540000D03*
%TO.P,P4,4,Pin_4*%
%TO.N,Net-(P1-E)*%
X115570000Y-132080000D03*
X118110000Y-132080000D03*
%TO.P,P4,5,Pin_5*%
%TO.N,Net-(P1-Q)*%
X115570000Y-134620000D03*
X118110000Y-134620000D03*
%TO.P,P4,6,Pin_6*%
%TO.N,Net-(P1-~{CART})*%
X115570000Y-137160000D03*
X118110000Y-137160000D03*
%TO.P,P4,7,Pin_7*%
%TO.N,Net-(P1-R{slash}~{W})*%
X115570000Y-139700000D03*
X118110000Y-139700000D03*
%TO.P,P4,8,Pin_8*%
%TO.N,Net-(P1-~{CTS})*%
X115570000Y-142240000D03*
X118110000Y-142240000D03*
%TO.P,P4,9,Pin_9*%
%TO.N,Net-(P1-SND)*%
X115570000Y-144780000D03*
X118110000Y-144780000D03*
%TO.P,P4,10,Pin_10*%
%TO.N,Net-(P1-~{SCS})*%
X115570000Y-147320000D03*
X118110000Y-147320000D03*
%TO.P,P4,11,Pin_11*%
%TO.N,Net-(P1-~{SLENB})*%
X115570000Y-149860000D03*
X118110000Y-149860000D03*
%TD*%
%TO.P,P3,1,Pin_1*%
%TO.N,Net-(P1-A0)*%
X115570000Y-81280000D03*
X118110000Y-81280000D03*
%TO.P,P3,2,Pin_2*%
%TO.N,Net-(P1-A1)*%
X115570000Y-83820000D03*
X118110000Y-83820000D03*
%TO.P,P3,3,Pin_3*%
%TO.N,Net-(P1-A2)*%
X115570000Y-86360000D03*
X118110000Y-86360000D03*
%TO.P,P3,4,Pin_4*%
%TO.N,Net-(P1-A3)*%
X115570000Y-88900000D03*
X118110000Y-88900000D03*
%TO.P,P3,5,Pin_5*%
%TO.N,Net-(P1-A4)*%
X115570000Y-91440000D03*
X118110000Y-91440000D03*
%TO.P,P3,6,Pin_6*%
%TO.N,Net-(P1-A5)*%
X115570000Y-93980000D03*
X118110000Y-93980000D03*
%TO.P,P3,7,Pin_7*%
%TO.N,Net-(P1-A6)*%
X115570000Y-96520000D03*
X118110000Y-96520000D03*
%TO.P,P3,8,Pin_8*%
%TO.N,Net-(P1-A7)*%
X115570000Y-99060000D03*
X118110000Y-99060000D03*
%TO.P,P3,9,Pin_9*%
%TO.N,Net-(P1-A8)*%
X115570000Y-101600000D03*
X118110000Y-101600000D03*
%TO.P,P3,10,Pin_10*%
%TO.N,Net-(P1-A9)*%
X115570000Y-104140000D03*
X118110000Y-104140000D03*
%TO.P,P3,11,Pin_11*%
%TO.N,Net-(P1-A10)*%
X115570000Y-106680000D03*
X118110000Y-106680000D03*
%TO.P,P3,12,Pin_12*%
%TO.N,Net-(P1-A11)*%
X115570000Y-109220000D03*
X118110000Y-109220000D03*
%TO.P,P3,13,Pin_13*%
%TO.N,Net-(P1-A12)*%
X115570000Y-111760000D03*
X118110000Y-111760000D03*
%TO.P,P3,14,Pin_14*%
%TO.N,Net-(P1-A13)*%
X115570000Y-114300000D03*
X118110000Y-114300000D03*
%TO.P,P3,15,Pin_15*%
%TO.N,Net-(P1-A14)*%
X115570000Y-116840000D03*
X118110000Y-116840000D03*
%TO.P,P3,16,Pin_16*%
%TO.N,Net-(P1-A15)*%
X115570000Y-119380000D03*
X118110000Y-119380000D03*
%TD*%
%TO.P,P10,1,Pin_1*%
%TO.N,GND*%
X122555000Y-68580000D03*
X122555000Y-71120000D03*
X122555000Y-73660000D03*
X122555000Y-76200000D03*
X122555000Y-81280000D03*
X122555000Y-83820000D03*
X122555000Y-86360000D03*
X122555000Y-88900000D03*
X122555000Y-91440000D03*
X122555000Y-93980000D03*
X122555000Y-96520000D03*
X122555000Y-99060000D03*
X122555000Y-101600000D03*
X122555000Y-104140000D03*
X122555000Y-106680000D03*
X122555000Y-109220000D03*
X122555000Y-111760000D03*
X122555000Y-114300000D03*
X122555000Y-116840000D03*
X122555000Y-119380000D03*
X122555000Y-124460000D03*
X122555000Y-127000000D03*
X122555000Y-129540000D03*
X122555000Y-132080000D03*
X122555000Y-134620000D03*
X122555000Y-137160000D03*
X122555000Y-139700000D03*
X122555000Y-142240000D03*
X122555000Y-144780000D03*
X122555000Y-147320000D03*
X122555000Y-149860000D03*
%TO.P,P10,2,Pin_2*%
%TO.N,+5V*%
X125730000Y-68580000D03*
X125730000Y-71120000D03*
X125730000Y-73660000D03*
X125730000Y-76200000D03*
X125730000Y-81280000D03*
X125730000Y-83820000D03*
X125730000Y-86360000D03*
X125730000Y-88900000D03*
X125730000Y-91440000D03*
X125730000Y-93980000D03*
X125730000Y-96520000D03*
X125730000Y-99060000D03*
X125730000Y-101600000D03*
X125730000Y-104140000D03*
X125730000Y-106680000D03*
X125730000Y-109220000D03*
X125730000Y-111760000D03*
X125730000Y-114300000D03*
X125730000Y-116840000D03*
X125730000Y-119380000D03*
X125730000Y-124460000D03*
X125730000Y-127000000D03*
X125730000Y-129540000D03*
X125730000Y-132080000D03*
X125730000Y-134620000D03*
X125730000Y-137160000D03*
X125730000Y-139700000D03*
X125730000Y-142240000D03*
X125730000Y-144780000D03*
X125730000Y-147320000D03*
%TD*%
D11*
%TO.P,REF\u002A\u002A,1*%
%TO.N,N/C*%
X128905000Y-81280000D03*
%TD*%
%TO.P,REF\u002A\u002A,1*%
%TO.N,N/C*%
X128905000Y-104140000D03*
%TD*%
%TO.P,REF\u002A\u002A,1*%
%TO.N,N/C*%
X128905000Y-101600000D03*
%TD*%
%TO.P,REF\u002A\u002A,1*%
%TO.N,N/C*%
X128905000Y-106680000D03*
%TD*%
%TO.P,REF\u002A\u002A,1*%
%TO.N,N/C*%
X128905000Y-109220000D03*
%TD*%
%TO.P,REF\u002A\u002A,1*%
%TO.N,N/C*%
X128905000Y-111760000D03*
%TD*%
%TO.P,REF\u002A\u002A,1*%
%TO.N,N/C*%
X128905000Y-68580000D03*
%TD*%
%TO.P,REF\u002A\u002A,1*%
%TO.N,N/C*%
X128905000Y-144780000D03*
%TD*%
%TO.P,REF\u002A\u002A,1*%
%TO.N,N/C*%
X128905000Y-137160000D03*
%TD*%
%TO.P,REF\u002A\u002A,1*%
%TO.N,N/C*%
X128905000Y-139700000D03*
%TD*%
%TO.P,REF\u002A\u002A,1*%
%TO.N,N/C*%
X128905000Y-147320000D03*
%TD*%
%TO.P,REF\u002A\u002A,1*%
%TO.N,N/C*%
X128905000Y-142240000D03*
%TD*%
%TO.P,REF\u002A\u002A,1*%
%TO.N,N/C*%
X128905000Y-134620000D03*
%TD*%
%TO.P,REF\u002A\u002A,1*%
%TO.N,N/C*%
X128905000Y-66040000D03*
%TD*%
%TO.P,REF\u002A\u002A,1*%
%TO.N,N/C*%
X128905000Y-86360000D03*
%TD*%
%TO.P,REF\u002A\u002A,1*%
%TO.N,N/C*%
X128905000Y-88900000D03*
%TD*%
%TO.P,REF\u002A\u002A,1*%
%TO.N,N/C*%
X128905000Y-124460000D03*
%TD*%
%TO.P,REF\u002A\u002A,1*%
%TO.N,N/C*%
X128905000Y-127000000D03*
%TD*%
%TO.P,REF\u002A\u002A,1*%
%TO.N,N/C*%
X128905000Y-129540000D03*
%TD*%
%TO.P,REF\u002A\u002A,1*%
%TO.N,N/C*%
X128905000Y-132080000D03*
%TD*%
%TO.P,REF\u002A\u002A,1*%
%TO.N,N/C*%
X128905000Y-93980000D03*
%TD*%
%TO.P,REF\u002A\u002A,1*%
%TO.N,N/C*%
X128905000Y-99060000D03*
%TD*%
%TO.P,REF\u002A\u002A,1*%
%TO.N,N/C*%
X128905000Y-96520000D03*
%TD*%
%TO.P,REF\u002A\u002A,1*%
%TO.N,N/C*%
X128905000Y-71120000D03*
%TD*%
%TO.P,REF\u002A\u002A,1*%
%TO.N,N/C*%
X128905000Y-83820000D03*
%TD*%
%TO.P,REF\u002A\u002A,1*%
%TO.N,N/C*%
X128905000Y-73660000D03*
%TD*%
%TO.P,REF\u002A\u002A,1*%
%TO.N,N/C*%
X128905000Y-91440000D03*
%TD*%
%TO.P,REF\u002A\u002A,1*%
%TO.N,N/C*%
X128905000Y-76200000D03*
%TD*%
%TO.P,REF\u002A\u002A,1*%
%TO.N,N/C*%
X128905000Y-121920000D03*
%TD*%
%TO.P,REF\u002A\u002A,1*%
%TO.N,N/C*%
X128905000Y-114300000D03*
%TD*%
%TO.P,REF\u002A\u002A,1*%
%TO.N,N/C*%
X128905000Y-116840000D03*
%TD*%
%TO.P,REF\u002A\u002A,1*%
%TO.N,N/C*%
X128905000Y-119380000D03*
%TD*%
%TO.P,REF\u002A\u002A,1*%
%TO.N,N/C*%
X131445000Y-147320000D03*
%TD*%
%TO.P,REF\u002A\u002A,1*%
%TO.N,N/C*%
X128905000Y-78740000D03*
%TD*%
%TO.P,REF\u002A\u002A,1*%
%TO.N,GND*%
X165735000Y-150495000D03*
%TD*%
%TO.P,REF\u002A\u002A,1*%
%TO.N,GND*%
X163195000Y-150495000D03*
%TD*%
%TO.P,REF\u002A\u002A,1*%
%TO.N,GND*%
X158115000Y-150495000D03*
%TD*%
%TO.P,REF\u002A\u002A,1*%
%TO.N,GND*%
X160655000Y-150495000D03*
%TD*%
%TO.P,REF\u002A\u002A,1*%
%TO.N,GND*%
X155575000Y-150495000D03*
%TD*%
%TO.P,REF\u002A\u002A,1*%
%TO.N,GND*%
X153035000Y-150495000D03*
%TD*%
%TO.P,REF\u002A\u002A,1*%
%TO.N,GND*%
X150495000Y-150495000D03*
%TD*%
%TO.P,REF\u002A\u002A,1*%
%TO.N,GND*%
X147955000Y-150495000D03*
%TD*%
%TO.P,REF\u002A\u002A,1*%
%TO.N,N/C*%
X131445000Y-144780000D03*
%TD*%
%TO.P,REF\u002A\u002A,1*%
%TO.N,N/C*%
X131445000Y-142240000D03*
%TD*%
%TO.P,REF\u002A\u002A,1*%
%TO.N,N/C*%
X131445000Y-139700000D03*
%TD*%
%TO.P,REF\u002A\u002A,1*%
%TO.N,N/C*%
X131445000Y-137160000D03*
%TD*%
%TO.P,REF\u002A\u002A,1*%
%TO.N,N/C*%
X131445000Y-134620000D03*
%TD*%
%TO.P,REF\u002A\u002A,1*%
%TO.N,N/C*%
X133985000Y-144780000D03*
%TD*%
%TO.P,REF\u002A\u002A,1*%
%TO.N,N/C*%
X133985000Y-142240000D03*
%TD*%
%TO.P,REF\u002A\u002A,1*%
%TO.N,N/C*%
X133985000Y-139700000D03*
%TD*%
%TO.P,REF\u002A\u002A,1*%
%TO.N,N/C*%
X133985000Y-134620000D03*
%TD*%
%TO.P,REF\u002A\u002A,1*%
%TO.N,N/C*%
X133985000Y-137160000D03*
%TD*%
%TO.P,REF\u002A\u002A,1*%
%TO.N,N/C*%
X133985000Y-147320000D03*
%TD*%
%TO.P,REF\u002A\u002A,1*%
%TO.N,N/C*%
X136525000Y-144780000D03*
%TD*%
%TO.P,REF\u002A\u002A,1*%
%TO.N,N/C*%
X136525000Y-142240000D03*
%TD*%
%TO.P,REF\u002A\u002A,1*%
%TO.N,N/C*%
X136525000Y-139700000D03*
%TD*%
%TO.P,REF\u002A\u002A,1*%
%TO.N,N/C*%
X136525000Y-134620000D03*
%TD*%
%TO.P,REF\u002A\u002A,1*%
%TO.N,N/C*%
X136525000Y-137160000D03*
%TD*%
%TO.P,REF\u002A\u002A,1*%
%TO.N,N/C*%
X139065000Y-142240000D03*
%TD*%
%TO.P,REF\u002A\u002A,1*%
%TO.N,N/C*%
X139065000Y-139700000D03*
%TD*%
%TO.P,REF\u002A\u002A,1*%
%TO.N,N/C*%
X139065000Y-137160000D03*
%TD*%
%TO.P,REF\u002A\u002A,1*%
%TO.N,N/C*%
X139065000Y-134620000D03*
%TD*%
%TO.P,REF\u002A\u002A,1*%
%TO.N,N/C*%
X141605000Y-139700000D03*
%TD*%
%TO.P,REF\u002A\u002A,1*%
%TO.N,N/C*%
X141605000Y-142240000D03*
%TD*%
%TO.P,REF\u002A\u002A,1*%
%TO.N,N/C*%
X141605000Y-134620000D03*
%TD*%
%TO.P,REF\u002A\u002A,1*%
%TO.N,N/C*%
X141605000Y-137160000D03*
%TD*%
%TO.P,REF\u002A\u002A,1*%
%TO.N,N/C*%
X144145000Y-134620000D03*
%TD*%
%TO.P,REF\u002A\u002A,1*%
%TO.N,N/C*%
X144145000Y-139700000D03*
%TD*%
%TO.P,REF\u002A\u002A,1*%
%TO.N,N/C*%
X144145000Y-137160000D03*
%TD*%
%TO.P,REF\u002A\u002A,1*%
%TO.N,N/C*%
X144145000Y-142240000D03*
%TD*%
%TO.P,REF\u002A\u002A,1*%
%TO.N,N/C*%
X146685000Y-142240000D03*
%TD*%
%TO.P,REF\u002A\u002A,1*%
%TO.N,N/C*%
X146685000Y-139700000D03*
%TD*%
%TO.P,REF\u002A\u002A,1*%
%TO.N,N/C*%
X146685000Y-137160000D03*
%TD*%
%TO.P,REF\u002A\u002A,1*%
%TO.N,N/C*%
X146685000Y-134620000D03*
%TD*%
%TO.P,REF\u002A\u002A,1*%
%TO.N,N/C*%
X149225000Y-144780000D03*
%TD*%
%TO.P,REF\u002A\u002A,1*%
%TO.N,N/C*%
X149225000Y-142240000D03*
%TD*%
%TO.P,REF\u002A\u002A,1*%
%TO.N,N/C*%
X149225000Y-139700000D03*
%TD*%
%TO.P,REF\u002A\u002A,1*%
%TO.N,N/C*%
X149225000Y-134620000D03*
%TD*%
%TO.P,REF\u002A\u002A,1*%
%TO.N,N/C*%
X149225000Y-137160000D03*
%TD*%
%TO.P,REF\u002A\u002A,1*%
%TO.N,N/C*%
X149225000Y-147320000D03*
%TD*%
%TO.P,REF\u002A\u002A,1*%
%TO.N,N/C*%
X151765000Y-147320000D03*
%TD*%
%TO.P,REF\u002A\u002A,1*%
%TO.N,N/C*%
X151765000Y-134620000D03*
%TD*%
%TO.P,REF\u002A\u002A,1*%
%TO.N,N/C*%
X151765000Y-139700000D03*
%TD*%
%TO.P,REF\u002A\u002A,1*%
%TO.N,N/C*%
X151765000Y-144780000D03*
%TD*%
%TO.P,REF\u002A\u002A,1*%
%TO.N,N/C*%
X151765000Y-142240000D03*
%TD*%
%TO.P,REF\u002A\u002A,1*%
%TO.N,N/C*%
X151765000Y-137160000D03*
%TD*%
%TO.P,REF\u002A\u002A,1*%
%TO.N,N/C*%
X154305000Y-139700000D03*
%TD*%
%TO.P,REF\u002A\u002A,1*%
%TO.N,N/C*%
X154305000Y-142240000D03*
%TD*%
%TO.P,REF\u002A\u002A,1*%
%TO.N,N/C*%
X154305000Y-144780000D03*
%TD*%
%TO.P,REF\u002A\u002A,1*%
%TO.N,N/C*%
X154305000Y-137160000D03*
%TD*%
%TO.P,REF\u002A\u002A,1*%
%TO.N,N/C*%
X154305000Y-147320000D03*
%TD*%
%TO.P,REF\u002A\u002A,1*%
%TO.N,N/C*%
X154305000Y-134620000D03*
%TD*%
%TO.P,REF\u002A\u002A,1*%
%TO.N,N/C*%
X156845000Y-142240000D03*
%TD*%
%TO.P,REF\u002A\u002A,1*%
%TO.N,N/C*%
X156845000Y-144780000D03*
%TD*%
%TO.P,REF\u002A\u002A,1*%
%TO.N,N/C*%
X156845000Y-147320000D03*
%TD*%
%TO.P,REF\u002A\u002A,1*%
%TO.N,N/C*%
X156845000Y-134620000D03*
%TD*%
%TO.P,REF\u002A\u002A,1*%
%TO.N,N/C*%
X156845000Y-137160000D03*
%TD*%
%TO.P,REF\u002A\u002A,1*%
%TO.N,N/C*%
X156845000Y-139700000D03*
%TD*%
%TO.P,REF\u002A\u002A,1*%
%TO.N,N/C*%
X159385000Y-142240000D03*
%TD*%
%TO.P,REF\u002A\u002A,1*%
%TO.N,N/C*%
X159385000Y-144780000D03*
%TD*%
%TO.P,REF\u002A\u002A,1*%
%TO.N,N/C*%
X159385000Y-147320000D03*
%TD*%
%TO.P,REF\u002A\u002A,1*%
%TO.N,N/C*%
X159385000Y-137160000D03*
%TD*%
%TO.P,REF\u002A\u002A,1*%
%TO.N,N/C*%
X159385000Y-134620000D03*
%TD*%
%TO.P,REF\u002A\u002A,1*%
%TO.N,N/C*%
X159385000Y-139700000D03*
%TD*%
%TO.P,REF\u002A\u002A,1*%
%TO.N,N/C*%
X161925000Y-142240000D03*
%TD*%
%TO.P,REF\u002A\u002A,1*%
%TO.N,N/C*%
X161925000Y-144780000D03*
%TD*%
%TO.P,REF\u002A\u002A,1*%
%TO.N,N/C*%
X161925000Y-147320000D03*
%TD*%
%TO.P,REF\u002A\u002A,1*%
%TO.N,N/C*%
X161925000Y-137160000D03*
%TD*%
%TO.P,REF\u002A\u002A,1*%
%TO.N,N/C*%
X161925000Y-134620000D03*
%TD*%
%TO.P,REF\u002A\u002A,1*%
%TO.N,N/C*%
X161925000Y-139700000D03*
%TD*%
%TO.P,REF\u002A\u002A,1*%
%TO.N,N/C*%
X164465000Y-137160000D03*
%TD*%
%TO.P,REF\u002A\u002A,1*%
%TO.N,N/C*%
X164465000Y-147320000D03*
%TD*%
%TO.P,REF\u002A\u002A,1*%
%TO.N,N/C*%
X164465000Y-139700000D03*
%TD*%
%TO.P,REF\u002A\u002A,1*%
%TO.N,N/C*%
X164465000Y-134620000D03*
%TD*%
%TO.P,REF\u002A\u002A,1*%
%TO.N,N/C*%
X164465000Y-144780000D03*
%TD*%
%TO.P,REF\u002A\u002A,1*%
%TO.N,N/C*%
X164465000Y-142240000D03*
%TD*%
%TO.P,REF\u002A\u002A,1*%
%TO.N,N/C*%
X167005000Y-142240000D03*
%TD*%
%TO.P,REF\u002A\u002A,1*%
%TO.N,N/C*%
X167005000Y-137160000D03*
%TD*%
%TO.P,REF\u002A\u002A,1*%
%TO.N,N/C*%
X167005000Y-144780000D03*
%TD*%
%TO.P,REF\u002A\u002A,1*%
%TO.N,N/C*%
X167005000Y-134620000D03*
%TD*%
%TO.P,REF\u002A\u002A,1*%
%TO.N,N/C*%
X167005000Y-147320000D03*
%TD*%
%TO.P,REF\u002A\u002A,1*%
%TO.N,N/C*%
X167005000Y-139700000D03*
%TD*%
%TO.P,REF\u002A\u002A,1*%
%TO.N,N/C*%
X169545000Y-142240000D03*
%TD*%
%TO.P,REF\u002A\u002A,1*%
%TO.N,N/C*%
X169545000Y-147320000D03*
%TD*%
%TO.P,REF\u002A\u002A,1*%
%TO.N,N/C*%
X169545000Y-144780000D03*
%TD*%
%TO.P,REF\u002A\u002A,1*%
%TO.N,N/C*%
X169545000Y-137160000D03*
%TD*%
%TO.P,REF\u002A\u002A,1*%
%TO.N,N/C*%
X169545000Y-139700000D03*
%TD*%
%TO.P,REF\u002A\u002A,1*%
%TO.N,N/C*%
X169545000Y-134620000D03*
%TD*%
%TO.P,REF\u002A\u002A,1*%
%TO.N,N/C*%
X172085000Y-134620000D03*
%TD*%
%TO.P,REF\u002A\u002A,1*%
%TO.N,N/C*%
X172085000Y-137160000D03*
%TD*%
%TO.P,REF\u002A\u002A,1*%
%TO.N,N/C*%
X172085000Y-142240000D03*
%TD*%
%TO.P,REF\u002A\u002A,1*%
%TO.N,N/C*%
X172085000Y-147320000D03*
%TD*%
%TO.P,REF\u002A\u002A,1*%
%TO.N,N/C*%
X172085000Y-139700000D03*
%TD*%
%TO.P,REF\u002A\u002A,1*%
%TO.N,N/C*%
X172085000Y-144780000D03*
%TD*%
%TO.P,REF\u002A\u002A,1*%
%TO.N,N/C*%
X179705000Y-142240000D03*
%TD*%
%TO.P,REF\u002A\u002A,1*%
%TO.N,N/C*%
X184785000Y-134620000D03*
%TD*%
%TO.P,REF\u002A\u002A,1*%
%TO.N,N/C*%
X174625000Y-137160000D03*
%TD*%
%TO.P,REF\u002A\u002A,1*%
%TO.N,N/C*%
X182245000Y-134620000D03*
%TD*%
%TO.P,REF\u002A\u002A,1*%
%TO.N,N/C*%
X184785000Y-142240000D03*
%TD*%
%TO.P,REF\u002A\u002A,1*%
%TO.N,N/C*%
X177165000Y-142240000D03*
%TD*%
%TO.P,REF\u002A\u002A,1*%
%TO.N,N/C*%
X174625000Y-139700000D03*
%TD*%
%TO.P,REF\u002A\u002A,1*%
%TO.N,N/C*%
X182245000Y-137160000D03*
%TD*%
%TO.P,REF\u002A\u002A,1*%
%TO.N,N/C*%
X174625000Y-134620000D03*
%TD*%
%TO.P,REF\u002A\u002A,1*%
%TO.N,N/C*%
X177165000Y-137160000D03*
%TD*%
%TO.P,REF\u002A\u002A,1*%
%TO.N,N/C*%
X179705000Y-137160000D03*
%TD*%
%TO.P,REF\u002A\u002A,1*%
%TO.N,N/C*%
X182245000Y-142240000D03*
%TD*%
%TO.P,REF\u002A\u002A,1*%
%TO.N,N/C*%
X184785000Y-137160000D03*
%TD*%
%TO.P,REF\u002A\u002A,1*%
%TO.N,N/C*%
X184785000Y-139700000D03*
%TD*%
%TO.P,REF\u002A\u002A,1*%
%TO.N,N/C*%
X179705000Y-139700000D03*
%TD*%
%TO.P,REF\u002A\u002A,1*%
%TO.N,N/C*%
X182245000Y-139700000D03*
%TD*%
%TO.P,REF\u002A\u002A,1*%
%TO.N,N/C*%
X177165000Y-134620000D03*
%TD*%
%TO.P,REF\u002A\u002A,1*%
%TO.N,N/C*%
X174625000Y-142240000D03*
%TD*%
%TO.P,REF\u002A\u002A,1*%
%TO.N,N/C*%
X177165000Y-139700000D03*
%TD*%
%TO.P,REF\u002A\u002A,1*%
%TO.N,N/C*%
X179705000Y-134620000D03*
%TD*%
%TO.P,REF\u002A\u002A,1*%
%TO.N,N/C*%
X187325000Y-139700000D03*
%TD*%
%TO.P,REF\u002A\u002A,1*%
%TO.N,N/C*%
X187325000Y-144780000D03*
%TD*%
%TO.P,REF\u002A\u002A,1*%
%TO.N,N/C*%
X189865000Y-134620000D03*
%TD*%
%TO.P,REF\u002A\u002A,1*%
%TO.N,N/C*%
X187325000Y-142240000D03*
%TD*%
%TO.P,REF\u002A\u002A,1*%
%TO.N,N/C*%
X187325000Y-134620000D03*
%TD*%
%TO.P,REF\u002A\u002A,1*%
%TO.N,N/C*%
X189865000Y-139700000D03*
%TD*%
%TO.P,REF\u002A\u002A,1*%
%TO.N,N/C*%
X189865000Y-144780000D03*
%TD*%
%TO.P,REF\u002A\u002A,1*%
%TO.N,N/C*%
X187325000Y-137160000D03*
%TD*%
%TO.P,REF\u002A\u002A,1*%
%TO.N,N/C*%
X189865000Y-137160000D03*
%TD*%
%TO.P,REF\u002A\u002A,1*%
%TO.N,N/C*%
X189865000Y-142240000D03*
%TD*%
%TO.P,REF\u002A\u002A,1*%
%TO.N,N/C*%
X189865000Y-147320000D03*
%TD*%
%TO.P,REF\u002A\u002A,1*%
%TO.N,N/C*%
X187325000Y-147320000D03*
%TD*%
%TO.P,REF\u002A\u002A,1*%
%TO.N,N/C*%
X184785000Y-144780000D03*
%TD*%
%TO.P,REF\u002A\u002A,1*%
%TO.N,N/C*%
X131445000Y-132080000D03*
%TD*%
%TO.P,REF\u002A\u002A,1*%
%TO.N,N/C*%
X189865000Y-132080000D03*
%TD*%
%TO.P,REF\u002A\u002A,1*%
%TO.N,N/C*%
X187325000Y-132080000D03*
%TD*%
%TO.P,REF\u002A\u002A,1*%
%TO.N,N/C*%
X146685000Y-132080000D03*
%TD*%
%TO.P,REF\u002A\u002A,1*%
%TO.N,N/C*%
X144145000Y-132080000D03*
%TD*%
%TO.P,REF\u002A\u002A,1*%
%TO.N,N/C*%
X141605000Y-132080000D03*
%TD*%
%TO.P,REF\u002A\u002A,1*%
%TO.N,N/C*%
X149225000Y-132080000D03*
%TD*%
%TO.P,REF\u002A\u002A,1*%
%TO.N,N/C*%
X136525000Y-132080000D03*
%TD*%
%TO.P,REF\u002A\u002A,1*%
%TO.N,N/C*%
X139065000Y-132080000D03*
%TD*%
%TO.P,REF\u002A\u002A,1*%
%TO.N,N/C*%
X154305000Y-132080000D03*
%TD*%
%TO.P,REF\u002A\u002A,1*%
%TO.N,N/C*%
X156845000Y-132080000D03*
%TD*%
%TO.P,REF\u002A\u002A,1*%
%TO.N,N/C*%
X159385000Y-132080000D03*
%TD*%
%TO.P,REF\u002A\u002A,1*%
%TO.N,N/C*%
X151765000Y-132080000D03*
%TD*%
%TO.P,REF\u002A\u002A,1*%
%TO.N,N/C*%
X172085000Y-132080000D03*
%TD*%
%TO.P,REF\u002A\u002A,1*%
%TO.N,N/C*%
X169545000Y-132080000D03*
%TD*%
%TO.P,REF\u002A\u002A,1*%
%TO.N,N/C*%
X161925000Y-132080000D03*
%TD*%
%TO.P,REF\u002A\u002A,1*%
%TO.N,N/C*%
X184785000Y-132080000D03*
%TD*%
%TO.P,REF\u002A\u002A,1*%
%TO.N,N/C*%
X164465000Y-132080000D03*
%TD*%
%TO.P,REF\u002A\u002A,1*%
%TO.N,N/C*%
X167005000Y-132080000D03*
%TD*%
%TO.P,REF\u002A\u002A,1*%
%TO.N,N/C*%
X182245000Y-132080000D03*
%TD*%
%TO.P,REF\u002A\u002A,1*%
%TO.N,N/C*%
X177165000Y-132080000D03*
%TD*%
%TO.P,REF\u002A\u002A,1*%
%TO.N,N/C*%
X174625000Y-132080000D03*
%TD*%
%TO.P,REF\u002A\u002A,1*%
%TO.N,N/C*%
X179705000Y-132080000D03*
%TD*%
%TO.P,REF\u002A\u002A,1*%
%TO.N,N/C*%
X133985000Y-132080000D03*
%TD*%
%TO.P,REF\u002A\u002A,1*%
%TO.N,N/C*%
X156845000Y-129540000D03*
%TD*%
%TO.P,REF\u002A\u002A,1*%
%TO.N,N/C*%
X151765000Y-129540000D03*
%TD*%
%TO.P,REF\u002A\u002A,1*%
%TO.N,N/C*%
X184785000Y-129540000D03*
%TD*%
%TO.P,REF\u002A\u002A,1*%
%TO.N,N/C*%
X182245000Y-129540000D03*
%TD*%
%TO.P,REF\u002A\u002A,1*%
%TO.N,N/C*%
X136525000Y-129540000D03*
%TD*%
%TO.P,REF\u002A\u002A,1*%
%TO.N,N/C*%
X161925000Y-129540000D03*
%TD*%
%TO.P,REF\u002A\u002A,1*%
%TO.N,N/C*%
X187325000Y-129540000D03*
%TD*%
%TO.P,REF\u002A\u002A,1*%
%TO.N,N/C*%
X146685000Y-129540000D03*
%TD*%
%TO.P,REF\u002A\u002A,1*%
%TO.N,N/C*%
X149225000Y-129540000D03*
%TD*%
%TO.P,REF\u002A\u002A,1*%
%TO.N,N/C*%
X172085000Y-129540000D03*
%TD*%
%TO.P,REF\u002A\u002A,1*%
%TO.N,N/C*%
X164465000Y-129540000D03*
%TD*%
%TO.P,REF\u002A\u002A,1*%
%TO.N,N/C*%
X141605000Y-129540000D03*
%TD*%
%TO.P,REF\u002A\u002A,1*%
%TO.N,N/C*%
X131445000Y-129540000D03*
%TD*%
%TO.P,REF\u002A\u002A,1*%
%TO.N,N/C*%
X189865000Y-129540000D03*
%TD*%
%TO.P,REF\u002A\u002A,1*%
%TO.N,N/C*%
X144145000Y-129540000D03*
%TD*%
%TO.P,REF\u002A\u002A,1*%
%TO.N,N/C*%
X139065000Y-129540000D03*
%TD*%
%TO.P,REF\u002A\u002A,1*%
%TO.N,N/C*%
X154305000Y-129540000D03*
%TD*%
%TO.P,REF\u002A\u002A,1*%
%TO.N,N/C*%
X159385000Y-129540000D03*
%TD*%
%TO.P,REF\u002A\u002A,1*%
%TO.N,N/C*%
X169545000Y-129540000D03*
%TD*%
%TO.P,REF\u002A\u002A,1*%
%TO.N,N/C*%
X167005000Y-129540000D03*
%TD*%
%TO.P,REF\u002A\u002A,1*%
%TO.N,N/C*%
X177165000Y-129540000D03*
%TD*%
%TO.P,REF\u002A\u002A,1*%
%TO.N,N/C*%
X174625000Y-129540000D03*
%TD*%
%TO.P,REF\u002A\u002A,1*%
%TO.N,N/C*%
X179705000Y-129540000D03*
%TD*%
%TO.P,REF\u002A\u002A,1*%
%TO.N,N/C*%
X133985000Y-129540000D03*
%TD*%
%TO.P,REF\u002A\u002A,1*%
%TO.N,N/C*%
X139065000Y-127000000D03*
%TD*%
%TO.P,REF\u002A\u002A,1*%
%TO.N,N/C*%
X151765000Y-127000000D03*
%TD*%
%TO.P,REF\u002A\u002A,1*%
%TO.N,N/C*%
X136525000Y-127000000D03*
%TD*%
%TO.P,REF\u002A\u002A,1*%
%TO.N,N/C*%
X149225000Y-127000000D03*
%TD*%
%TO.P,REF\u002A\u002A,1*%
%TO.N,N/C*%
X169545000Y-127000000D03*
%TD*%
%TO.P,REF\u002A\u002A,1*%
%TO.N,N/C*%
X184785000Y-127000000D03*
%TD*%
%TO.P,REF\u002A\u002A,1*%
%TO.N,N/C*%
X187325000Y-127000000D03*
%TD*%
%TO.P,REF\u002A\u002A,1*%
%TO.N,N/C*%
X131445000Y-127000000D03*
%TD*%
%TO.P,REF\u002A\u002A,1*%
%TO.N,N/C*%
X154305000Y-127000000D03*
%TD*%
%TO.P,REF\u002A\u002A,1*%
%TO.N,N/C*%
X167005000Y-127000000D03*
%TD*%
%TO.P,REF\u002A\u002A,1*%
%TO.N,N/C*%
X179705000Y-127000000D03*
%TD*%
%TO.P,REF\u002A\u002A,1*%
%TO.N,N/C*%
X133985000Y-127000000D03*
%TD*%
%TO.P,REF\u002A\u002A,1*%
%TO.N,N/C*%
X159385000Y-127000000D03*
%TD*%
%TO.P,REF\u002A\u002A,1*%
%TO.N,N/C*%
X146685000Y-127000000D03*
%TD*%
%TO.P,REF\u002A\u002A,1*%
%TO.N,N/C*%
X189865000Y-127000000D03*
%TD*%
%TO.P,REF\u002A\u002A,1*%
%TO.N,N/C*%
X141605000Y-127000000D03*
%TD*%
%TO.P,REF\u002A\u002A,1*%
%TO.N,N/C*%
X156845000Y-127000000D03*
%TD*%
%TO.P,REF\u002A\u002A,1*%
%TO.N,N/C*%
X182245000Y-127000000D03*
%TD*%
%TO.P,REF\u002A\u002A,1*%
%TO.N,N/C*%
X174625000Y-127000000D03*
%TD*%
%TO.P,REF\u002A\u002A,1*%
%TO.N,N/C*%
X161925000Y-127000000D03*
%TD*%
%TO.P,REF\u002A\u002A,1*%
%TO.N,N/C*%
X144145000Y-127000000D03*
%TD*%
%TO.P,REF\u002A\u002A,1*%
%TO.N,N/C*%
X172085000Y-127000000D03*
%TD*%
%TO.P,REF\u002A\u002A,1*%
%TO.N,N/C*%
X164465000Y-127000000D03*
%TD*%
%TO.P,REF\u002A\u002A,1*%
%TO.N,N/C*%
X177165000Y-127000000D03*
%TD*%
%TO.P,REF\u002A\u002A,1*%
%TO.N,N/C*%
X151765000Y-124460000D03*
%TD*%
%TO.P,REF\u002A\u002A,1*%
%TO.N,N/C*%
X187325000Y-124460000D03*
%TD*%
%TO.P,REF\u002A\u002A,1*%
%TO.N,N/C*%
X139065000Y-124460000D03*
%TD*%
%TO.P,REF\u002A\u002A,1*%
%TO.N,N/C*%
X136525000Y-124460000D03*
%TD*%
%TO.P,REF\u002A\u002A,1*%
%TO.N,N/C*%
X169545000Y-124460000D03*
%TD*%
%TO.P,REF\u002A\u002A,1*%
%TO.N,N/C*%
X149225000Y-124460000D03*
%TD*%
%TO.P,REF\u002A\u002A,1*%
%TO.N,N/C*%
X154305000Y-124460000D03*
%TD*%
%TO.P,REF\u002A\u002A,1*%
%TO.N,N/C*%
X172085000Y-124460000D03*
%TD*%
%TO.P,REF\u002A\u002A,1*%
%TO.N,N/C*%
X184785000Y-124460000D03*
%TD*%
%TO.P,REF\u002A\u002A,1*%
%TO.N,N/C*%
X167005000Y-124460000D03*
%TD*%
%TO.P,REF\u002A\u002A,1*%
%TO.N,N/C*%
X133985000Y-124460000D03*
%TD*%
%TO.P,REF\u002A\u002A,1*%
%TO.N,N/C*%
X146685000Y-124460000D03*
%TD*%
%TO.P,REF\u002A\u002A,1*%
%TO.N,N/C*%
X161925000Y-124460000D03*
%TD*%
%TO.P,REF\u002A\u002A,1*%
%TO.N,N/C*%
X164465000Y-124460000D03*
%TD*%
%TO.P,REF\u002A\u002A,1*%
%TO.N,N/C*%
X159385000Y-124460000D03*
%TD*%
%TO.P,REF\u002A\u002A,1*%
%TO.N,N/C*%
X189865000Y-124460000D03*
%TD*%
%TO.P,REF\u002A\u002A,1*%
%TO.N,N/C*%
X174625000Y-124460000D03*
%TD*%
%TO.P,REF\u002A\u002A,1*%
%TO.N,N/C*%
X177165000Y-124460000D03*
%TD*%
%TO.P,REF\u002A\u002A,1*%
%TO.N,N/C*%
X141605000Y-124460000D03*
%TD*%
%TO.P,REF\u002A\u002A,1*%
%TO.N,N/C*%
X156845000Y-124460000D03*
%TD*%
%TO.P,REF\u002A\u002A,1*%
%TO.N,N/C*%
X182245000Y-124460000D03*
%TD*%
%TO.P,REF\u002A\u002A,1*%
%TO.N,N/C*%
X131445000Y-124460000D03*
%TD*%
%TO.P,REF\u002A\u002A,1*%
%TO.N,N/C*%
X144145000Y-124460000D03*
%TD*%
%TO.P,REF\u002A\u002A,1*%
%TO.N,N/C*%
X179705000Y-124460000D03*
%TD*%
%TO.P,REF\u002A\u002A,1*%
%TO.N,N/C*%
X187325000Y-121920000D03*
%TD*%
%TO.P,REF\u002A\u002A,1*%
%TO.N,N/C*%
X184785000Y-121920000D03*
%TD*%
%TO.P,REF\u002A\u002A,1*%
%TO.N,N/C*%
X172085000Y-121920000D03*
%TD*%
%TO.P,REF\u002A\u002A,1*%
%TO.N,N/C*%
X167005000Y-121920000D03*
%TD*%
%TO.P,REF\u002A\u002A,1*%
%TO.N,N/C*%
X133985000Y-121920000D03*
%TD*%
%TO.P,REF\u002A\u002A,1*%
%TO.N,N/C*%
X136525000Y-121920000D03*
%TD*%
%TO.P,REF\u002A\u002A,1*%
%TO.N,N/C*%
X139065000Y-121920000D03*
%TD*%
%TO.P,REF\u002A\u002A,1*%
%TO.N,N/C*%
X169545000Y-121920000D03*
%TD*%
%TO.P,REF\u002A\u002A,1*%
%TO.N,N/C*%
X149225000Y-121920000D03*
%TD*%
%TO.P,REF\u002A\u002A,1*%
%TO.N,N/C*%
X151765000Y-121920000D03*
%TD*%
%TO.P,REF\u002A\u002A,1*%
%TO.N,N/C*%
X154305000Y-121920000D03*
%TD*%
%TO.P,REF\u002A\u002A,1*%
%TO.N,N/C*%
X141605000Y-121920000D03*
%TD*%
%TO.P,REF\u002A\u002A,1*%
%TO.N,N/C*%
X174625000Y-121920000D03*
%TD*%
%TO.P,REF\u002A\u002A,1*%
%TO.N,N/C*%
X179705000Y-121920000D03*
%TD*%
%TO.P,REF\u002A\u002A,1*%
%TO.N,N/C*%
X189865000Y-121920000D03*
%TD*%
%TO.P,REF\u002A\u002A,1*%
%TO.N,N/C*%
X131445000Y-121920000D03*
%TD*%
%TO.P,REF\u002A\u002A,1*%
%TO.N,N/C*%
X159385000Y-121920000D03*
%TD*%
%TO.P,REF\u002A\u002A,1*%
%TO.N,N/C*%
X182245000Y-121920000D03*
%TD*%
%TO.P,REF\u002A\u002A,1*%
%TO.N,N/C*%
X161925000Y-121920000D03*
%TD*%
%TO.P,REF\u002A\u002A,1*%
%TO.N,N/C*%
X146685000Y-121920000D03*
%TD*%
%TO.P,REF\u002A\u002A,1*%
%TO.N,N/C*%
X156845000Y-121920000D03*
%TD*%
%TO.P,REF\u002A\u002A,1*%
%TO.N,N/C*%
X144145000Y-121920000D03*
%TD*%
%TO.P,REF\u002A\u002A,1*%
%TO.N,N/C*%
X177165000Y-121920000D03*
%TD*%
%TO.P,REF\u002A\u002A,1*%
%TO.N,N/C*%
X164465000Y-121920000D03*
%TD*%
%TO.P,REF\u002A\u002A,1*%
%TO.N,N/C*%
X172085000Y-119380000D03*
%TD*%
%TO.P,REF\u002A\u002A,1*%
%TO.N,N/C*%
X167005000Y-119380000D03*
%TD*%
%TO.P,REF\u002A\u002A,1*%
%TO.N,N/C*%
X139065000Y-119380000D03*
%TD*%
%TO.P,REF\u002A\u002A,1*%
%TO.N,N/C*%
X151765000Y-119380000D03*
%TD*%
%TO.P,REF\u002A\u002A,1*%
%TO.N,N/C*%
X179705000Y-119380000D03*
%TD*%
%TO.P,REF\u002A\u002A,1*%
%TO.N,N/C*%
X184785000Y-119380000D03*
%TD*%
%TO.P,REF\u002A\u002A,1*%
%TO.N,N/C*%
X133985000Y-119380000D03*
%TD*%
%TO.P,REF\u002A\u002A,1*%
%TO.N,N/C*%
X169545000Y-119380000D03*
%TD*%
%TO.P,REF\u002A\u002A,1*%
%TO.N,N/C*%
X141605000Y-119380000D03*
%TD*%
%TO.P,REF\u002A\u002A,1*%
%TO.N,N/C*%
X174625000Y-119380000D03*
%TD*%
%TO.P,REF\u002A\u002A,1*%
%TO.N,N/C*%
X131445000Y-119380000D03*
%TD*%
%TO.P,REF\u002A\u002A,1*%
%TO.N,N/C*%
X161925000Y-119380000D03*
%TD*%
%TO.P,REF\u002A\u002A,1*%
%TO.N,N/C*%
X146685000Y-119380000D03*
%TD*%
%TO.P,REF\u002A\u002A,1*%
%TO.N,N/C*%
X144145000Y-119380000D03*
%TD*%
%TO.P,REF\u002A\u002A,1*%
%TO.N,N/C*%
X156845000Y-119380000D03*
%TD*%
%TO.P,REF\u002A\u002A,1*%
%TO.N,N/C*%
X136525000Y-119380000D03*
%TD*%
%TO.P,REF\u002A\u002A,1*%
%TO.N,N/C*%
X177165000Y-119380000D03*
%TD*%
%TO.P,REF\u002A\u002A,1*%
%TO.N,N/C*%
X189865000Y-119380000D03*
%TD*%
%TO.P,REF\u002A\u002A,1*%
%TO.N,N/C*%
X187325000Y-119380000D03*
%TD*%
%TO.P,REF\u002A\u002A,1*%
%TO.N,N/C*%
X154305000Y-119380000D03*
%TD*%
%TO.P,REF\u002A\u002A,1*%
%TO.N,N/C*%
X159385000Y-119380000D03*
%TD*%
%TO.P,REF\u002A\u002A,1*%
%TO.N,N/C*%
X182245000Y-119380000D03*
%TD*%
%TO.P,REF\u002A\u002A,1*%
%TO.N,N/C*%
X164465000Y-119380000D03*
%TD*%
%TO.P,REF\u002A\u002A,1*%
%TO.N,N/C*%
X149225000Y-119380000D03*
%TD*%
%TO.P,REF\u002A\u002A,1*%
%TO.N,N/C*%
X172085000Y-116840000D03*
%TD*%
%TO.P,REF\u002A\u002A,1*%
%TO.N,N/C*%
X133985000Y-116840000D03*
%TD*%
%TO.P,REF\u002A\u002A,1*%
%TO.N,N/C*%
X156845000Y-116840000D03*
%TD*%
%TO.P,REF\u002A\u002A,1*%
%TO.N,N/C*%
X161925000Y-116840000D03*
%TD*%
%TO.P,REF\u002A\u002A,1*%
%TO.N,N/C*%
X154305000Y-116840000D03*
%TD*%
%TO.P,REF\u002A\u002A,1*%
%TO.N,N/C*%
X139065000Y-116840000D03*
%TD*%
%TO.P,REF\u002A\u002A,1*%
%TO.N,N/C*%
X151765000Y-116840000D03*
%TD*%
%TO.P,REF\u002A\u002A,1*%
%TO.N,N/C*%
X136525000Y-116840000D03*
%TD*%
%TO.P,REF\u002A\u002A,1*%
%TO.N,N/C*%
X159385000Y-116840000D03*
%TD*%
%TO.P,REF\u002A\u002A,1*%
%TO.N,N/C*%
X189865000Y-116840000D03*
%TD*%
%TO.P,REF\u002A\u002A,1*%
%TO.N,N/C*%
X167005000Y-116840000D03*
%TD*%
%TO.P,REF\u002A\u002A,1*%
%TO.N,N/C*%
X184785000Y-116840000D03*
%TD*%
%TO.P,REF\u002A\u002A,1*%
%TO.N,N/C*%
X174625000Y-116840000D03*
%TD*%
%TO.P,REF\u002A\u002A,1*%
%TO.N,N/C*%
X182245000Y-116840000D03*
%TD*%
%TO.P,REF\u002A\u002A,1*%
%TO.N,N/C*%
X144145000Y-116840000D03*
%TD*%
%TO.P,REF\u002A\u002A,1*%
%TO.N,N/C*%
X169545000Y-116840000D03*
%TD*%
%TO.P,REF\u002A\u002A,1*%
%TO.N,N/C*%
X177165000Y-116840000D03*
%TD*%
%TO.P,REF\u002A\u002A,1*%
%TO.N,N/C*%
X187325000Y-116840000D03*
%TD*%
%TO.P,REF\u002A\u002A,1*%
%TO.N,N/C*%
X164465000Y-116840000D03*
%TD*%
%TO.P,REF\u002A\u002A,1*%
%TO.N,N/C*%
X131445000Y-116840000D03*
%TD*%
%TO.P,REF\u002A\u002A,1*%
%TO.N,N/C*%
X146685000Y-116840000D03*
%TD*%
%TO.P,REF\u002A\u002A,1*%
%TO.N,N/C*%
X141605000Y-116840000D03*
%TD*%
%TO.P,REF\u002A\u002A,1*%
%TO.N,N/C*%
X149225000Y-116840000D03*
%TD*%
%TO.P,REF\u002A\u002A,1*%
%TO.N,N/C*%
X179705000Y-116840000D03*
%TD*%
%TO.P,REF\u002A\u002A,1*%
%TO.N,N/C*%
X172085000Y-114300000D03*
%TD*%
%TO.P,REF\u002A\u002A,1*%
%TO.N,N/C*%
X133985000Y-114300000D03*
%TD*%
%TO.P,REF\u002A\u002A,1*%
%TO.N,N/C*%
X156845000Y-114300000D03*
%TD*%
%TO.P,REF\u002A\u002A,1*%
%TO.N,N/C*%
X154305000Y-114300000D03*
%TD*%
%TO.P,REF\u002A\u002A,1*%
%TO.N,N/C*%
X174625000Y-114300000D03*
%TD*%
%TO.P,REF\u002A\u002A,1*%
%TO.N,N/C*%
X131445000Y-114300000D03*
%TD*%
%TO.P,REF\u002A\u002A,1*%
%TO.N,N/C*%
X167005000Y-114300000D03*
%TD*%
%TO.P,REF\u002A\u002A,1*%
%TO.N,N/C*%
X146685000Y-114300000D03*
%TD*%
%TO.P,REF\u002A\u002A,1*%
%TO.N,N/C*%
X141605000Y-114300000D03*
%TD*%
%TO.P,REF\u002A\u002A,1*%
%TO.N,N/C*%
X149225000Y-114300000D03*
%TD*%
%TO.P,REF\u002A\u002A,1*%
%TO.N,N/C*%
X179705000Y-114300000D03*
%TD*%
%TO.P,REF\u002A\u002A,1*%
%TO.N,N/C*%
X164465000Y-114300000D03*
%TD*%
%TO.P,REF\u002A\u002A,1*%
%TO.N,N/C*%
X187325000Y-114300000D03*
%TD*%
%TO.P,REF\u002A\u002A,1*%
%TO.N,N/C*%
X184785000Y-114300000D03*
%TD*%
%TO.P,REF\u002A\u002A,1*%
%TO.N,N/C*%
X189865000Y-114300000D03*
%TD*%
%TO.P,REF\u002A\u002A,1*%
%TO.N,N/C*%
X182245000Y-114300000D03*
%TD*%
%TO.P,REF\u002A\u002A,1*%
%TO.N,N/C*%
X144145000Y-114300000D03*
%TD*%
%TO.P,REF\u002A\u002A,1*%
%TO.N,N/C*%
X161925000Y-114300000D03*
%TD*%
%TO.P,REF\u002A\u002A,1*%
%TO.N,N/C*%
X177165000Y-114300000D03*
%TD*%
%TO.P,REF\u002A\u002A,1*%
%TO.N,N/C*%
X159385000Y-114300000D03*
%TD*%
%TO.P,REF\u002A\u002A,1*%
%TO.N,N/C*%
X139065000Y-114300000D03*
%TD*%
%TO.P,REF\u002A\u002A,1*%
%TO.N,N/C*%
X136525000Y-114300000D03*
%TD*%
%TO.P,REF\u002A\u002A,1*%
%TO.N,N/C*%
X151765000Y-114300000D03*
%TD*%
%TO.P,REF\u002A\u002A,1*%
%TO.N,N/C*%
X169545000Y-114300000D03*
%TD*%
%TO.P,REF\u002A\u002A,1*%
%TO.N,N/C*%
X174625000Y-111760000D03*
%TD*%
%TO.P,REF\u002A\u002A,1*%
%TO.N,N/C*%
X182245000Y-111760000D03*
%TD*%
%TO.P,REF\u002A\u002A,1*%
%TO.N,N/C*%
X159385000Y-111760000D03*
%TD*%
%TO.P,REF\u002A\u002A,1*%
%TO.N,N/C*%
X179705000Y-111760000D03*
%TD*%
%TO.P,REF\u002A\u002A,1*%
%TO.N,N/C*%
X156845000Y-111760000D03*
%TD*%
%TO.P,REF\u002A\u002A,1*%
%TO.N,N/C*%
X164465000Y-111760000D03*
%TD*%
%TO.P,REF\u002A\u002A,1*%
%TO.N,N/C*%
X131445000Y-111760000D03*
%TD*%
%TO.P,REF\u002A\u002A,1*%
%TO.N,N/C*%
X154305000Y-111760000D03*
%TD*%
%TO.P,REF\u002A\u002A,1*%
%TO.N,N/C*%
X141605000Y-111760000D03*
%TD*%
%TO.P,REF\u002A\u002A,1*%
%TO.N,N/C*%
X177165000Y-111760000D03*
%TD*%
%TO.P,REF\u002A\u002A,1*%
%TO.N,N/C*%
X144145000Y-111760000D03*
%TD*%
%TO.P,REF\u002A\u002A,1*%
%TO.N,N/C*%
X136525000Y-111760000D03*
%TD*%
%TO.P,REF\u002A\u002A,1*%
%TO.N,N/C*%
X133985000Y-111760000D03*
%TD*%
%TO.P,REF\u002A\u002A,1*%
%TO.N,N/C*%
X184785000Y-111760000D03*
%TD*%
%TO.P,REF\u002A\u002A,1*%
%TO.N,N/C*%
X149225000Y-111760000D03*
%TD*%
%TO.P,REF\u002A\u002A,1*%
%TO.N,N/C*%
X189865000Y-111760000D03*
%TD*%
%TO.P,REF\u002A\u002A,1*%
%TO.N,N/C*%
X151765000Y-111760000D03*
%TD*%
%TO.P,REF\u002A\u002A,1*%
%TO.N,N/C*%
X187325000Y-111760000D03*
%TD*%
%TO.P,REF\u002A\u002A,1*%
%TO.N,N/C*%
X167005000Y-111760000D03*
%TD*%
%TO.P,REF\u002A\u002A,1*%
%TO.N,N/C*%
X146685000Y-111760000D03*
%TD*%
%TO.P,REF\u002A\u002A,1*%
%TO.N,N/C*%
X161925000Y-111760000D03*
%TD*%
%TO.P,REF\u002A\u002A,1*%
%TO.N,N/C*%
X139065000Y-111760000D03*
%TD*%
%TO.P,REF\u002A\u002A,1*%
%TO.N,N/C*%
X169545000Y-111760000D03*
%TD*%
%TO.P,REF\u002A\u002A,1*%
%TO.N,N/C*%
X172085000Y-111760000D03*
%TD*%
%TO.P,REF\u002A\u002A,1*%
%TO.N,N/C*%
X154305000Y-109220000D03*
%TD*%
%TO.P,REF\u002A\u002A,1*%
%TO.N,N/C*%
X133985000Y-109220000D03*
%TD*%
%TO.P,REF\u002A\u002A,1*%
%TO.N,N/C*%
X149225000Y-109220000D03*
%TD*%
%TO.P,REF\u002A\u002A,1*%
%TO.N,N/C*%
X151765000Y-109220000D03*
%TD*%
%TO.P,REF\u002A\u002A,1*%
%TO.N,N/C*%
X146685000Y-109220000D03*
%TD*%
%TO.P,REF\u002A\u002A,1*%
%TO.N,N/C*%
X159385000Y-109220000D03*
%TD*%
%TO.P,REF\u002A\u002A,1*%
%TO.N,N/C*%
X179705000Y-109220000D03*
%TD*%
%TO.P,REF\u002A\u002A,1*%
%TO.N,N/C*%
X141605000Y-109220000D03*
%TD*%
%TO.P,REF\u002A\u002A,1*%
%TO.N,N/C*%
X144145000Y-109220000D03*
%TD*%
%TO.P,REF\u002A\u002A,1*%
%TO.N,N/C*%
X174625000Y-109220000D03*
%TD*%
%TO.P,REF\u002A\u002A,1*%
%TO.N,N/C*%
X182245000Y-109220000D03*
%TD*%
%TO.P,REF\u002A\u002A,1*%
%TO.N,N/C*%
X164465000Y-109220000D03*
%TD*%
%TO.P,REF\u002A\u002A,1*%
%TO.N,N/C*%
X131445000Y-109220000D03*
%TD*%
%TO.P,REF\u002A\u002A,1*%
%TO.N,N/C*%
X156845000Y-109220000D03*
%TD*%
%TO.P,REF\u002A\u002A,1*%
%TO.N,N/C*%
X177165000Y-109220000D03*
%TD*%
%TO.P,REF\u002A\u002A,1*%
%TO.N,N/C*%
X136525000Y-109220000D03*
%TD*%
%TO.P,REF\u002A\u002A,1*%
%TO.N,N/C*%
X184785000Y-109220000D03*
%TD*%
%TO.P,REF\u002A\u002A,1*%
%TO.N,N/C*%
X189865000Y-109220000D03*
%TD*%
%TO.P,REF\u002A\u002A,1*%
%TO.N,N/C*%
X187325000Y-109220000D03*
%TD*%
%TO.P,REF\u002A\u002A,1*%
%TO.N,N/C*%
X167005000Y-109220000D03*
%TD*%
%TO.P,REF\u002A\u002A,1*%
%TO.N,N/C*%
X169545000Y-109220000D03*
%TD*%
%TO.P,REF\u002A\u002A,1*%
%TO.N,N/C*%
X139065000Y-109220000D03*
%TD*%
%TO.P,REF\u002A\u002A,1*%
%TO.N,N/C*%
X161925000Y-109220000D03*
%TD*%
%TO.P,REF\u002A\u002A,1*%
%TO.N,N/C*%
X172085000Y-109220000D03*
%TD*%
%TO.P,REF\u002A\u002A,1*%
%TO.N,N/C*%
X133985000Y-104140000D03*
%TD*%
%TO.P,REF\u002A\u002A,1*%
%TO.N,N/C*%
X131445000Y-106680000D03*
%TD*%
%TO.P,REF\u002A\u002A,1*%
%TO.N,N/C*%
X136525000Y-106680000D03*
%TD*%
%TO.P,REF\u002A\u002A,1*%
%TO.N,N/C*%
X131445000Y-104140000D03*
%TD*%
%TO.P,REF\u002A\u002A,1*%
%TO.N,N/C*%
X133985000Y-106680000D03*
%TD*%
%TO.P,REF\u002A\u002A,1*%
%TO.N,N/C*%
X136525000Y-104140000D03*
%TD*%
%TO.P,REF\u002A\u002A,1*%
%TO.N,N/C*%
X133985000Y-101600000D03*
%TD*%
%TO.P,REF\u002A\u002A,1*%
%TO.N,N/C*%
X131445000Y-101600000D03*
%TD*%
%TO.P,REF\u002A\u002A,1*%
%TO.N,N/C*%
X136525000Y-101600000D03*
%TD*%
%TO.P,REF\u002A\u002A,1*%
%TO.N,N/C*%
X174625000Y-106680000D03*
%TD*%
%TO.P,REF\u002A\u002A,1*%
%TO.N,N/C*%
X154305000Y-104140000D03*
%TD*%
%TO.P,REF\u002A\u002A,1*%
%TO.N,N/C*%
X182245000Y-106680000D03*
%TD*%
%TO.P,REF\u002A\u002A,1*%
%TO.N,N/C*%
X149225000Y-104140000D03*
%TD*%
%TO.P,REF\u002A\u002A,1*%
%TO.N,N/C*%
X151765000Y-104140000D03*
%TD*%
%TO.P,REF\u002A\u002A,1*%
%TO.N,N/C*%
X159385000Y-106680000D03*
%TD*%
%TO.P,REF\u002A\u002A,1*%
%TO.N,N/C*%
X146685000Y-104140000D03*
%TD*%
%TO.P,REF\u002A\u002A,1*%
%TO.N,N/C*%
X179705000Y-106680000D03*
%TD*%
%TO.P,REF\u002A\u002A,1*%
%TO.N,N/C*%
X159385000Y-104140000D03*
%TD*%
%TO.P,REF\u002A\u002A,1*%
%TO.N,N/C*%
X179705000Y-104140000D03*
%TD*%
%TO.P,REF\u002A\u002A,1*%
%TO.N,N/C*%
X156845000Y-106680000D03*
%TD*%
%TO.P,REF\u002A\u002A,1*%
%TO.N,N/C*%
X164465000Y-106680000D03*
%TD*%
%TO.P,REF\u002A\u002A,1*%
%TO.N,N/C*%
X154305000Y-106680000D03*
%TD*%
%TO.P,REF\u002A\u002A,1*%
%TO.N,N/C*%
X177165000Y-106680000D03*
%TD*%
%TO.P,REF\u002A\u002A,1*%
%TO.N,N/C*%
X174625000Y-104140000D03*
%TD*%
%TO.P,REF\u002A\u002A,1*%
%TO.N,N/C*%
X182245000Y-104140000D03*
%TD*%
%TO.P,REF\u002A\u002A,1*%
%TO.N,N/C*%
X164465000Y-104140000D03*
%TD*%
%TO.P,REF\u002A\u002A,1*%
%TO.N,N/C*%
X184785000Y-106680000D03*
%TD*%
%TO.P,REF\u002A\u002A,1*%
%TO.N,N/C*%
X149225000Y-106680000D03*
%TD*%
%TO.P,REF\u002A\u002A,1*%
%TO.N,N/C*%
X189865000Y-106680000D03*
%TD*%
%TO.P,REF\u002A\u002A,1*%
%TO.N,N/C*%
X151765000Y-106680000D03*
%TD*%
%TO.P,REF\u002A\u002A,1*%
%TO.N,N/C*%
X156845000Y-104140000D03*
%TD*%
%TO.P,REF\u002A\u002A,1*%
%TO.N,N/C*%
X187325000Y-106680000D03*
%TD*%
%TO.P,REF\u002A\u002A,1*%
%TO.N,N/C*%
X167005000Y-106680000D03*
%TD*%
%TO.P,REF\u002A\u002A,1*%
%TO.N,N/C*%
X146685000Y-106680000D03*
%TD*%
%TO.P,REF\u002A\u002A,1*%
%TO.N,N/C*%
X161925000Y-106680000D03*
%TD*%
%TO.P,REF\u002A\u002A,1*%
%TO.N,N/C*%
X169545000Y-106680000D03*
%TD*%
%TO.P,REF\u002A\u002A,1*%
%TO.N,N/C*%
X177165000Y-104140000D03*
%TD*%
%TO.P,REF\u002A\u002A,1*%
%TO.N,N/C*%
X184785000Y-104140000D03*
%TD*%
%TO.P,REF\u002A\u002A,1*%
%TO.N,N/C*%
X189865000Y-104140000D03*
%TD*%
%TO.P,REF\u002A\u002A,1*%
%TO.N,N/C*%
X187325000Y-104140000D03*
%TD*%
%TO.P,REF\u002A\u002A,1*%
%TO.N,N/C*%
X167005000Y-104140000D03*
%TD*%
%TO.P,REF\u002A\u002A,1*%
%TO.N,N/C*%
X169545000Y-104140000D03*
%TD*%
%TO.P,REF\u002A\u002A,1*%
%TO.N,N/C*%
X161925000Y-104140000D03*
%TD*%
%TO.P,REF\u002A\u002A,1*%
%TO.N,N/C*%
X172085000Y-104140000D03*
%TD*%
%TO.P,REF\u002A\u002A,1*%
%TO.N,N/C*%
X172085000Y-106680000D03*
%TD*%
%TO.P,REF\u002A\u002A,1*%
%TO.N,N/C*%
X149225000Y-101600000D03*
%TD*%
%TO.P,REF\u002A\u002A,1*%
%TO.N,N/C*%
X151765000Y-101600000D03*
%TD*%
%TO.P,REF\u002A\u002A,1*%
%TO.N,N/C*%
X146685000Y-101600000D03*
%TD*%
%TO.P,REF\u002A\u002A,1*%
%TO.N,N/C*%
X159385000Y-101600000D03*
%TD*%
%TO.P,REF\u002A\u002A,1*%
%TO.N,N/C*%
X174625000Y-101600000D03*
%TD*%
%TO.P,REF\u002A\u002A,1*%
%TO.N,N/C*%
X182245000Y-101600000D03*
%TD*%
%TO.P,REF\u002A\u002A,1*%
%TO.N,N/C*%
X154305000Y-101600000D03*
%TD*%
%TO.P,REF\u002A\u002A,1*%
%TO.N,N/C*%
X179705000Y-101600000D03*
%TD*%
%TO.P,REF\u002A\u002A,1*%
%TO.N,N/C*%
X164465000Y-101600000D03*
%TD*%
%TO.P,REF\u002A\u002A,1*%
%TO.N,N/C*%
X156845000Y-101600000D03*
%TD*%
%TO.P,REF\u002A\u002A,1*%
%TO.N,N/C*%
X177165000Y-101600000D03*
%TD*%
%TO.P,REF\u002A\u002A,1*%
%TO.N,N/C*%
X189865000Y-101600000D03*
%TD*%
%TO.P,REF\u002A\u002A,1*%
%TO.N,N/C*%
X169545000Y-101600000D03*
%TD*%
%TO.P,REF\u002A\u002A,1*%
%TO.N,N/C*%
X161925000Y-101600000D03*
%TD*%
%TO.P,REF\u002A\u002A,1*%
%TO.N,N/C*%
X187325000Y-101600000D03*
%TD*%
%TO.P,REF\u002A\u002A,1*%
%TO.N,N/C*%
X167005000Y-101600000D03*
%TD*%
%TO.P,REF\u002A\u002A,1*%
%TO.N,N/C*%
X184785000Y-101600000D03*
%TD*%
%TO.P,REF\u002A\u002A,1*%
%TO.N,N/C*%
X172085000Y-101600000D03*
%TD*%
%TO.P,REF\u002A\u002A,1*%
%TO.N,N/C*%
X187325000Y-83820000D03*
%TD*%
%TO.P,REF\u002A\u002A,1*%
%TO.N,N/C*%
X184785000Y-83820000D03*
%TD*%
%TO.P,REF\u002A\u002A,1*%
%TO.N,N/C*%
X172085000Y-83820000D03*
%TD*%
%TO.P,REF\u002A\u002A,1*%
%TO.N,N/C*%
X167005000Y-83820000D03*
%TD*%
%TO.P,REF\u002A\u002A,1*%
%TO.N,N/C*%
X133985000Y-83820000D03*
%TD*%
%TO.P,REF\u002A\u002A,1*%
%TO.N,N/C*%
X136525000Y-83820000D03*
%TD*%
%TO.P,REF\u002A\u002A,1*%
%TO.N,N/C*%
X139065000Y-83820000D03*
%TD*%
%TO.P,REF\u002A\u002A,1*%
%TO.N,N/C*%
X169545000Y-83820000D03*
%TD*%
%TO.P,REF\u002A\u002A,1*%
%TO.N,N/C*%
X149225000Y-83820000D03*
%TD*%
%TO.P,REF\u002A\u002A,1*%
%TO.N,N/C*%
X151765000Y-83820000D03*
%TD*%
%TO.P,REF\u002A\u002A,1*%
%TO.N,N/C*%
X154305000Y-83820000D03*
%TD*%
%TO.P,REF\u002A\u002A,1*%
%TO.N,N/C*%
X131445000Y-99060000D03*
%TD*%
%TO.P,REF\u002A\u002A,1*%
%TO.N,N/C*%
X131445000Y-93980000D03*
%TD*%
%TO.P,REF\u002A\u002A,1*%
%TO.N,N/C*%
X131445000Y-96520000D03*
%TD*%
%TO.P,REF\u002A\u002A,1*%
%TO.N,N/C*%
X189865000Y-99060000D03*
%TD*%
%TO.P,REF\u002A\u002A,1*%
%TO.N,N/C*%
X189865000Y-96520000D03*
%TD*%
%TO.P,REF\u002A\u002A,1*%
%TO.N,N/C*%
X187325000Y-99060000D03*
%TD*%
%TO.P,REF\u002A\u002A,1*%
%TO.N,N/C*%
X156845000Y-91440000D03*
%TD*%
%TO.P,REF\u002A\u002A,1*%
%TO.N,N/C*%
X151765000Y-91440000D03*
%TD*%
%TO.P,REF\u002A\u002A,1*%
%TO.N,N/C*%
X184785000Y-91440000D03*
%TD*%
%TO.P,REF\u002A\u002A,1*%
%TO.N,N/C*%
X182245000Y-91440000D03*
%TD*%
%TO.P,REF\u002A\u002A,1*%
%TO.N,N/C*%
X187325000Y-96520000D03*
%TD*%
%TO.P,REF\u002A\u002A,1*%
%TO.N,N/C*%
X136525000Y-91440000D03*
%TD*%
%TO.P,REF\u002A\u002A,1*%
%TO.N,N/C*%
X161925000Y-91440000D03*
%TD*%
%TO.P,REF\u002A\u002A,1*%
%TO.N,N/C*%
X187325000Y-91440000D03*
%TD*%
%TO.P,REF\u002A\u002A,1*%
%TO.N,N/C*%
X146685000Y-91440000D03*
%TD*%
%TO.P,REF\u002A\u002A,1*%
%TO.N,N/C*%
X149225000Y-91440000D03*
%TD*%
%TO.P,REF\u002A\u002A,1*%
%TO.N,N/C*%
X172085000Y-91440000D03*
%TD*%
%TO.P,REF\u002A\u002A,1*%
%TO.N,N/C*%
X164465000Y-91440000D03*
%TD*%
%TO.P,REF\u002A\u002A,1*%
%TO.N,N/C*%
X141605000Y-91440000D03*
%TD*%
%TO.P,REF\u002A\u002A,1*%
%TO.N,N/C*%
X131445000Y-91440000D03*
%TD*%
%TO.P,REF\u002A\u002A,1*%
%TO.N,N/C*%
X189865000Y-91440000D03*
%TD*%
%TO.P,REF\u002A\u002A,1*%
%TO.N,N/C*%
X144145000Y-91440000D03*
%TD*%
%TO.P,REF\u002A\u002A,1*%
%TO.N,N/C*%
X189865000Y-93980000D03*
%TD*%
%TO.P,REF\u002A\u002A,1*%
%TO.N,N/C*%
X187325000Y-93980000D03*
%TD*%
%TO.P,REF\u002A\u002A,1*%
%TO.N,N/C*%
X139065000Y-91440000D03*
%TD*%
%TO.P,REF\u002A\u002A,1*%
%TO.N,N/C*%
X154305000Y-91440000D03*
%TD*%
%TO.P,REF\u002A\u002A,1*%
%TO.N,N/C*%
X159385000Y-91440000D03*
%TD*%
%TO.P,REF\u002A\u002A,1*%
%TO.N,N/C*%
X169545000Y-91440000D03*
%TD*%
%TO.P,REF\u002A\u002A,1*%
%TO.N,N/C*%
X167005000Y-91440000D03*
%TD*%
%TO.P,REF\u002A\u002A,1*%
%TO.N,N/C*%
X177165000Y-91440000D03*
%TD*%
%TO.P,REF\u002A\u002A,1*%
%TO.N,N/C*%
X174625000Y-91440000D03*
%TD*%
%TO.P,REF\u002A\u002A,1*%
%TO.N,N/C*%
X179705000Y-91440000D03*
%TD*%
%TO.P,REF\u002A\u002A,1*%
%TO.N,N/C*%
X133985000Y-91440000D03*
%TD*%
%TO.P,REF\u002A\u002A,1*%
%TO.N,N/C*%
X174625000Y-73660000D03*
%TD*%
%TO.P,REF\u002A\u002A,1*%
%TO.N,N/C*%
X154305000Y-71120000D03*
%TD*%
%TO.P,REF\u002A\u002A,1*%
%TO.N,N/C*%
X182245000Y-73660000D03*
%TD*%
%TO.P,REF\u002A\u002A,1*%
%TO.N,N/C*%
X133985000Y-71120000D03*
%TD*%
%TO.P,REF\u002A\u002A,1*%
%TO.N,N/C*%
X149225000Y-71120000D03*
%TD*%
%TO.P,REF\u002A\u002A,1*%
%TO.N,N/C*%
X151765000Y-71120000D03*
%TD*%
%TO.P,REF\u002A\u002A,1*%
%TO.N,N/C*%
X159385000Y-73660000D03*
%TD*%
%TO.P,REF\u002A\u002A,1*%
%TO.N,N/C*%
X146685000Y-71120000D03*
%TD*%
%TO.P,REF\u002A\u002A,1*%
%TO.N,N/C*%
X179705000Y-73660000D03*
%TD*%
%TO.P,REF\u002A\u002A,1*%
%TO.N,N/C*%
X159385000Y-71120000D03*
%TD*%
%TO.P,REF\u002A\u002A,1*%
%TO.N,N/C*%
X179705000Y-71120000D03*
%TD*%
%TO.P,REF\u002A\u002A,1*%
%TO.N,N/C*%
X141605000Y-71120000D03*
%TD*%
%TO.P,REF\u002A\u002A,1*%
%TO.N,N/C*%
X144145000Y-71120000D03*
%TD*%
%TO.P,REF\u002A\u002A,1*%
%TO.N,N/C*%
X156845000Y-73660000D03*
%TD*%
%TO.P,REF\u002A\u002A,1*%
%TO.N,N/C*%
X164465000Y-73660000D03*
%TD*%
%TO.P,REF\u002A\u002A,1*%
%TO.N,N/C*%
X131445000Y-73660000D03*
%TD*%
%TO.P,REF\u002A\u002A,1*%
%TO.N,N/C*%
X154305000Y-73660000D03*
%TD*%
%TO.P,REF\u002A\u002A,1*%
%TO.N,N/C*%
X141605000Y-73660000D03*
%TD*%
%TO.P,REF\u002A\u002A,1*%
%TO.N,N/C*%
X177165000Y-73660000D03*
%TD*%
%TO.P,REF\u002A\u002A,1*%
%TO.N,N/C*%
X174625000Y-71120000D03*
%TD*%
%TO.P,REF\u002A\u002A,1*%
%TO.N,N/C*%
X144145000Y-73660000D03*
%TD*%
%TO.P,REF\u002A\u002A,1*%
%TO.N,N/C*%
X136525000Y-73660000D03*
%TD*%
%TO.P,REF\u002A\u002A,1*%
%TO.N,N/C*%
X182245000Y-71120000D03*
%TD*%
%TO.P,REF\u002A\u002A,1*%
%TO.N,N/C*%
X164465000Y-71120000D03*
%TD*%
%TO.P,REF\u002A\u002A,1*%
%TO.N,N/C*%
X131445000Y-71120000D03*
%TD*%
%TO.P,REF\u002A\u002A,1*%
%TO.N,N/C*%
X133985000Y-73660000D03*
%TD*%
%TO.P,REF\u002A\u002A,1*%
%TO.N,N/C*%
X184785000Y-73660000D03*
%TD*%
%TO.P,REF\u002A\u002A,1*%
%TO.N,N/C*%
X149225000Y-73660000D03*
%TD*%
%TO.P,REF\u002A\u002A,1*%
%TO.N,N/C*%
X189865000Y-73660000D03*
%TD*%
%TO.P,REF\u002A\u002A,1*%
%TO.N,N/C*%
X151765000Y-73660000D03*
%TD*%
%TO.P,REF\u002A\u002A,1*%
%TO.N,N/C*%
X156845000Y-71120000D03*
%TD*%
%TO.P,REF\u002A\u002A,1*%
%TO.N,N/C*%
X187325000Y-73660000D03*
%TD*%
%TO.P,REF\u002A\u002A,1*%
%TO.N,N/C*%
X167005000Y-73660000D03*
%TD*%
%TO.P,REF\u002A\u002A,1*%
%TO.N,N/C*%
X146685000Y-73660000D03*
%TD*%
%TO.P,REF\u002A\u002A,1*%
%TO.N,N/C*%
X161925000Y-73660000D03*
%TD*%
%TO.P,REF\u002A\u002A,1*%
%TO.N,N/C*%
X139065000Y-73660000D03*
%TD*%
%TO.P,REF\u002A\u002A,1*%
%TO.N,N/C*%
X169545000Y-73660000D03*
%TD*%
%TO.P,REF\u002A\u002A,1*%
%TO.N,N/C*%
X177165000Y-71120000D03*
%TD*%
%TO.P,REF\u002A\u002A,1*%
%TO.N,N/C*%
X136525000Y-71120000D03*
%TD*%
%TO.P,REF\u002A\u002A,1*%
%TO.N,N/C*%
X184785000Y-71120000D03*
%TD*%
%TO.P,REF\u002A\u002A,1*%
%TO.N,N/C*%
X189865000Y-71120000D03*
%TD*%
%TO.P,REF\u002A\u002A,1*%
%TO.N,N/C*%
X187325000Y-71120000D03*
%TD*%
%TO.P,REF\u002A\u002A,1*%
%TO.N,N/C*%
X167005000Y-71120000D03*
%TD*%
%TO.P,REF\u002A\u002A,1*%
%TO.N,N/C*%
X169545000Y-71120000D03*
%TD*%
%TO.P,REF\u002A\u002A,1*%
%TO.N,N/C*%
X139065000Y-71120000D03*
%TD*%
%TO.P,REF\u002A\u002A,1*%
%TO.N,N/C*%
X161925000Y-71120000D03*
%TD*%
%TO.P,REF\u002A\u002A,1*%
%TO.N,N/C*%
X172085000Y-71120000D03*
%TD*%
%TO.P,REF\u002A\u002A,1*%
%TO.N,N/C*%
X141605000Y-83820000D03*
%TD*%
%TO.P,REF\u002A\u002A,1*%
%TO.N,N/C*%
X174625000Y-83820000D03*
%TD*%
%TO.P,REF\u002A\u002A,1*%
%TO.N,N/C*%
X179705000Y-83820000D03*
%TD*%
%TO.P,REF\u002A\u002A,1*%
%TO.N,N/C*%
X172085000Y-78740000D03*
%TD*%
%TO.P,REF\u002A\u002A,1*%
%TO.N,N/C*%
X189865000Y-83820000D03*
%TD*%
%TO.P,REF\u002A\u002A,1*%
%TO.N,N/C*%
X131445000Y-83820000D03*
%TD*%
%TO.P,REF\u002A\u002A,1*%
%TO.N,N/C*%
X159385000Y-83820000D03*
%TD*%
%TO.P,REF\u002A\u002A,1*%
%TO.N,N/C*%
X182245000Y-83820000D03*
%TD*%
%TO.P,REF\u002A\u002A,1*%
%TO.N,N/C*%
X172085000Y-81280000D03*
%TD*%
%TO.P,REF\u002A\u002A,1*%
%TO.N,N/C*%
X167005000Y-81280000D03*
%TD*%
%TO.P,REF\u002A\u002A,1*%
%TO.N,N/C*%
X139065000Y-81280000D03*
%TD*%
%TO.P,REF\u002A\u002A,1*%
%TO.N,N/C*%
X151765000Y-81280000D03*
%TD*%
%TO.P,REF\u002A\u002A,1*%
%TO.N,N/C*%
X179705000Y-81280000D03*
%TD*%
%TO.P,REF\u002A\u002A,1*%
%TO.N,N/C*%
X161925000Y-83820000D03*
%TD*%
%TO.P,REF\u002A\u002A,1*%
%TO.N,N/C*%
X146685000Y-83820000D03*
%TD*%
%TO.P,REF\u002A\u002A,1*%
%TO.N,N/C*%
X184785000Y-81280000D03*
%TD*%
%TO.P,REF\u002A\u002A,1*%
%TO.N,N/C*%
X133985000Y-81280000D03*
%TD*%
%TO.P,REF\u002A\u002A,1*%
%TO.N,N/C*%
X169545000Y-81280000D03*
%TD*%
%TO.P,REF\u002A\u002A,1*%
%TO.N,N/C*%
X141605000Y-81280000D03*
%TD*%
%TO.P,REF\u002A\u002A,1*%
%TO.N,N/C*%
X174625000Y-81280000D03*
%TD*%
%TO.P,REF\u002A\u002A,1*%
%TO.N,N/C*%
X131445000Y-81280000D03*
%TD*%
%TO.P,REF\u002A\u002A,1*%
%TO.N,N/C*%
X161925000Y-81280000D03*
%TD*%
%TO.P,REF\u002A\u002A,1*%
%TO.N,N/C*%
X146685000Y-81280000D03*
%TD*%
%TO.P,REF\u002A\u002A,1*%
%TO.N,N/C*%
X144145000Y-81280000D03*
%TD*%
%TO.P,REF\u002A\u002A,1*%
%TO.N,N/C*%
X156845000Y-81280000D03*
%TD*%
%TO.P,REF\u002A\u002A,1*%
%TO.N,N/C*%
X136525000Y-81280000D03*
%TD*%
%TO.P,REF\u002A\u002A,1*%
%TO.N,N/C*%
X177165000Y-81280000D03*
%TD*%
%TO.P,REF\u002A\u002A,1*%
%TO.N,N/C*%
X189865000Y-81280000D03*
%TD*%
%TO.P,REF\u002A\u002A,1*%
%TO.N,N/C*%
X156845000Y-83820000D03*
%TD*%
%TO.P,REF\u002A\u002A,1*%
%TO.N,N/C*%
X144145000Y-83820000D03*
%TD*%
%TO.P,REF\u002A\u002A,1*%
%TO.N,N/C*%
X187325000Y-81280000D03*
%TD*%
%TO.P,REF\u002A\u002A,1*%
%TO.N,N/C*%
X177165000Y-83820000D03*
%TD*%
%TO.P,REF\u002A\u002A,1*%
%TO.N,N/C*%
X164465000Y-83820000D03*
%TD*%
%TO.P,REF\u002A\u002A,1*%
%TO.N,N/C*%
X154305000Y-81280000D03*
%TD*%
%TO.P,REF\u002A\u002A,1*%
%TO.N,N/C*%
X159385000Y-81280000D03*
%TD*%
%TO.P,REF\u002A\u002A,1*%
%TO.N,N/C*%
X182245000Y-81280000D03*
%TD*%
%TO.P,REF\u002A\u002A,1*%
%TO.N,N/C*%
X164465000Y-81280000D03*
%TD*%
%TO.P,REF\u002A\u002A,1*%
%TO.N,N/C*%
X133985000Y-78740000D03*
%TD*%
%TO.P,REF\u002A\u002A,1*%
%TO.N,N/C*%
X149225000Y-81280000D03*
%TD*%
%TO.P,REF\u002A\u002A,1*%
%TO.N,N/C*%
X156845000Y-78740000D03*
%TD*%
%TO.P,REF\u002A\u002A,1*%
%TO.N,N/C*%
X161925000Y-78740000D03*
%TD*%
%TO.P,REF\u002A\u002A,1*%
%TO.N,N/C*%
X154305000Y-78740000D03*
%TD*%
%TO.P,REF\u002A\u002A,1*%
%TO.N,N/C*%
X139065000Y-78740000D03*
%TD*%
%TO.P,REF\u002A\u002A,1*%
%TO.N,N/C*%
X151765000Y-78740000D03*
%TD*%
%TO.P,REF\u002A\u002A,1*%
%TO.N,N/C*%
X136525000Y-78740000D03*
%TD*%
%TO.P,REF\u002A\u002A,1*%
%TO.N,N/C*%
X159385000Y-78740000D03*
%TD*%
%TO.P,REF\u002A\u002A,1*%
%TO.N,N/C*%
X189865000Y-78740000D03*
%TD*%
%TO.P,REF\u002A\u002A,1*%
%TO.N,N/C*%
X167005000Y-78740000D03*
%TD*%
%TO.P,REF\u002A\u002A,1*%
%TO.N,N/C*%
X172085000Y-76200000D03*
%TD*%
%TO.P,REF\u002A\u002A,1*%
%TO.N,N/C*%
X133985000Y-76200000D03*
%TD*%
%TO.P,REF\u002A\u002A,1*%
%TO.N,N/C*%
X156845000Y-76200000D03*
%TD*%
%TO.P,REF\u002A\u002A,1*%
%TO.N,N/C*%
X184785000Y-78740000D03*
%TD*%
%TO.P,REF\u002A\u002A,1*%
%TO.N,N/C*%
X174625000Y-78740000D03*
%TD*%
%TO.P,REF\u002A\u002A,1*%
%TO.N,N/C*%
X182245000Y-78740000D03*
%TD*%
%TO.P,REF\u002A\u002A,1*%
%TO.N,N/C*%
X144145000Y-78740000D03*
%TD*%
%TO.P,REF\u002A\u002A,1*%
%TO.N,N/C*%
X169545000Y-78740000D03*
%TD*%
%TO.P,REF\u002A\u002A,1*%
%TO.N,N/C*%
X177165000Y-78740000D03*
%TD*%
%TO.P,REF\u002A\u002A,1*%
%TO.N,N/C*%
X187325000Y-78740000D03*
%TD*%
%TO.P,REF\u002A\u002A,1*%
%TO.N,N/C*%
X164465000Y-78740000D03*
%TD*%
%TO.P,REF\u002A\u002A,1*%
%TO.N,N/C*%
X131445000Y-78740000D03*
%TD*%
%TO.P,REF\u002A\u002A,1*%
%TO.N,N/C*%
X146685000Y-78740000D03*
%TD*%
%TO.P,REF\u002A\u002A,1*%
%TO.N,N/C*%
X141605000Y-78740000D03*
%TD*%
%TO.P,REF\u002A\u002A,1*%
%TO.N,N/C*%
X149225000Y-78740000D03*
%TD*%
%TO.P,REF\u002A\u002A,1*%
%TO.N,N/C*%
X179705000Y-78740000D03*
%TD*%
%TO.P,REF\u002A\u002A,1*%
%TO.N,N/C*%
X154305000Y-76200000D03*
%TD*%
%TO.P,REF\u002A\u002A,1*%
%TO.N,N/C*%
X174625000Y-76200000D03*
%TD*%
%TO.P,REF\u002A\u002A,1*%
%TO.N,N/C*%
X131445000Y-76200000D03*
%TD*%
%TO.P,REF\u002A\u002A,1*%
%TO.N,N/C*%
X167005000Y-76200000D03*
%TD*%
%TO.P,REF\u002A\u002A,1*%
%TO.N,N/C*%
X146685000Y-76200000D03*
%TD*%
%TO.P,REF\u002A\u002A,1*%
%TO.N,N/C*%
X141605000Y-76200000D03*
%TD*%
%TO.P,REF\u002A\u002A,1*%
%TO.N,N/C*%
X149225000Y-76200000D03*
%TD*%
%TO.P,REF\u002A\u002A,1*%
%TO.N,N/C*%
X179705000Y-76200000D03*
%TD*%
%TO.P,REF\u002A\u002A,1*%
%TO.N,N/C*%
X164465000Y-76200000D03*
%TD*%
%TO.P,REF\u002A\u002A,1*%
%TO.N,N/C*%
X187325000Y-76200000D03*
%TD*%
%TO.P,REF\u002A\u002A,1*%
%TO.N,N/C*%
X172085000Y-73660000D03*
%TD*%
%TO.P,REF\u002A\u002A,1*%
%TO.N,N/C*%
X184785000Y-76200000D03*
%TD*%
%TO.P,REF\u002A\u002A,1*%
%TO.N,N/C*%
X189865000Y-76200000D03*
%TD*%
%TO.P,REF\u002A\u002A,1*%
%TO.N,N/C*%
X182245000Y-76200000D03*
%TD*%
%TO.P,REF\u002A\u002A,1*%
%TO.N,N/C*%
X144145000Y-76200000D03*
%TD*%
%TO.P,REF\u002A\u002A,1*%
%TO.N,N/C*%
X161925000Y-76200000D03*
%TD*%
%TO.P,REF\u002A\u002A,1*%
%TO.N,N/C*%
X177165000Y-76200000D03*
%TD*%
%TO.P,REF\u002A\u002A,1*%
%TO.N,N/C*%
X159385000Y-76200000D03*
%TD*%
%TO.P,REF\u002A\u002A,1*%
%TO.N,N/C*%
X139065000Y-76200000D03*
%TD*%
%TO.P,REF\u002A\u002A,1*%
%TO.N,N/C*%
X136525000Y-76200000D03*
%TD*%
%TO.P,REF\u002A\u002A,1*%
%TO.N,N/C*%
X151765000Y-76200000D03*
%TD*%
%TO.P,REF\u002A\u002A,1*%
%TO.N,N/C*%
X169545000Y-76200000D03*
%TD*%
%TO.P,REF\u002A\u002A,1*%
%TO.N,N/C*%
X139065000Y-99060000D03*
%TD*%
%TO.P,REF\u002A\u002A,1*%
%TO.N,N/C*%
X136525000Y-99060000D03*
%TD*%
%TO.P,REF\u002A\u002A,1*%
%TO.N,N/C*%
X146685000Y-93980000D03*
%TD*%
%TO.P,REF\u002A\u002A,1*%
%TO.N,N/C*%
X144145000Y-93980000D03*
%TD*%
%TO.P,REF\u002A\u002A,1*%
%TO.N,N/C*%
X146685000Y-96520000D03*
%TD*%
%TO.P,REF\u002A\u002A,1*%
%TO.N,N/C*%
X136525000Y-96520000D03*
%TD*%
%TO.P,REF\u002A\u002A,1*%
%TO.N,N/C*%
X141605000Y-93980000D03*
%TD*%
%TO.P,REF\u002A\u002A,1*%
%TO.N,N/C*%
X141605000Y-99060000D03*
%TD*%
%TO.P,REF\u002A\u002A,1*%
%TO.N,N/C*%
X149225000Y-93980000D03*
%TD*%
%TO.P,REF\u002A\u002A,1*%
%TO.N,N/C*%
X149225000Y-99060000D03*
%TD*%
%TO.P,REF\u002A\u002A,1*%
%TO.N,N/C*%
X144145000Y-96520000D03*
%TD*%
%TO.P,REF\u002A\u002A,1*%
%TO.N,N/C*%
X146685000Y-99060000D03*
%TD*%
%TO.P,REF\u002A\u002A,1*%
%TO.N,N/C*%
X136525000Y-93980000D03*
%TD*%
%TO.P,REF\u002A\u002A,1*%
%TO.N,N/C*%
X139065000Y-93980000D03*
%TD*%
%TO.P,REF\u002A\u002A,1*%
%TO.N,N/C*%
X141605000Y-96520000D03*
%TD*%
%TO.P,REF\u002A\u002A,1*%
%TO.N,N/C*%
X139065000Y-96520000D03*
%TD*%
%TO.P,REF\u002A\u002A,1*%
%TO.N,N/C*%
X144145000Y-99060000D03*
%TD*%
%TO.P,REF\u002A\u002A,1*%
%TO.N,N/C*%
X149225000Y-96520000D03*
%TD*%
%TO.P,REF\u002A\u002A,1*%
%TO.N,N/C*%
X151765000Y-99060000D03*
%TD*%
%TO.P,REF\u002A\u002A,1*%
%TO.N,N/C*%
X154305000Y-93980000D03*
%TD*%
%TO.P,REF\u002A\u002A,1*%
%TO.N,N/C*%
X154305000Y-96520000D03*
%TD*%
%TO.P,REF\u002A\u002A,1*%
%TO.N,N/C*%
X156845000Y-96520000D03*
%TD*%
%TO.P,REF\u002A\u002A,1*%
%TO.N,N/C*%
X156845000Y-93980000D03*
%TD*%
%TO.P,REF\u002A\u002A,1*%
%TO.N,N/C*%
X156845000Y-99060000D03*
%TD*%
%TO.P,REF\u002A\u002A,1*%
%TO.N,N/C*%
X151765000Y-96520000D03*
%TD*%
%TO.P,REF\u002A\u002A,1*%
%TO.N,N/C*%
X154305000Y-99060000D03*
%TD*%
%TO.P,REF\u002A\u002A,1*%
%TO.N,N/C*%
X159385000Y-96520000D03*
%TD*%
%TO.P,REF\u002A\u002A,1*%
%TO.N,N/C*%
X159385000Y-93980000D03*
%TD*%
%TO.P,REF\u002A\u002A,1*%
%TO.N,N/C*%
X159385000Y-99060000D03*
%TD*%
%TO.P,REF\u002A\u002A,1*%
%TO.N,N/C*%
X151765000Y-93980000D03*
%TD*%
%TO.P,REF\u002A\u002A,1*%
%TO.N,N/C*%
X172085000Y-93980000D03*
%TD*%
%TO.P,REF\u002A\u002A,1*%
%TO.N,N/C*%
X174625000Y-96520000D03*
%TD*%
%TO.P,REF\u002A\u002A,1*%
%TO.N,N/C*%
X161925000Y-96520000D03*
%TD*%
%TO.P,REF\u002A\u002A,1*%
%TO.N,N/C*%
X169545000Y-93980000D03*
%TD*%
%TO.P,REF\u002A\u002A,1*%
%TO.N,N/C*%
X161925000Y-99060000D03*
%TD*%
%TO.P,REF\u002A\u002A,1*%
%TO.N,N/C*%
X169545000Y-96520000D03*
%TD*%
%TO.P,REF\u002A\u002A,1*%
%TO.N,N/C*%
X161925000Y-93980000D03*
%TD*%
%TO.P,REF\u002A\u002A,1*%
%TO.N,N/C*%
X164465000Y-96520000D03*
%TD*%
%TO.P,REF\u002A\u002A,1*%
%TO.N,N/C*%
X167005000Y-96520000D03*
%TD*%
%TO.P,REF\u002A\u002A,1*%
%TO.N,N/C*%
X172085000Y-96520000D03*
%TD*%
%TO.P,REF\u002A\u002A,1*%
%TO.N,N/C*%
X172085000Y-99060000D03*
%TD*%
%TO.P,REF\u002A\u002A,1*%
%TO.N,N/C*%
X184785000Y-93980000D03*
%TD*%
%TO.P,REF\u002A\u002A,1*%
%TO.N,N/C*%
X167005000Y-99060000D03*
%TD*%
%TO.P,REF\u002A\u002A,1*%
%TO.N,N/C*%
X169545000Y-99060000D03*
%TD*%
%TO.P,REF\u002A\u002A,1*%
%TO.N,N/C*%
X182245000Y-99060000D03*
%TD*%
%TO.P,REF\u002A\u002A,1*%
%TO.N,N/C*%
X164465000Y-93980000D03*
%TD*%
%TO.P,REF\u002A\u002A,1*%
%TO.N,N/C*%
X177165000Y-96520000D03*
%TD*%
%TO.P,REF\u002A\u002A,1*%
%TO.N,N/C*%
X164465000Y-99060000D03*
%TD*%
%TO.P,REF\u002A\u002A,1*%
%TO.N,N/C*%
X167005000Y-93980000D03*
%TD*%
%TO.P,REF\u002A\u002A,1*%
%TO.N,N/C*%
X182245000Y-93980000D03*
%TD*%
%TO.P,REF\u002A\u002A,1*%
%TO.N,N/C*%
X149225000Y-68580000D03*
%TD*%
%TO.P,REF\u002A\u002A,1*%
%TO.N,N/C*%
X151765000Y-68580000D03*
%TD*%
%TO.P,REF\u002A\u002A,1*%
%TO.N,N/C*%
X146685000Y-68580000D03*
%TD*%
%TO.P,REF\u002A\u002A,1*%
%TO.N,N/C*%
X174625000Y-99060000D03*
%TD*%
%TO.P,REF\u002A\u002A,1*%
%TO.N,N/C*%
X141605000Y-68580000D03*
%TD*%
%TO.P,REF\u002A\u002A,1*%
%TO.N,N/C*%
X144145000Y-68580000D03*
%TD*%
%TO.P,REF\u002A\u002A,1*%
%TO.N,N/C*%
X177165000Y-93980000D03*
%TD*%
%TO.P,REF\u002A\u002A,1*%
%TO.N,N/C*%
X179705000Y-99060000D03*
%TD*%
%TO.P,REF\u002A\u002A,1*%
%TO.N,N/C*%
X133985000Y-68580000D03*
%TD*%
%TO.P,REF\u002A\u002A,1*%
%TO.N,N/C*%
X159385000Y-68580000D03*
%TD*%
%TO.P,REF\u002A\u002A,1*%
%TO.N,N/C*%
X174625000Y-68580000D03*
%TD*%
%TO.P,REF\u002A\u002A,1*%
%TO.N,N/C*%
X179705000Y-96520000D03*
%TD*%
%TO.P,REF\u002A\u002A,1*%
%TO.N,N/C*%
X177165000Y-99060000D03*
%TD*%
%TO.P,REF\u002A\u002A,1*%
%TO.N,N/C*%
X182245000Y-68580000D03*
%TD*%
%TO.P,REF\u002A\u002A,1*%
%TO.N,N/C*%
X184785000Y-99060000D03*
%TD*%
%TO.P,REF\u002A\u002A,1*%
%TO.N,N/C*%
X154305000Y-68580000D03*
%TD*%
%TO.P,REF\u002A\u002A,1*%
%TO.N,N/C*%
X179705000Y-68580000D03*
%TD*%
%TO.P,REF\u002A\u002A,1*%
%TO.N,N/C*%
X164465000Y-68580000D03*
%TD*%
%TO.P,REF\u002A\u002A,1*%
%TO.N,N/C*%
X182245000Y-96520000D03*
%TD*%
%TO.P,REF\u002A\u002A,1*%
%TO.N,N/C*%
X174625000Y-93980000D03*
%TD*%
%TO.P,REF\u002A\u002A,1*%
%TO.N,N/C*%
X179705000Y-93980000D03*
%TD*%
%TO.P,REF\u002A\u002A,1*%
%TO.N,N/C*%
X131445000Y-68580000D03*
%TD*%
%TO.P,REF\u002A\u002A,1*%
%TO.N,N/C*%
X184785000Y-96520000D03*
%TD*%
%TO.P,REF\u002A\u002A,1*%
%TO.N,N/C*%
X156845000Y-68580000D03*
%TD*%
%TO.P,REF\u002A\u002A,1*%
%TO.N,N/C*%
X136525000Y-68580000D03*
%TD*%
%TO.P,REF\u002A\u002A,1*%
%TO.N,N/C*%
X177165000Y-68580000D03*
%TD*%
%TO.P,REF\u002A\u002A,1*%
%TO.N,N/C*%
X189865000Y-68580000D03*
%TD*%
%TO.P,REF\u002A\u002A,1*%
%TO.N,N/C*%
X169545000Y-68580000D03*
%TD*%
%TO.P,REF\u002A\u002A,1*%
%TO.N,N/C*%
X161925000Y-68580000D03*
%TD*%
%TO.P,REF\u002A\u002A,1*%
%TO.N,N/C*%
X139065000Y-68580000D03*
%TD*%
%TO.P,REF\u002A\u002A,1*%
%TO.N,N/C*%
X187325000Y-68580000D03*
%TD*%
%TO.P,REF\u002A\u002A,1*%
%TO.N,N/C*%
X167005000Y-68580000D03*
%TD*%
%TO.P,REF\u002A\u002A,1*%
%TO.N,N/C*%
X184785000Y-68580000D03*
%TD*%
%TO.P,REF\u002A\u002A,1*%
%TO.N,N/C*%
X172085000Y-68580000D03*
%TD*%
%TO.P,REF\u002A\u002A,1*%
%TO.N,N/C*%
X139065000Y-88900000D03*
%TD*%
%TO.P,REF\u002A\u002A,1*%
%TO.N,N/C*%
X151765000Y-86360000D03*
%TD*%
%TO.P,REF\u002A\u002A,1*%
%TO.N,N/C*%
X187325000Y-86360000D03*
%TD*%
%TO.P,REF\u002A\u002A,1*%
%TO.N,N/C*%
X151765000Y-88900000D03*
%TD*%
%TO.P,REF\u002A\u002A,1*%
%TO.N,N/C*%
X133985000Y-99060000D03*
%TD*%
%TO.P,REF\u002A\u002A,1*%
%TO.N,N/C*%
X136525000Y-88900000D03*
%TD*%
%TO.P,REF\u002A\u002A,1*%
%TO.N,N/C*%
X149225000Y-88900000D03*
%TD*%
%TO.P,REF\u002A\u002A,1*%
%TO.N,N/C*%
X169545000Y-88900000D03*
%TD*%
%TO.P,REF\u002A\u002A,1*%
%TO.N,N/C*%
X184785000Y-88900000D03*
%TD*%
%TO.P,REF\u002A\u002A,1*%
%TO.N,N/C*%
X187325000Y-88900000D03*
%TD*%
%TO.P,REF\u002A\u002A,1*%
%TO.N,N/C*%
X133985000Y-93980000D03*
%TD*%
%TO.P,REF\u002A\u002A,1*%
%TO.N,N/C*%
X131445000Y-88900000D03*
%TD*%
%TO.P,REF\u002A\u002A,1*%
%TO.N,N/C*%
X154305000Y-88900000D03*
%TD*%
%TO.P,REF\u002A\u002A,1*%
%TO.N,N/C*%
X167005000Y-88900000D03*
%TD*%
%TO.P,REF\u002A\u002A,1*%
%TO.N,N/C*%
X179705000Y-88900000D03*
%TD*%
%TO.P,REF\u002A\u002A,1*%
%TO.N,N/C*%
X133985000Y-88900000D03*
%TD*%
%TO.P,REF\u002A\u002A,1*%
%TO.N,N/C*%
X159385000Y-88900000D03*
%TD*%
%TO.P,REF\u002A\u002A,1*%
%TO.N,N/C*%
X146685000Y-88900000D03*
%TD*%
%TO.P,REF\u002A\u002A,1*%
%TO.N,N/C*%
X189865000Y-88900000D03*
%TD*%
%TO.P,REF\u002A\u002A,1*%
%TO.N,N/C*%
X141605000Y-88900000D03*
%TD*%
%TO.P,REF\u002A\u002A,1*%
%TO.N,N/C*%
X139065000Y-86360000D03*
%TD*%
%TO.P,REF\u002A\u002A,1*%
%TO.N,N/C*%
X136525000Y-86360000D03*
%TD*%
%TO.P,REF\u002A\u002A,1*%
%TO.N,N/C*%
X169545000Y-86360000D03*
%TD*%
%TO.P,REF\u002A\u002A,1*%
%TO.N,N/C*%
X156845000Y-88900000D03*
%TD*%
%TO.P,REF\u002A\u002A,1*%
%TO.N,N/C*%
X149225000Y-86360000D03*
%TD*%
%TO.P,REF\u002A\u002A,1*%
%TO.N,N/C*%
X182245000Y-88900000D03*
%TD*%
%TO.P,REF\u002A\u002A,1*%
%TO.N,N/C*%
X154305000Y-86360000D03*
%TD*%
%TO.P,REF\u002A\u002A,1*%
%TO.N,N/C*%
X172085000Y-86360000D03*
%TD*%
%TO.P,REF\u002A\u002A,1*%
%TO.N,N/C*%
X133985000Y-96520000D03*
%TD*%
%TO.P,REF\u002A\u002A,1*%
%TO.N,N/C*%
X174625000Y-88900000D03*
%TD*%
%TO.P,REF\u002A\u002A,1*%
%TO.N,N/C*%
X161925000Y-88900000D03*
%TD*%
%TO.P,REF\u002A\u002A,1*%
%TO.N,N/C*%
X144145000Y-88900000D03*
%TD*%
%TO.P,REF\u002A\u002A,1*%
%TO.N,N/C*%
X172085000Y-88900000D03*
%TD*%
%TO.P,REF\u002A\u002A,1*%
%TO.N,N/C*%
X164465000Y-88900000D03*
%TD*%
%TO.P,REF\u002A\u002A,1*%
%TO.N,N/C*%
X177165000Y-88900000D03*
%TD*%
%TO.P,REF\u002A\u002A,1*%
%TO.N,N/C*%
X184785000Y-86360000D03*
%TD*%
%TO.P,REF\u002A\u002A,1*%
%TO.N,N/C*%
X167005000Y-86360000D03*
%TD*%
%TO.P,REF\u002A\u002A,1*%
%TO.N,N/C*%
X133985000Y-86360000D03*
%TD*%
%TO.P,REF\u002A\u002A,1*%
%TO.N,N/C*%
X146685000Y-86360000D03*
%TD*%
%TO.P,REF\u002A\u002A,1*%
%TO.N,N/C*%
X161925000Y-86360000D03*
%TD*%
%TO.P,REF\u002A\u002A,1*%
%TO.N,N/C*%
X164465000Y-86360000D03*
%TD*%
%TO.P,REF\u002A\u002A,1*%
%TO.N,N/C*%
X159385000Y-86360000D03*
%TD*%
%TO.P,REF\u002A\u002A,1*%
%TO.N,N/C*%
X189865000Y-86360000D03*
%TD*%
%TO.P,REF\u002A\u002A,1*%
%TO.N,N/C*%
X174625000Y-86360000D03*
%TD*%
%TO.P,REF\u002A\u002A,1*%
%TO.N,N/C*%
X177165000Y-86360000D03*
%TD*%
%TO.P,REF\u002A\u002A,1*%
%TO.N,N/C*%
X141605000Y-86360000D03*
%TD*%
%TO.P,REF\u002A\u002A,1*%
%TO.N,N/C*%
X156845000Y-86360000D03*
%TD*%
%TO.P,REF\u002A\u002A,1*%
%TO.N,N/C*%
X182245000Y-86360000D03*
%TD*%
%TO.P,REF\u002A\u002A,1*%
%TO.N,N/C*%
X131445000Y-86360000D03*
%TD*%
%TO.P,REF\u002A\u002A,1*%
%TO.N,N/C*%
X144145000Y-86360000D03*
%TD*%
%TO.P,REF\u002A\u002A,1*%
%TO.N,N/C*%
X179705000Y-86360000D03*
%TD*%
%TO.P,REF\u002A\u002A,1*%
%TO.N,N/C*%
X159385000Y-66040000D03*
%TD*%
%TO.P,REF\u002A\u002A,1*%
%TO.N,N/C*%
X154305000Y-66040000D03*
%TD*%
%TO.P,REF\u002A\u002A,1*%
%TO.N,N/C*%
X164465000Y-66040000D03*
%TD*%
%TO.P,REF\u002A\u002A,1*%
%TO.N,N/C*%
X149225000Y-66040000D03*
%TD*%
%TO.P,REF\u002A\u002A,1*%
%TO.N,N/C*%
X146685000Y-66040000D03*
%TD*%
%TO.P,REF\u002A\u002A,1*%
%TO.N,N/C*%
X151765000Y-66040000D03*
%TD*%
%TO.P,REF\u002A\u002A,1*%
%TO.N,N/C*%
X141605000Y-66040000D03*
%TD*%
%TO.P,REF\u002A\u002A,1*%
%TO.N,N/C*%
X144145000Y-66040000D03*
%TD*%
%TO.P,REF\u002A\u002A,1*%
%TO.N,N/C*%
X133985000Y-66040000D03*
%TD*%
%TO.P,REF\u002A\u002A,1*%
%TO.N,N/C*%
X174625000Y-66040000D03*
%TD*%
%TO.P,REF\u002A\u002A,1*%
%TO.N,N/C*%
X182245000Y-66040000D03*
%TD*%
%TO.P,REF\u002A\u002A,1*%
%TO.N,N/C*%
X179705000Y-66040000D03*
%TD*%
%TO.P,REF\u002A\u002A,1*%
%TO.N,N/C*%
X131445000Y-66040000D03*
%TD*%
%TO.P,REF\u002A\u002A,1*%
%TO.N,N/C*%
X156845000Y-66040000D03*
%TD*%
%TO.P,REF\u002A\u002A,1*%
%TO.N,N/C*%
X136525000Y-66040000D03*
%TD*%
%TO.P,REF\u002A\u002A,1*%
%TO.N,N/C*%
X177165000Y-66040000D03*
%TD*%
%TO.P,REF\u002A\u002A,1*%
%TO.N,N/C*%
X169545000Y-66040000D03*
%TD*%
%TO.P,REF\u002A\u002A,1*%
%TO.N,N/C*%
X161925000Y-66040000D03*
%TD*%
%TO.P,REF\u002A\u002A,1*%
%TO.N,N/C*%
X139065000Y-66040000D03*
%TD*%
%TO.P,REF\u002A\u002A,1*%
%TO.N,N/C*%
X187325000Y-66040000D03*
%TD*%
%TO.P,REF\u002A\u002A,1*%
%TO.N,N/C*%
X172085000Y-66040000D03*
%TD*%
%TO.P,REF\u002A\u002A,1*%
%TO.N,N/C*%
X167005000Y-66040000D03*
%TD*%
%TO.P,REF\u002A\u002A,1*%
%TO.N,N/C*%
X184785000Y-66040000D03*
%TD*%
%TO.P,REF\u002A\u002A,1*%
%TO.N,N/C*%
X133350000Y-63500000D03*
%TD*%
%TO.P,REF\u002A\u002A,1*%
%TO.N,N/C*%
X135890000Y-63500000D03*
%TD*%
%TO.P,REF\u002A\u002A,1*%
%TO.N,N/C*%
X130810000Y-63500000D03*
%TD*%
%TO.P,REF\u002A\u002A,1*%
%TO.N,N/C*%
X130810000Y-60960000D03*
%TD*%
%TO.P,REF\u002A\u002A,1*%
%TO.N,N/C*%
X133350000Y-60960000D03*
%TD*%
%TO.P,REF\u002A\u002A,1*%
%TO.N,N/C*%
X149225000Y-60960000D03*
%TD*%
%TO.P,REF\u002A\u002A,1*%
%TO.N,N/C*%
X149225000Y-63500000D03*
%TD*%
%TO.P,REF\u002A\u002A,1*%
%TO.N,N/C*%
X151765000Y-60960000D03*
%TD*%
%TO.P,REF\u002A\u002A,1*%
%TO.N,N/C*%
X151765000Y-63500000D03*
%TD*%
%TO.P,REF\u002A\u002A,1*%
%TO.N,N/C*%
X154305000Y-63500000D03*
%TD*%
%TO.P,REF\u002A\u002A,1*%
%TO.N,N/C*%
X156845000Y-63500000D03*
%TD*%
%TO.P,REF\u002A\u002A,1*%
%TO.N,N/C*%
X159385000Y-63500000D03*
%TD*%
%TO.P,REF\u002A\u002A,1*%
%TO.N,N/C*%
X156845000Y-60960000D03*
%TD*%
%TO.P,REF\u002A\u002A,1*%
%TO.N,N/C*%
X154305000Y-60960000D03*
%TD*%
%TO.P,REF\u002A\u002A,1*%
%TO.N,N/C*%
X159385000Y-60960000D03*
%TD*%
%TO.P,REF\u002A\u002A,1*%
%TO.N,N/C*%
X167005000Y-63500000D03*
%TD*%
%TO.P,REF\u002A\u002A,1*%
%TO.N,N/C*%
X172085000Y-63500000D03*
%TD*%
%TO.P,REF\u002A\u002A,1*%
%TO.N,N/C*%
X164465000Y-63500000D03*
%TD*%
%TO.P,REF\u002A\u002A,1*%
%TO.N,N/C*%
X161925000Y-60960000D03*
%TD*%
%TO.P,REF\u002A\u002A,1*%
%TO.N,N/C*%
X169545000Y-63500000D03*
%TD*%
%TO.P,REF\u002A\u002A,1*%
%TO.N,N/C*%
X172085000Y-60960000D03*
%TD*%
%TO.P,REF\u002A\u002A,1*%
%TO.N,N/C*%
X167005000Y-60960000D03*
%TD*%
%TO.P,REF\u002A\u002A,1*%
%TO.N,N/C*%
X169545000Y-60960000D03*
%TD*%
%TO.P,REF\u002A\u002A,1*%
%TO.N,N/C*%
X161925000Y-63500000D03*
%TD*%
%TO.P,REF\u002A\u002A,1*%
%TO.N,N/C*%
X164465000Y-60960000D03*
%TD*%
%TO.P,REF\u002A\u002A,1*%
%TO.N,N/C*%
X187325000Y-63500000D03*
%TD*%
%TO.P,REF\u002A\u002A,1*%
%TO.N,N/C*%
X184785000Y-63500000D03*
%TD*%
%TO.P,REF\u002A\u002A,1*%
%TO.N,N/C*%
X189865000Y-60960000D03*
%TD*%
%TO.P,REF\u002A\u002A,1*%
%TO.N,N/C*%
X189865000Y-66040000D03*
%TD*%
%TO.P,REF\u002A\u002A,1*%
%TO.N,N/C*%
X189865000Y-63500000D03*
%TD*%
%TO.P,REF\u002A\u002A,1*%
%TO.N,N/C*%
X187325000Y-58420000D03*
%TD*%
%TO.P,REF\u002A\u002A,1*%
%TO.N,N/C*%
X187325000Y-60960000D03*
%TD*%
%TO.P,REF\u002A\u002A,1*%
%TO.N,N/C*%
X189865000Y-58420000D03*
%TD*%
%TO.P,REF\u002A\u002A,1*%
%TO.N,N/C*%
X189865000Y-149860000D03*
%TD*%
%TO.P,REF\u002A\u002A,1*%
%TO.N,N/C*%
X187325000Y-149860000D03*
%TD*%
%TO.P,REF\u002A\u002A,1*%
%TO.N,GND*%
X163195000Y-57785000D03*
%TD*%
%TO.P,REF\u002A\u002A,1*%
%TO.N,GND*%
X150495000Y-57785000D03*
%TD*%
%TO.P,REF\u002A\u002A,1*%
%TO.N,GND*%
X165735000Y-57785000D03*
%TD*%
%TO.P,REF\u002A\u002A,1*%
%TO.N,GND*%
X168275000Y-57785000D03*
%TD*%
%TO.P,REF\u002A\u002A,1*%
%TO.N,GND*%
X170815000Y-57785000D03*
%TD*%
%TO.P,REF\u002A\u002A,1*%
%TO.N,GND*%
X155575000Y-57785000D03*
%TD*%
%TO.P,REF\u002A\u002A,1*%
%TO.N,GND*%
X158115000Y-57785000D03*
%TD*%
%TO.P,REF\u002A\u002A,1*%
%TO.N,GND*%
X160655000Y-57785000D03*
%TD*%
%TO.P,REF\u002A\u002A,1*%
%TO.N,GND*%
X153035000Y-57785000D03*
%TD*%
%TO.P,REF\u002A\u002A,1*%
%TO.N,GND*%
X147955000Y-57785000D03*
%TD*%
%TO.P,REF\u002A\u002A,1*%
%TO.N,GND*%
X170815000Y-150495000D03*
%TD*%
%TO.P,REF\u002A\u002A,1*%
%TO.N,GND*%
X168275000Y-150495000D03*
%TD*%
%TO.P,REF\u002A\u002A,1*%
%TO.N,GND*%
X107040000Y-59740000D03*
%TD*%
%TO.P,C1,1*%
%TO.N,+5V*%
X126440000Y-62140000D03*
%TO.P,C1,2*%
%TO.N,GND*%
X123940000Y-62140000D03*
%TD*%
D13*
%TO.N,Net-(P1-~{HALT})*%
X101600000Y-81280000D03*
%TO.N,Net-(P1-D4)*%
X104775000Y-95250000D03*
%TO.N,Net-(P1-SND)*%
X103632008Y-124206000D03*
%TO.N,Net-(P1-A14)*%
X103124000Y-127000000D03*
X107315000Y-128270000D03*
X106680000Y-118110000D03*
D14*
%TO.N,GND*%
X104394000Y-137795000D03*
X120650000Y-76200000D03*
X121285000Y-121920000D03*
X102235014Y-120650000D03*
X120650000Y-81280000D03*
X115570000Y-121920000D03*
X103505000Y-121920004D03*
D13*
%TO.N,Net-(P1-A11)*%
X104775000Y-114300000D03*
%TO.N,Net-(P1-~{RESET})*%
X101600000Y-83820000D03*
%TO.N,Net-(P1-Q)*%
X101600000Y-86360000D03*
%TO.N,Net-(P1-A7)*%
X112014000Y-104902002D03*
X104775000Y-109220000D03*
%TO.N,Net-(P1-A1)*%
X111506000Y-95758000D03*
X104775000Y-101600000D03*
%TO.N,Net-(P1-D6)*%
X104775000Y-97790000D03*
%TO.N,Net-(P1-A3)*%
X112014000Y-98806000D03*
X104775000Y-104140000D03*
%TO.N,Net-(P1-A15)*%
X106680000Y-124968000D03*
X105410000Y-118110000D03*
%TO.N,Net-(P1-D0)*%
X104775000Y-90170000D03*
%TO.N,Net-(P1-A9)*%
X104775000Y-111760000D03*
%TO.N,Net-(P1-A5)*%
X104775000Y-106680000D03*
X112014000Y-102108000D03*
%TO.N,Net-(P1-D2)*%
X104775000Y-92710000D03*
%TO.N,Net-(P1-A13)*%
X105918000Y-126238000D03*
X104140000Y-118110000D03*
D14*
%TO.N,+5V*%
X123825000Y-78740000D03*
X104140000Y-78740000D03*
X102870000Y-78740000D03*
X125730000Y-78740000D03*
%TD*%
D15*
%TO.N,Net-(P1-D3)*%
X115570000Y-66040000D02*
X118110000Y-66040000D01*
D16*
X103505000Y-93980000D02*
X104902000Y-93980000D01*
X104902000Y-93980000D02*
X108458000Y-90424000D01*
X102235000Y-95250000D02*
X103505000Y-93980000D01*
X108458000Y-90424000D02*
X108458000Y-73152000D01*
X95250000Y-95250000D02*
X102235000Y-95250000D01*
X108458000Y-73152000D02*
X115570000Y-66040000D01*
D15*
%TO.N,Net-(P1-A2)*%
X115570000Y-86360000D02*
X118110000Y-86360000D01*
D16*
X113030000Y-96266000D02*
X113030000Y-88138000D01*
X106426000Y-102870000D02*
X113030000Y-96266000D01*
X113030000Y-88138000D02*
X114808000Y-86360000D01*
X101600000Y-105410000D02*
X104140000Y-102870000D01*
X104140000Y-102870000D02*
X106426000Y-102870000D01*
X95250000Y-105410000D02*
X101600000Y-105410000D01*
D15*
%TO.N,Net-(P1-D1)*%
X115570000Y-60960000D02*
X118110000Y-60960000D01*
D16*
X104902000Y-91440000D02*
X103505000Y-91440000D01*
X106934000Y-89408000D02*
X104902000Y-91440000D01*
X113792000Y-64008000D02*
X106934000Y-70866000D01*
X115570000Y-60960000D02*
X113792000Y-62738000D01*
X113792000Y-62738000D02*
X113792000Y-64008000D01*
X106934000Y-70866000D02*
X106934000Y-89408000D01*
X102235000Y-92710000D02*
X95250000Y-92710000D01*
X103505000Y-91440000D02*
X102235000Y-92710000D01*
D15*
%TO.N,Net-(P1-~{HALT})*%
X115570000Y-124460000D02*
X118110000Y-124460000D01*
D16*
X100330000Y-82550000D02*
X101600000Y-81280000D01*
X95250000Y-82550000D02*
X100330000Y-82550000D01*
D15*
%TO.N,Net-(P1-D4)*%
X115570000Y-68580000D02*
X118110000Y-68580000D01*
D16*
X109220000Y-90805000D02*
X109220000Y-74930000D01*
X109220000Y-74930000D02*
X115570000Y-68580000D01*
X104775000Y-95250000D02*
X109220000Y-90805000D01*
D15*
%TO.N,Net-(P1-SND)*%
X115570000Y-144780000D02*
X118110000Y-144780000D01*
D16*
X95250000Y-123190000D02*
X101600000Y-123190000D01*
X102616000Y-124206000D02*
X103632008Y-124206000D01*
X101600000Y-123190000D02*
X102616000Y-124206000D01*
D15*
%TO.N,Net-(P1-~{NMI})*%
X115570000Y-127000000D02*
X118110000Y-127000000D01*
%TO.N,Net-(P1-A14)*%
X115570000Y-116840000D02*
X118110000Y-116840000D01*
D16*
X107696000Y-124206000D02*
X107696000Y-127889000D01*
X107315000Y-123825000D02*
X107696000Y-124206000D01*
X106299000Y-123825000D02*
X107315000Y-123825000D01*
X107696000Y-127889000D02*
X107315000Y-128270000D01*
X114300000Y-118110000D02*
X106680000Y-118110000D01*
X115570000Y-116840000D02*
X114300000Y-118110000D01*
X103124000Y-127000000D02*
X106299000Y-123825000D01*
D15*
%TO.N,Net-(P1-~{CTS})*%
X115570000Y-142240000D02*
X118110000Y-142240000D01*
%TO.N,Net-(P1-A8)*%
X115570000Y-101600000D02*
X118110000Y-101600000D01*
D16*
X104140000Y-110490000D02*
X107950000Y-110490000D01*
X113538000Y-103632000D02*
X115570000Y-101600000D01*
X101600000Y-113030000D02*
X104140000Y-110490000D01*
X113538000Y-104902000D02*
X113538000Y-103632000D01*
X107950000Y-110490000D02*
X113538000Y-104902000D01*
X95250000Y-113030000D02*
X101600000Y-113030000D01*
D15*
%TO.N,Net-(P1-D7)*%
X115570000Y-76200000D02*
X118110000Y-76200000D01*
D16*
X115570000Y-76200000D02*
X113665000Y-76200000D01*
X104902000Y-99060000D02*
X111506000Y-92456000D01*
X111506000Y-92456000D02*
X111506000Y-78359000D01*
X103505000Y-99060000D02*
X104902000Y-99060000D01*
X111506000Y-78359000D02*
X113665000Y-76200000D01*
X102235000Y-100330000D02*
X103505000Y-99060000D01*
X95250000Y-100330000D02*
X102235000Y-100330000D01*
D17*
%TO.N,GND*%
X140120000Y-58420000D02*
X141440000Y-59740000D01*
X141390000Y-59690000D02*
X141440000Y-59740000D01*
X141605000Y-148375000D02*
X141440000Y-148540000D01*
D18*
X106680000Y-137795000D02*
X104775000Y-137795000D01*
X106680000Y-148180000D02*
X107040000Y-148540000D01*
X104775000Y-137795000D02*
X99695000Y-137795000D01*
X111760000Y-123190000D02*
X111760000Y-124460000D01*
X110490000Y-121920000D02*
X111760000Y-121920000D01*
X111760000Y-121920000D02*
X113030000Y-121920000D01*
X111760000Y-123190000D02*
X111760000Y-124460000D01*
X113030000Y-121920000D02*
X111760000Y-123190000D01*
X110490000Y-121920000D02*
X111760000Y-123190000D01*
D17*
X171450000Y-57785000D02*
X176735000Y-57785000D01*
X122555000Y-68580000D02*
X122555000Y-76200000D01*
D18*
X106680000Y-137795000D02*
X106680000Y-148180000D01*
D17*
X122555000Y-149860000D02*
X122555000Y-124460000D01*
X120650000Y-80010000D02*
X121285000Y-79375000D01*
X121285000Y-79375000D02*
X121285000Y-78740000D01*
X143395000Y-57785000D02*
X141440000Y-59740000D01*
X121666000Y-77724000D02*
X121666000Y-79756000D01*
X120650000Y-80010000D02*
X120650000Y-81280000D01*
X122555000Y-68580000D02*
X122555000Y-63540000D01*
X121285000Y-78740000D02*
X120650000Y-78740000D01*
D16*
X123865000Y-57825000D02*
X122630010Y-56590010D01*
D17*
X122555000Y-81280000D02*
X122555000Y-80645000D01*
X122555000Y-121920000D02*
X122555000Y-124460000D01*
X121793000Y-79883000D02*
X121285000Y-79375000D01*
D16*
X122630010Y-56590010D02*
X110189990Y-56590010D01*
D17*
X120650000Y-76200000D02*
X120650000Y-77470000D01*
X121666000Y-79756000D02*
X121793000Y-79883000D01*
D18*
X141440000Y-148540000D02*
X141020000Y-148540000D01*
D17*
X106095000Y-59740000D02*
X104775000Y-61060000D01*
X122555000Y-76835000D02*
X122555000Y-76200000D01*
X120904000Y-77724000D02*
X120650000Y-77470000D01*
X121666000Y-77724000D02*
X122555000Y-76835000D01*
X176735000Y-150495000D02*
X178690000Y-148540000D01*
X104140000Y-70485000D02*
X100330000Y-70485000D01*
D18*
X115570000Y-121920000D02*
X122555000Y-121920000D01*
X103505000Y-121920004D02*
X102235014Y-120650018D01*
D17*
X122555000Y-80645000D02*
X121793000Y-79883000D01*
X107040000Y-59740000D02*
X106095000Y-59740000D01*
X176735000Y-57785000D02*
X178690000Y-59740000D01*
X122555000Y-63540000D02*
X123865000Y-62230000D01*
D16*
X110189990Y-56590010D02*
X107040000Y-59740000D01*
D17*
X122555000Y-121920000D02*
X122555000Y-119380000D01*
X148590000Y-57785000D02*
X171450000Y-57785000D01*
D16*
X123865000Y-58460000D02*
X123865000Y-57825000D01*
D17*
X121666000Y-77724000D02*
X120904000Y-77724000D01*
D19*
X95250000Y-120650000D02*
X101600000Y-120650000D01*
D17*
X148590000Y-57785000D02*
X143395000Y-57785000D01*
X121285000Y-79375000D02*
X121285000Y-78105000D01*
X151130000Y-150495000D02*
X168910000Y-150495000D01*
D18*
X111760000Y-132715000D02*
X106680000Y-137795000D01*
D17*
X168910000Y-150495000D02*
X176735000Y-150495000D01*
D18*
X111760000Y-121920000D02*
X111760000Y-124460000D01*
D17*
X123865000Y-62230000D02*
X123865000Y-58460000D01*
X141440000Y-148540000D02*
X139485000Y-150495000D01*
X122555000Y-119380000D02*
X122555000Y-81280000D01*
X123190000Y-150495000D02*
X122555000Y-149860000D01*
X104775000Y-69850000D02*
X104140000Y-70485000D01*
D18*
X102235014Y-120650018D02*
X102235014Y-120650000D01*
D17*
X139485000Y-150495000D02*
X123190000Y-150495000D01*
D18*
X101600000Y-120650000D02*
X102235014Y-120650000D01*
X110490000Y-121920000D02*
X103505004Y-121920000D01*
D17*
X104775000Y-61060000D02*
X104775000Y-69850000D01*
X120650000Y-77470000D02*
X121285000Y-78105000D01*
D18*
X111760000Y-124460000D02*
X111760000Y-132715000D01*
D17*
X141440000Y-148540000D02*
X143395000Y-150495000D01*
X121666000Y-79756000D02*
X120904000Y-79756000D01*
X120904000Y-79756000D02*
X120650000Y-80010000D01*
X143395000Y-150495000D02*
X151130000Y-150495000D01*
X121285000Y-78105000D02*
X121666000Y-77724000D01*
D18*
X113030000Y-121920000D02*
X115570000Y-121920000D01*
D17*
X120650000Y-77470000D02*
X120650000Y-78740000D01*
D18*
X103505004Y-121920000D02*
X103505000Y-121920004D01*
D17*
X120650000Y-78740000D02*
X120650000Y-80010000D01*
D15*
%TO.N,Net-(P1-D5)*%
X115570000Y-71120000D02*
X118110000Y-71120000D01*
D16*
X109982000Y-91440000D02*
X109982000Y-76073000D01*
X104902000Y-96520000D02*
X109982000Y-91440000D01*
X95250000Y-97790000D02*
X102235000Y-97790000D01*
X103505000Y-96520000D02*
X104902000Y-96520000D01*
X102235000Y-97790000D02*
X103505000Y-96520000D01*
X109982000Y-76073000D02*
X114935000Y-71120000D01*
D15*
%TO.N,Net-(P1-A0)*%
X115570000Y-81280000D02*
X118110000Y-81280000D01*
D16*
X112268000Y-84582000D02*
X115570000Y-81280000D01*
X104902000Y-100330000D02*
X112268000Y-92964000D01*
X101600000Y-102870000D02*
X104140000Y-100330000D01*
X104140000Y-100330000D02*
X104902000Y-100330000D01*
X112268000Y-92964000D02*
X112268000Y-84582000D01*
X95250000Y-102870000D02*
X101600000Y-102870000D01*
D15*
%TO.N,Net-(P1-A11)*%
X115570000Y-109220000D02*
X118110000Y-109220000D01*
D16*
X104775000Y-114300000D02*
X110490000Y-114300000D01*
X110490000Y-114300000D02*
X115570000Y-109220000D01*
%TO.N,Net-(P1-~{RESET})*%
X100330000Y-85090000D02*
X101600000Y-83820000D01*
D15*
X115570000Y-129540000D02*
X118110000Y-129540000D01*
D16*
X95250000Y-85090000D02*
X100330000Y-85090000D01*
D15*
%TO.N,Net-(P1-Q)*%
X115570000Y-134620000D02*
X118110000Y-134620000D01*
D16*
X95250000Y-87630000D02*
X100330000Y-87630000D01*
X100330000Y-87630000D02*
X101600000Y-86360000D01*
D15*
%TO.N,Net-(P1-A10)*%
X115570000Y-106680000D02*
X118110000Y-106680000D01*
D16*
X109220000Y-113030000D02*
X115570000Y-106680000D01*
X101600000Y-115570000D02*
X104140000Y-113030000D01*
X104140000Y-113030000D02*
X109220000Y-113030000D01*
X95250000Y-115570000D02*
X101600000Y-115570000D01*
D15*
%TO.N,Net-(P1-~{SCS})*%
X115570000Y-147320000D02*
X118110000Y-147320000D01*
%TO.N,Net-(P1-A7)*%
X115570000Y-99060000D02*
X118110000Y-99060000D01*
D16*
X104775000Y-109220000D02*
X107696002Y-109220000D01*
X107696002Y-109220000D02*
X112014000Y-104902002D01*
D15*
%TO.N,Net-(P1-A12)*%
X115570000Y-111760000D02*
X118110000Y-111760000D01*
D16*
X95250000Y-118110000D02*
X101600000Y-118110000D01*
X104140000Y-115570000D02*
X111760000Y-115570000D01*
X101600000Y-118110000D02*
X104140000Y-115570000D01*
X111760000Y-115570000D02*
X115570000Y-111760000D01*
D15*
%TO.N,Net-(P1-A1)*%
X115570000Y-83820000D02*
X118110000Y-83820000D01*
D16*
X111506000Y-95758000D02*
X105664000Y-101600000D01*
X105664000Y-101600000D02*
X104775000Y-101600000D01*
D15*
%TO.N,Net-(P1-R{slash}~{W})*%
X115570000Y-139700000D02*
X118110000Y-139700000D01*
%TO.N,Net-(P1-D6)*%
X115570000Y-73660000D02*
X118110000Y-73660000D01*
D16*
X110744000Y-77216000D02*
X114300000Y-73660000D01*
X110744000Y-91821000D02*
X110744000Y-77216000D01*
X114300000Y-73660000D02*
X115570000Y-73660000D01*
X104775000Y-97790000D02*
X110744000Y-91821000D01*
D15*
%TO.N,Net-(P1-A3)*%
X115570000Y-88900000D02*
X118110000Y-88900000D01*
D16*
X104775000Y-104140000D02*
X106680000Y-104140000D01*
X106680000Y-104140000D02*
X112014000Y-98806000D01*
D15*
%TO.N,Net-(P1-A15)*%
X115570000Y-119380000D02*
X118110000Y-119380000D01*
D16*
X106934000Y-125222000D02*
X106680000Y-124968000D01*
X105410000Y-118745000D02*
X106045000Y-119380000D01*
X104648000Y-129032000D02*
X106934000Y-126746000D01*
X105410000Y-118110000D02*
X105410000Y-118745000D01*
X101600000Y-128270000D02*
X102362000Y-129032000D01*
X95250000Y-128270000D02*
X101600000Y-128270000D01*
X106045000Y-119380000D02*
X115570000Y-119380000D01*
X102362000Y-129032000D02*
X104648000Y-129032000D01*
X106934000Y-126746000D02*
X106934000Y-125222000D01*
D15*
%TO.N,Net-(P1-~{SLENB})*%
X115570000Y-149860000D02*
X118110000Y-149860000D01*
%TO.N,Net-(P1-D0)*%
X115570000Y-58420000D02*
X118110000Y-58420000D01*
D16*
X106172000Y-70167500D02*
X112776000Y-63563500D01*
X104775000Y-90170000D02*
X106172000Y-88773000D01*
X112776000Y-63563500D02*
X112776000Y-62484000D01*
X106172000Y-88773000D02*
X106172000Y-70167500D01*
X113792000Y-61468000D02*
X113792000Y-60198000D01*
X112776000Y-62484000D02*
X113792000Y-61468000D01*
X113792000Y-60198000D02*
X115570000Y-58420000D01*
D15*
%TO.N,Net-(P1-E)*%
X115570000Y-132080000D02*
X118110000Y-132080000D01*
%TO.N,Net-(P1-~{CART})*%
X115570000Y-137160000D02*
X118110000Y-137160000D01*
%TO.N,Net-(P1-A9)*%
X115570000Y-104140000D02*
X118110000Y-104140000D01*
D16*
X107950000Y-111760000D02*
X104775000Y-111760000D01*
X115570000Y-104140000D02*
X107950000Y-111760000D01*
D15*
%TO.N,Net-(P1-A6)*%
X115570000Y-96520000D02*
X118110000Y-96520000D01*
D16*
X107442000Y-107950000D02*
X113792000Y-101600000D01*
X113792000Y-101600000D02*
X113792000Y-98298000D01*
X101600000Y-110490000D02*
X104140000Y-107950000D01*
X113792000Y-98298000D02*
X115570000Y-96520000D01*
X95250000Y-110490000D02*
X101600000Y-110490000D01*
X104140000Y-107950000D02*
X107442000Y-107950000D01*
D15*
%TO.N,Net-(P1-A5)*%
X115570000Y-93980000D02*
X118110000Y-93980000D01*
D16*
X107442000Y-106680000D02*
X112014000Y-102108000D01*
X104775000Y-106680000D02*
X107442000Y-106680000D01*
D15*
%TO.N,Net-(P1-D2)*%
X115570000Y-63500000D02*
X118110000Y-63500000D01*
D16*
X107696000Y-71374000D02*
X115570000Y-63500000D01*
X104775000Y-92710000D02*
X104965500Y-92710000D01*
X104965500Y-92710000D02*
X107696000Y-89979500D01*
X107696000Y-89979500D02*
X107696000Y-71374000D01*
D15*
%TO.N,Net-(P1-A13)*%
X115570000Y-114300000D02*
X118110000Y-114300000D01*
D16*
X101600000Y-125730000D02*
X95250000Y-125730000D01*
X102108000Y-126238000D02*
X101600000Y-125730000D01*
X102616000Y-128016000D02*
X102108000Y-127508000D01*
X104140000Y-117475000D02*
X104775000Y-116840000D01*
X105918000Y-126238000D02*
X104140000Y-128016000D01*
X104140000Y-128016000D02*
X102616000Y-128016000D01*
X102108000Y-127508000D02*
X102108000Y-126238000D01*
X104775000Y-116840000D02*
X113030000Y-116840000D01*
X113030000Y-116840000D02*
X115570000Y-114300000D01*
X104140000Y-118110000D02*
X104140000Y-117475000D01*
D15*
%TO.N,Net-(P1-A4)*%
X115570000Y-91440000D02*
X118110000Y-91440000D01*
D16*
X104140000Y-105410000D02*
X101600000Y-107950000D01*
X101600000Y-107950000D02*
X95250000Y-107950000D01*
X113030000Y-99568000D02*
X107188000Y-105410000D01*
X113792000Y-93218000D02*
X113792000Y-97028000D01*
X113792000Y-97028000D02*
X113030000Y-97790000D01*
X107188000Y-105410000D02*
X104140000Y-105410000D01*
X113030000Y-97790000D02*
X113030000Y-99568000D01*
X115570000Y-91440000D02*
X113792000Y-93218000D01*
D18*
%TO.N,+5V*%
X101600000Y-90170000D02*
X104140000Y-87630000D01*
X104140000Y-78740000D02*
X104140000Y-80010000D01*
X104140000Y-78740000D02*
X104140000Y-78740000D01*
X104140000Y-80010000D02*
X104140000Y-87630000D01*
X123825000Y-78740000D02*
X125730000Y-78740000D01*
D17*
X125730000Y-68580000D02*
X125730000Y-64770000D01*
X125730000Y-64770000D02*
X126365000Y-64135000D01*
D18*
X104140000Y-78740000D02*
X102870000Y-78740000D01*
D19*
X95250000Y-90170000D02*
X101600000Y-90170000D01*
D17*
X126365000Y-64135000D02*
X126365000Y-62230000D01*
X125730000Y-147320000D02*
X125730000Y-119380000D01*
D18*
X102870000Y-78740000D02*
X104140000Y-80010000D01*
D17*
X125730000Y-121920000D02*
X125730000Y-68580000D01*
%TD*%
%TA.AperFunction,Conductor*%
%TO.N,GND*%
G36*
X141547121Y-56235502D02*
G01*
X141593614Y-56289158D01*
X141605000Y-56341500D01*
X141605000Y-59564000D01*
X141584998Y-59632121D01*
X141531342Y-59678614D01*
X141479000Y-59690000D01*
X139117190Y-59690000D01*
X139049069Y-59669998D01*
X139028095Y-59653095D01*
X137160001Y-57785000D01*
X137160000Y-57785000D01*
X125730000Y-57785000D01*
X125729998Y-57785000D01*
X124460002Y-59054996D01*
X124460000Y-59055000D01*
X123948553Y-61612235D01*
X123915580Y-61675110D01*
X123853848Y-61710177D01*
X123782957Y-61706303D01*
X123725415Y-61664717D01*
X123701447Y-61612235D01*
X123190000Y-59055000D01*
X123189998Y-59054998D01*
X123189997Y-59054996D01*
X121920001Y-57785000D01*
X121920000Y-57785000D01*
X120067190Y-57785000D01*
X119999069Y-57764998D01*
X119978099Y-57748099D01*
X119380000Y-57150000D01*
X114300000Y-57150000D01*
X113701903Y-57748096D01*
X113639593Y-57782120D01*
X113612810Y-57785000D01*
X111759998Y-57785000D01*
X109891905Y-59653095D01*
X109829593Y-59687120D01*
X109802810Y-59690000D01*
X107441000Y-59690000D01*
X107372879Y-59669998D01*
X107326386Y-59616342D01*
X107315000Y-59564000D01*
X107315000Y-56341500D01*
X107335002Y-56273379D01*
X107388658Y-56226886D01*
X107441000Y-56215500D01*
X141479000Y-56215500D01*
X141547121Y-56235502D01*
G37*
%TD.AperFunction*%
%TD*%
%TA.AperFunction,Conductor*%
%TO.N,GND*%
G36*
X103447121Y-67330002D02*
G01*
X103493614Y-67383658D01*
X103505000Y-67436000D01*
X103505000Y-73534000D01*
X103484998Y-73602121D01*
X103431342Y-73648614D01*
X103379000Y-73660000D01*
X100813294Y-73660000D01*
X100745173Y-73639998D01*
X100708528Y-73604001D01*
X100704003Y-73597229D01*
X100682770Y-73575996D01*
X100682766Y-73575993D01*
X100655018Y-73564500D01*
X95148257Y-73564500D01*
X95131811Y-73563422D01*
X95046579Y-73552201D01*
X95014806Y-73543687D01*
X94943074Y-73513974D01*
X94914589Y-73497529D01*
X94852993Y-73450265D01*
X94829734Y-73427006D01*
X94782470Y-73365410D01*
X94766025Y-73336925D01*
X94736312Y-73265193D01*
X94727798Y-73233419D01*
X94716578Y-73148187D01*
X94715500Y-73131742D01*
X94715500Y-67648257D01*
X94716578Y-67631812D01*
X94724036Y-67575157D01*
X94727799Y-67546576D01*
X94736312Y-67514806D01*
X94766025Y-67443074D01*
X94782472Y-67414588D01*
X94824901Y-67359295D01*
X94882239Y-67317428D01*
X94924862Y-67310000D01*
X103379000Y-67310000D01*
X103447121Y-67330002D01*
G37*
%TD.AperFunction*%
%TD*%
%TA.AperFunction,Conductor*%
%TO.N,GND*%
G36*
X103447121Y-134640002D02*
G01*
X103493614Y-134693658D01*
X103505000Y-134746000D01*
X103505000Y-140844000D01*
X103484998Y-140912121D01*
X103431342Y-140958614D01*
X103379000Y-140970000D01*
X94924862Y-140970000D01*
X94921145Y-140968908D01*
X94917370Y-140969777D01*
X94887350Y-140958985D01*
X94856741Y-140949998D01*
X94853144Y-140946689D01*
X94850559Y-140945760D01*
X94824900Y-140920704D01*
X94782471Y-140865410D01*
X94766025Y-140836925D01*
X94736312Y-140765193D01*
X94727798Y-140733419D01*
X94716578Y-140648187D01*
X94715500Y-140631742D01*
X94715500Y-135148257D01*
X94716578Y-135131812D01*
X94724036Y-135075157D01*
X94727799Y-135046576D01*
X94736312Y-135014806D01*
X94766025Y-134943074D01*
X94782467Y-134914593D01*
X94829738Y-134852988D01*
X94852988Y-134829738D01*
X94914593Y-134782467D01*
X94943074Y-134766025D01*
X95014806Y-134736312D01*
X95046576Y-134727799D01*
X95121982Y-134717871D01*
X95131812Y-134716578D01*
X95148257Y-134715500D01*
X100655018Y-134715500D01*
X100682767Y-134704006D01*
X100704006Y-134682767D01*
X100704007Y-134682763D01*
X100708528Y-134675999D01*
X100763005Y-134630471D01*
X100813294Y-134620000D01*
X103379000Y-134620000D01*
X103447121Y-134640002D01*
G37*
%TD.AperFunction*%
%TD*%
M02*
