G04 #@! TF.GenerationSoftware,KiCad,Pcbnew,9.0.7*
G04 #@! TF.CreationDate,2026-01-11T18:39:09-08:00*
G04 #@! TF.ProjectId,CoCoProtoBoard,436f436f-5072-46f7-946f-426f6172642e,rev?*
G04 #@! TF.SameCoordinates,Original*
G04 #@! TF.FileFunction,Legend,Top*
G04 #@! TF.FilePolarity,Positive*
%FSLAX46Y46*%
G04 Gerber Fmt 4.6, Leading zero omitted, Abs format (unit mm)*
G04 Created by KiCad (PCBNEW 9.0.7) date 2026-01-11 18:39:09*
%MOMM*%
%LPD*%
G01*
G04 APERTURE LIST*
%ADD10C,0.150000*%
%ADD11C,0.600000*%
%ADD12C,0.170000*%
%ADD13C,0.120000*%
G04 APERTURE END LIST*
D10*
X172720000Y-59055000D02*
X146940000Y-59140000D01*
X146940000Y-56515000D02*
X172720000Y-56515000D01*
X146940000Y-59140000D02*
X146940000Y-56515000D01*
X172720000Y-56515000D02*
X172720000Y-59055000D01*
X172720000Y-149225000D02*
X172720000Y-151765000D01*
X146440000Y-151765000D02*
X146440000Y-149225000D01*
X146440000Y-149225000D02*
X172220000Y-149225000D01*
X172340000Y-151765000D02*
X146440000Y-151765000D01*
X112315714Y-81449104D02*
X112791904Y-81449104D01*
X112220476Y-81734819D02*
X112553809Y-80734819D01*
X112553809Y-80734819D02*
X112887142Y-81734819D01*
X113410952Y-80734819D02*
X113506190Y-80734819D01*
X113506190Y-80734819D02*
X113601428Y-80782438D01*
X113601428Y-80782438D02*
X113649047Y-80830057D01*
X113649047Y-80830057D02*
X113696666Y-80925295D01*
X113696666Y-80925295D02*
X113744285Y-81115771D01*
X113744285Y-81115771D02*
X113744285Y-81353866D01*
X113744285Y-81353866D02*
X113696666Y-81544342D01*
X113696666Y-81544342D02*
X113649047Y-81639580D01*
X113649047Y-81639580D02*
X113601428Y-81687200D01*
X113601428Y-81687200D02*
X113506190Y-81734819D01*
X113506190Y-81734819D02*
X113410952Y-81734819D01*
X113410952Y-81734819D02*
X113315714Y-81687200D01*
X113315714Y-81687200D02*
X113268095Y-81639580D01*
X113268095Y-81639580D02*
X113220476Y-81544342D01*
X113220476Y-81544342D02*
X113172857Y-81353866D01*
X113172857Y-81353866D02*
X113172857Y-81115771D01*
X113172857Y-81115771D02*
X113220476Y-80925295D01*
X113220476Y-80925295D02*
X113268095Y-80830057D01*
X113268095Y-80830057D02*
X113315714Y-80782438D01*
X113315714Y-80782438D02*
X113410952Y-80734819D01*
X112315714Y-83989104D02*
X112791904Y-83989104D01*
X112220476Y-84274819D02*
X112553809Y-83274819D01*
X112553809Y-83274819D02*
X112887142Y-84274819D01*
X113744285Y-84274819D02*
X113172857Y-84274819D01*
X113458571Y-84274819D02*
X113458571Y-83274819D01*
X113458571Y-83274819D02*
X113363333Y-83417676D01*
X113363333Y-83417676D02*
X113268095Y-83512914D01*
X113268095Y-83512914D02*
X113172857Y-83560533D01*
X112315714Y-86529104D02*
X112791904Y-86529104D01*
X112220476Y-86814819D02*
X112553809Y-85814819D01*
X112553809Y-85814819D02*
X112887142Y-86814819D01*
X113172857Y-85910057D02*
X113220476Y-85862438D01*
X113220476Y-85862438D02*
X113315714Y-85814819D01*
X113315714Y-85814819D02*
X113553809Y-85814819D01*
X113553809Y-85814819D02*
X113649047Y-85862438D01*
X113649047Y-85862438D02*
X113696666Y-85910057D01*
X113696666Y-85910057D02*
X113744285Y-86005295D01*
X113744285Y-86005295D02*
X113744285Y-86100533D01*
X113744285Y-86100533D02*
X113696666Y-86243390D01*
X113696666Y-86243390D02*
X113125238Y-86814819D01*
X113125238Y-86814819D02*
X113744285Y-86814819D01*
X112315714Y-89069104D02*
X112791904Y-89069104D01*
X112220476Y-89354819D02*
X112553809Y-88354819D01*
X112553809Y-88354819D02*
X112887142Y-89354819D01*
X113125238Y-88354819D02*
X113744285Y-88354819D01*
X113744285Y-88354819D02*
X113410952Y-88735771D01*
X113410952Y-88735771D02*
X113553809Y-88735771D01*
X113553809Y-88735771D02*
X113649047Y-88783390D01*
X113649047Y-88783390D02*
X113696666Y-88831009D01*
X113696666Y-88831009D02*
X113744285Y-88926247D01*
X113744285Y-88926247D02*
X113744285Y-89164342D01*
X113744285Y-89164342D02*
X113696666Y-89259580D01*
X113696666Y-89259580D02*
X113649047Y-89307200D01*
X113649047Y-89307200D02*
X113553809Y-89354819D01*
X113553809Y-89354819D02*
X113268095Y-89354819D01*
X113268095Y-89354819D02*
X113172857Y-89307200D01*
X113172857Y-89307200D02*
X113125238Y-89259580D01*
X112315714Y-91609104D02*
X112791904Y-91609104D01*
X112220476Y-91894819D02*
X112553809Y-90894819D01*
X112553809Y-90894819D02*
X112887142Y-91894819D01*
X113649047Y-91228152D02*
X113649047Y-91894819D01*
X113410952Y-90847200D02*
X113172857Y-91561485D01*
X113172857Y-91561485D02*
X113791904Y-91561485D01*
X112315714Y-94149104D02*
X112791904Y-94149104D01*
X112220476Y-94434819D02*
X112553809Y-93434819D01*
X112553809Y-93434819D02*
X112887142Y-94434819D01*
X113696666Y-93434819D02*
X113220476Y-93434819D01*
X113220476Y-93434819D02*
X113172857Y-93911009D01*
X113172857Y-93911009D02*
X113220476Y-93863390D01*
X113220476Y-93863390D02*
X113315714Y-93815771D01*
X113315714Y-93815771D02*
X113553809Y-93815771D01*
X113553809Y-93815771D02*
X113649047Y-93863390D01*
X113649047Y-93863390D02*
X113696666Y-93911009D01*
X113696666Y-93911009D02*
X113744285Y-94006247D01*
X113744285Y-94006247D02*
X113744285Y-94244342D01*
X113744285Y-94244342D02*
X113696666Y-94339580D01*
X113696666Y-94339580D02*
X113649047Y-94387200D01*
X113649047Y-94387200D02*
X113553809Y-94434819D01*
X113553809Y-94434819D02*
X113315714Y-94434819D01*
X113315714Y-94434819D02*
X113220476Y-94387200D01*
X113220476Y-94387200D02*
X113172857Y-94339580D01*
X112315714Y-96689104D02*
X112791904Y-96689104D01*
X112220476Y-96974819D02*
X112553809Y-95974819D01*
X112553809Y-95974819D02*
X112887142Y-96974819D01*
X113649047Y-95974819D02*
X113458571Y-95974819D01*
X113458571Y-95974819D02*
X113363333Y-96022438D01*
X113363333Y-96022438D02*
X113315714Y-96070057D01*
X113315714Y-96070057D02*
X113220476Y-96212914D01*
X113220476Y-96212914D02*
X113172857Y-96403390D01*
X113172857Y-96403390D02*
X113172857Y-96784342D01*
X113172857Y-96784342D02*
X113220476Y-96879580D01*
X113220476Y-96879580D02*
X113268095Y-96927200D01*
X113268095Y-96927200D02*
X113363333Y-96974819D01*
X113363333Y-96974819D02*
X113553809Y-96974819D01*
X113553809Y-96974819D02*
X113649047Y-96927200D01*
X113649047Y-96927200D02*
X113696666Y-96879580D01*
X113696666Y-96879580D02*
X113744285Y-96784342D01*
X113744285Y-96784342D02*
X113744285Y-96546247D01*
X113744285Y-96546247D02*
X113696666Y-96451009D01*
X113696666Y-96451009D02*
X113649047Y-96403390D01*
X113649047Y-96403390D02*
X113553809Y-96355771D01*
X113553809Y-96355771D02*
X113363333Y-96355771D01*
X113363333Y-96355771D02*
X113268095Y-96403390D01*
X113268095Y-96403390D02*
X113220476Y-96451009D01*
X113220476Y-96451009D02*
X113172857Y-96546247D01*
X112315714Y-99229104D02*
X112791904Y-99229104D01*
X112220476Y-99514819D02*
X112553809Y-98514819D01*
X112553809Y-98514819D02*
X112887142Y-99514819D01*
X113125238Y-98514819D02*
X113791904Y-98514819D01*
X113791904Y-98514819D02*
X113363333Y-99514819D01*
X112315714Y-101769104D02*
X112791904Y-101769104D01*
X112220476Y-102054819D02*
X112553809Y-101054819D01*
X112553809Y-101054819D02*
X112887142Y-102054819D01*
X113363333Y-101483390D02*
X113268095Y-101435771D01*
X113268095Y-101435771D02*
X113220476Y-101388152D01*
X113220476Y-101388152D02*
X113172857Y-101292914D01*
X113172857Y-101292914D02*
X113172857Y-101245295D01*
X113172857Y-101245295D02*
X113220476Y-101150057D01*
X113220476Y-101150057D02*
X113268095Y-101102438D01*
X113268095Y-101102438D02*
X113363333Y-101054819D01*
X113363333Y-101054819D02*
X113553809Y-101054819D01*
X113553809Y-101054819D02*
X113649047Y-101102438D01*
X113649047Y-101102438D02*
X113696666Y-101150057D01*
X113696666Y-101150057D02*
X113744285Y-101245295D01*
X113744285Y-101245295D02*
X113744285Y-101292914D01*
X113744285Y-101292914D02*
X113696666Y-101388152D01*
X113696666Y-101388152D02*
X113649047Y-101435771D01*
X113649047Y-101435771D02*
X113553809Y-101483390D01*
X113553809Y-101483390D02*
X113363333Y-101483390D01*
X113363333Y-101483390D02*
X113268095Y-101531009D01*
X113268095Y-101531009D02*
X113220476Y-101578628D01*
X113220476Y-101578628D02*
X113172857Y-101673866D01*
X113172857Y-101673866D02*
X113172857Y-101864342D01*
X113172857Y-101864342D02*
X113220476Y-101959580D01*
X113220476Y-101959580D02*
X113268095Y-102007200D01*
X113268095Y-102007200D02*
X113363333Y-102054819D01*
X113363333Y-102054819D02*
X113553809Y-102054819D01*
X113553809Y-102054819D02*
X113649047Y-102007200D01*
X113649047Y-102007200D02*
X113696666Y-101959580D01*
X113696666Y-101959580D02*
X113744285Y-101864342D01*
X113744285Y-101864342D02*
X113744285Y-101673866D01*
X113744285Y-101673866D02*
X113696666Y-101578628D01*
X113696666Y-101578628D02*
X113649047Y-101531009D01*
X113649047Y-101531009D02*
X113553809Y-101483390D01*
X112315714Y-104309104D02*
X112791904Y-104309104D01*
X112220476Y-104594819D02*
X112553809Y-103594819D01*
X112553809Y-103594819D02*
X112887142Y-104594819D01*
X113268095Y-104594819D02*
X113458571Y-104594819D01*
X113458571Y-104594819D02*
X113553809Y-104547200D01*
X113553809Y-104547200D02*
X113601428Y-104499580D01*
X113601428Y-104499580D02*
X113696666Y-104356723D01*
X113696666Y-104356723D02*
X113744285Y-104166247D01*
X113744285Y-104166247D02*
X113744285Y-103785295D01*
X113744285Y-103785295D02*
X113696666Y-103690057D01*
X113696666Y-103690057D02*
X113649047Y-103642438D01*
X113649047Y-103642438D02*
X113553809Y-103594819D01*
X113553809Y-103594819D02*
X113363333Y-103594819D01*
X113363333Y-103594819D02*
X113268095Y-103642438D01*
X113268095Y-103642438D02*
X113220476Y-103690057D01*
X113220476Y-103690057D02*
X113172857Y-103785295D01*
X113172857Y-103785295D02*
X113172857Y-104023390D01*
X113172857Y-104023390D02*
X113220476Y-104118628D01*
X113220476Y-104118628D02*
X113268095Y-104166247D01*
X113268095Y-104166247D02*
X113363333Y-104213866D01*
X113363333Y-104213866D02*
X113553809Y-104213866D01*
X113553809Y-104213866D02*
X113649047Y-104166247D01*
X113649047Y-104166247D02*
X113696666Y-104118628D01*
X113696666Y-104118628D02*
X113744285Y-104023390D01*
X111839524Y-106849104D02*
X112315714Y-106849104D01*
X111744286Y-107134819D02*
X112077619Y-106134819D01*
X112077619Y-106134819D02*
X112410952Y-107134819D01*
X113268095Y-107134819D02*
X112696667Y-107134819D01*
X112982381Y-107134819D02*
X112982381Y-106134819D01*
X112982381Y-106134819D02*
X112887143Y-106277676D01*
X112887143Y-106277676D02*
X112791905Y-106372914D01*
X112791905Y-106372914D02*
X112696667Y-106420533D01*
X113887143Y-106134819D02*
X113982381Y-106134819D01*
X113982381Y-106134819D02*
X114077619Y-106182438D01*
X114077619Y-106182438D02*
X114125238Y-106230057D01*
X114125238Y-106230057D02*
X114172857Y-106325295D01*
X114172857Y-106325295D02*
X114220476Y-106515771D01*
X114220476Y-106515771D02*
X114220476Y-106753866D01*
X114220476Y-106753866D02*
X114172857Y-106944342D01*
X114172857Y-106944342D02*
X114125238Y-107039580D01*
X114125238Y-107039580D02*
X114077619Y-107087200D01*
X114077619Y-107087200D02*
X113982381Y-107134819D01*
X113982381Y-107134819D02*
X113887143Y-107134819D01*
X113887143Y-107134819D02*
X113791905Y-107087200D01*
X113791905Y-107087200D02*
X113744286Y-107039580D01*
X113744286Y-107039580D02*
X113696667Y-106944342D01*
X113696667Y-106944342D02*
X113649048Y-106753866D01*
X113649048Y-106753866D02*
X113649048Y-106515771D01*
X113649048Y-106515771D02*
X113696667Y-106325295D01*
X113696667Y-106325295D02*
X113744286Y-106230057D01*
X113744286Y-106230057D02*
X113791905Y-106182438D01*
X113791905Y-106182438D02*
X113887143Y-106134819D01*
X111839524Y-109389104D02*
X112315714Y-109389104D01*
X111744286Y-109674819D02*
X112077619Y-108674819D01*
X112077619Y-108674819D02*
X112410952Y-109674819D01*
X113268095Y-109674819D02*
X112696667Y-109674819D01*
X112982381Y-109674819D02*
X112982381Y-108674819D01*
X112982381Y-108674819D02*
X112887143Y-108817676D01*
X112887143Y-108817676D02*
X112791905Y-108912914D01*
X112791905Y-108912914D02*
X112696667Y-108960533D01*
X114220476Y-109674819D02*
X113649048Y-109674819D01*
X113934762Y-109674819D02*
X113934762Y-108674819D01*
X113934762Y-108674819D02*
X113839524Y-108817676D01*
X113839524Y-108817676D02*
X113744286Y-108912914D01*
X113744286Y-108912914D02*
X113649048Y-108960533D01*
X111839524Y-111929104D02*
X112315714Y-111929104D01*
X111744286Y-112214819D02*
X112077619Y-111214819D01*
X112077619Y-111214819D02*
X112410952Y-112214819D01*
X113268095Y-112214819D02*
X112696667Y-112214819D01*
X112982381Y-112214819D02*
X112982381Y-111214819D01*
X112982381Y-111214819D02*
X112887143Y-111357676D01*
X112887143Y-111357676D02*
X112791905Y-111452914D01*
X112791905Y-111452914D02*
X112696667Y-111500533D01*
X113649048Y-111310057D02*
X113696667Y-111262438D01*
X113696667Y-111262438D02*
X113791905Y-111214819D01*
X113791905Y-111214819D02*
X114030000Y-111214819D01*
X114030000Y-111214819D02*
X114125238Y-111262438D01*
X114125238Y-111262438D02*
X114172857Y-111310057D01*
X114172857Y-111310057D02*
X114220476Y-111405295D01*
X114220476Y-111405295D02*
X114220476Y-111500533D01*
X114220476Y-111500533D02*
X114172857Y-111643390D01*
X114172857Y-111643390D02*
X113601429Y-112214819D01*
X113601429Y-112214819D02*
X114220476Y-112214819D01*
X111839524Y-114469104D02*
X112315714Y-114469104D01*
X111744286Y-114754819D02*
X112077619Y-113754819D01*
X112077619Y-113754819D02*
X112410952Y-114754819D01*
X113268095Y-114754819D02*
X112696667Y-114754819D01*
X112982381Y-114754819D02*
X112982381Y-113754819D01*
X112982381Y-113754819D02*
X112887143Y-113897676D01*
X112887143Y-113897676D02*
X112791905Y-113992914D01*
X112791905Y-113992914D02*
X112696667Y-114040533D01*
X113601429Y-113754819D02*
X114220476Y-113754819D01*
X114220476Y-113754819D02*
X113887143Y-114135771D01*
X113887143Y-114135771D02*
X114030000Y-114135771D01*
X114030000Y-114135771D02*
X114125238Y-114183390D01*
X114125238Y-114183390D02*
X114172857Y-114231009D01*
X114172857Y-114231009D02*
X114220476Y-114326247D01*
X114220476Y-114326247D02*
X114220476Y-114564342D01*
X114220476Y-114564342D02*
X114172857Y-114659580D01*
X114172857Y-114659580D02*
X114125238Y-114707200D01*
X114125238Y-114707200D02*
X114030000Y-114754819D01*
X114030000Y-114754819D02*
X113744286Y-114754819D01*
X113744286Y-114754819D02*
X113649048Y-114707200D01*
X113649048Y-114707200D02*
X113601429Y-114659580D01*
X111839524Y-117009104D02*
X112315714Y-117009104D01*
X111744286Y-117294819D02*
X112077619Y-116294819D01*
X112077619Y-116294819D02*
X112410952Y-117294819D01*
X113268095Y-117294819D02*
X112696667Y-117294819D01*
X112982381Y-117294819D02*
X112982381Y-116294819D01*
X112982381Y-116294819D02*
X112887143Y-116437676D01*
X112887143Y-116437676D02*
X112791905Y-116532914D01*
X112791905Y-116532914D02*
X112696667Y-116580533D01*
X114125238Y-116628152D02*
X114125238Y-117294819D01*
X113887143Y-116247200D02*
X113649048Y-116961485D01*
X113649048Y-116961485D02*
X114268095Y-116961485D01*
X111839524Y-119549104D02*
X112315714Y-119549104D01*
X111744286Y-119834819D02*
X112077619Y-118834819D01*
X112077619Y-118834819D02*
X112410952Y-119834819D01*
X113268095Y-119834819D02*
X112696667Y-119834819D01*
X112982381Y-119834819D02*
X112982381Y-118834819D01*
X112982381Y-118834819D02*
X112887143Y-118977676D01*
X112887143Y-118977676D02*
X112791905Y-119072914D01*
X112791905Y-119072914D02*
X112696667Y-119120533D01*
X114172857Y-118834819D02*
X113696667Y-118834819D01*
X113696667Y-118834819D02*
X113649048Y-119311009D01*
X113649048Y-119311009D02*
X113696667Y-119263390D01*
X113696667Y-119263390D02*
X113791905Y-119215771D01*
X113791905Y-119215771D02*
X114030000Y-119215771D01*
X114030000Y-119215771D02*
X114125238Y-119263390D01*
X114125238Y-119263390D02*
X114172857Y-119311009D01*
X114172857Y-119311009D02*
X114220476Y-119406247D01*
X114220476Y-119406247D02*
X114220476Y-119644342D01*
X114220476Y-119644342D02*
X114172857Y-119739580D01*
X114172857Y-119739580D02*
X114125238Y-119787200D01*
X114125238Y-119787200D02*
X114030000Y-119834819D01*
X114030000Y-119834819D02*
X113791905Y-119834819D01*
X113791905Y-119834819D02*
X113696667Y-119787200D01*
X113696667Y-119787200D02*
X113649048Y-119739580D01*
X110895000Y-124914819D02*
X110895000Y-123914819D01*
X110895000Y-124391009D02*
X111466428Y-124391009D01*
X111466428Y-124914819D02*
X111466428Y-123914819D01*
X111895000Y-124629104D02*
X112371190Y-124629104D01*
X111799762Y-124914819D02*
X112133095Y-123914819D01*
X112133095Y-123914819D02*
X112466428Y-124914819D01*
X113275952Y-124914819D02*
X112799762Y-124914819D01*
X112799762Y-124914819D02*
X112799762Y-123914819D01*
X113466429Y-123914819D02*
X114037857Y-123914819D01*
X113752143Y-124914819D02*
X113752143Y-123914819D01*
X110756905Y-123637200D02*
X114033096Y-123637200D01*
X111299762Y-127454819D02*
X111299762Y-126454819D01*
X111299762Y-126454819D02*
X111871190Y-127454819D01*
X111871190Y-127454819D02*
X111871190Y-126454819D01*
X112347381Y-127454819D02*
X112347381Y-126454819D01*
X112347381Y-126454819D02*
X112680714Y-127169104D01*
X112680714Y-127169104D02*
X113014047Y-126454819D01*
X113014047Y-126454819D02*
X113014047Y-127454819D01*
X113490238Y-127454819D02*
X113490238Y-126454819D01*
X111161667Y-126177200D02*
X113628333Y-126177200D01*
X110307618Y-129994819D02*
X109974285Y-129518628D01*
X109736190Y-129994819D02*
X109736190Y-128994819D01*
X109736190Y-128994819D02*
X110117142Y-128994819D01*
X110117142Y-128994819D02*
X110212380Y-129042438D01*
X110212380Y-129042438D02*
X110259999Y-129090057D01*
X110259999Y-129090057D02*
X110307618Y-129185295D01*
X110307618Y-129185295D02*
X110307618Y-129328152D01*
X110307618Y-129328152D02*
X110259999Y-129423390D01*
X110259999Y-129423390D02*
X110212380Y-129471009D01*
X110212380Y-129471009D02*
X110117142Y-129518628D01*
X110117142Y-129518628D02*
X109736190Y-129518628D01*
X110736190Y-129471009D02*
X111069523Y-129471009D01*
X111212380Y-129994819D02*
X110736190Y-129994819D01*
X110736190Y-129994819D02*
X110736190Y-128994819D01*
X110736190Y-128994819D02*
X111212380Y-128994819D01*
X111593333Y-129947200D02*
X111736190Y-129994819D01*
X111736190Y-129994819D02*
X111974285Y-129994819D01*
X111974285Y-129994819D02*
X112069523Y-129947200D01*
X112069523Y-129947200D02*
X112117142Y-129899580D01*
X112117142Y-129899580D02*
X112164761Y-129804342D01*
X112164761Y-129804342D02*
X112164761Y-129709104D01*
X112164761Y-129709104D02*
X112117142Y-129613866D01*
X112117142Y-129613866D02*
X112069523Y-129566247D01*
X112069523Y-129566247D02*
X111974285Y-129518628D01*
X111974285Y-129518628D02*
X111783809Y-129471009D01*
X111783809Y-129471009D02*
X111688571Y-129423390D01*
X111688571Y-129423390D02*
X111640952Y-129375771D01*
X111640952Y-129375771D02*
X111593333Y-129280533D01*
X111593333Y-129280533D02*
X111593333Y-129185295D01*
X111593333Y-129185295D02*
X111640952Y-129090057D01*
X111640952Y-129090057D02*
X111688571Y-129042438D01*
X111688571Y-129042438D02*
X111783809Y-128994819D01*
X111783809Y-128994819D02*
X112021904Y-128994819D01*
X112021904Y-128994819D02*
X112164761Y-129042438D01*
X112593333Y-129471009D02*
X112926666Y-129471009D01*
X113069523Y-129994819D02*
X112593333Y-129994819D01*
X112593333Y-129994819D02*
X112593333Y-128994819D01*
X112593333Y-128994819D02*
X113069523Y-128994819D01*
X113355238Y-128994819D02*
X113926666Y-128994819D01*
X113640952Y-129994819D02*
X113640952Y-128994819D01*
X109598095Y-128717200D02*
X113921905Y-128717200D01*
X112180714Y-132011009D02*
X112514047Y-132011009D01*
X112656904Y-132534819D02*
X112180714Y-132534819D01*
X112180714Y-132534819D02*
X112180714Y-131534819D01*
X112180714Y-131534819D02*
X112656904Y-131534819D01*
X112775952Y-135170057D02*
X112680714Y-135122438D01*
X112680714Y-135122438D02*
X112585476Y-135027200D01*
X112585476Y-135027200D02*
X112442619Y-134884342D01*
X112442619Y-134884342D02*
X112347381Y-134836723D01*
X112347381Y-134836723D02*
X112252143Y-134836723D01*
X112299762Y-135074819D02*
X112204524Y-135027200D01*
X112204524Y-135027200D02*
X112109286Y-134931961D01*
X112109286Y-134931961D02*
X112061667Y-134741485D01*
X112061667Y-134741485D02*
X112061667Y-134408152D01*
X112061667Y-134408152D02*
X112109286Y-134217676D01*
X112109286Y-134217676D02*
X112204524Y-134122438D01*
X112204524Y-134122438D02*
X112299762Y-134074819D01*
X112299762Y-134074819D02*
X112490238Y-134074819D01*
X112490238Y-134074819D02*
X112585476Y-134122438D01*
X112585476Y-134122438D02*
X112680714Y-134217676D01*
X112680714Y-134217676D02*
X112728333Y-134408152D01*
X112728333Y-134408152D02*
X112728333Y-134741485D01*
X112728333Y-134741485D02*
X112680714Y-134931961D01*
X112680714Y-134931961D02*
X112585476Y-135027200D01*
X112585476Y-135027200D02*
X112490238Y-135074819D01*
X112490238Y-135074819D02*
X112299762Y-135074819D01*
X111394999Y-137519580D02*
X111347380Y-137567200D01*
X111347380Y-137567200D02*
X111204523Y-137614819D01*
X111204523Y-137614819D02*
X111109285Y-137614819D01*
X111109285Y-137614819D02*
X110966428Y-137567200D01*
X110966428Y-137567200D02*
X110871190Y-137471961D01*
X110871190Y-137471961D02*
X110823571Y-137376723D01*
X110823571Y-137376723D02*
X110775952Y-137186247D01*
X110775952Y-137186247D02*
X110775952Y-137043390D01*
X110775952Y-137043390D02*
X110823571Y-136852914D01*
X110823571Y-136852914D02*
X110871190Y-136757676D01*
X110871190Y-136757676D02*
X110966428Y-136662438D01*
X110966428Y-136662438D02*
X111109285Y-136614819D01*
X111109285Y-136614819D02*
X111204523Y-136614819D01*
X111204523Y-136614819D02*
X111347380Y-136662438D01*
X111347380Y-136662438D02*
X111394999Y-136710057D01*
X111775952Y-137329104D02*
X112252142Y-137329104D01*
X111680714Y-137614819D02*
X112014047Y-136614819D01*
X112014047Y-136614819D02*
X112347380Y-137614819D01*
X113252142Y-137614819D02*
X112918809Y-137138628D01*
X112680714Y-137614819D02*
X112680714Y-136614819D01*
X112680714Y-136614819D02*
X113061666Y-136614819D01*
X113061666Y-136614819D02*
X113156904Y-136662438D01*
X113156904Y-136662438D02*
X113204523Y-136710057D01*
X113204523Y-136710057D02*
X113252142Y-136805295D01*
X113252142Y-136805295D02*
X113252142Y-136948152D01*
X113252142Y-136948152D02*
X113204523Y-137043390D01*
X113204523Y-137043390D02*
X113156904Y-137091009D01*
X113156904Y-137091009D02*
X113061666Y-137138628D01*
X113061666Y-137138628D02*
X112680714Y-137138628D01*
X113537857Y-136614819D02*
X114109285Y-136614819D01*
X113823571Y-137614819D02*
X113823571Y-136614819D01*
X110685476Y-136337200D02*
X114104524Y-136337200D01*
X111609285Y-140154819D02*
X111275952Y-139678628D01*
X111037857Y-140154819D02*
X111037857Y-139154819D01*
X111037857Y-139154819D02*
X111418809Y-139154819D01*
X111418809Y-139154819D02*
X111514047Y-139202438D01*
X111514047Y-139202438D02*
X111561666Y-139250057D01*
X111561666Y-139250057D02*
X111609285Y-139345295D01*
X111609285Y-139345295D02*
X111609285Y-139488152D01*
X111609285Y-139488152D02*
X111561666Y-139583390D01*
X111561666Y-139583390D02*
X111514047Y-139631009D01*
X111514047Y-139631009D02*
X111418809Y-139678628D01*
X111418809Y-139678628D02*
X111037857Y-139678628D01*
X112752142Y-139107200D02*
X111895000Y-140392914D01*
X112990238Y-139154819D02*
X113228333Y-140154819D01*
X113228333Y-140154819D02*
X113418809Y-139440533D01*
X113418809Y-139440533D02*
X113609285Y-140154819D01*
X113609285Y-140154819D02*
X113847381Y-139154819D01*
X112947381Y-138877200D02*
X113890238Y-138877200D01*
X111847380Y-142599580D02*
X111799761Y-142647200D01*
X111799761Y-142647200D02*
X111656904Y-142694819D01*
X111656904Y-142694819D02*
X111561666Y-142694819D01*
X111561666Y-142694819D02*
X111418809Y-142647200D01*
X111418809Y-142647200D02*
X111323571Y-142551961D01*
X111323571Y-142551961D02*
X111275952Y-142456723D01*
X111275952Y-142456723D02*
X111228333Y-142266247D01*
X111228333Y-142266247D02*
X111228333Y-142123390D01*
X111228333Y-142123390D02*
X111275952Y-141932914D01*
X111275952Y-141932914D02*
X111323571Y-141837676D01*
X111323571Y-141837676D02*
X111418809Y-141742438D01*
X111418809Y-141742438D02*
X111561666Y-141694819D01*
X111561666Y-141694819D02*
X111656904Y-141694819D01*
X111656904Y-141694819D02*
X111799761Y-141742438D01*
X111799761Y-141742438D02*
X111847380Y-141790057D01*
X112133095Y-141694819D02*
X112704523Y-141694819D01*
X112418809Y-142694819D02*
X112418809Y-141694819D01*
X112990238Y-142647200D02*
X113133095Y-142694819D01*
X113133095Y-142694819D02*
X113371190Y-142694819D01*
X113371190Y-142694819D02*
X113466428Y-142647200D01*
X113466428Y-142647200D02*
X113514047Y-142599580D01*
X113514047Y-142599580D02*
X113561666Y-142504342D01*
X113561666Y-142504342D02*
X113561666Y-142409104D01*
X113561666Y-142409104D02*
X113514047Y-142313866D01*
X113514047Y-142313866D02*
X113466428Y-142266247D01*
X113466428Y-142266247D02*
X113371190Y-142218628D01*
X113371190Y-142218628D02*
X113180714Y-142171009D01*
X113180714Y-142171009D02*
X113085476Y-142123390D01*
X113085476Y-142123390D02*
X113037857Y-142075771D01*
X113037857Y-142075771D02*
X112990238Y-141980533D01*
X112990238Y-141980533D02*
X112990238Y-141885295D01*
X112990238Y-141885295D02*
X113037857Y-141790057D01*
X113037857Y-141790057D02*
X113085476Y-141742438D01*
X113085476Y-141742438D02*
X113180714Y-141694819D01*
X113180714Y-141694819D02*
X113418809Y-141694819D01*
X113418809Y-141694819D02*
X113561666Y-141742438D01*
X111137857Y-141417200D02*
X113652143Y-141417200D01*
X111085476Y-145187200D02*
X111228333Y-145234819D01*
X111228333Y-145234819D02*
X111466428Y-145234819D01*
X111466428Y-145234819D02*
X111561666Y-145187200D01*
X111561666Y-145187200D02*
X111609285Y-145139580D01*
X111609285Y-145139580D02*
X111656904Y-145044342D01*
X111656904Y-145044342D02*
X111656904Y-144949104D01*
X111656904Y-144949104D02*
X111609285Y-144853866D01*
X111609285Y-144853866D02*
X111561666Y-144806247D01*
X111561666Y-144806247D02*
X111466428Y-144758628D01*
X111466428Y-144758628D02*
X111275952Y-144711009D01*
X111275952Y-144711009D02*
X111180714Y-144663390D01*
X111180714Y-144663390D02*
X111133095Y-144615771D01*
X111133095Y-144615771D02*
X111085476Y-144520533D01*
X111085476Y-144520533D02*
X111085476Y-144425295D01*
X111085476Y-144425295D02*
X111133095Y-144330057D01*
X111133095Y-144330057D02*
X111180714Y-144282438D01*
X111180714Y-144282438D02*
X111275952Y-144234819D01*
X111275952Y-144234819D02*
X111514047Y-144234819D01*
X111514047Y-144234819D02*
X111656904Y-144282438D01*
X112085476Y-145234819D02*
X112085476Y-144234819D01*
X112085476Y-144234819D02*
X112656904Y-145234819D01*
X112656904Y-145234819D02*
X112656904Y-144234819D01*
X113133095Y-145234819D02*
X113133095Y-144234819D01*
X113133095Y-144234819D02*
X113371190Y-144234819D01*
X113371190Y-144234819D02*
X113514047Y-144282438D01*
X113514047Y-144282438D02*
X113609285Y-144377676D01*
X113609285Y-144377676D02*
X113656904Y-144472914D01*
X113656904Y-144472914D02*
X113704523Y-144663390D01*
X113704523Y-144663390D02*
X113704523Y-144806247D01*
X113704523Y-144806247D02*
X113656904Y-144996723D01*
X113656904Y-144996723D02*
X113609285Y-145091961D01*
X113609285Y-145091961D02*
X113514047Y-145187200D01*
X113514047Y-145187200D02*
X113371190Y-145234819D01*
X113371190Y-145234819D02*
X113133095Y-145234819D01*
X111133095Y-147727200D02*
X111275952Y-147774819D01*
X111275952Y-147774819D02*
X111514047Y-147774819D01*
X111514047Y-147774819D02*
X111609285Y-147727200D01*
X111609285Y-147727200D02*
X111656904Y-147679580D01*
X111656904Y-147679580D02*
X111704523Y-147584342D01*
X111704523Y-147584342D02*
X111704523Y-147489104D01*
X111704523Y-147489104D02*
X111656904Y-147393866D01*
X111656904Y-147393866D02*
X111609285Y-147346247D01*
X111609285Y-147346247D02*
X111514047Y-147298628D01*
X111514047Y-147298628D02*
X111323571Y-147251009D01*
X111323571Y-147251009D02*
X111228333Y-147203390D01*
X111228333Y-147203390D02*
X111180714Y-147155771D01*
X111180714Y-147155771D02*
X111133095Y-147060533D01*
X111133095Y-147060533D02*
X111133095Y-146965295D01*
X111133095Y-146965295D02*
X111180714Y-146870057D01*
X111180714Y-146870057D02*
X111228333Y-146822438D01*
X111228333Y-146822438D02*
X111323571Y-146774819D01*
X111323571Y-146774819D02*
X111561666Y-146774819D01*
X111561666Y-146774819D02*
X111704523Y-146822438D01*
X112704523Y-147679580D02*
X112656904Y-147727200D01*
X112656904Y-147727200D02*
X112514047Y-147774819D01*
X112514047Y-147774819D02*
X112418809Y-147774819D01*
X112418809Y-147774819D02*
X112275952Y-147727200D01*
X112275952Y-147727200D02*
X112180714Y-147631961D01*
X112180714Y-147631961D02*
X112133095Y-147536723D01*
X112133095Y-147536723D02*
X112085476Y-147346247D01*
X112085476Y-147346247D02*
X112085476Y-147203390D01*
X112085476Y-147203390D02*
X112133095Y-147012914D01*
X112133095Y-147012914D02*
X112180714Y-146917676D01*
X112180714Y-146917676D02*
X112275952Y-146822438D01*
X112275952Y-146822438D02*
X112418809Y-146774819D01*
X112418809Y-146774819D02*
X112514047Y-146774819D01*
X112514047Y-146774819D02*
X112656904Y-146822438D01*
X112656904Y-146822438D02*
X112704523Y-146870057D01*
X113085476Y-147727200D02*
X113228333Y-147774819D01*
X113228333Y-147774819D02*
X113466428Y-147774819D01*
X113466428Y-147774819D02*
X113561666Y-147727200D01*
X113561666Y-147727200D02*
X113609285Y-147679580D01*
X113609285Y-147679580D02*
X113656904Y-147584342D01*
X113656904Y-147584342D02*
X113656904Y-147489104D01*
X113656904Y-147489104D02*
X113609285Y-147393866D01*
X113609285Y-147393866D02*
X113561666Y-147346247D01*
X113561666Y-147346247D02*
X113466428Y-147298628D01*
X113466428Y-147298628D02*
X113275952Y-147251009D01*
X113275952Y-147251009D02*
X113180714Y-147203390D01*
X113180714Y-147203390D02*
X113133095Y-147155771D01*
X113133095Y-147155771D02*
X113085476Y-147060533D01*
X113085476Y-147060533D02*
X113085476Y-146965295D01*
X113085476Y-146965295D02*
X113133095Y-146870057D01*
X113133095Y-146870057D02*
X113180714Y-146822438D01*
X113180714Y-146822438D02*
X113275952Y-146774819D01*
X113275952Y-146774819D02*
X113514047Y-146774819D01*
X113514047Y-146774819D02*
X113656904Y-146822438D01*
X111042619Y-146497200D02*
X113747381Y-146497200D01*
X110853730Y-151436307D02*
X110998065Y-151393375D01*
X110998065Y-151393375D02*
X111193101Y-151256809D01*
X111193101Y-151256809D02*
X111243803Y-151163176D01*
X111243803Y-151163176D02*
X111255497Y-151096855D01*
X111255497Y-151096855D02*
X111239878Y-150991528D01*
X111239878Y-150991528D02*
X111185251Y-150913513D01*
X111185251Y-150913513D02*
X111091618Y-150862812D01*
X111091618Y-150862812D02*
X111025297Y-150851118D01*
X111025297Y-150851118D02*
X110919970Y-150866737D01*
X110919970Y-150866737D02*
X110736628Y-150936982D01*
X110736628Y-150936982D02*
X110631300Y-150952601D01*
X110631300Y-150952601D02*
X110564980Y-150940907D01*
X110564980Y-150940907D02*
X110471346Y-150890206D01*
X110471346Y-150890206D02*
X110416720Y-150812191D01*
X110416720Y-150812191D02*
X110401101Y-150706864D01*
X110401101Y-150706864D02*
X110412795Y-150640543D01*
X110412795Y-150640543D02*
X110463496Y-150546910D01*
X110463496Y-150546910D02*
X110658532Y-150410344D01*
X110658532Y-150410344D02*
X110802867Y-150367412D01*
X112090268Y-150628606D02*
X111700196Y-150901738D01*
X111700196Y-150901738D02*
X111126619Y-150082586D01*
X112062874Y-150008334D02*
X112335925Y-149817142D01*
X112753391Y-150164282D02*
X112363319Y-150437414D01*
X112363319Y-150437414D02*
X111789742Y-149618262D01*
X111789742Y-149618262D02*
X112179815Y-149345130D01*
X113104456Y-149918464D02*
X112530880Y-149099312D01*
X112530880Y-149099312D02*
X113572543Y-149590706D01*
X113572543Y-149590706D02*
X112998967Y-148771554D01*
X113935222Y-148697303D02*
X114079556Y-148654370D01*
X114079556Y-148654370D02*
X114145877Y-148666064D01*
X114145877Y-148666064D02*
X114239510Y-148716766D01*
X114239510Y-148716766D02*
X114321450Y-148833787D01*
X114321450Y-148833787D02*
X114337069Y-148939115D01*
X114337069Y-148939115D02*
X114325375Y-149005436D01*
X114325375Y-149005436D02*
X114274674Y-149099069D01*
X114274674Y-149099069D02*
X113962616Y-149317574D01*
X113962616Y-149317574D02*
X113389039Y-148498422D01*
X113389039Y-148498422D02*
X113662090Y-148307230D01*
X113662090Y-148307230D02*
X113767418Y-148291611D01*
X113767418Y-148291611D02*
X113833738Y-148303305D01*
X113833738Y-148303305D02*
X113927372Y-148354007D01*
X113927372Y-148354007D02*
X113981998Y-148432021D01*
X113981998Y-148432021D02*
X113997617Y-148537349D01*
X113997617Y-148537349D02*
X113985923Y-148603669D01*
X113985923Y-148603669D02*
X113935222Y-148697303D01*
X113935222Y-148697303D02*
X113662171Y-148888495D01*
X110074118Y-150480645D02*
X113772004Y-147891357D01*
X122057438Y-122681904D02*
X122009819Y-122777142D01*
X122009819Y-122777142D02*
X122009819Y-122919999D01*
X122009819Y-122919999D02*
X122057438Y-123062856D01*
X122057438Y-123062856D02*
X122152676Y-123158094D01*
X122152676Y-123158094D02*
X122247914Y-123205713D01*
X122247914Y-123205713D02*
X122438390Y-123253332D01*
X122438390Y-123253332D02*
X122581247Y-123253332D01*
X122581247Y-123253332D02*
X122771723Y-123205713D01*
X122771723Y-123205713D02*
X122866961Y-123158094D01*
X122866961Y-123158094D02*
X122962200Y-123062856D01*
X122962200Y-123062856D02*
X123009819Y-122919999D01*
X123009819Y-122919999D02*
X123009819Y-122824761D01*
X123009819Y-122824761D02*
X122962200Y-122681904D01*
X122962200Y-122681904D02*
X122914580Y-122634285D01*
X122914580Y-122634285D02*
X122581247Y-122634285D01*
X122581247Y-122634285D02*
X122581247Y-122824761D01*
X123009819Y-122205713D02*
X122009819Y-122205713D01*
X122009819Y-122205713D02*
X123009819Y-121634285D01*
X123009819Y-121634285D02*
X122009819Y-121634285D01*
X123009819Y-121158094D02*
X122009819Y-121158094D01*
X122009819Y-121158094D02*
X122009819Y-120919999D01*
X122009819Y-120919999D02*
X122057438Y-120777142D01*
X122057438Y-120777142D02*
X122152676Y-120681904D01*
X122152676Y-120681904D02*
X122247914Y-120634285D01*
X122247914Y-120634285D02*
X122438390Y-120586666D01*
X122438390Y-120586666D02*
X122581247Y-120586666D01*
X122581247Y-120586666D02*
X122771723Y-120634285D01*
X122771723Y-120634285D02*
X122866961Y-120681904D01*
X122866961Y-120681904D02*
X122962200Y-120777142D01*
X122962200Y-120777142D02*
X123009819Y-120919999D01*
X123009819Y-120919999D02*
X123009819Y-121158094D01*
X125803866Y-123077143D02*
X125803866Y-122391429D01*
X126184819Y-122734286D02*
X125422914Y-122734286D01*
X125184819Y-121534285D02*
X125184819Y-121962857D01*
X125184819Y-121962857D02*
X125661009Y-122005714D01*
X125661009Y-122005714D02*
X125613390Y-121962857D01*
X125613390Y-121962857D02*
X125565771Y-121877143D01*
X125565771Y-121877143D02*
X125565771Y-121662857D01*
X125565771Y-121662857D02*
X125613390Y-121577143D01*
X125613390Y-121577143D02*
X125661009Y-121534285D01*
X125661009Y-121534285D02*
X125756247Y-121491428D01*
X125756247Y-121491428D02*
X125994342Y-121491428D01*
X125994342Y-121491428D02*
X126089580Y-121534285D01*
X126089580Y-121534285D02*
X126137200Y-121577143D01*
X126137200Y-121577143D02*
X126184819Y-121662857D01*
X126184819Y-121662857D02*
X126184819Y-121877143D01*
X126184819Y-121877143D02*
X126137200Y-121962857D01*
X126137200Y-121962857D02*
X126089580Y-122005714D01*
X125184819Y-121234285D02*
X126184819Y-120934285D01*
X126184819Y-120934285D02*
X125184819Y-120634285D01*
X112291905Y-58874819D02*
X112291905Y-57874819D01*
X112291905Y-57874819D02*
X112530000Y-57874819D01*
X112530000Y-57874819D02*
X112672857Y-57922438D01*
X112672857Y-57922438D02*
X112768095Y-58017676D01*
X112768095Y-58017676D02*
X112815714Y-58112914D01*
X112815714Y-58112914D02*
X112863333Y-58303390D01*
X112863333Y-58303390D02*
X112863333Y-58446247D01*
X112863333Y-58446247D02*
X112815714Y-58636723D01*
X112815714Y-58636723D02*
X112768095Y-58731961D01*
X112768095Y-58731961D02*
X112672857Y-58827200D01*
X112672857Y-58827200D02*
X112530000Y-58874819D01*
X112530000Y-58874819D02*
X112291905Y-58874819D01*
X113482381Y-57874819D02*
X113577619Y-57874819D01*
X113577619Y-57874819D02*
X113672857Y-57922438D01*
X113672857Y-57922438D02*
X113720476Y-57970057D01*
X113720476Y-57970057D02*
X113768095Y-58065295D01*
X113768095Y-58065295D02*
X113815714Y-58255771D01*
X113815714Y-58255771D02*
X113815714Y-58493866D01*
X113815714Y-58493866D02*
X113768095Y-58684342D01*
X113768095Y-58684342D02*
X113720476Y-58779580D01*
X113720476Y-58779580D02*
X113672857Y-58827200D01*
X113672857Y-58827200D02*
X113577619Y-58874819D01*
X113577619Y-58874819D02*
X113482381Y-58874819D01*
X113482381Y-58874819D02*
X113387143Y-58827200D01*
X113387143Y-58827200D02*
X113339524Y-58779580D01*
X113339524Y-58779580D02*
X113291905Y-58684342D01*
X113291905Y-58684342D02*
X113244286Y-58493866D01*
X113244286Y-58493866D02*
X113244286Y-58255771D01*
X113244286Y-58255771D02*
X113291905Y-58065295D01*
X113291905Y-58065295D02*
X113339524Y-57970057D01*
X113339524Y-57970057D02*
X113387143Y-57922438D01*
X113387143Y-57922438D02*
X113482381Y-57874819D01*
X112291905Y-71574819D02*
X112291905Y-70574819D01*
X112291905Y-70574819D02*
X112530000Y-70574819D01*
X112530000Y-70574819D02*
X112672857Y-70622438D01*
X112672857Y-70622438D02*
X112768095Y-70717676D01*
X112768095Y-70717676D02*
X112815714Y-70812914D01*
X112815714Y-70812914D02*
X112863333Y-71003390D01*
X112863333Y-71003390D02*
X112863333Y-71146247D01*
X112863333Y-71146247D02*
X112815714Y-71336723D01*
X112815714Y-71336723D02*
X112768095Y-71431961D01*
X112768095Y-71431961D02*
X112672857Y-71527200D01*
X112672857Y-71527200D02*
X112530000Y-71574819D01*
X112530000Y-71574819D02*
X112291905Y-71574819D01*
X113768095Y-70574819D02*
X113291905Y-70574819D01*
X113291905Y-70574819D02*
X113244286Y-71051009D01*
X113244286Y-71051009D02*
X113291905Y-71003390D01*
X113291905Y-71003390D02*
X113387143Y-70955771D01*
X113387143Y-70955771D02*
X113625238Y-70955771D01*
X113625238Y-70955771D02*
X113720476Y-71003390D01*
X113720476Y-71003390D02*
X113768095Y-71051009D01*
X113768095Y-71051009D02*
X113815714Y-71146247D01*
X113815714Y-71146247D02*
X113815714Y-71384342D01*
X113815714Y-71384342D02*
X113768095Y-71479580D01*
X113768095Y-71479580D02*
X113720476Y-71527200D01*
X113720476Y-71527200D02*
X113625238Y-71574819D01*
X113625238Y-71574819D02*
X113387143Y-71574819D01*
X113387143Y-71574819D02*
X113291905Y-71527200D01*
X113291905Y-71527200D02*
X113244286Y-71479580D01*
X112291905Y-74114819D02*
X112291905Y-73114819D01*
X112291905Y-73114819D02*
X112530000Y-73114819D01*
X112530000Y-73114819D02*
X112672857Y-73162438D01*
X112672857Y-73162438D02*
X112768095Y-73257676D01*
X112768095Y-73257676D02*
X112815714Y-73352914D01*
X112815714Y-73352914D02*
X112863333Y-73543390D01*
X112863333Y-73543390D02*
X112863333Y-73686247D01*
X112863333Y-73686247D02*
X112815714Y-73876723D01*
X112815714Y-73876723D02*
X112768095Y-73971961D01*
X112768095Y-73971961D02*
X112672857Y-74067200D01*
X112672857Y-74067200D02*
X112530000Y-74114819D01*
X112530000Y-74114819D02*
X112291905Y-74114819D01*
X113720476Y-73114819D02*
X113530000Y-73114819D01*
X113530000Y-73114819D02*
X113434762Y-73162438D01*
X113434762Y-73162438D02*
X113387143Y-73210057D01*
X113387143Y-73210057D02*
X113291905Y-73352914D01*
X113291905Y-73352914D02*
X113244286Y-73543390D01*
X113244286Y-73543390D02*
X113244286Y-73924342D01*
X113244286Y-73924342D02*
X113291905Y-74019580D01*
X113291905Y-74019580D02*
X113339524Y-74067200D01*
X113339524Y-74067200D02*
X113434762Y-74114819D01*
X113434762Y-74114819D02*
X113625238Y-74114819D01*
X113625238Y-74114819D02*
X113720476Y-74067200D01*
X113720476Y-74067200D02*
X113768095Y-74019580D01*
X113768095Y-74019580D02*
X113815714Y-73924342D01*
X113815714Y-73924342D02*
X113815714Y-73686247D01*
X113815714Y-73686247D02*
X113768095Y-73591009D01*
X113768095Y-73591009D02*
X113720476Y-73543390D01*
X113720476Y-73543390D02*
X113625238Y-73495771D01*
X113625238Y-73495771D02*
X113434762Y-73495771D01*
X113434762Y-73495771D02*
X113339524Y-73543390D01*
X113339524Y-73543390D02*
X113291905Y-73591009D01*
X113291905Y-73591009D02*
X113244286Y-73686247D01*
X112291905Y-76654819D02*
X112291905Y-75654819D01*
X112291905Y-75654819D02*
X112530000Y-75654819D01*
X112530000Y-75654819D02*
X112672857Y-75702438D01*
X112672857Y-75702438D02*
X112768095Y-75797676D01*
X112768095Y-75797676D02*
X112815714Y-75892914D01*
X112815714Y-75892914D02*
X112863333Y-76083390D01*
X112863333Y-76083390D02*
X112863333Y-76226247D01*
X112863333Y-76226247D02*
X112815714Y-76416723D01*
X112815714Y-76416723D02*
X112768095Y-76511961D01*
X112768095Y-76511961D02*
X112672857Y-76607200D01*
X112672857Y-76607200D02*
X112530000Y-76654819D01*
X112530000Y-76654819D02*
X112291905Y-76654819D01*
X113196667Y-75654819D02*
X113863333Y-75654819D01*
X113863333Y-75654819D02*
X113434762Y-76654819D01*
X112291905Y-61414819D02*
X112291905Y-60414819D01*
X112291905Y-60414819D02*
X112530000Y-60414819D01*
X112530000Y-60414819D02*
X112672857Y-60462438D01*
X112672857Y-60462438D02*
X112768095Y-60557676D01*
X112768095Y-60557676D02*
X112815714Y-60652914D01*
X112815714Y-60652914D02*
X112863333Y-60843390D01*
X112863333Y-60843390D02*
X112863333Y-60986247D01*
X112863333Y-60986247D02*
X112815714Y-61176723D01*
X112815714Y-61176723D02*
X112768095Y-61271961D01*
X112768095Y-61271961D02*
X112672857Y-61367200D01*
X112672857Y-61367200D02*
X112530000Y-61414819D01*
X112530000Y-61414819D02*
X112291905Y-61414819D01*
X113815714Y-61414819D02*
X113244286Y-61414819D01*
X113530000Y-61414819D02*
X113530000Y-60414819D01*
X113530000Y-60414819D02*
X113434762Y-60557676D01*
X113434762Y-60557676D02*
X113339524Y-60652914D01*
X113339524Y-60652914D02*
X113244286Y-60700533D01*
X112291905Y-63954819D02*
X112291905Y-62954819D01*
X112291905Y-62954819D02*
X112530000Y-62954819D01*
X112530000Y-62954819D02*
X112672857Y-63002438D01*
X112672857Y-63002438D02*
X112768095Y-63097676D01*
X112768095Y-63097676D02*
X112815714Y-63192914D01*
X112815714Y-63192914D02*
X112863333Y-63383390D01*
X112863333Y-63383390D02*
X112863333Y-63526247D01*
X112863333Y-63526247D02*
X112815714Y-63716723D01*
X112815714Y-63716723D02*
X112768095Y-63811961D01*
X112768095Y-63811961D02*
X112672857Y-63907200D01*
X112672857Y-63907200D02*
X112530000Y-63954819D01*
X112530000Y-63954819D02*
X112291905Y-63954819D01*
X113244286Y-63050057D02*
X113291905Y-63002438D01*
X113291905Y-63002438D02*
X113387143Y-62954819D01*
X113387143Y-62954819D02*
X113625238Y-62954819D01*
X113625238Y-62954819D02*
X113720476Y-63002438D01*
X113720476Y-63002438D02*
X113768095Y-63050057D01*
X113768095Y-63050057D02*
X113815714Y-63145295D01*
X113815714Y-63145295D02*
X113815714Y-63240533D01*
X113815714Y-63240533D02*
X113768095Y-63383390D01*
X113768095Y-63383390D02*
X113196667Y-63954819D01*
X113196667Y-63954819D02*
X113815714Y-63954819D01*
X112291905Y-66494819D02*
X112291905Y-65494819D01*
X112291905Y-65494819D02*
X112530000Y-65494819D01*
X112530000Y-65494819D02*
X112672857Y-65542438D01*
X112672857Y-65542438D02*
X112768095Y-65637676D01*
X112768095Y-65637676D02*
X112815714Y-65732914D01*
X112815714Y-65732914D02*
X112863333Y-65923390D01*
X112863333Y-65923390D02*
X112863333Y-66066247D01*
X112863333Y-66066247D02*
X112815714Y-66256723D01*
X112815714Y-66256723D02*
X112768095Y-66351961D01*
X112768095Y-66351961D02*
X112672857Y-66447200D01*
X112672857Y-66447200D02*
X112530000Y-66494819D01*
X112530000Y-66494819D02*
X112291905Y-66494819D01*
X113196667Y-65494819D02*
X113815714Y-65494819D01*
X113815714Y-65494819D02*
X113482381Y-65875771D01*
X113482381Y-65875771D02*
X113625238Y-65875771D01*
X113625238Y-65875771D02*
X113720476Y-65923390D01*
X113720476Y-65923390D02*
X113768095Y-65971009D01*
X113768095Y-65971009D02*
X113815714Y-66066247D01*
X113815714Y-66066247D02*
X113815714Y-66304342D01*
X113815714Y-66304342D02*
X113768095Y-66399580D01*
X113768095Y-66399580D02*
X113720476Y-66447200D01*
X113720476Y-66447200D02*
X113625238Y-66494819D01*
X113625238Y-66494819D02*
X113339524Y-66494819D01*
X113339524Y-66494819D02*
X113244286Y-66447200D01*
X113244286Y-66447200D02*
X113196667Y-66399580D01*
X112291905Y-69034819D02*
X112291905Y-68034819D01*
X112291905Y-68034819D02*
X112530000Y-68034819D01*
X112530000Y-68034819D02*
X112672857Y-68082438D01*
X112672857Y-68082438D02*
X112768095Y-68177676D01*
X112768095Y-68177676D02*
X112815714Y-68272914D01*
X112815714Y-68272914D02*
X112863333Y-68463390D01*
X112863333Y-68463390D02*
X112863333Y-68606247D01*
X112863333Y-68606247D02*
X112815714Y-68796723D01*
X112815714Y-68796723D02*
X112768095Y-68891961D01*
X112768095Y-68891961D02*
X112672857Y-68987200D01*
X112672857Y-68987200D02*
X112530000Y-69034819D01*
X112530000Y-69034819D02*
X112291905Y-69034819D01*
X113720476Y-68368152D02*
X113720476Y-69034819D01*
X113482381Y-67987200D02*
X113244286Y-68701485D01*
X113244286Y-68701485D02*
X113863333Y-68701485D01*
X122057438Y-79501904D02*
X122009819Y-79597142D01*
X122009819Y-79597142D02*
X122009819Y-79739999D01*
X122009819Y-79739999D02*
X122057438Y-79882856D01*
X122057438Y-79882856D02*
X122152676Y-79978094D01*
X122152676Y-79978094D02*
X122247914Y-80025713D01*
X122247914Y-80025713D02*
X122438390Y-80073332D01*
X122438390Y-80073332D02*
X122581247Y-80073332D01*
X122581247Y-80073332D02*
X122771723Y-80025713D01*
X122771723Y-80025713D02*
X122866961Y-79978094D01*
X122866961Y-79978094D02*
X122962200Y-79882856D01*
X122962200Y-79882856D02*
X123009819Y-79739999D01*
X123009819Y-79739999D02*
X123009819Y-79644761D01*
X123009819Y-79644761D02*
X122962200Y-79501904D01*
X122962200Y-79501904D02*
X122914580Y-79454285D01*
X122914580Y-79454285D02*
X122581247Y-79454285D01*
X122581247Y-79454285D02*
X122581247Y-79644761D01*
X123009819Y-79025713D02*
X122009819Y-79025713D01*
X122009819Y-79025713D02*
X123009819Y-78454285D01*
X123009819Y-78454285D02*
X122009819Y-78454285D01*
X123009819Y-77978094D02*
X122009819Y-77978094D01*
X122009819Y-77978094D02*
X122009819Y-77739999D01*
X122009819Y-77739999D02*
X122057438Y-77597142D01*
X122057438Y-77597142D02*
X122152676Y-77501904D01*
X122152676Y-77501904D02*
X122247914Y-77454285D01*
X122247914Y-77454285D02*
X122438390Y-77406666D01*
X122438390Y-77406666D02*
X122581247Y-77406666D01*
X122581247Y-77406666D02*
X122771723Y-77454285D01*
X122771723Y-77454285D02*
X122866961Y-77501904D01*
X122866961Y-77501904D02*
X122962200Y-77597142D01*
X122962200Y-77597142D02*
X123009819Y-77739999D01*
X123009819Y-77739999D02*
X123009819Y-77978094D01*
X125803866Y-79643143D02*
X125803866Y-78957429D01*
X126184819Y-79300286D02*
X125422914Y-79300286D01*
X125184819Y-78100285D02*
X125184819Y-78528857D01*
X125184819Y-78528857D02*
X125661009Y-78571714D01*
X125661009Y-78571714D02*
X125613390Y-78528857D01*
X125613390Y-78528857D02*
X125565771Y-78443143D01*
X125565771Y-78443143D02*
X125565771Y-78228857D01*
X125565771Y-78228857D02*
X125613390Y-78143143D01*
X125613390Y-78143143D02*
X125661009Y-78100285D01*
X125661009Y-78100285D02*
X125756247Y-78057428D01*
X125756247Y-78057428D02*
X125994342Y-78057428D01*
X125994342Y-78057428D02*
X126089580Y-78100285D01*
X126089580Y-78100285D02*
X126137200Y-78143143D01*
X126137200Y-78143143D02*
X126184819Y-78228857D01*
X126184819Y-78228857D02*
X126184819Y-78443143D01*
X126184819Y-78443143D02*
X126137200Y-78528857D01*
X126137200Y-78528857D02*
X126089580Y-78571714D01*
X125184819Y-77800285D02*
X126184819Y-77500285D01*
X126184819Y-77500285D02*
X125184819Y-77200285D01*
X120469819Y-135997145D02*
X119469819Y-135997145D01*
X120469819Y-135568574D02*
X119946009Y-135568574D01*
X119946009Y-135568574D02*
X119850771Y-135616193D01*
X119850771Y-135616193D02*
X119803152Y-135711431D01*
X119803152Y-135711431D02*
X119803152Y-135854288D01*
X119803152Y-135854288D02*
X119850771Y-135949526D01*
X119850771Y-135949526D02*
X119898390Y-135997145D01*
X119803152Y-135235240D02*
X119803152Y-134854288D01*
X119469819Y-135092383D02*
X120326961Y-135092383D01*
X120326961Y-135092383D02*
X120422200Y-135044764D01*
X120422200Y-135044764D02*
X120469819Y-134949526D01*
X120469819Y-134949526D02*
X120469819Y-134854288D01*
X119803152Y-134663811D02*
X119803152Y-134282859D01*
X119469819Y-134520954D02*
X120326961Y-134520954D01*
X120326961Y-134520954D02*
X120422200Y-134473335D01*
X120422200Y-134473335D02*
X120469819Y-134378097D01*
X120469819Y-134378097D02*
X120469819Y-134282859D01*
X119803152Y-133949525D02*
X120803152Y-133949525D01*
X119850771Y-133949525D02*
X119803152Y-133854287D01*
X119803152Y-133854287D02*
X119803152Y-133663811D01*
X119803152Y-133663811D02*
X119850771Y-133568573D01*
X119850771Y-133568573D02*
X119898390Y-133520954D01*
X119898390Y-133520954D02*
X119993628Y-133473335D01*
X119993628Y-133473335D02*
X120279342Y-133473335D01*
X120279342Y-133473335D02*
X120374580Y-133520954D01*
X120374580Y-133520954D02*
X120422200Y-133568573D01*
X120422200Y-133568573D02*
X120469819Y-133663811D01*
X120469819Y-133663811D02*
X120469819Y-133854287D01*
X120469819Y-133854287D02*
X120422200Y-133949525D01*
X120422200Y-133092382D02*
X120469819Y-132997144D01*
X120469819Y-132997144D02*
X120469819Y-132806668D01*
X120469819Y-132806668D02*
X120422200Y-132711430D01*
X120422200Y-132711430D02*
X120326961Y-132663811D01*
X120326961Y-132663811D02*
X120279342Y-132663811D01*
X120279342Y-132663811D02*
X120184104Y-132711430D01*
X120184104Y-132711430D02*
X120136485Y-132806668D01*
X120136485Y-132806668D02*
X120136485Y-132949525D01*
X120136485Y-132949525D02*
X120088866Y-133044763D01*
X120088866Y-133044763D02*
X119993628Y-133092382D01*
X119993628Y-133092382D02*
X119946009Y-133092382D01*
X119946009Y-133092382D02*
X119850771Y-133044763D01*
X119850771Y-133044763D02*
X119803152Y-132949525D01*
X119803152Y-132949525D02*
X119803152Y-132806668D01*
X119803152Y-132806668D02*
X119850771Y-132711430D01*
X120374580Y-132235239D02*
X120422200Y-132187620D01*
X120422200Y-132187620D02*
X120469819Y-132235239D01*
X120469819Y-132235239D02*
X120422200Y-132282858D01*
X120422200Y-132282858D02*
X120374580Y-132235239D01*
X120374580Y-132235239D02*
X120469819Y-132235239D01*
X119850771Y-132235239D02*
X119898390Y-132187620D01*
X119898390Y-132187620D02*
X119946009Y-132235239D01*
X119946009Y-132235239D02*
X119898390Y-132282858D01*
X119898390Y-132282858D02*
X119850771Y-132235239D01*
X119850771Y-132235239D02*
X119946009Y-132235239D01*
X119422200Y-131044764D02*
X120707914Y-131901906D01*
X119422200Y-129997145D02*
X120707914Y-130854287D01*
X119803152Y-129235240D02*
X120612676Y-129235240D01*
X120612676Y-129235240D02*
X120707914Y-129282859D01*
X120707914Y-129282859D02*
X120755533Y-129330478D01*
X120755533Y-129330478D02*
X120803152Y-129425716D01*
X120803152Y-129425716D02*
X120803152Y-129568573D01*
X120803152Y-129568573D02*
X120755533Y-129663811D01*
X120422200Y-129235240D02*
X120469819Y-129330478D01*
X120469819Y-129330478D02*
X120469819Y-129520954D01*
X120469819Y-129520954D02*
X120422200Y-129616192D01*
X120422200Y-129616192D02*
X120374580Y-129663811D01*
X120374580Y-129663811D02*
X120279342Y-129711430D01*
X120279342Y-129711430D02*
X119993628Y-129711430D01*
X119993628Y-129711430D02*
X119898390Y-129663811D01*
X119898390Y-129663811D02*
X119850771Y-129616192D01*
X119850771Y-129616192D02*
X119803152Y-129520954D01*
X119803152Y-129520954D02*
X119803152Y-129330478D01*
X119803152Y-129330478D02*
X119850771Y-129235240D01*
X120469819Y-128759049D02*
X119803152Y-128759049D01*
X119469819Y-128759049D02*
X119517438Y-128806668D01*
X119517438Y-128806668D02*
X119565057Y-128759049D01*
X119565057Y-128759049D02*
X119517438Y-128711430D01*
X119517438Y-128711430D02*
X119469819Y-128759049D01*
X119469819Y-128759049D02*
X119565057Y-128759049D01*
X119803152Y-128425716D02*
X119803152Y-128044764D01*
X119469819Y-128282859D02*
X120326961Y-128282859D01*
X120326961Y-128282859D02*
X120422200Y-128235240D01*
X120422200Y-128235240D02*
X120469819Y-128140002D01*
X120469819Y-128140002D02*
X120469819Y-128044764D01*
X120469819Y-127711430D02*
X119469819Y-127711430D01*
X120469819Y-127282859D02*
X119946009Y-127282859D01*
X119946009Y-127282859D02*
X119850771Y-127330478D01*
X119850771Y-127330478D02*
X119803152Y-127425716D01*
X119803152Y-127425716D02*
X119803152Y-127568573D01*
X119803152Y-127568573D02*
X119850771Y-127663811D01*
X119850771Y-127663811D02*
X119898390Y-127711430D01*
X119803152Y-126378097D02*
X120469819Y-126378097D01*
X119803152Y-126806668D02*
X120326961Y-126806668D01*
X120326961Y-126806668D02*
X120422200Y-126759049D01*
X120422200Y-126759049D02*
X120469819Y-126663811D01*
X120469819Y-126663811D02*
X120469819Y-126520954D01*
X120469819Y-126520954D02*
X120422200Y-126425716D01*
X120422200Y-126425716D02*
X120374580Y-126378097D01*
X120469819Y-125901906D02*
X119469819Y-125901906D01*
X119850771Y-125901906D02*
X119803152Y-125806668D01*
X119803152Y-125806668D02*
X119803152Y-125616192D01*
X119803152Y-125616192D02*
X119850771Y-125520954D01*
X119850771Y-125520954D02*
X119898390Y-125473335D01*
X119898390Y-125473335D02*
X119993628Y-125425716D01*
X119993628Y-125425716D02*
X120279342Y-125425716D01*
X120279342Y-125425716D02*
X120374580Y-125473335D01*
X120374580Y-125473335D02*
X120422200Y-125520954D01*
X120422200Y-125520954D02*
X120469819Y-125616192D01*
X120469819Y-125616192D02*
X120469819Y-125806668D01*
X120469819Y-125806668D02*
X120422200Y-125901906D01*
X120374580Y-124997144D02*
X120422200Y-124949525D01*
X120422200Y-124949525D02*
X120469819Y-124997144D01*
X120469819Y-124997144D02*
X120422200Y-125044763D01*
X120422200Y-125044763D02*
X120374580Y-124997144D01*
X120374580Y-124997144D02*
X120469819Y-124997144D01*
X120422200Y-124092383D02*
X120469819Y-124187621D01*
X120469819Y-124187621D02*
X120469819Y-124378097D01*
X120469819Y-124378097D02*
X120422200Y-124473335D01*
X120422200Y-124473335D02*
X120374580Y-124520954D01*
X120374580Y-124520954D02*
X120279342Y-124568573D01*
X120279342Y-124568573D02*
X119993628Y-124568573D01*
X119993628Y-124568573D02*
X119898390Y-124520954D01*
X119898390Y-124520954D02*
X119850771Y-124473335D01*
X119850771Y-124473335D02*
X119803152Y-124378097D01*
X119803152Y-124378097D02*
X119803152Y-124187621D01*
X119803152Y-124187621D02*
X119850771Y-124092383D01*
X120469819Y-123520954D02*
X120422200Y-123616192D01*
X120422200Y-123616192D02*
X120374580Y-123663811D01*
X120374580Y-123663811D02*
X120279342Y-123711430D01*
X120279342Y-123711430D02*
X119993628Y-123711430D01*
X119993628Y-123711430D02*
X119898390Y-123663811D01*
X119898390Y-123663811D02*
X119850771Y-123616192D01*
X119850771Y-123616192D02*
X119803152Y-123520954D01*
X119803152Y-123520954D02*
X119803152Y-123378097D01*
X119803152Y-123378097D02*
X119850771Y-123282859D01*
X119850771Y-123282859D02*
X119898390Y-123235240D01*
X119898390Y-123235240D02*
X119993628Y-123187621D01*
X119993628Y-123187621D02*
X120279342Y-123187621D01*
X120279342Y-123187621D02*
X120374580Y-123235240D01*
X120374580Y-123235240D02*
X120422200Y-123282859D01*
X120422200Y-123282859D02*
X120469819Y-123378097D01*
X120469819Y-123378097D02*
X120469819Y-123520954D01*
X120469819Y-122759049D02*
X119803152Y-122759049D01*
X119898390Y-122759049D02*
X119850771Y-122711430D01*
X119850771Y-122711430D02*
X119803152Y-122616192D01*
X119803152Y-122616192D02*
X119803152Y-122473335D01*
X119803152Y-122473335D02*
X119850771Y-122378097D01*
X119850771Y-122378097D02*
X119946009Y-122330478D01*
X119946009Y-122330478D02*
X120469819Y-122330478D01*
X119946009Y-122330478D02*
X119850771Y-122282859D01*
X119850771Y-122282859D02*
X119803152Y-122187621D01*
X119803152Y-122187621D02*
X119803152Y-122044764D01*
X119803152Y-122044764D02*
X119850771Y-121949525D01*
X119850771Y-121949525D02*
X119946009Y-121901906D01*
X119946009Y-121901906D02*
X120469819Y-121901906D01*
X119422200Y-120711431D02*
X120707914Y-121568573D01*
X119469819Y-120092383D02*
X120184104Y-120092383D01*
X120184104Y-120092383D02*
X120326961Y-120140002D01*
X120326961Y-120140002D02*
X120422200Y-120235240D01*
X120422200Y-120235240D02*
X120469819Y-120378097D01*
X120469819Y-120378097D02*
X120469819Y-120473335D01*
X120469819Y-119187621D02*
X119946009Y-119187621D01*
X119946009Y-119187621D02*
X119850771Y-119235240D01*
X119850771Y-119235240D02*
X119803152Y-119330478D01*
X119803152Y-119330478D02*
X119803152Y-119520954D01*
X119803152Y-119520954D02*
X119850771Y-119616192D01*
X120422200Y-119187621D02*
X120469819Y-119282859D01*
X120469819Y-119282859D02*
X120469819Y-119520954D01*
X120469819Y-119520954D02*
X120422200Y-119616192D01*
X120422200Y-119616192D02*
X120326961Y-119663811D01*
X120326961Y-119663811D02*
X120231723Y-119663811D01*
X120231723Y-119663811D02*
X120136485Y-119616192D01*
X120136485Y-119616192D02*
X120088866Y-119520954D01*
X120088866Y-119520954D02*
X120088866Y-119282859D01*
X120088866Y-119282859D02*
X120041247Y-119187621D01*
X119803152Y-118806668D02*
X120469819Y-118568573D01*
X119803152Y-118330478D02*
X120469819Y-118568573D01*
X120469819Y-118568573D02*
X120707914Y-118663811D01*
X120707914Y-118663811D02*
X120755533Y-118711430D01*
X120755533Y-118711430D02*
X120803152Y-118806668D01*
X120422200Y-117568573D02*
X120469819Y-117663811D01*
X120469819Y-117663811D02*
X120469819Y-117854287D01*
X120469819Y-117854287D02*
X120422200Y-117949525D01*
X120422200Y-117949525D02*
X120326961Y-117997144D01*
X120326961Y-117997144D02*
X119946009Y-117997144D01*
X119946009Y-117997144D02*
X119850771Y-117949525D01*
X119850771Y-117949525D02*
X119803152Y-117854287D01*
X119803152Y-117854287D02*
X119803152Y-117663811D01*
X119803152Y-117663811D02*
X119850771Y-117568573D01*
X119850771Y-117568573D02*
X119946009Y-117520954D01*
X119946009Y-117520954D02*
X120041247Y-117520954D01*
X120041247Y-117520954D02*
X120136485Y-117997144D01*
X120422200Y-117140001D02*
X120469819Y-117044763D01*
X120469819Y-117044763D02*
X120469819Y-116854287D01*
X120469819Y-116854287D02*
X120422200Y-116759049D01*
X120422200Y-116759049D02*
X120326961Y-116711430D01*
X120326961Y-116711430D02*
X120279342Y-116711430D01*
X120279342Y-116711430D02*
X120184104Y-116759049D01*
X120184104Y-116759049D02*
X120136485Y-116854287D01*
X120136485Y-116854287D02*
X120136485Y-116997144D01*
X120136485Y-116997144D02*
X120088866Y-117092382D01*
X120088866Y-117092382D02*
X119993628Y-117140001D01*
X119993628Y-117140001D02*
X119946009Y-117140001D01*
X119946009Y-117140001D02*
X119850771Y-117092382D01*
X119850771Y-117092382D02*
X119803152Y-116997144D01*
X119803152Y-116997144D02*
X119803152Y-116854287D01*
X119803152Y-116854287D02*
X119850771Y-116759049D01*
X120469819Y-116140001D02*
X120422200Y-116235239D01*
X120422200Y-116235239D02*
X120374580Y-116282858D01*
X120374580Y-116282858D02*
X120279342Y-116330477D01*
X120279342Y-116330477D02*
X119993628Y-116330477D01*
X119993628Y-116330477D02*
X119898390Y-116282858D01*
X119898390Y-116282858D02*
X119850771Y-116235239D01*
X119850771Y-116235239D02*
X119803152Y-116140001D01*
X119803152Y-116140001D02*
X119803152Y-115997144D01*
X119803152Y-115997144D02*
X119850771Y-115901906D01*
X119850771Y-115901906D02*
X119898390Y-115854287D01*
X119898390Y-115854287D02*
X119993628Y-115806668D01*
X119993628Y-115806668D02*
X120279342Y-115806668D01*
X120279342Y-115806668D02*
X120374580Y-115854287D01*
X120374580Y-115854287D02*
X120422200Y-115901906D01*
X120422200Y-115901906D02*
X120469819Y-115997144D01*
X120469819Y-115997144D02*
X120469819Y-116140001D01*
X119803152Y-115378096D02*
X120469819Y-115378096D01*
X119898390Y-115378096D02*
X119850771Y-115330477D01*
X119850771Y-115330477D02*
X119803152Y-115235239D01*
X119803152Y-115235239D02*
X119803152Y-115092382D01*
X119803152Y-115092382D02*
X119850771Y-114997144D01*
X119850771Y-114997144D02*
X119946009Y-114949525D01*
X119946009Y-114949525D02*
X120469819Y-114949525D01*
X120469819Y-113997144D02*
X120469819Y-114473334D01*
X120469819Y-114473334D02*
X119469819Y-114473334D01*
X120422200Y-113711429D02*
X120469819Y-113568572D01*
X120469819Y-113568572D02*
X120469819Y-113330477D01*
X120469819Y-113330477D02*
X120422200Y-113235239D01*
X120422200Y-113235239D02*
X120374580Y-113187620D01*
X120374580Y-113187620D02*
X120279342Y-113140001D01*
X120279342Y-113140001D02*
X120184104Y-113140001D01*
X120184104Y-113140001D02*
X120088866Y-113187620D01*
X120088866Y-113187620D02*
X120041247Y-113235239D01*
X120041247Y-113235239D02*
X119993628Y-113330477D01*
X119993628Y-113330477D02*
X119946009Y-113520953D01*
X119946009Y-113520953D02*
X119898390Y-113616191D01*
X119898390Y-113616191D02*
X119850771Y-113663810D01*
X119850771Y-113663810D02*
X119755533Y-113711429D01*
X119755533Y-113711429D02*
X119660295Y-113711429D01*
X119660295Y-113711429D02*
X119565057Y-113663810D01*
X119565057Y-113663810D02*
X119517438Y-113616191D01*
X119517438Y-113616191D02*
X119469819Y-113520953D01*
X119469819Y-113520953D02*
X119469819Y-113282858D01*
X119469819Y-113282858D02*
X119517438Y-113140001D01*
X119422200Y-111997144D02*
X120707914Y-112854286D01*
X119469819Y-111806667D02*
X119469819Y-111235239D01*
X120469819Y-111520953D02*
X119469819Y-111520953D01*
X120469819Y-110473334D02*
X119946009Y-110473334D01*
X119946009Y-110473334D02*
X119850771Y-110520953D01*
X119850771Y-110520953D02*
X119803152Y-110616191D01*
X119803152Y-110616191D02*
X119803152Y-110806667D01*
X119803152Y-110806667D02*
X119850771Y-110901905D01*
X120422200Y-110473334D02*
X120469819Y-110568572D01*
X120469819Y-110568572D02*
X120469819Y-110806667D01*
X120469819Y-110806667D02*
X120422200Y-110901905D01*
X120422200Y-110901905D02*
X120326961Y-110949524D01*
X120326961Y-110949524D02*
X120231723Y-110949524D01*
X120231723Y-110949524D02*
X120136485Y-110901905D01*
X120136485Y-110901905D02*
X120088866Y-110806667D01*
X120088866Y-110806667D02*
X120088866Y-110568572D01*
X120088866Y-110568572D02*
X120041247Y-110473334D01*
X119803152Y-109997143D02*
X120469819Y-109997143D01*
X119898390Y-109997143D02*
X119850771Y-109949524D01*
X119850771Y-109949524D02*
X119803152Y-109854286D01*
X119803152Y-109854286D02*
X119803152Y-109711429D01*
X119803152Y-109711429D02*
X119850771Y-109616191D01*
X119850771Y-109616191D02*
X119946009Y-109568572D01*
X119946009Y-109568572D02*
X120469819Y-109568572D01*
X120469819Y-108663810D02*
X119469819Y-108663810D01*
X120422200Y-108663810D02*
X120469819Y-108759048D01*
X120469819Y-108759048D02*
X120469819Y-108949524D01*
X120469819Y-108949524D02*
X120422200Y-109044762D01*
X120422200Y-109044762D02*
X120374580Y-109092381D01*
X120374580Y-109092381D02*
X120279342Y-109140000D01*
X120279342Y-109140000D02*
X119993628Y-109140000D01*
X119993628Y-109140000D02*
X119898390Y-109092381D01*
X119898390Y-109092381D02*
X119850771Y-109044762D01*
X119850771Y-109044762D02*
X119803152Y-108949524D01*
X119803152Y-108949524D02*
X119803152Y-108759048D01*
X119803152Y-108759048D02*
X119850771Y-108663810D01*
X119803152Y-108282857D02*
X120469819Y-108044762D01*
X119803152Y-107806667D02*
X120469819Y-108044762D01*
X120469819Y-108044762D02*
X120707914Y-108140000D01*
X120707914Y-108140000D02*
X120755533Y-108187619D01*
X120755533Y-108187619D02*
X120803152Y-108282857D01*
X120374580Y-106854286D02*
X120422200Y-106901905D01*
X120422200Y-106901905D02*
X120469819Y-107044762D01*
X120469819Y-107044762D02*
X120469819Y-107140000D01*
X120469819Y-107140000D02*
X120422200Y-107282857D01*
X120422200Y-107282857D02*
X120326961Y-107378095D01*
X120326961Y-107378095D02*
X120231723Y-107425714D01*
X120231723Y-107425714D02*
X120041247Y-107473333D01*
X120041247Y-107473333D02*
X119898390Y-107473333D01*
X119898390Y-107473333D02*
X119707914Y-107425714D01*
X119707914Y-107425714D02*
X119612676Y-107378095D01*
X119612676Y-107378095D02*
X119517438Y-107282857D01*
X119517438Y-107282857D02*
X119469819Y-107140000D01*
X119469819Y-107140000D02*
X119469819Y-107044762D01*
X119469819Y-107044762D02*
X119517438Y-106901905D01*
X119517438Y-106901905D02*
X119565057Y-106854286D01*
X120469819Y-106425714D02*
X119803152Y-106425714D01*
X119469819Y-106425714D02*
X119517438Y-106473333D01*
X119517438Y-106473333D02*
X119565057Y-106425714D01*
X119565057Y-106425714D02*
X119517438Y-106378095D01*
X119517438Y-106378095D02*
X119469819Y-106425714D01*
X119469819Y-106425714D02*
X119565057Y-106425714D01*
X120469819Y-105949524D02*
X119803152Y-105949524D01*
X119993628Y-105949524D02*
X119898390Y-105901905D01*
X119898390Y-105901905D02*
X119850771Y-105854286D01*
X119850771Y-105854286D02*
X119803152Y-105759048D01*
X119803152Y-105759048D02*
X119803152Y-105663810D01*
X120422200Y-104901905D02*
X120469819Y-104997143D01*
X120469819Y-104997143D02*
X120469819Y-105187619D01*
X120469819Y-105187619D02*
X120422200Y-105282857D01*
X120422200Y-105282857D02*
X120374580Y-105330476D01*
X120374580Y-105330476D02*
X120279342Y-105378095D01*
X120279342Y-105378095D02*
X119993628Y-105378095D01*
X119993628Y-105378095D02*
X119898390Y-105330476D01*
X119898390Y-105330476D02*
X119850771Y-105282857D01*
X119850771Y-105282857D02*
X119803152Y-105187619D01*
X119803152Y-105187619D02*
X119803152Y-104997143D01*
X119803152Y-104997143D02*
X119850771Y-104901905D01*
X119803152Y-104044762D02*
X120469819Y-104044762D01*
X119803152Y-104473333D02*
X120326961Y-104473333D01*
X120326961Y-104473333D02*
X120422200Y-104425714D01*
X120422200Y-104425714D02*
X120469819Y-104330476D01*
X120469819Y-104330476D02*
X120469819Y-104187619D01*
X120469819Y-104187619D02*
X120422200Y-104092381D01*
X120422200Y-104092381D02*
X120374580Y-104044762D01*
X120469819Y-103568571D02*
X119803152Y-103568571D01*
X119469819Y-103568571D02*
X119517438Y-103616190D01*
X119517438Y-103616190D02*
X119565057Y-103568571D01*
X119565057Y-103568571D02*
X119517438Y-103520952D01*
X119517438Y-103520952D02*
X119469819Y-103568571D01*
X119469819Y-103568571D02*
X119565057Y-103568571D01*
X119803152Y-103235238D02*
X119803152Y-102854286D01*
X119469819Y-103092381D02*
X120326961Y-103092381D01*
X120326961Y-103092381D02*
X120422200Y-103044762D01*
X120422200Y-103044762D02*
X120469819Y-102949524D01*
X120469819Y-102949524D02*
X120469819Y-102854286D01*
X120422200Y-102568571D02*
X120469819Y-102473333D01*
X120469819Y-102473333D02*
X120469819Y-102282857D01*
X120469819Y-102282857D02*
X120422200Y-102187619D01*
X120422200Y-102187619D02*
X120326961Y-102140000D01*
X120326961Y-102140000D02*
X120279342Y-102140000D01*
X120279342Y-102140000D02*
X120184104Y-102187619D01*
X120184104Y-102187619D02*
X120136485Y-102282857D01*
X120136485Y-102282857D02*
X120136485Y-102425714D01*
X120136485Y-102425714D02*
X120088866Y-102520952D01*
X120088866Y-102520952D02*
X119993628Y-102568571D01*
X119993628Y-102568571D02*
X119946009Y-102568571D01*
X119946009Y-102568571D02*
X119850771Y-102520952D01*
X119850771Y-102520952D02*
X119803152Y-102425714D01*
X119803152Y-102425714D02*
X119803152Y-102282857D01*
X119803152Y-102282857D02*
X119850771Y-102187619D01*
X120184104Y-101759047D02*
X120184104Y-101282857D01*
X120469819Y-101854285D02*
X119469819Y-101520952D01*
X119469819Y-101520952D02*
X120469819Y-101187619D01*
X119803152Y-100854285D02*
X120469819Y-100854285D01*
X119898390Y-100854285D02*
X119850771Y-100806666D01*
X119850771Y-100806666D02*
X119803152Y-100711428D01*
X119803152Y-100711428D02*
X119803152Y-100568571D01*
X119803152Y-100568571D02*
X119850771Y-100473333D01*
X119850771Y-100473333D02*
X119946009Y-100425714D01*
X119946009Y-100425714D02*
X120469819Y-100425714D01*
X120469819Y-99520952D02*
X119469819Y-99520952D01*
X120422200Y-99520952D02*
X120469819Y-99616190D01*
X120469819Y-99616190D02*
X120469819Y-99806666D01*
X120469819Y-99806666D02*
X120422200Y-99901904D01*
X120422200Y-99901904D02*
X120374580Y-99949523D01*
X120374580Y-99949523D02*
X120279342Y-99997142D01*
X120279342Y-99997142D02*
X119993628Y-99997142D01*
X119993628Y-99997142D02*
X119898390Y-99949523D01*
X119898390Y-99949523D02*
X119850771Y-99901904D01*
X119850771Y-99901904D02*
X119803152Y-99806666D01*
X119803152Y-99806666D02*
X119803152Y-99616190D01*
X119803152Y-99616190D02*
X119850771Y-99520952D01*
X120469819Y-98568571D02*
X120469819Y-99044761D01*
X120469819Y-99044761D02*
X119469819Y-99044761D01*
X120469819Y-98092380D02*
X120422200Y-98187618D01*
X120422200Y-98187618D02*
X120374580Y-98235237D01*
X120374580Y-98235237D02*
X120279342Y-98282856D01*
X120279342Y-98282856D02*
X119993628Y-98282856D01*
X119993628Y-98282856D02*
X119898390Y-98235237D01*
X119898390Y-98235237D02*
X119850771Y-98187618D01*
X119850771Y-98187618D02*
X119803152Y-98092380D01*
X119803152Y-98092380D02*
X119803152Y-97949523D01*
X119803152Y-97949523D02*
X119850771Y-97854285D01*
X119850771Y-97854285D02*
X119898390Y-97806666D01*
X119898390Y-97806666D02*
X119993628Y-97759047D01*
X119993628Y-97759047D02*
X120279342Y-97759047D01*
X120279342Y-97759047D02*
X120374580Y-97806666D01*
X120374580Y-97806666D02*
X120422200Y-97854285D01*
X120422200Y-97854285D02*
X120469819Y-97949523D01*
X120469819Y-97949523D02*
X120469819Y-98092380D01*
X119803152Y-96901904D02*
X120612676Y-96901904D01*
X120612676Y-96901904D02*
X120707914Y-96949523D01*
X120707914Y-96949523D02*
X120755533Y-96997142D01*
X120755533Y-96997142D02*
X120803152Y-97092380D01*
X120803152Y-97092380D02*
X120803152Y-97235237D01*
X120803152Y-97235237D02*
X120755533Y-97330475D01*
X120422200Y-96901904D02*
X120469819Y-96997142D01*
X120469819Y-96997142D02*
X120469819Y-97187618D01*
X120469819Y-97187618D02*
X120422200Y-97282856D01*
X120422200Y-97282856D02*
X120374580Y-97330475D01*
X120374580Y-97330475D02*
X120279342Y-97378094D01*
X120279342Y-97378094D02*
X119993628Y-97378094D01*
X119993628Y-97378094D02*
X119898390Y-97330475D01*
X119898390Y-97330475D02*
X119850771Y-97282856D01*
X119850771Y-97282856D02*
X119803152Y-97187618D01*
X119803152Y-97187618D02*
X119803152Y-96997142D01*
X119803152Y-96997142D02*
X119850771Y-96901904D01*
X120469819Y-96425713D02*
X119803152Y-96425713D01*
X119469819Y-96425713D02*
X119517438Y-96473332D01*
X119517438Y-96473332D02*
X119565057Y-96425713D01*
X119565057Y-96425713D02*
X119517438Y-96378094D01*
X119517438Y-96378094D02*
X119469819Y-96425713D01*
X119469819Y-96425713D02*
X119565057Y-96425713D01*
X120422200Y-95520952D02*
X120469819Y-95616190D01*
X120469819Y-95616190D02*
X120469819Y-95806666D01*
X120469819Y-95806666D02*
X120422200Y-95901904D01*
X120422200Y-95901904D02*
X120374580Y-95949523D01*
X120374580Y-95949523D02*
X120279342Y-95997142D01*
X120279342Y-95997142D02*
X119993628Y-95997142D01*
X119993628Y-95997142D02*
X119898390Y-95949523D01*
X119898390Y-95949523D02*
X119850771Y-95901904D01*
X119850771Y-95901904D02*
X119803152Y-95806666D01*
X119803152Y-95806666D02*
X119803152Y-95616190D01*
X119803152Y-95616190D02*
X119850771Y-95520952D01*
X119422200Y-94378095D02*
X120707914Y-95235237D01*
X119803152Y-94187618D02*
X119803152Y-93806666D01*
X119469819Y-94044761D02*
X120326961Y-94044761D01*
X120326961Y-94044761D02*
X120422200Y-93997142D01*
X120422200Y-93997142D02*
X120469819Y-93901904D01*
X120469819Y-93901904D02*
X120469819Y-93806666D01*
X120469819Y-93473332D02*
X119803152Y-93473332D01*
X119993628Y-93473332D02*
X119898390Y-93425713D01*
X119898390Y-93425713D02*
X119850771Y-93378094D01*
X119850771Y-93378094D02*
X119803152Y-93282856D01*
X119803152Y-93282856D02*
X119803152Y-93187618D01*
X120422200Y-92473332D02*
X120469819Y-92568570D01*
X120469819Y-92568570D02*
X120469819Y-92759046D01*
X120469819Y-92759046D02*
X120422200Y-92854284D01*
X120422200Y-92854284D02*
X120326961Y-92901903D01*
X120326961Y-92901903D02*
X119946009Y-92901903D01*
X119946009Y-92901903D02*
X119850771Y-92854284D01*
X119850771Y-92854284D02*
X119803152Y-92759046D01*
X119803152Y-92759046D02*
X119803152Y-92568570D01*
X119803152Y-92568570D02*
X119850771Y-92473332D01*
X119850771Y-92473332D02*
X119946009Y-92425713D01*
X119946009Y-92425713D02*
X120041247Y-92425713D01*
X120041247Y-92425713D02*
X120136485Y-92901903D01*
X120422200Y-91616189D02*
X120469819Y-91711427D01*
X120469819Y-91711427D02*
X120469819Y-91901903D01*
X120469819Y-91901903D02*
X120422200Y-91997141D01*
X120422200Y-91997141D02*
X120326961Y-92044760D01*
X120326961Y-92044760D02*
X119946009Y-92044760D01*
X119946009Y-92044760D02*
X119850771Y-91997141D01*
X119850771Y-91997141D02*
X119803152Y-91901903D01*
X119803152Y-91901903D02*
X119803152Y-91711427D01*
X119803152Y-91711427D02*
X119850771Y-91616189D01*
X119850771Y-91616189D02*
X119946009Y-91568570D01*
X119946009Y-91568570D02*
X120041247Y-91568570D01*
X120041247Y-91568570D02*
X120136485Y-92044760D01*
X119422200Y-90425713D02*
X120707914Y-91282855D01*
X120469819Y-90092379D02*
X119803152Y-90092379D01*
X119898390Y-90092379D02*
X119850771Y-90044760D01*
X119850771Y-90044760D02*
X119803152Y-89949522D01*
X119803152Y-89949522D02*
X119803152Y-89806665D01*
X119803152Y-89806665D02*
X119850771Y-89711427D01*
X119850771Y-89711427D02*
X119946009Y-89663808D01*
X119946009Y-89663808D02*
X120469819Y-89663808D01*
X119946009Y-89663808D02*
X119850771Y-89616189D01*
X119850771Y-89616189D02*
X119803152Y-89520951D01*
X119803152Y-89520951D02*
X119803152Y-89378094D01*
X119803152Y-89378094D02*
X119850771Y-89282855D01*
X119850771Y-89282855D02*
X119946009Y-89235236D01*
X119946009Y-89235236D02*
X120469819Y-89235236D01*
X120469819Y-88330475D02*
X119946009Y-88330475D01*
X119946009Y-88330475D02*
X119850771Y-88378094D01*
X119850771Y-88378094D02*
X119803152Y-88473332D01*
X119803152Y-88473332D02*
X119803152Y-88663808D01*
X119803152Y-88663808D02*
X119850771Y-88759046D01*
X120422200Y-88330475D02*
X120469819Y-88425713D01*
X120469819Y-88425713D02*
X120469819Y-88663808D01*
X120469819Y-88663808D02*
X120422200Y-88759046D01*
X120422200Y-88759046D02*
X120326961Y-88806665D01*
X120326961Y-88806665D02*
X120231723Y-88806665D01*
X120231723Y-88806665D02*
X120136485Y-88759046D01*
X120136485Y-88759046D02*
X120088866Y-88663808D01*
X120088866Y-88663808D02*
X120088866Y-88425713D01*
X120088866Y-88425713D02*
X120041247Y-88330475D01*
X120422200Y-87901903D02*
X120469819Y-87806665D01*
X120469819Y-87806665D02*
X120469819Y-87616189D01*
X120469819Y-87616189D02*
X120422200Y-87520951D01*
X120422200Y-87520951D02*
X120326961Y-87473332D01*
X120326961Y-87473332D02*
X120279342Y-87473332D01*
X120279342Y-87473332D02*
X120184104Y-87520951D01*
X120184104Y-87520951D02*
X120136485Y-87616189D01*
X120136485Y-87616189D02*
X120136485Y-87759046D01*
X120136485Y-87759046D02*
X120088866Y-87854284D01*
X120088866Y-87854284D02*
X119993628Y-87901903D01*
X119993628Y-87901903D02*
X119946009Y-87901903D01*
X119946009Y-87901903D02*
X119850771Y-87854284D01*
X119850771Y-87854284D02*
X119803152Y-87759046D01*
X119803152Y-87759046D02*
X119803152Y-87616189D01*
X119803152Y-87616189D02*
X119850771Y-87520951D01*
X119803152Y-87187617D02*
X119803152Y-86806665D01*
X119469819Y-87044760D02*
X120326961Y-87044760D01*
X120326961Y-87044760D02*
X120422200Y-86997141D01*
X120422200Y-86997141D02*
X120469819Y-86901903D01*
X120469819Y-86901903D02*
X120469819Y-86806665D01*
X120422200Y-86092379D02*
X120469819Y-86187617D01*
X120469819Y-86187617D02*
X120469819Y-86378093D01*
X120469819Y-86378093D02*
X120422200Y-86473331D01*
X120422200Y-86473331D02*
X120326961Y-86520950D01*
X120326961Y-86520950D02*
X119946009Y-86520950D01*
X119946009Y-86520950D02*
X119850771Y-86473331D01*
X119850771Y-86473331D02*
X119803152Y-86378093D01*
X119803152Y-86378093D02*
X119803152Y-86187617D01*
X119803152Y-86187617D02*
X119850771Y-86092379D01*
X119850771Y-86092379D02*
X119946009Y-86044760D01*
X119946009Y-86044760D02*
X120041247Y-86044760D01*
X120041247Y-86044760D02*
X120136485Y-86520950D01*
X120469819Y-85616188D02*
X119803152Y-85616188D01*
X119993628Y-85616188D02*
X119898390Y-85568569D01*
X119898390Y-85568569D02*
X119850771Y-85520950D01*
X119850771Y-85520950D02*
X119803152Y-85425712D01*
X119803152Y-85425712D02*
X119803152Y-85330474D01*
X119422200Y-84282855D02*
X120707914Y-85139997D01*
X120374580Y-83378093D02*
X120422200Y-83425712D01*
X120422200Y-83425712D02*
X120469819Y-83568569D01*
X120469819Y-83568569D02*
X120469819Y-83663807D01*
X120469819Y-83663807D02*
X120422200Y-83806664D01*
X120422200Y-83806664D02*
X120326961Y-83901902D01*
X120326961Y-83901902D02*
X120231723Y-83949521D01*
X120231723Y-83949521D02*
X120041247Y-83997140D01*
X120041247Y-83997140D02*
X119898390Y-83997140D01*
X119898390Y-83997140D02*
X119707914Y-83949521D01*
X119707914Y-83949521D02*
X119612676Y-83901902D01*
X119612676Y-83901902D02*
X119517438Y-83806664D01*
X119517438Y-83806664D02*
X119469819Y-83663807D01*
X119469819Y-83663807D02*
X119469819Y-83568569D01*
X119469819Y-83568569D02*
X119517438Y-83425712D01*
X119517438Y-83425712D02*
X119565057Y-83378093D01*
X120469819Y-82806664D02*
X120422200Y-82901902D01*
X120422200Y-82901902D02*
X120374580Y-82949521D01*
X120374580Y-82949521D02*
X120279342Y-82997140D01*
X120279342Y-82997140D02*
X119993628Y-82997140D01*
X119993628Y-82997140D02*
X119898390Y-82949521D01*
X119898390Y-82949521D02*
X119850771Y-82901902D01*
X119850771Y-82901902D02*
X119803152Y-82806664D01*
X119803152Y-82806664D02*
X119803152Y-82663807D01*
X119803152Y-82663807D02*
X119850771Y-82568569D01*
X119850771Y-82568569D02*
X119898390Y-82520950D01*
X119898390Y-82520950D02*
X119993628Y-82473331D01*
X119993628Y-82473331D02*
X120279342Y-82473331D01*
X120279342Y-82473331D02*
X120374580Y-82520950D01*
X120374580Y-82520950D02*
X120422200Y-82568569D01*
X120422200Y-82568569D02*
X120469819Y-82663807D01*
X120469819Y-82663807D02*
X120469819Y-82806664D01*
X120374580Y-81473331D02*
X120422200Y-81520950D01*
X120422200Y-81520950D02*
X120469819Y-81663807D01*
X120469819Y-81663807D02*
X120469819Y-81759045D01*
X120469819Y-81759045D02*
X120422200Y-81901902D01*
X120422200Y-81901902D02*
X120326961Y-81997140D01*
X120326961Y-81997140D02*
X120231723Y-82044759D01*
X120231723Y-82044759D02*
X120041247Y-82092378D01*
X120041247Y-82092378D02*
X119898390Y-82092378D01*
X119898390Y-82092378D02*
X119707914Y-82044759D01*
X119707914Y-82044759D02*
X119612676Y-81997140D01*
X119612676Y-81997140D02*
X119517438Y-81901902D01*
X119517438Y-81901902D02*
X119469819Y-81759045D01*
X119469819Y-81759045D02*
X119469819Y-81663807D01*
X119469819Y-81663807D02*
X119517438Y-81520950D01*
X119517438Y-81520950D02*
X119565057Y-81473331D01*
X120469819Y-80901902D02*
X120422200Y-80997140D01*
X120422200Y-80997140D02*
X120374580Y-81044759D01*
X120374580Y-81044759D02*
X120279342Y-81092378D01*
X120279342Y-81092378D02*
X119993628Y-81092378D01*
X119993628Y-81092378D02*
X119898390Y-81044759D01*
X119898390Y-81044759D02*
X119850771Y-80997140D01*
X119850771Y-80997140D02*
X119803152Y-80901902D01*
X119803152Y-80901902D02*
X119803152Y-80759045D01*
X119803152Y-80759045D02*
X119850771Y-80663807D01*
X119850771Y-80663807D02*
X119898390Y-80616188D01*
X119898390Y-80616188D02*
X119993628Y-80568569D01*
X119993628Y-80568569D02*
X120279342Y-80568569D01*
X120279342Y-80568569D02*
X120374580Y-80616188D01*
X120374580Y-80616188D02*
X120422200Y-80663807D01*
X120422200Y-80663807D02*
X120469819Y-80759045D01*
X120469819Y-80759045D02*
X120469819Y-80901902D01*
X120469819Y-80139997D02*
X119469819Y-80139997D01*
X119469819Y-80139997D02*
X119469819Y-79759045D01*
X119469819Y-79759045D02*
X119517438Y-79663807D01*
X119517438Y-79663807D02*
X119565057Y-79616188D01*
X119565057Y-79616188D02*
X119660295Y-79568569D01*
X119660295Y-79568569D02*
X119803152Y-79568569D01*
X119803152Y-79568569D02*
X119898390Y-79616188D01*
X119898390Y-79616188D02*
X119946009Y-79663807D01*
X119946009Y-79663807D02*
X119993628Y-79759045D01*
X119993628Y-79759045D02*
X119993628Y-80139997D01*
X120469819Y-79139997D02*
X119803152Y-79139997D01*
X119993628Y-79139997D02*
X119898390Y-79092378D01*
X119898390Y-79092378D02*
X119850771Y-79044759D01*
X119850771Y-79044759D02*
X119803152Y-78949521D01*
X119803152Y-78949521D02*
X119803152Y-78854283D01*
X120469819Y-78378092D02*
X120422200Y-78473330D01*
X120422200Y-78473330D02*
X120374580Y-78520949D01*
X120374580Y-78520949D02*
X120279342Y-78568568D01*
X120279342Y-78568568D02*
X119993628Y-78568568D01*
X119993628Y-78568568D02*
X119898390Y-78520949D01*
X119898390Y-78520949D02*
X119850771Y-78473330D01*
X119850771Y-78473330D02*
X119803152Y-78378092D01*
X119803152Y-78378092D02*
X119803152Y-78235235D01*
X119803152Y-78235235D02*
X119850771Y-78139997D01*
X119850771Y-78139997D02*
X119898390Y-78092378D01*
X119898390Y-78092378D02*
X119993628Y-78044759D01*
X119993628Y-78044759D02*
X120279342Y-78044759D01*
X120279342Y-78044759D02*
X120374580Y-78092378D01*
X120374580Y-78092378D02*
X120422200Y-78139997D01*
X120422200Y-78139997D02*
X120469819Y-78235235D01*
X120469819Y-78235235D02*
X120469819Y-78378092D01*
X119803152Y-77759044D02*
X119803152Y-77378092D01*
X119469819Y-77616187D02*
X120326961Y-77616187D01*
X120326961Y-77616187D02*
X120422200Y-77568568D01*
X120422200Y-77568568D02*
X120469819Y-77473330D01*
X120469819Y-77473330D02*
X120469819Y-77378092D01*
X120469819Y-76901901D02*
X120422200Y-76997139D01*
X120422200Y-76997139D02*
X120374580Y-77044758D01*
X120374580Y-77044758D02*
X120279342Y-77092377D01*
X120279342Y-77092377D02*
X119993628Y-77092377D01*
X119993628Y-77092377D02*
X119898390Y-77044758D01*
X119898390Y-77044758D02*
X119850771Y-76997139D01*
X119850771Y-76997139D02*
X119803152Y-76901901D01*
X119803152Y-76901901D02*
X119803152Y-76759044D01*
X119803152Y-76759044D02*
X119850771Y-76663806D01*
X119850771Y-76663806D02*
X119898390Y-76616187D01*
X119898390Y-76616187D02*
X119993628Y-76568568D01*
X119993628Y-76568568D02*
X120279342Y-76568568D01*
X120279342Y-76568568D02*
X120374580Y-76616187D01*
X120374580Y-76616187D02*
X120422200Y-76663806D01*
X120422200Y-76663806D02*
X120469819Y-76759044D01*
X120469819Y-76759044D02*
X120469819Y-76901901D01*
X119946009Y-75806663D02*
X119993628Y-75663806D01*
X119993628Y-75663806D02*
X120041247Y-75616187D01*
X120041247Y-75616187D02*
X120136485Y-75568568D01*
X120136485Y-75568568D02*
X120279342Y-75568568D01*
X120279342Y-75568568D02*
X120374580Y-75616187D01*
X120374580Y-75616187D02*
X120422200Y-75663806D01*
X120422200Y-75663806D02*
X120469819Y-75759044D01*
X120469819Y-75759044D02*
X120469819Y-76139996D01*
X120469819Y-76139996D02*
X119469819Y-76139996D01*
X119469819Y-76139996D02*
X119469819Y-75806663D01*
X119469819Y-75806663D02*
X119517438Y-75711425D01*
X119517438Y-75711425D02*
X119565057Y-75663806D01*
X119565057Y-75663806D02*
X119660295Y-75616187D01*
X119660295Y-75616187D02*
X119755533Y-75616187D01*
X119755533Y-75616187D02*
X119850771Y-75663806D01*
X119850771Y-75663806D02*
X119898390Y-75711425D01*
X119898390Y-75711425D02*
X119946009Y-75806663D01*
X119946009Y-75806663D02*
X119946009Y-76139996D01*
X120469819Y-74997139D02*
X120422200Y-75092377D01*
X120422200Y-75092377D02*
X120374580Y-75139996D01*
X120374580Y-75139996D02*
X120279342Y-75187615D01*
X120279342Y-75187615D02*
X119993628Y-75187615D01*
X119993628Y-75187615D02*
X119898390Y-75139996D01*
X119898390Y-75139996D02*
X119850771Y-75092377D01*
X119850771Y-75092377D02*
X119803152Y-74997139D01*
X119803152Y-74997139D02*
X119803152Y-74854282D01*
X119803152Y-74854282D02*
X119850771Y-74759044D01*
X119850771Y-74759044D02*
X119898390Y-74711425D01*
X119898390Y-74711425D02*
X119993628Y-74663806D01*
X119993628Y-74663806D02*
X120279342Y-74663806D01*
X120279342Y-74663806D02*
X120374580Y-74711425D01*
X120374580Y-74711425D02*
X120422200Y-74759044D01*
X120422200Y-74759044D02*
X120469819Y-74854282D01*
X120469819Y-74854282D02*
X120469819Y-74997139D01*
X120469819Y-73806663D02*
X119946009Y-73806663D01*
X119946009Y-73806663D02*
X119850771Y-73854282D01*
X119850771Y-73854282D02*
X119803152Y-73949520D01*
X119803152Y-73949520D02*
X119803152Y-74139996D01*
X119803152Y-74139996D02*
X119850771Y-74235234D01*
X120422200Y-73806663D02*
X120469819Y-73901901D01*
X120469819Y-73901901D02*
X120469819Y-74139996D01*
X120469819Y-74139996D02*
X120422200Y-74235234D01*
X120422200Y-74235234D02*
X120326961Y-74282853D01*
X120326961Y-74282853D02*
X120231723Y-74282853D01*
X120231723Y-74282853D02*
X120136485Y-74235234D01*
X120136485Y-74235234D02*
X120088866Y-74139996D01*
X120088866Y-74139996D02*
X120088866Y-73901901D01*
X120088866Y-73901901D02*
X120041247Y-73806663D01*
X120469819Y-73330472D02*
X119803152Y-73330472D01*
X119993628Y-73330472D02*
X119898390Y-73282853D01*
X119898390Y-73282853D02*
X119850771Y-73235234D01*
X119850771Y-73235234D02*
X119803152Y-73139996D01*
X119803152Y-73139996D02*
X119803152Y-73044758D01*
X120469819Y-72282853D02*
X119469819Y-72282853D01*
X120422200Y-72282853D02*
X120469819Y-72378091D01*
X120469819Y-72378091D02*
X120469819Y-72568567D01*
X120469819Y-72568567D02*
X120422200Y-72663805D01*
X120422200Y-72663805D02*
X120374580Y-72711424D01*
X120374580Y-72711424D02*
X120279342Y-72759043D01*
X120279342Y-72759043D02*
X119993628Y-72759043D01*
X119993628Y-72759043D02*
X119898390Y-72711424D01*
X119898390Y-72711424D02*
X119850771Y-72663805D01*
X119850771Y-72663805D02*
X119803152Y-72568567D01*
X119803152Y-72568567D02*
X119803152Y-72378091D01*
X119803152Y-72378091D02*
X119850771Y-72282853D01*
D11*
X106404276Y-122648571D02*
X106404276Y-120362857D01*
X110404276Y-121505714D02*
X106404276Y-121505714D01*
X106404276Y-118267619D02*
X106404276Y-117505714D01*
X106404276Y-117505714D02*
X106594752Y-117124762D01*
X106594752Y-117124762D02*
X106975704Y-116743809D01*
X106975704Y-116743809D02*
X107737609Y-116553333D01*
X107737609Y-116553333D02*
X109070942Y-116553333D01*
X109070942Y-116553333D02*
X109832847Y-116743809D01*
X109832847Y-116743809D02*
X110213800Y-117124762D01*
X110213800Y-117124762D02*
X110404276Y-117505714D01*
X110404276Y-117505714D02*
X110404276Y-118267619D01*
X110404276Y-118267619D02*
X110213800Y-118648571D01*
X110213800Y-118648571D02*
X109832847Y-119029524D01*
X109832847Y-119029524D02*
X109070942Y-119220000D01*
X109070942Y-119220000D02*
X107737609Y-119220000D01*
X107737609Y-119220000D02*
X106975704Y-119029524D01*
X106975704Y-119029524D02*
X106594752Y-118648571D01*
X106594752Y-118648571D02*
X106404276Y-118267619D01*
X110404276Y-114839048D02*
X106404276Y-114839048D01*
X106404276Y-114839048D02*
X106404276Y-113315238D01*
X106404276Y-113315238D02*
X106594752Y-112934286D01*
X106594752Y-112934286D02*
X106785228Y-112743809D01*
X106785228Y-112743809D02*
X107166180Y-112553333D01*
X107166180Y-112553333D02*
X107737609Y-112553333D01*
X107737609Y-112553333D02*
X108118561Y-112743809D01*
X108118561Y-112743809D02*
X108309038Y-112934286D01*
X108309038Y-112934286D02*
X108499514Y-113315238D01*
X108499514Y-113315238D02*
X108499514Y-114839048D01*
X110213800Y-107981905D02*
X110404276Y-107410476D01*
X110404276Y-107410476D02*
X110404276Y-106458095D01*
X110404276Y-106458095D02*
X110213800Y-106077143D01*
X110213800Y-106077143D02*
X110023323Y-105886667D01*
X110023323Y-105886667D02*
X109642371Y-105696190D01*
X109642371Y-105696190D02*
X109261419Y-105696190D01*
X109261419Y-105696190D02*
X108880466Y-105886667D01*
X108880466Y-105886667D02*
X108689990Y-106077143D01*
X108689990Y-106077143D02*
X108499514Y-106458095D01*
X108499514Y-106458095D02*
X108309038Y-107220000D01*
X108309038Y-107220000D02*
X108118561Y-107600952D01*
X108118561Y-107600952D02*
X107928085Y-107791429D01*
X107928085Y-107791429D02*
X107547133Y-107981905D01*
X107547133Y-107981905D02*
X107166180Y-107981905D01*
X107166180Y-107981905D02*
X106785228Y-107791429D01*
X106785228Y-107791429D02*
X106594752Y-107600952D01*
X106594752Y-107600952D02*
X106404276Y-107220000D01*
X106404276Y-107220000D02*
X106404276Y-106267619D01*
X106404276Y-106267619D02*
X106594752Y-105696190D01*
X110404276Y-103981905D02*
X106404276Y-103981905D01*
X110404276Y-102077143D02*
X106404276Y-102077143D01*
X106404276Y-102077143D02*
X106404276Y-101124762D01*
X106404276Y-101124762D02*
X106594752Y-100553333D01*
X106594752Y-100553333D02*
X106975704Y-100172381D01*
X106975704Y-100172381D02*
X107356657Y-99981904D01*
X107356657Y-99981904D02*
X108118561Y-99791428D01*
X108118561Y-99791428D02*
X108689990Y-99791428D01*
X108689990Y-99791428D02*
X109451895Y-99981904D01*
X109451895Y-99981904D02*
X109832847Y-100172381D01*
X109832847Y-100172381D02*
X110213800Y-100553333D01*
X110213800Y-100553333D02*
X110404276Y-101124762D01*
X110404276Y-101124762D02*
X110404276Y-102077143D01*
X108309038Y-98077143D02*
X108309038Y-96743809D01*
X110404276Y-96172381D02*
X110404276Y-98077143D01*
X110404276Y-98077143D02*
X106404276Y-98077143D01*
X106404276Y-98077143D02*
X106404276Y-96172381D01*
D10*
X121320951Y-61066133D02*
X120559047Y-61066133D01*
X144178095Y-56525438D02*
X144082857Y-56477819D01*
X144082857Y-56477819D02*
X143940000Y-56477819D01*
X143940000Y-56477819D02*
X143797143Y-56525438D01*
X143797143Y-56525438D02*
X143701905Y-56620676D01*
X143701905Y-56620676D02*
X143654286Y-56715914D01*
X143654286Y-56715914D02*
X143606667Y-56906390D01*
X143606667Y-56906390D02*
X143606667Y-57049247D01*
X143606667Y-57049247D02*
X143654286Y-57239723D01*
X143654286Y-57239723D02*
X143701905Y-57334961D01*
X143701905Y-57334961D02*
X143797143Y-57430200D01*
X143797143Y-57430200D02*
X143940000Y-57477819D01*
X143940000Y-57477819D02*
X144035238Y-57477819D01*
X144035238Y-57477819D02*
X144178095Y-57430200D01*
X144178095Y-57430200D02*
X144225714Y-57382580D01*
X144225714Y-57382580D02*
X144225714Y-57049247D01*
X144225714Y-57049247D02*
X144035238Y-57049247D01*
X144654286Y-57477819D02*
X144654286Y-56477819D01*
X144654286Y-56477819D02*
X145225714Y-57477819D01*
X145225714Y-57477819D02*
X145225714Y-56477819D01*
X145701905Y-57477819D02*
X145701905Y-56477819D01*
X145701905Y-56477819D02*
X145940000Y-56477819D01*
X145940000Y-56477819D02*
X146082857Y-56525438D01*
X146082857Y-56525438D02*
X146178095Y-56620676D01*
X146178095Y-56620676D02*
X146225714Y-56715914D01*
X146225714Y-56715914D02*
X146273333Y-56906390D01*
X146273333Y-56906390D02*
X146273333Y-57049247D01*
X146273333Y-57049247D02*
X146225714Y-57239723D01*
X146225714Y-57239723D02*
X146178095Y-57334961D01*
X146178095Y-57334961D02*
X146082857Y-57430200D01*
X146082857Y-57430200D02*
X145940000Y-57477819D01*
X145940000Y-57477819D02*
X145701905Y-57477819D01*
X144178095Y-150632438D02*
X144082857Y-150584819D01*
X144082857Y-150584819D02*
X143940000Y-150584819D01*
X143940000Y-150584819D02*
X143797143Y-150632438D01*
X143797143Y-150632438D02*
X143701905Y-150727676D01*
X143701905Y-150727676D02*
X143654286Y-150822914D01*
X143654286Y-150822914D02*
X143606667Y-151013390D01*
X143606667Y-151013390D02*
X143606667Y-151156247D01*
X143606667Y-151156247D02*
X143654286Y-151346723D01*
X143654286Y-151346723D02*
X143701905Y-151441961D01*
X143701905Y-151441961D02*
X143797143Y-151537200D01*
X143797143Y-151537200D02*
X143940000Y-151584819D01*
X143940000Y-151584819D02*
X144035238Y-151584819D01*
X144035238Y-151584819D02*
X144178095Y-151537200D01*
X144178095Y-151537200D02*
X144225714Y-151489580D01*
X144225714Y-151489580D02*
X144225714Y-151156247D01*
X144225714Y-151156247D02*
X144035238Y-151156247D01*
X144654286Y-151584819D02*
X144654286Y-150584819D01*
X144654286Y-150584819D02*
X145225714Y-151584819D01*
X145225714Y-151584819D02*
X145225714Y-150584819D01*
X145701905Y-151584819D02*
X145701905Y-150584819D01*
X145701905Y-150584819D02*
X145940000Y-150584819D01*
X145940000Y-150584819D02*
X146082857Y-150632438D01*
X146082857Y-150632438D02*
X146178095Y-150727676D01*
X146178095Y-150727676D02*
X146225714Y-150822914D01*
X146225714Y-150822914D02*
X146273333Y-151013390D01*
X146273333Y-151013390D02*
X146273333Y-151156247D01*
X146273333Y-151156247D02*
X146225714Y-151346723D01*
X146225714Y-151346723D02*
X146178095Y-151441961D01*
X146178095Y-151441961D02*
X146082857Y-151537200D01*
X146082857Y-151537200D02*
X145940000Y-151584819D01*
X145940000Y-151584819D02*
X145701905Y-151584819D01*
X128820951Y-60566133D02*
X128059047Y-60566133D01*
X128439999Y-60185180D02*
X128439999Y-60947085D01*
D12*
X103739695Y-134270714D02*
X102389695Y-134270714D01*
X102389695Y-134270714D02*
X102389695Y-133855476D01*
X102389695Y-133855476D02*
X102453981Y-133751666D01*
X102453981Y-133751666D02*
X102518267Y-133699761D01*
X102518267Y-133699761D02*
X102646838Y-133647857D01*
X102646838Y-133647857D02*
X102839695Y-133647857D01*
X102839695Y-133647857D02*
X102968267Y-133699761D01*
X102968267Y-133699761D02*
X103032552Y-133751666D01*
X103032552Y-133751666D02*
X103096838Y-133855476D01*
X103096838Y-133855476D02*
X103096838Y-134270714D01*
X103739695Y-132557857D02*
X103096838Y-132921190D01*
X103739695Y-133180714D02*
X102389695Y-133180714D01*
X102389695Y-133180714D02*
X102389695Y-132765476D01*
X102389695Y-132765476D02*
X102453981Y-132661666D01*
X102453981Y-132661666D02*
X102518267Y-132609761D01*
X102518267Y-132609761D02*
X102646838Y-132557857D01*
X102646838Y-132557857D02*
X102839695Y-132557857D01*
X102839695Y-132557857D02*
X102968267Y-132609761D01*
X102968267Y-132609761D02*
X103032552Y-132661666D01*
X103032552Y-132661666D02*
X103096838Y-132765476D01*
X103096838Y-132765476D02*
X103096838Y-133180714D01*
X102389695Y-131883095D02*
X102389695Y-131675476D01*
X102389695Y-131675476D02*
X102453981Y-131571666D01*
X102453981Y-131571666D02*
X102582552Y-131467857D01*
X102582552Y-131467857D02*
X102839695Y-131415952D01*
X102839695Y-131415952D02*
X103289695Y-131415952D01*
X103289695Y-131415952D02*
X103546838Y-131467857D01*
X103546838Y-131467857D02*
X103675410Y-131571666D01*
X103675410Y-131571666D02*
X103739695Y-131675476D01*
X103739695Y-131675476D02*
X103739695Y-131883095D01*
X103739695Y-131883095D02*
X103675410Y-131986904D01*
X103675410Y-131986904D02*
X103546838Y-132090714D01*
X103546838Y-132090714D02*
X103289695Y-132142618D01*
X103289695Y-132142618D02*
X102839695Y-132142618D01*
X102839695Y-132142618D02*
X102582552Y-132090714D01*
X102582552Y-132090714D02*
X102453981Y-131986904D01*
X102453981Y-131986904D02*
X102389695Y-131883095D01*
X102389695Y-131104523D02*
X102389695Y-130481666D01*
X103739695Y-130793094D02*
X102389695Y-130793094D01*
X102389695Y-129910714D02*
X102389695Y-129703095D01*
X102389695Y-129703095D02*
X102453981Y-129599285D01*
X102453981Y-129599285D02*
X102582552Y-129495476D01*
X102582552Y-129495476D02*
X102839695Y-129443571D01*
X102839695Y-129443571D02*
X103289695Y-129443571D01*
X103289695Y-129443571D02*
X103546838Y-129495476D01*
X103546838Y-129495476D02*
X103675410Y-129599285D01*
X103675410Y-129599285D02*
X103739695Y-129703095D01*
X103739695Y-129703095D02*
X103739695Y-129910714D01*
X103739695Y-129910714D02*
X103675410Y-130014523D01*
X103675410Y-130014523D02*
X103546838Y-130118333D01*
X103546838Y-130118333D02*
X103289695Y-130170237D01*
X103289695Y-130170237D02*
X102839695Y-130170237D01*
X102839695Y-130170237D02*
X102582552Y-130118333D01*
X102582552Y-130118333D02*
X102453981Y-130014523D01*
X102453981Y-130014523D02*
X102389695Y-129910714D01*
X102389695Y-129132142D02*
X102389695Y-128509285D01*
X103739695Y-128820713D02*
X102389695Y-128820713D01*
X103096838Y-127938333D02*
X103739695Y-127938333D01*
X102389695Y-128301666D02*
X103096838Y-127938333D01*
X103096838Y-127938333D02*
X102389695Y-127574999D01*
X103739695Y-127211666D02*
X102389695Y-127211666D01*
X102389695Y-127211666D02*
X102389695Y-126796428D01*
X102389695Y-126796428D02*
X102453981Y-126692618D01*
X102453981Y-126692618D02*
X102518267Y-126640713D01*
X102518267Y-126640713D02*
X102646838Y-126588809D01*
X102646838Y-126588809D02*
X102839695Y-126588809D01*
X102839695Y-126588809D02*
X102968267Y-126640713D01*
X102968267Y-126640713D02*
X103032552Y-126692618D01*
X103032552Y-126692618D02*
X103096838Y-126796428D01*
X103096838Y-126796428D02*
X103096838Y-127211666D01*
X103739695Y-126121666D02*
X102389695Y-126121666D01*
X103739695Y-125602618D02*
X102389695Y-125602618D01*
X102389695Y-125602618D02*
X103739695Y-124979761D01*
X103739695Y-124979761D02*
X102389695Y-124979761D01*
X102453981Y-123889760D02*
X102389695Y-123993570D01*
X102389695Y-123993570D02*
X102389695Y-124149284D01*
X102389695Y-124149284D02*
X102453981Y-124304998D01*
X102453981Y-124304998D02*
X102582552Y-124408808D01*
X102582552Y-124408808D02*
X102711124Y-124460713D01*
X102711124Y-124460713D02*
X102968267Y-124512617D01*
X102968267Y-124512617D02*
X103161124Y-124512617D01*
X103161124Y-124512617D02*
X103418267Y-124460713D01*
X103418267Y-124460713D02*
X103546838Y-124408808D01*
X103546838Y-124408808D02*
X103675410Y-124304998D01*
X103675410Y-124304998D02*
X103739695Y-124149284D01*
X103739695Y-124149284D02*
X103739695Y-124045475D01*
X103739695Y-124045475D02*
X103675410Y-123889760D01*
X103675410Y-123889760D02*
X103611124Y-123837856D01*
X103611124Y-123837856D02*
X103161124Y-123837856D01*
X103161124Y-123837856D02*
X103161124Y-124045475D01*
X103032552Y-122176903D02*
X103096838Y-122021189D01*
X103096838Y-122021189D02*
X103161124Y-121969284D01*
X103161124Y-121969284D02*
X103289695Y-121917380D01*
X103289695Y-121917380D02*
X103482552Y-121917380D01*
X103482552Y-121917380D02*
X103611124Y-121969284D01*
X103611124Y-121969284D02*
X103675410Y-122021189D01*
X103675410Y-122021189D02*
X103739695Y-122124999D01*
X103739695Y-122124999D02*
X103739695Y-122540237D01*
X103739695Y-122540237D02*
X102389695Y-122540237D01*
X102389695Y-122540237D02*
X102389695Y-122176903D01*
X102389695Y-122176903D02*
X102453981Y-122073094D01*
X102453981Y-122073094D02*
X102518267Y-122021189D01*
X102518267Y-122021189D02*
X102646838Y-121969284D01*
X102646838Y-121969284D02*
X102775410Y-121969284D01*
X102775410Y-121969284D02*
X102903981Y-122021189D01*
X102903981Y-122021189D02*
X102968267Y-122073094D01*
X102968267Y-122073094D02*
X103032552Y-122176903D01*
X103032552Y-122176903D02*
X103032552Y-122540237D01*
X102389695Y-121242618D02*
X102389695Y-121034999D01*
X102389695Y-121034999D02*
X102453981Y-120931189D01*
X102453981Y-120931189D02*
X102582552Y-120827380D01*
X102582552Y-120827380D02*
X102839695Y-120775475D01*
X102839695Y-120775475D02*
X103289695Y-120775475D01*
X103289695Y-120775475D02*
X103546838Y-120827380D01*
X103546838Y-120827380D02*
X103675410Y-120931189D01*
X103675410Y-120931189D02*
X103739695Y-121034999D01*
X103739695Y-121034999D02*
X103739695Y-121242618D01*
X103739695Y-121242618D02*
X103675410Y-121346427D01*
X103675410Y-121346427D02*
X103546838Y-121450237D01*
X103546838Y-121450237D02*
X103289695Y-121502141D01*
X103289695Y-121502141D02*
X102839695Y-121502141D01*
X102839695Y-121502141D02*
X102582552Y-121450237D01*
X102582552Y-121450237D02*
X102453981Y-121346427D01*
X102453981Y-121346427D02*
X102389695Y-121242618D01*
X103353981Y-120360236D02*
X103353981Y-119841189D01*
X103739695Y-120464046D02*
X102389695Y-120100713D01*
X102389695Y-120100713D02*
X103739695Y-119737379D01*
X103739695Y-118751189D02*
X103096838Y-119114522D01*
X103739695Y-119374046D02*
X102389695Y-119374046D01*
X102389695Y-119374046D02*
X102389695Y-118958808D01*
X102389695Y-118958808D02*
X102453981Y-118854998D01*
X102453981Y-118854998D02*
X102518267Y-118803093D01*
X102518267Y-118803093D02*
X102646838Y-118751189D01*
X102646838Y-118751189D02*
X102839695Y-118751189D01*
X102839695Y-118751189D02*
X102968267Y-118803093D01*
X102968267Y-118803093D02*
X103032552Y-118854998D01*
X103032552Y-118854998D02*
X103096838Y-118958808D01*
X103096838Y-118958808D02*
X103096838Y-119374046D01*
X103739695Y-118284046D02*
X102389695Y-118284046D01*
X102389695Y-118284046D02*
X102389695Y-118024522D01*
X102389695Y-118024522D02*
X102453981Y-117868808D01*
X102453981Y-117868808D02*
X102582552Y-117764998D01*
X102582552Y-117764998D02*
X102711124Y-117713093D01*
X102711124Y-117713093D02*
X102968267Y-117661189D01*
X102968267Y-117661189D02*
X103161124Y-117661189D01*
X103161124Y-117661189D02*
X103418267Y-117713093D01*
X103418267Y-117713093D02*
X103546838Y-117764998D01*
X103546838Y-117764998D02*
X103675410Y-117868808D01*
X103675410Y-117868808D02*
X103739695Y-118024522D01*
X103739695Y-118024522D02*
X103739695Y-118284046D01*
X103032552Y-116000236D02*
X103032552Y-116363570D01*
X103739695Y-116363570D02*
X102389695Y-116363570D01*
X102389695Y-116363570D02*
X102389695Y-115844522D01*
X102389695Y-115221665D02*
X102389695Y-115014046D01*
X102389695Y-115014046D02*
X102453981Y-114910236D01*
X102453981Y-114910236D02*
X102582552Y-114806427D01*
X102582552Y-114806427D02*
X102839695Y-114754522D01*
X102839695Y-114754522D02*
X103289695Y-114754522D01*
X103289695Y-114754522D02*
X103546838Y-114806427D01*
X103546838Y-114806427D02*
X103675410Y-114910236D01*
X103675410Y-114910236D02*
X103739695Y-115014046D01*
X103739695Y-115014046D02*
X103739695Y-115221665D01*
X103739695Y-115221665D02*
X103675410Y-115325474D01*
X103675410Y-115325474D02*
X103546838Y-115429284D01*
X103546838Y-115429284D02*
X103289695Y-115481188D01*
X103289695Y-115481188D02*
X102839695Y-115481188D01*
X102839695Y-115481188D02*
X102582552Y-115429284D01*
X102582552Y-115429284D02*
X102453981Y-115325474D01*
X102453981Y-115325474D02*
X102389695Y-115221665D01*
X103739695Y-113664522D02*
X103096838Y-114027855D01*
X103739695Y-114287379D02*
X102389695Y-114287379D01*
X102389695Y-114287379D02*
X102389695Y-113872141D01*
X102389695Y-113872141D02*
X102453981Y-113768331D01*
X102453981Y-113768331D02*
X102518267Y-113716426D01*
X102518267Y-113716426D02*
X102646838Y-113664522D01*
X102646838Y-113664522D02*
X102839695Y-113664522D01*
X102839695Y-113664522D02*
X102968267Y-113716426D01*
X102968267Y-113716426D02*
X103032552Y-113768331D01*
X103032552Y-113768331D02*
X103096838Y-113872141D01*
X103096838Y-113872141D02*
X103096838Y-114287379D01*
X102389695Y-112522617D02*
X102389695Y-111899760D01*
X103739695Y-112211188D02*
X102389695Y-112211188D01*
X103739695Y-111536427D02*
X102389695Y-111536427D01*
X103032552Y-111536427D02*
X103032552Y-110913570D01*
X103739695Y-110913570D02*
X102389695Y-110913570D01*
X103032552Y-110394522D02*
X103032552Y-110031188D01*
X103739695Y-109875474D02*
X103739695Y-110394522D01*
X103739695Y-110394522D02*
X102389695Y-110394522D01*
X102389695Y-110394522D02*
X102389695Y-109875474D01*
X102389695Y-108733570D02*
X102389695Y-108110713D01*
X103739695Y-108422141D02*
X102389695Y-108422141D01*
X103353981Y-107799284D02*
X103353981Y-107280237D01*
X103739695Y-107903094D02*
X102389695Y-107539761D01*
X102389695Y-107539761D02*
X103739695Y-107176427D01*
X103739695Y-106813094D02*
X102389695Y-106813094D01*
X102389695Y-106813094D02*
X103739695Y-106190237D01*
X103739695Y-106190237D02*
X102389695Y-106190237D01*
X103739695Y-105671189D02*
X102389695Y-105671189D01*
X102389695Y-105671189D02*
X102389695Y-105411665D01*
X102389695Y-105411665D02*
X102453981Y-105255951D01*
X102453981Y-105255951D02*
X102582552Y-105152141D01*
X102582552Y-105152141D02*
X102711124Y-105100236D01*
X102711124Y-105100236D02*
X102968267Y-105048332D01*
X102968267Y-105048332D02*
X103161124Y-105048332D01*
X103161124Y-105048332D02*
X103418267Y-105100236D01*
X103418267Y-105100236D02*
X103546838Y-105152141D01*
X103546838Y-105152141D02*
X103675410Y-105255951D01*
X103675410Y-105255951D02*
X103739695Y-105411665D01*
X103739695Y-105411665D02*
X103739695Y-105671189D01*
X103096838Y-104373570D02*
X103739695Y-104373570D01*
X102389695Y-104736903D02*
X103096838Y-104373570D01*
X103096838Y-104373570D02*
X102389695Y-104010236D01*
X103611124Y-102193570D02*
X103675410Y-102245474D01*
X103675410Y-102245474D02*
X103739695Y-102401189D01*
X103739695Y-102401189D02*
X103739695Y-102504998D01*
X103739695Y-102504998D02*
X103675410Y-102660712D01*
X103675410Y-102660712D02*
X103546838Y-102764522D01*
X103546838Y-102764522D02*
X103418267Y-102816427D01*
X103418267Y-102816427D02*
X103161124Y-102868331D01*
X103161124Y-102868331D02*
X102968267Y-102868331D01*
X102968267Y-102868331D02*
X102711124Y-102816427D01*
X102711124Y-102816427D02*
X102582552Y-102764522D01*
X102582552Y-102764522D02*
X102453981Y-102660712D01*
X102453981Y-102660712D02*
X102389695Y-102504998D01*
X102389695Y-102504998D02*
X102389695Y-102401189D01*
X102389695Y-102401189D02*
X102453981Y-102245474D01*
X102453981Y-102245474D02*
X102518267Y-102193570D01*
X102389695Y-101518808D02*
X102389695Y-101311189D01*
X102389695Y-101311189D02*
X102453981Y-101207379D01*
X102453981Y-101207379D02*
X102582552Y-101103570D01*
X102582552Y-101103570D02*
X102839695Y-101051665D01*
X102839695Y-101051665D02*
X103289695Y-101051665D01*
X103289695Y-101051665D02*
X103546838Y-101103570D01*
X103546838Y-101103570D02*
X103675410Y-101207379D01*
X103675410Y-101207379D02*
X103739695Y-101311189D01*
X103739695Y-101311189D02*
X103739695Y-101518808D01*
X103739695Y-101518808D02*
X103675410Y-101622617D01*
X103675410Y-101622617D02*
X103546838Y-101726427D01*
X103546838Y-101726427D02*
X103289695Y-101778331D01*
X103289695Y-101778331D02*
X102839695Y-101778331D01*
X102839695Y-101778331D02*
X102582552Y-101726427D01*
X102582552Y-101726427D02*
X102453981Y-101622617D01*
X102453981Y-101622617D02*
X102389695Y-101518808D01*
X103739695Y-100065474D02*
X103739695Y-100584522D01*
X103739695Y-100584522D02*
X102389695Y-100584522D01*
X102389695Y-99494522D02*
X102389695Y-99286903D01*
X102389695Y-99286903D02*
X102453981Y-99183093D01*
X102453981Y-99183093D02*
X102582552Y-99079284D01*
X102582552Y-99079284D02*
X102839695Y-99027379D01*
X102839695Y-99027379D02*
X103289695Y-99027379D01*
X103289695Y-99027379D02*
X103546838Y-99079284D01*
X103546838Y-99079284D02*
X103675410Y-99183093D01*
X103675410Y-99183093D02*
X103739695Y-99286903D01*
X103739695Y-99286903D02*
X103739695Y-99494522D01*
X103739695Y-99494522D02*
X103675410Y-99598331D01*
X103675410Y-99598331D02*
X103546838Y-99702141D01*
X103546838Y-99702141D02*
X103289695Y-99754045D01*
X103289695Y-99754045D02*
X102839695Y-99754045D01*
X102839695Y-99754045D02*
X102582552Y-99702141D01*
X102582552Y-99702141D02*
X102453981Y-99598331D01*
X102453981Y-99598331D02*
X102389695Y-99494522D01*
X103739695Y-97937379D02*
X103096838Y-98300712D01*
X103739695Y-98560236D02*
X102389695Y-98560236D01*
X102389695Y-98560236D02*
X102389695Y-98144998D01*
X102389695Y-98144998D02*
X102453981Y-98041188D01*
X102453981Y-98041188D02*
X102518267Y-97989283D01*
X102518267Y-97989283D02*
X102646838Y-97937379D01*
X102646838Y-97937379D02*
X102839695Y-97937379D01*
X102839695Y-97937379D02*
X102968267Y-97989283D01*
X102968267Y-97989283D02*
X103032552Y-98041188D01*
X103032552Y-98041188D02*
X103096838Y-98144998D01*
X103096838Y-98144998D02*
X103096838Y-98560236D01*
X103611124Y-96016903D02*
X103675410Y-96068807D01*
X103675410Y-96068807D02*
X103739695Y-96224522D01*
X103739695Y-96224522D02*
X103739695Y-96328331D01*
X103739695Y-96328331D02*
X103675410Y-96484045D01*
X103675410Y-96484045D02*
X103546838Y-96587855D01*
X103546838Y-96587855D02*
X103418267Y-96639760D01*
X103418267Y-96639760D02*
X103161124Y-96691664D01*
X103161124Y-96691664D02*
X102968267Y-96691664D01*
X102968267Y-96691664D02*
X102711124Y-96639760D01*
X102711124Y-96639760D02*
X102582552Y-96587855D01*
X102582552Y-96587855D02*
X102453981Y-96484045D01*
X102453981Y-96484045D02*
X102389695Y-96328331D01*
X102389695Y-96328331D02*
X102389695Y-96224522D01*
X102389695Y-96224522D02*
X102453981Y-96068807D01*
X102453981Y-96068807D02*
X102518267Y-96016903D01*
X102389695Y-95342141D02*
X102389695Y-95134522D01*
X102389695Y-95134522D02*
X102453981Y-95030712D01*
X102453981Y-95030712D02*
X102582552Y-94926903D01*
X102582552Y-94926903D02*
X102839695Y-94874998D01*
X102839695Y-94874998D02*
X103289695Y-94874998D01*
X103289695Y-94874998D02*
X103546838Y-94926903D01*
X103546838Y-94926903D02*
X103675410Y-95030712D01*
X103675410Y-95030712D02*
X103739695Y-95134522D01*
X103739695Y-95134522D02*
X103739695Y-95342141D01*
X103739695Y-95342141D02*
X103675410Y-95445950D01*
X103675410Y-95445950D02*
X103546838Y-95549760D01*
X103546838Y-95549760D02*
X103289695Y-95601664D01*
X103289695Y-95601664D02*
X102839695Y-95601664D01*
X102839695Y-95601664D02*
X102582552Y-95549760D01*
X102582552Y-95549760D02*
X102453981Y-95445950D01*
X102453981Y-95445950D02*
X102389695Y-95342141D01*
X103739695Y-94407855D02*
X102389695Y-94407855D01*
X102389695Y-94407855D02*
X103353981Y-94044521D01*
X103353981Y-94044521D02*
X102389695Y-93681188D01*
X102389695Y-93681188D02*
X103739695Y-93681188D01*
X103739695Y-93162141D02*
X102389695Y-93162141D01*
X102389695Y-93162141D02*
X102389695Y-92746903D01*
X102389695Y-92746903D02*
X102453981Y-92643093D01*
X102453981Y-92643093D02*
X102518267Y-92591188D01*
X102518267Y-92591188D02*
X102646838Y-92539284D01*
X102646838Y-92539284D02*
X102839695Y-92539284D01*
X102839695Y-92539284D02*
X102968267Y-92591188D01*
X102968267Y-92591188D02*
X103032552Y-92643093D01*
X103032552Y-92643093D02*
X103096838Y-92746903D01*
X103096838Y-92746903D02*
X103096838Y-93162141D01*
X102389695Y-92072141D02*
X103482552Y-92072141D01*
X103482552Y-92072141D02*
X103611124Y-92020236D01*
X103611124Y-92020236D02*
X103675410Y-91968331D01*
X103675410Y-91968331D02*
X103739695Y-91864522D01*
X103739695Y-91864522D02*
X103739695Y-91656903D01*
X103739695Y-91656903D02*
X103675410Y-91553093D01*
X103675410Y-91553093D02*
X103611124Y-91501188D01*
X103611124Y-91501188D02*
X103482552Y-91449284D01*
X103482552Y-91449284D02*
X102389695Y-91449284D01*
X102389695Y-91085950D02*
X102389695Y-90463093D01*
X103739695Y-90774521D02*
X102389695Y-90774521D01*
X103032552Y-90099760D02*
X103032552Y-89736426D01*
X103739695Y-89580712D02*
X103739695Y-90099760D01*
X103739695Y-90099760D02*
X102389695Y-90099760D01*
X102389695Y-90099760D02*
X102389695Y-89580712D01*
X103739695Y-88490713D02*
X103096838Y-88854046D01*
X103739695Y-89113570D02*
X102389695Y-89113570D01*
X102389695Y-89113570D02*
X102389695Y-88698332D01*
X102389695Y-88698332D02*
X102453981Y-88594522D01*
X102453981Y-88594522D02*
X102518267Y-88542617D01*
X102518267Y-88542617D02*
X102646838Y-88490713D01*
X102646838Y-88490713D02*
X102839695Y-88490713D01*
X102839695Y-88490713D02*
X102968267Y-88542617D01*
X102968267Y-88542617D02*
X103032552Y-88594522D01*
X103032552Y-88594522D02*
X103096838Y-88698332D01*
X103096838Y-88698332D02*
X103096838Y-89113570D01*
X103611124Y-86570237D02*
X103675410Y-86622141D01*
X103675410Y-86622141D02*
X103739695Y-86777856D01*
X103739695Y-86777856D02*
X103739695Y-86881665D01*
X103739695Y-86881665D02*
X103675410Y-87037379D01*
X103675410Y-87037379D02*
X103546838Y-87141189D01*
X103546838Y-87141189D02*
X103418267Y-87193094D01*
X103418267Y-87193094D02*
X103161124Y-87244998D01*
X103161124Y-87244998D02*
X102968267Y-87244998D01*
X102968267Y-87244998D02*
X102711124Y-87193094D01*
X102711124Y-87193094D02*
X102582552Y-87141189D01*
X102582552Y-87141189D02*
X102453981Y-87037379D01*
X102453981Y-87037379D02*
X102389695Y-86881665D01*
X102389695Y-86881665D02*
X102389695Y-86777856D01*
X102389695Y-86777856D02*
X102453981Y-86622141D01*
X102453981Y-86622141D02*
X102518267Y-86570237D01*
X103353981Y-86154998D02*
X103353981Y-85635951D01*
X103739695Y-86258808D02*
X102389695Y-85895475D01*
X102389695Y-85895475D02*
X103739695Y-85532141D01*
X103739695Y-84545951D02*
X103096838Y-84909284D01*
X103739695Y-85168808D02*
X102389695Y-85168808D01*
X102389695Y-85168808D02*
X102389695Y-84753570D01*
X102389695Y-84753570D02*
X102453981Y-84649760D01*
X102453981Y-84649760D02*
X102518267Y-84597855D01*
X102518267Y-84597855D02*
X102646838Y-84545951D01*
X102646838Y-84545951D02*
X102839695Y-84545951D01*
X102839695Y-84545951D02*
X102968267Y-84597855D01*
X102968267Y-84597855D02*
X103032552Y-84649760D01*
X103032552Y-84649760D02*
X103096838Y-84753570D01*
X103096838Y-84753570D02*
X103096838Y-85168808D01*
X102389695Y-84234522D02*
X102389695Y-83611665D01*
X103739695Y-83923093D02*
X102389695Y-83923093D01*
X103739695Y-82625475D02*
X103096838Y-82988808D01*
X103739695Y-83248332D02*
X102389695Y-83248332D01*
X102389695Y-83248332D02*
X102389695Y-82833094D01*
X102389695Y-82833094D02*
X102453981Y-82729284D01*
X102453981Y-82729284D02*
X102518267Y-82677379D01*
X102518267Y-82677379D02*
X102646838Y-82625475D01*
X102646838Y-82625475D02*
X102839695Y-82625475D01*
X102839695Y-82625475D02*
X102968267Y-82677379D01*
X102968267Y-82677379D02*
X103032552Y-82729284D01*
X103032552Y-82729284D02*
X103096838Y-82833094D01*
X103096838Y-82833094D02*
X103096838Y-83248332D01*
X103739695Y-82158332D02*
X102389695Y-82158332D01*
X103739695Y-81639284D02*
X102389695Y-81639284D01*
X102389695Y-81639284D02*
X102389695Y-81379760D01*
X102389695Y-81379760D02*
X102453981Y-81224046D01*
X102453981Y-81224046D02*
X102582552Y-81120236D01*
X102582552Y-81120236D02*
X102711124Y-81068331D01*
X102711124Y-81068331D02*
X102968267Y-81016427D01*
X102968267Y-81016427D02*
X103161124Y-81016427D01*
X103161124Y-81016427D02*
X103418267Y-81068331D01*
X103418267Y-81068331D02*
X103546838Y-81120236D01*
X103546838Y-81120236D02*
X103675410Y-81224046D01*
X103675410Y-81224046D02*
X103739695Y-81379760D01*
X103739695Y-81379760D02*
X103739695Y-81639284D01*
X102453981Y-79978331D02*
X102389695Y-80082141D01*
X102389695Y-80082141D02*
X102389695Y-80237855D01*
X102389695Y-80237855D02*
X102453981Y-80393569D01*
X102453981Y-80393569D02*
X102582552Y-80497379D01*
X102582552Y-80497379D02*
X102711124Y-80549284D01*
X102711124Y-80549284D02*
X102968267Y-80601188D01*
X102968267Y-80601188D02*
X103161124Y-80601188D01*
X103161124Y-80601188D02*
X103418267Y-80549284D01*
X103418267Y-80549284D02*
X103546838Y-80497379D01*
X103546838Y-80497379D02*
X103675410Y-80393569D01*
X103675410Y-80393569D02*
X103739695Y-80237855D01*
X103739695Y-80237855D02*
X103739695Y-80134046D01*
X103739695Y-80134046D02*
X103675410Y-79978331D01*
X103675410Y-79978331D02*
X103611124Y-79926427D01*
X103611124Y-79926427D02*
X103161124Y-79926427D01*
X103161124Y-79926427D02*
X103161124Y-80134046D01*
X103032552Y-79459284D02*
X103032552Y-79095950D01*
X103739695Y-78940236D02*
X103739695Y-79459284D01*
X103739695Y-79459284D02*
X102389695Y-79459284D01*
X102389695Y-79459284D02*
X102389695Y-78940236D01*
X103739695Y-77642618D02*
X102389695Y-77642618D01*
X102389695Y-77642618D02*
X102389695Y-77227380D01*
X102389695Y-77227380D02*
X102453981Y-77123570D01*
X102453981Y-77123570D02*
X102518267Y-77071665D01*
X102518267Y-77071665D02*
X102646838Y-77019761D01*
X102646838Y-77019761D02*
X102839695Y-77019761D01*
X102839695Y-77019761D02*
X102968267Y-77071665D01*
X102968267Y-77071665D02*
X103032552Y-77123570D01*
X103032552Y-77123570D02*
X103096838Y-77227380D01*
X103096838Y-77227380D02*
X103096838Y-77642618D01*
X102389695Y-76344999D02*
X102389695Y-76137380D01*
X102389695Y-76137380D02*
X102453981Y-76033570D01*
X102453981Y-76033570D02*
X102582552Y-75929761D01*
X102582552Y-75929761D02*
X102839695Y-75877856D01*
X102839695Y-75877856D02*
X103289695Y-75877856D01*
X103289695Y-75877856D02*
X103546838Y-75929761D01*
X103546838Y-75929761D02*
X103675410Y-76033570D01*
X103675410Y-76033570D02*
X103739695Y-76137380D01*
X103739695Y-76137380D02*
X103739695Y-76344999D01*
X103739695Y-76344999D02*
X103675410Y-76448808D01*
X103675410Y-76448808D02*
X103546838Y-76552618D01*
X103546838Y-76552618D02*
X103289695Y-76604522D01*
X103289695Y-76604522D02*
X102839695Y-76604522D01*
X102839695Y-76604522D02*
X102582552Y-76552618D01*
X102582552Y-76552618D02*
X102453981Y-76448808D01*
X102453981Y-76448808D02*
X102389695Y-76344999D01*
X103739695Y-74787856D02*
X103096838Y-75151189D01*
X103739695Y-75410713D02*
X102389695Y-75410713D01*
X102389695Y-75410713D02*
X102389695Y-74995475D01*
X102389695Y-74995475D02*
X102453981Y-74891665D01*
X102453981Y-74891665D02*
X102518267Y-74839760D01*
X102518267Y-74839760D02*
X102646838Y-74787856D01*
X102646838Y-74787856D02*
X102839695Y-74787856D01*
X102839695Y-74787856D02*
X102968267Y-74839760D01*
X102968267Y-74839760D02*
X103032552Y-74891665D01*
X103032552Y-74891665D02*
X103096838Y-74995475D01*
X103096838Y-74995475D02*
X103096838Y-75410713D01*
X102389695Y-74476427D02*
X102389695Y-73853570D01*
X103739695Y-74164998D02*
X102389695Y-74164998D01*
D10*
X107853847Y-92295715D02*
X106853847Y-92295715D01*
X106853847Y-92295715D02*
X106853847Y-92057620D01*
X106853847Y-92057620D02*
X106901466Y-91914763D01*
X106901466Y-91914763D02*
X106996704Y-91819525D01*
X106996704Y-91819525D02*
X107091942Y-91771906D01*
X107091942Y-91771906D02*
X107282418Y-91724287D01*
X107282418Y-91724287D02*
X107425275Y-91724287D01*
X107425275Y-91724287D02*
X107615751Y-91771906D01*
X107615751Y-91771906D02*
X107710989Y-91819525D01*
X107710989Y-91819525D02*
X107806228Y-91914763D01*
X107806228Y-91914763D02*
X107853847Y-92057620D01*
X107853847Y-92057620D02*
X107853847Y-92295715D01*
X107806228Y-90914763D02*
X107853847Y-91010001D01*
X107853847Y-91010001D02*
X107853847Y-91200477D01*
X107853847Y-91200477D02*
X107806228Y-91295715D01*
X107806228Y-91295715D02*
X107710989Y-91343334D01*
X107710989Y-91343334D02*
X107330037Y-91343334D01*
X107330037Y-91343334D02*
X107234799Y-91295715D01*
X107234799Y-91295715D02*
X107187180Y-91200477D01*
X107187180Y-91200477D02*
X107187180Y-91010001D01*
X107187180Y-91010001D02*
X107234799Y-90914763D01*
X107234799Y-90914763D02*
X107330037Y-90867144D01*
X107330037Y-90867144D02*
X107425275Y-90867144D01*
X107425275Y-90867144D02*
X107520513Y-91343334D01*
X107806228Y-90486191D02*
X107853847Y-90390953D01*
X107853847Y-90390953D02*
X107853847Y-90200477D01*
X107853847Y-90200477D02*
X107806228Y-90105239D01*
X107806228Y-90105239D02*
X107710989Y-90057620D01*
X107710989Y-90057620D02*
X107663370Y-90057620D01*
X107663370Y-90057620D02*
X107568132Y-90105239D01*
X107568132Y-90105239D02*
X107520513Y-90200477D01*
X107520513Y-90200477D02*
X107520513Y-90343334D01*
X107520513Y-90343334D02*
X107472894Y-90438572D01*
X107472894Y-90438572D02*
X107377656Y-90486191D01*
X107377656Y-90486191D02*
X107330037Y-90486191D01*
X107330037Y-90486191D02*
X107234799Y-90438572D01*
X107234799Y-90438572D02*
X107187180Y-90343334D01*
X107187180Y-90343334D02*
X107187180Y-90200477D01*
X107187180Y-90200477D02*
X107234799Y-90105239D01*
X107853847Y-89629048D02*
X107187180Y-89629048D01*
X106853847Y-89629048D02*
X106901466Y-89676667D01*
X106901466Y-89676667D02*
X106949085Y-89629048D01*
X106949085Y-89629048D02*
X106901466Y-89581429D01*
X106901466Y-89581429D02*
X106853847Y-89629048D01*
X106853847Y-89629048D02*
X106949085Y-89629048D01*
X107187180Y-88724287D02*
X107996704Y-88724287D01*
X107996704Y-88724287D02*
X108091942Y-88771906D01*
X108091942Y-88771906D02*
X108139561Y-88819525D01*
X108139561Y-88819525D02*
X108187180Y-88914763D01*
X108187180Y-88914763D02*
X108187180Y-89057620D01*
X108187180Y-89057620D02*
X108139561Y-89152858D01*
X107806228Y-88724287D02*
X107853847Y-88819525D01*
X107853847Y-88819525D02*
X107853847Y-89010001D01*
X107853847Y-89010001D02*
X107806228Y-89105239D01*
X107806228Y-89105239D02*
X107758608Y-89152858D01*
X107758608Y-89152858D02*
X107663370Y-89200477D01*
X107663370Y-89200477D02*
X107377656Y-89200477D01*
X107377656Y-89200477D02*
X107282418Y-89152858D01*
X107282418Y-89152858D02*
X107234799Y-89105239D01*
X107234799Y-89105239D02*
X107187180Y-89010001D01*
X107187180Y-89010001D02*
X107187180Y-88819525D01*
X107187180Y-88819525D02*
X107234799Y-88724287D01*
X107187180Y-88248096D02*
X107853847Y-88248096D01*
X107282418Y-88248096D02*
X107234799Y-88200477D01*
X107234799Y-88200477D02*
X107187180Y-88105239D01*
X107187180Y-88105239D02*
X107187180Y-87962382D01*
X107187180Y-87962382D02*
X107234799Y-87867144D01*
X107234799Y-87867144D02*
X107330037Y-87819525D01*
X107330037Y-87819525D02*
X107853847Y-87819525D01*
X107806228Y-86962382D02*
X107853847Y-87057620D01*
X107853847Y-87057620D02*
X107853847Y-87248096D01*
X107853847Y-87248096D02*
X107806228Y-87343334D01*
X107806228Y-87343334D02*
X107710989Y-87390953D01*
X107710989Y-87390953D02*
X107330037Y-87390953D01*
X107330037Y-87390953D02*
X107234799Y-87343334D01*
X107234799Y-87343334D02*
X107187180Y-87248096D01*
X107187180Y-87248096D02*
X107187180Y-87057620D01*
X107187180Y-87057620D02*
X107234799Y-86962382D01*
X107234799Y-86962382D02*
X107330037Y-86914763D01*
X107330037Y-86914763D02*
X107425275Y-86914763D01*
X107425275Y-86914763D02*
X107520513Y-87390953D01*
X107853847Y-86057620D02*
X106853847Y-86057620D01*
X107806228Y-86057620D02*
X107853847Y-86152858D01*
X107853847Y-86152858D02*
X107853847Y-86343334D01*
X107853847Y-86343334D02*
X107806228Y-86438572D01*
X107806228Y-86438572D02*
X107758608Y-86486191D01*
X107758608Y-86486191D02*
X107663370Y-86533810D01*
X107663370Y-86533810D02*
X107377656Y-86533810D01*
X107377656Y-86533810D02*
X107282418Y-86486191D01*
X107282418Y-86486191D02*
X107234799Y-86438572D01*
X107234799Y-86438572D02*
X107187180Y-86343334D01*
X107187180Y-86343334D02*
X107187180Y-86152858D01*
X107187180Y-86152858D02*
X107234799Y-86057620D01*
X107853847Y-84819524D02*
X106853847Y-84819524D01*
X107234799Y-84819524D02*
X107187180Y-84724286D01*
X107187180Y-84724286D02*
X107187180Y-84533810D01*
X107187180Y-84533810D02*
X107234799Y-84438572D01*
X107234799Y-84438572D02*
X107282418Y-84390953D01*
X107282418Y-84390953D02*
X107377656Y-84343334D01*
X107377656Y-84343334D02*
X107663370Y-84343334D01*
X107663370Y-84343334D02*
X107758608Y-84390953D01*
X107758608Y-84390953D02*
X107806228Y-84438572D01*
X107806228Y-84438572D02*
X107853847Y-84533810D01*
X107853847Y-84533810D02*
X107853847Y-84724286D01*
X107853847Y-84724286D02*
X107806228Y-84819524D01*
X107187180Y-84010000D02*
X107853847Y-83771905D01*
X107187180Y-83533810D02*
X107853847Y-83771905D01*
X107853847Y-83771905D02*
X108091942Y-83867143D01*
X108091942Y-83867143D02*
X108139561Y-83914762D01*
X108139561Y-83914762D02*
X108187180Y-84010000D01*
X106853847Y-82105238D02*
X107568132Y-82105238D01*
X107568132Y-82105238D02*
X107710989Y-82152857D01*
X107710989Y-82152857D02*
X107806228Y-82248095D01*
X107806228Y-82248095D02*
X107853847Y-82390952D01*
X107853847Y-82390952D02*
X107853847Y-82486190D01*
X107853847Y-81200476D02*
X107330037Y-81200476D01*
X107330037Y-81200476D02*
X107234799Y-81248095D01*
X107234799Y-81248095D02*
X107187180Y-81343333D01*
X107187180Y-81343333D02*
X107187180Y-81533809D01*
X107187180Y-81533809D02*
X107234799Y-81629047D01*
X107806228Y-81200476D02*
X107853847Y-81295714D01*
X107853847Y-81295714D02*
X107853847Y-81533809D01*
X107853847Y-81533809D02*
X107806228Y-81629047D01*
X107806228Y-81629047D02*
X107710989Y-81676666D01*
X107710989Y-81676666D02*
X107615751Y-81676666D01*
X107615751Y-81676666D02*
X107520513Y-81629047D01*
X107520513Y-81629047D02*
X107472894Y-81533809D01*
X107472894Y-81533809D02*
X107472894Y-81295714D01*
X107472894Y-81295714D02*
X107425275Y-81200476D01*
X107187180Y-80819523D02*
X107853847Y-80581428D01*
X107187180Y-80343333D02*
X107853847Y-80581428D01*
X107853847Y-80581428D02*
X108091942Y-80676666D01*
X108091942Y-80676666D02*
X108139561Y-80724285D01*
X108139561Y-80724285D02*
X108187180Y-80819523D01*
X107806228Y-79581428D02*
X107853847Y-79676666D01*
X107853847Y-79676666D02*
X107853847Y-79867142D01*
X107853847Y-79867142D02*
X107806228Y-79962380D01*
X107806228Y-79962380D02*
X107710989Y-80009999D01*
X107710989Y-80009999D02*
X107330037Y-80009999D01*
X107330037Y-80009999D02*
X107234799Y-79962380D01*
X107234799Y-79962380D02*
X107187180Y-79867142D01*
X107187180Y-79867142D02*
X107187180Y-79676666D01*
X107187180Y-79676666D02*
X107234799Y-79581428D01*
X107234799Y-79581428D02*
X107330037Y-79533809D01*
X107330037Y-79533809D02*
X107425275Y-79533809D01*
X107425275Y-79533809D02*
X107520513Y-80009999D01*
X107806228Y-79152856D02*
X107853847Y-79057618D01*
X107853847Y-79057618D02*
X107853847Y-78867142D01*
X107853847Y-78867142D02*
X107806228Y-78771904D01*
X107806228Y-78771904D02*
X107710989Y-78724285D01*
X107710989Y-78724285D02*
X107663370Y-78724285D01*
X107663370Y-78724285D02*
X107568132Y-78771904D01*
X107568132Y-78771904D02*
X107520513Y-78867142D01*
X107520513Y-78867142D02*
X107520513Y-79009999D01*
X107520513Y-79009999D02*
X107472894Y-79105237D01*
X107472894Y-79105237D02*
X107377656Y-79152856D01*
X107377656Y-79152856D02*
X107330037Y-79152856D01*
X107330037Y-79152856D02*
X107234799Y-79105237D01*
X107234799Y-79105237D02*
X107187180Y-79009999D01*
X107187180Y-79009999D02*
X107187180Y-78867142D01*
X107187180Y-78867142D02*
X107234799Y-78771904D01*
X107853847Y-78152856D02*
X107806228Y-78248094D01*
X107806228Y-78248094D02*
X107758608Y-78295713D01*
X107758608Y-78295713D02*
X107663370Y-78343332D01*
X107663370Y-78343332D02*
X107377656Y-78343332D01*
X107377656Y-78343332D02*
X107282418Y-78295713D01*
X107282418Y-78295713D02*
X107234799Y-78248094D01*
X107234799Y-78248094D02*
X107187180Y-78152856D01*
X107187180Y-78152856D02*
X107187180Y-78009999D01*
X107187180Y-78009999D02*
X107234799Y-77914761D01*
X107234799Y-77914761D02*
X107282418Y-77867142D01*
X107282418Y-77867142D02*
X107377656Y-77819523D01*
X107377656Y-77819523D02*
X107663370Y-77819523D01*
X107663370Y-77819523D02*
X107758608Y-77867142D01*
X107758608Y-77867142D02*
X107806228Y-77914761D01*
X107806228Y-77914761D02*
X107853847Y-78009999D01*
X107853847Y-78009999D02*
X107853847Y-78152856D01*
X107187180Y-77390951D02*
X107853847Y-77390951D01*
X107282418Y-77390951D02*
X107234799Y-77343332D01*
X107234799Y-77343332D02*
X107187180Y-77248094D01*
X107187180Y-77248094D02*
X107187180Y-77105237D01*
X107187180Y-77105237D02*
X107234799Y-77009999D01*
X107234799Y-77009999D02*
X107330037Y-76962380D01*
X107330037Y-76962380D02*
X107853847Y-76962380D01*
X107853847Y-75248094D02*
X107853847Y-75724284D01*
X107853847Y-75724284D02*
X106853847Y-75724284D01*
X107806228Y-74533808D02*
X107853847Y-74629046D01*
X107853847Y-74629046D02*
X107853847Y-74819522D01*
X107853847Y-74819522D02*
X107806228Y-74914760D01*
X107806228Y-74914760D02*
X107710989Y-74962379D01*
X107710989Y-74962379D02*
X107330037Y-74962379D01*
X107330037Y-74962379D02*
X107234799Y-74914760D01*
X107234799Y-74914760D02*
X107187180Y-74819522D01*
X107187180Y-74819522D02*
X107187180Y-74629046D01*
X107187180Y-74629046D02*
X107234799Y-74533808D01*
X107234799Y-74533808D02*
X107330037Y-74486189D01*
X107330037Y-74486189D02*
X107425275Y-74486189D01*
X107425275Y-74486189D02*
X107520513Y-74962379D01*
X107806228Y-73676665D02*
X107853847Y-73771903D01*
X107853847Y-73771903D02*
X107853847Y-73962379D01*
X107853847Y-73962379D02*
X107806228Y-74057617D01*
X107806228Y-74057617D02*
X107710989Y-74105236D01*
X107710989Y-74105236D02*
X107330037Y-74105236D01*
X107330037Y-74105236D02*
X107234799Y-74057617D01*
X107234799Y-74057617D02*
X107187180Y-73962379D01*
X107187180Y-73962379D02*
X107187180Y-73771903D01*
X107187180Y-73771903D02*
X107234799Y-73676665D01*
X107234799Y-73676665D02*
X107330037Y-73629046D01*
X107330037Y-73629046D02*
X107425275Y-73629046D01*
X107425275Y-73629046D02*
X107520513Y-74105236D01*
X107472894Y-73200474D02*
X107472894Y-72438570D01*
X107806228Y-72009998D02*
X107853847Y-71867141D01*
X107853847Y-71867141D02*
X107853847Y-71629046D01*
X107853847Y-71629046D02*
X107806228Y-71533808D01*
X107806228Y-71533808D02*
X107758608Y-71486189D01*
X107758608Y-71486189D02*
X107663370Y-71438570D01*
X107663370Y-71438570D02*
X107568132Y-71438570D01*
X107568132Y-71438570D02*
X107472894Y-71486189D01*
X107472894Y-71486189D02*
X107425275Y-71533808D01*
X107425275Y-71533808D02*
X107377656Y-71629046D01*
X107377656Y-71629046D02*
X107330037Y-71819522D01*
X107330037Y-71819522D02*
X107282418Y-71914760D01*
X107282418Y-71914760D02*
X107234799Y-71962379D01*
X107234799Y-71962379D02*
X107139561Y-72009998D01*
X107139561Y-72009998D02*
X107044323Y-72009998D01*
X107044323Y-72009998D02*
X106949085Y-71962379D01*
X106949085Y-71962379D02*
X106901466Y-71914760D01*
X106901466Y-71914760D02*
X106853847Y-71819522D01*
X106853847Y-71819522D02*
X106853847Y-71581427D01*
X106853847Y-71581427D02*
X106901466Y-71438570D01*
X107187180Y-71152855D02*
X107187180Y-70771903D01*
X106853847Y-71009998D02*
X107710989Y-71009998D01*
X107710989Y-71009998D02*
X107806228Y-70962379D01*
X107806228Y-70962379D02*
X107853847Y-70867141D01*
X107853847Y-70867141D02*
X107853847Y-70771903D01*
X107806228Y-70057617D02*
X107853847Y-70152855D01*
X107853847Y-70152855D02*
X107853847Y-70343331D01*
X107853847Y-70343331D02*
X107806228Y-70438569D01*
X107806228Y-70438569D02*
X107710989Y-70486188D01*
X107710989Y-70486188D02*
X107330037Y-70486188D01*
X107330037Y-70486188D02*
X107234799Y-70438569D01*
X107234799Y-70438569D02*
X107187180Y-70343331D01*
X107187180Y-70343331D02*
X107187180Y-70152855D01*
X107187180Y-70152855D02*
X107234799Y-70057617D01*
X107234799Y-70057617D02*
X107330037Y-70009998D01*
X107330037Y-70009998D02*
X107425275Y-70009998D01*
X107425275Y-70009998D02*
X107520513Y-70486188D01*
X107806228Y-69200474D02*
X107853847Y-69295712D01*
X107853847Y-69295712D02*
X107853847Y-69486188D01*
X107853847Y-69486188D02*
X107806228Y-69581426D01*
X107806228Y-69581426D02*
X107710989Y-69629045D01*
X107710989Y-69629045D02*
X107330037Y-69629045D01*
X107330037Y-69629045D02*
X107234799Y-69581426D01*
X107234799Y-69581426D02*
X107187180Y-69486188D01*
X107187180Y-69486188D02*
X107187180Y-69295712D01*
X107187180Y-69295712D02*
X107234799Y-69200474D01*
X107234799Y-69200474D02*
X107330037Y-69152855D01*
X107330037Y-69152855D02*
X107425275Y-69152855D01*
X107425275Y-69152855D02*
X107520513Y-69629045D01*
X107853847Y-68724283D02*
X107187180Y-68724283D01*
X107377656Y-68724283D02*
X107282418Y-68676664D01*
X107282418Y-68676664D02*
X107234799Y-68629045D01*
X107234799Y-68629045D02*
X107187180Y-68533807D01*
X107187180Y-68533807D02*
X107187180Y-68438569D01*
X107806228Y-67724283D02*
X107853847Y-67819521D01*
X107853847Y-67819521D02*
X107853847Y-68009997D01*
X107853847Y-68009997D02*
X107806228Y-68105235D01*
X107806228Y-68105235D02*
X107710989Y-68152854D01*
X107710989Y-68152854D02*
X107330037Y-68152854D01*
X107330037Y-68152854D02*
X107234799Y-68105235D01*
X107234799Y-68105235D02*
X107187180Y-68009997D01*
X107187180Y-68009997D02*
X107187180Y-67819521D01*
X107187180Y-67819521D02*
X107234799Y-67724283D01*
X107234799Y-67724283D02*
X107330037Y-67676664D01*
X107330037Y-67676664D02*
X107425275Y-67676664D01*
X107425275Y-67676664D02*
X107520513Y-68152854D01*
X109463791Y-92771906D02*
X108939981Y-92771906D01*
X108939981Y-92771906D02*
X108844743Y-92819525D01*
X108844743Y-92819525D02*
X108797124Y-92914763D01*
X108797124Y-92914763D02*
X108797124Y-93105239D01*
X108797124Y-93105239D02*
X108844743Y-93200477D01*
X109416172Y-92771906D02*
X109463791Y-92867144D01*
X109463791Y-92867144D02*
X109463791Y-93105239D01*
X109463791Y-93105239D02*
X109416172Y-93200477D01*
X109416172Y-93200477D02*
X109320933Y-93248096D01*
X109320933Y-93248096D02*
X109225695Y-93248096D01*
X109225695Y-93248096D02*
X109130457Y-93200477D01*
X109130457Y-93200477D02*
X109082838Y-93105239D01*
X109082838Y-93105239D02*
X109082838Y-92867144D01*
X109082838Y-92867144D02*
X109035219Y-92771906D01*
X108797124Y-92295715D02*
X109463791Y-92295715D01*
X108892362Y-92295715D02*
X108844743Y-92248096D01*
X108844743Y-92248096D02*
X108797124Y-92152858D01*
X108797124Y-92152858D02*
X108797124Y-92010001D01*
X108797124Y-92010001D02*
X108844743Y-91914763D01*
X108844743Y-91914763D02*
X108939981Y-91867144D01*
X108939981Y-91867144D02*
X109463791Y-91867144D01*
X109463791Y-90962382D02*
X108463791Y-90962382D01*
X109416172Y-90962382D02*
X109463791Y-91057620D01*
X109463791Y-91057620D02*
X109463791Y-91248096D01*
X109463791Y-91248096D02*
X109416172Y-91343334D01*
X109416172Y-91343334D02*
X109368552Y-91390953D01*
X109368552Y-91390953D02*
X109273314Y-91438572D01*
X109273314Y-91438572D02*
X108987600Y-91438572D01*
X108987600Y-91438572D02*
X108892362Y-91390953D01*
X108892362Y-91390953D02*
X108844743Y-91343334D01*
X108844743Y-91343334D02*
X108797124Y-91248096D01*
X108797124Y-91248096D02*
X108797124Y-91057620D01*
X108797124Y-91057620D02*
X108844743Y-90962382D01*
X108797124Y-89724286D02*
X109797124Y-89724286D01*
X108844743Y-89724286D02*
X108797124Y-89629048D01*
X108797124Y-89629048D02*
X108797124Y-89438572D01*
X108797124Y-89438572D02*
X108844743Y-89343334D01*
X108844743Y-89343334D02*
X108892362Y-89295715D01*
X108892362Y-89295715D02*
X108987600Y-89248096D01*
X108987600Y-89248096D02*
X109273314Y-89248096D01*
X109273314Y-89248096D02*
X109368552Y-89295715D01*
X109368552Y-89295715D02*
X109416172Y-89343334D01*
X109416172Y-89343334D02*
X109463791Y-89438572D01*
X109463791Y-89438572D02*
X109463791Y-89629048D01*
X109463791Y-89629048D02*
X109416172Y-89724286D01*
X109463791Y-88676667D02*
X109416172Y-88771905D01*
X109416172Y-88771905D02*
X109320933Y-88819524D01*
X109320933Y-88819524D02*
X108463791Y-88819524D01*
X109463791Y-87867143D02*
X108939981Y-87867143D01*
X108939981Y-87867143D02*
X108844743Y-87914762D01*
X108844743Y-87914762D02*
X108797124Y-88010000D01*
X108797124Y-88010000D02*
X108797124Y-88200476D01*
X108797124Y-88200476D02*
X108844743Y-88295714D01*
X109416172Y-87867143D02*
X109463791Y-87962381D01*
X109463791Y-87962381D02*
X109463791Y-88200476D01*
X109463791Y-88200476D02*
X109416172Y-88295714D01*
X109416172Y-88295714D02*
X109320933Y-88343333D01*
X109320933Y-88343333D02*
X109225695Y-88343333D01*
X109225695Y-88343333D02*
X109130457Y-88295714D01*
X109130457Y-88295714D02*
X109082838Y-88200476D01*
X109082838Y-88200476D02*
X109082838Y-87962381D01*
X109082838Y-87962381D02*
X109035219Y-87867143D01*
X109416172Y-86962381D02*
X109463791Y-87057619D01*
X109463791Y-87057619D02*
X109463791Y-87248095D01*
X109463791Y-87248095D02*
X109416172Y-87343333D01*
X109416172Y-87343333D02*
X109368552Y-87390952D01*
X109368552Y-87390952D02*
X109273314Y-87438571D01*
X109273314Y-87438571D02*
X108987600Y-87438571D01*
X108987600Y-87438571D02*
X108892362Y-87390952D01*
X108892362Y-87390952D02*
X108844743Y-87343333D01*
X108844743Y-87343333D02*
X108797124Y-87248095D01*
X108797124Y-87248095D02*
X108797124Y-87057619D01*
X108797124Y-87057619D02*
X108844743Y-86962381D01*
X109416172Y-86152857D02*
X109463791Y-86248095D01*
X109463791Y-86248095D02*
X109463791Y-86438571D01*
X109463791Y-86438571D02*
X109416172Y-86533809D01*
X109416172Y-86533809D02*
X109320933Y-86581428D01*
X109320933Y-86581428D02*
X108939981Y-86581428D01*
X108939981Y-86581428D02*
X108844743Y-86533809D01*
X108844743Y-86533809D02*
X108797124Y-86438571D01*
X108797124Y-86438571D02*
X108797124Y-86248095D01*
X108797124Y-86248095D02*
X108844743Y-86152857D01*
X108844743Y-86152857D02*
X108939981Y-86105238D01*
X108939981Y-86105238D02*
X109035219Y-86105238D01*
X109035219Y-86105238D02*
X109130457Y-86581428D01*
X109463791Y-85248095D02*
X108463791Y-85248095D01*
X109416172Y-85248095D02*
X109463791Y-85343333D01*
X109463791Y-85343333D02*
X109463791Y-85533809D01*
X109463791Y-85533809D02*
X109416172Y-85629047D01*
X109416172Y-85629047D02*
X109368552Y-85676666D01*
X109368552Y-85676666D02*
X109273314Y-85724285D01*
X109273314Y-85724285D02*
X108987600Y-85724285D01*
X108987600Y-85724285D02*
X108892362Y-85676666D01*
X108892362Y-85676666D02*
X108844743Y-85629047D01*
X108844743Y-85629047D02*
X108797124Y-85533809D01*
X108797124Y-85533809D02*
X108797124Y-85343333D01*
X108797124Y-85343333D02*
X108844743Y-85248095D01*
X109463791Y-84009999D02*
X108797124Y-84009999D01*
X108463791Y-84009999D02*
X108511410Y-84057618D01*
X108511410Y-84057618D02*
X108559029Y-84009999D01*
X108559029Y-84009999D02*
X108511410Y-83962380D01*
X108511410Y-83962380D02*
X108463791Y-84009999D01*
X108463791Y-84009999D02*
X108559029Y-84009999D01*
X108797124Y-83533809D02*
X109463791Y-83533809D01*
X108892362Y-83533809D02*
X108844743Y-83486190D01*
X108844743Y-83486190D02*
X108797124Y-83390952D01*
X108797124Y-83390952D02*
X108797124Y-83248095D01*
X108797124Y-83248095D02*
X108844743Y-83152857D01*
X108844743Y-83152857D02*
X108939981Y-83105238D01*
X108939981Y-83105238D02*
X109463791Y-83105238D01*
X108797124Y-82771904D02*
X108797124Y-82390952D01*
X108463791Y-82629047D02*
X109320933Y-82629047D01*
X109320933Y-82629047D02*
X109416172Y-82581428D01*
X109416172Y-82581428D02*
X109463791Y-82486190D01*
X109463791Y-82486190D02*
X109463791Y-82390952D01*
X109463791Y-81914761D02*
X109416172Y-82009999D01*
X109416172Y-82009999D02*
X109368552Y-82057618D01*
X109368552Y-82057618D02*
X109273314Y-82105237D01*
X109273314Y-82105237D02*
X108987600Y-82105237D01*
X108987600Y-82105237D02*
X108892362Y-82057618D01*
X108892362Y-82057618D02*
X108844743Y-82009999D01*
X108844743Y-82009999D02*
X108797124Y-81914761D01*
X108797124Y-81914761D02*
X108797124Y-81771904D01*
X108797124Y-81771904D02*
X108844743Y-81676666D01*
X108844743Y-81676666D02*
X108892362Y-81629047D01*
X108892362Y-81629047D02*
X108987600Y-81581428D01*
X108987600Y-81581428D02*
X109273314Y-81581428D01*
X109273314Y-81581428D02*
X109368552Y-81629047D01*
X109368552Y-81629047D02*
X109416172Y-81676666D01*
X109416172Y-81676666D02*
X109463791Y-81771904D01*
X109463791Y-81771904D02*
X109463791Y-81914761D01*
X108797124Y-80533808D02*
X108797124Y-80152856D01*
X108463791Y-80390951D02*
X109320933Y-80390951D01*
X109320933Y-80390951D02*
X109416172Y-80343332D01*
X109416172Y-80343332D02*
X109463791Y-80248094D01*
X109463791Y-80248094D02*
X109463791Y-80152856D01*
X109463791Y-79819522D02*
X108463791Y-79819522D01*
X109463791Y-79390951D02*
X108939981Y-79390951D01*
X108939981Y-79390951D02*
X108844743Y-79438570D01*
X108844743Y-79438570D02*
X108797124Y-79533808D01*
X108797124Y-79533808D02*
X108797124Y-79676665D01*
X108797124Y-79676665D02*
X108844743Y-79771903D01*
X108844743Y-79771903D02*
X108892362Y-79819522D01*
X109416172Y-78533808D02*
X109463791Y-78629046D01*
X109463791Y-78629046D02*
X109463791Y-78819522D01*
X109463791Y-78819522D02*
X109416172Y-78914760D01*
X109416172Y-78914760D02*
X109320933Y-78962379D01*
X109320933Y-78962379D02*
X108939981Y-78962379D01*
X108939981Y-78962379D02*
X108844743Y-78914760D01*
X108844743Y-78914760D02*
X108797124Y-78819522D01*
X108797124Y-78819522D02*
X108797124Y-78629046D01*
X108797124Y-78629046D02*
X108844743Y-78533808D01*
X108844743Y-78533808D02*
X108939981Y-78486189D01*
X108939981Y-78486189D02*
X109035219Y-78486189D01*
X109035219Y-78486189D02*
X109130457Y-78962379D01*
X109463791Y-77295712D02*
X108463791Y-77295712D01*
X108463791Y-77295712D02*
X108463791Y-76914760D01*
X108463791Y-76914760D02*
X108511410Y-76819522D01*
X108511410Y-76819522D02*
X108559029Y-76771903D01*
X108559029Y-76771903D02*
X108654267Y-76724284D01*
X108654267Y-76724284D02*
X108797124Y-76724284D01*
X108797124Y-76724284D02*
X108892362Y-76771903D01*
X108892362Y-76771903D02*
X108939981Y-76819522D01*
X108939981Y-76819522D02*
X108987600Y-76914760D01*
X108987600Y-76914760D02*
X108987600Y-77295712D01*
X108797124Y-75867141D02*
X109463791Y-75867141D01*
X108797124Y-76295712D02*
X109320933Y-76295712D01*
X109320933Y-76295712D02*
X109416172Y-76248093D01*
X109416172Y-76248093D02*
X109463791Y-76152855D01*
X109463791Y-76152855D02*
X109463791Y-76009998D01*
X109463791Y-76009998D02*
X109416172Y-75914760D01*
X109416172Y-75914760D02*
X109368552Y-75867141D01*
X109463791Y-75390950D02*
X108463791Y-75390950D01*
X108844743Y-75390950D02*
X108797124Y-75295712D01*
X108797124Y-75295712D02*
X108797124Y-75105236D01*
X108797124Y-75105236D02*
X108844743Y-75009998D01*
X108844743Y-75009998D02*
X108892362Y-74962379D01*
X108892362Y-74962379D02*
X108987600Y-74914760D01*
X108987600Y-74914760D02*
X109273314Y-74914760D01*
X109273314Y-74914760D02*
X109368552Y-74962379D01*
X109368552Y-74962379D02*
X109416172Y-75009998D01*
X109416172Y-75009998D02*
X109463791Y-75105236D01*
X109463791Y-75105236D02*
X109463791Y-75295712D01*
X109463791Y-75295712D02*
X109416172Y-75390950D01*
X109463791Y-74343331D02*
X109416172Y-74438569D01*
X109416172Y-74438569D02*
X109320933Y-74486188D01*
X109320933Y-74486188D02*
X108463791Y-74486188D01*
X109463791Y-73962378D02*
X108797124Y-73962378D01*
X108463791Y-73962378D02*
X108511410Y-74009997D01*
X108511410Y-74009997D02*
X108559029Y-73962378D01*
X108559029Y-73962378D02*
X108511410Y-73914759D01*
X108511410Y-73914759D02*
X108463791Y-73962378D01*
X108463791Y-73962378D02*
X108559029Y-73962378D01*
X109416172Y-73057617D02*
X109463791Y-73152855D01*
X109463791Y-73152855D02*
X109463791Y-73343331D01*
X109463791Y-73343331D02*
X109416172Y-73438569D01*
X109416172Y-73438569D02*
X109368552Y-73486188D01*
X109368552Y-73486188D02*
X109273314Y-73533807D01*
X109273314Y-73533807D02*
X108987600Y-73533807D01*
X108987600Y-73533807D02*
X108892362Y-73486188D01*
X108892362Y-73486188D02*
X108844743Y-73438569D01*
X108844743Y-73438569D02*
X108797124Y-73343331D01*
X108797124Y-73343331D02*
X108797124Y-73152855D01*
X108797124Y-73152855D02*
X108844743Y-73057617D01*
X109463791Y-71867140D02*
X108463791Y-71867140D01*
X108463791Y-71867140D02*
X108463791Y-71629045D01*
X108463791Y-71629045D02*
X108511410Y-71486188D01*
X108511410Y-71486188D02*
X108606648Y-71390950D01*
X108606648Y-71390950D02*
X108701886Y-71343331D01*
X108701886Y-71343331D02*
X108892362Y-71295712D01*
X108892362Y-71295712D02*
X109035219Y-71295712D01*
X109035219Y-71295712D02*
X109225695Y-71343331D01*
X109225695Y-71343331D02*
X109320933Y-71390950D01*
X109320933Y-71390950D02*
X109416172Y-71486188D01*
X109416172Y-71486188D02*
X109463791Y-71629045D01*
X109463791Y-71629045D02*
X109463791Y-71867140D01*
X109463791Y-70724283D02*
X109416172Y-70819521D01*
X109416172Y-70819521D02*
X109368552Y-70867140D01*
X109368552Y-70867140D02*
X109273314Y-70914759D01*
X109273314Y-70914759D02*
X108987600Y-70914759D01*
X108987600Y-70914759D02*
X108892362Y-70867140D01*
X108892362Y-70867140D02*
X108844743Y-70819521D01*
X108844743Y-70819521D02*
X108797124Y-70724283D01*
X108797124Y-70724283D02*
X108797124Y-70581426D01*
X108797124Y-70581426D02*
X108844743Y-70486188D01*
X108844743Y-70486188D02*
X108892362Y-70438569D01*
X108892362Y-70438569D02*
X108987600Y-70390950D01*
X108987600Y-70390950D02*
X109273314Y-70390950D01*
X109273314Y-70390950D02*
X109368552Y-70438569D01*
X109368552Y-70438569D02*
X109416172Y-70486188D01*
X109416172Y-70486188D02*
X109463791Y-70581426D01*
X109463791Y-70581426D02*
X109463791Y-70724283D01*
X109463791Y-69962378D02*
X108797124Y-69962378D01*
X108892362Y-69962378D02*
X108844743Y-69914759D01*
X108844743Y-69914759D02*
X108797124Y-69819521D01*
X108797124Y-69819521D02*
X108797124Y-69676664D01*
X108797124Y-69676664D02*
X108844743Y-69581426D01*
X108844743Y-69581426D02*
X108939981Y-69533807D01*
X108939981Y-69533807D02*
X109463791Y-69533807D01*
X108939981Y-69533807D02*
X108844743Y-69486188D01*
X108844743Y-69486188D02*
X108797124Y-69390950D01*
X108797124Y-69390950D02*
X108797124Y-69248093D01*
X108797124Y-69248093D02*
X108844743Y-69152854D01*
X108844743Y-69152854D02*
X108939981Y-69105235D01*
X108939981Y-69105235D02*
X109463791Y-69105235D01*
X109463791Y-68200474D02*
X108939981Y-68200474D01*
X108939981Y-68200474D02*
X108844743Y-68248093D01*
X108844743Y-68248093D02*
X108797124Y-68343331D01*
X108797124Y-68343331D02*
X108797124Y-68533807D01*
X108797124Y-68533807D02*
X108844743Y-68629045D01*
X109416172Y-68200474D02*
X109463791Y-68295712D01*
X109463791Y-68295712D02*
X109463791Y-68533807D01*
X109463791Y-68533807D02*
X109416172Y-68629045D01*
X109416172Y-68629045D02*
X109320933Y-68676664D01*
X109320933Y-68676664D02*
X109225695Y-68676664D01*
X109225695Y-68676664D02*
X109130457Y-68629045D01*
X109130457Y-68629045D02*
X109082838Y-68533807D01*
X109082838Y-68533807D02*
X109082838Y-68295712D01*
X109082838Y-68295712D02*
X109035219Y-68200474D01*
X109463791Y-67724283D02*
X108797124Y-67724283D01*
X108463791Y-67724283D02*
X108511410Y-67771902D01*
X108511410Y-67771902D02*
X108559029Y-67724283D01*
X108559029Y-67724283D02*
X108511410Y-67676664D01*
X108511410Y-67676664D02*
X108463791Y-67724283D01*
X108463791Y-67724283D02*
X108559029Y-67724283D01*
X108797124Y-67248093D02*
X109463791Y-67248093D01*
X108892362Y-67248093D02*
X108844743Y-67200474D01*
X108844743Y-67200474D02*
X108797124Y-67105236D01*
X108797124Y-67105236D02*
X108797124Y-66962379D01*
X108797124Y-66962379D02*
X108844743Y-66867141D01*
X108844743Y-66867141D02*
X108939981Y-66819522D01*
X108939981Y-66819522D02*
X109463791Y-66819522D01*
X100292819Y-129079523D02*
X100292819Y-128460476D01*
X100292819Y-128460476D02*
X100673771Y-128793809D01*
X100673771Y-128793809D02*
X100673771Y-128650952D01*
X100673771Y-128650952D02*
X100721390Y-128555714D01*
X100721390Y-128555714D02*
X100769009Y-128508095D01*
X100769009Y-128508095D02*
X100864247Y-128460476D01*
X100864247Y-128460476D02*
X101102342Y-128460476D01*
X101102342Y-128460476D02*
X101197580Y-128508095D01*
X101197580Y-128508095D02*
X101245200Y-128555714D01*
X101245200Y-128555714D02*
X101292819Y-128650952D01*
X101292819Y-128650952D02*
X101292819Y-128936666D01*
X101292819Y-128936666D02*
X101245200Y-129031904D01*
X101245200Y-129031904D02*
X101197580Y-129079523D01*
X101292819Y-127984285D02*
X101292819Y-127793809D01*
X101292819Y-127793809D02*
X101245200Y-127698571D01*
X101245200Y-127698571D02*
X101197580Y-127650952D01*
X101197580Y-127650952D02*
X101054723Y-127555714D01*
X101054723Y-127555714D02*
X100864247Y-127508095D01*
X100864247Y-127508095D02*
X100483295Y-127508095D01*
X100483295Y-127508095D02*
X100388057Y-127555714D01*
X100388057Y-127555714D02*
X100340438Y-127603333D01*
X100340438Y-127603333D02*
X100292819Y-127698571D01*
X100292819Y-127698571D02*
X100292819Y-127889047D01*
X100292819Y-127889047D02*
X100340438Y-127984285D01*
X100340438Y-127984285D02*
X100388057Y-128031904D01*
X100388057Y-128031904D02*
X100483295Y-128079523D01*
X100483295Y-128079523D02*
X100721390Y-128079523D01*
X100721390Y-128079523D02*
X100816628Y-128031904D01*
X100816628Y-128031904D02*
X100864247Y-127984285D01*
X100864247Y-127984285D02*
X100911866Y-127889047D01*
X100911866Y-127889047D02*
X100911866Y-127698571D01*
X100911866Y-127698571D02*
X100864247Y-127603333D01*
X100864247Y-127603333D02*
X100816628Y-127555714D01*
X100816628Y-127555714D02*
X100721390Y-127508095D01*
X101292819Y-79724285D02*
X101292819Y-80295713D01*
X101292819Y-80009999D02*
X100292819Y-80009999D01*
X100292819Y-80009999D02*
X100435676Y-80105237D01*
X100435676Y-80105237D02*
X100530914Y-80200475D01*
X100530914Y-80200475D02*
X100578533Y-80295713D01*
D13*
G04 #@! TO.C,P10*
X121285000Y-67310000D02*
X123825000Y-67310000D01*
X121285000Y-76835000D02*
X121285000Y-67310000D01*
X121285000Y-76835000D02*
X121285000Y-80645000D01*
X121285000Y-151130000D02*
X121285000Y-80645000D01*
X123825000Y-67310000D02*
X123825000Y-151130000D01*
X123825000Y-151130000D02*
X121285000Y-151130000D01*
X124460000Y-67310000D02*
X127000000Y-67310000D01*
X124460000Y-148590000D02*
X124460000Y-67310000D01*
X127000000Y-67310000D02*
X127000000Y-120015000D01*
X127000000Y-120015000D02*
X127000000Y-123825000D01*
X127000000Y-123825000D02*
X127000000Y-148590000D01*
X127000000Y-148590000D02*
X124460000Y-148590000D01*
G04 #@! TD*
M02*
