G04 #@! TF.GenerationSoftware,KiCad,Pcbnew,9.0.7*
G04 #@! TF.CreationDate,2026-01-11T18:39:09-08:00*
G04 #@! TF.ProjectId,CoCoProtoBoard,436f436f-5072-46f7-946f-426f6172642e,rev?*
G04 #@! TF.SameCoordinates,Original*
G04 #@! TF.FileFunction,Legend,Bot*
G04 #@! TF.FilePolarity,Positive*
%FSLAX46Y46*%
G04 Gerber Fmt 4.6, Leading zero omitted, Abs format (unit mm)*
G04 Created by KiCad (PCBNEW 9.0.7) date 2026-01-11 18:39:09*
%MOMM*%
%LPD*%
G01*
G04 APERTURE LIST*
%ADD10C,0.150000*%
%ADD11C,0.600000*%
%ADD12C,0.120000*%
G04 APERTURE END LIST*
D10*
X172720000Y-149225000D02*
X147320000Y-149225000D01*
X172720000Y-56515000D02*
X146940000Y-56515000D01*
X146940000Y-56515000D02*
X146940000Y-59140000D01*
X172720000Y-59055000D02*
X172720000Y-56515000D01*
X146940000Y-59140000D02*
X172720000Y-59055000D01*
X147320000Y-151765000D02*
X172720000Y-151765000D01*
X172720000Y-151765000D02*
X172720000Y-149225000D01*
X146440000Y-149225000D02*
X146440000Y-151765000D01*
X114403389Y-148950809D02*
X114313681Y-149071756D01*
X114313681Y-149071756D02*
X114118645Y-149208322D01*
X114118645Y-149208322D02*
X114013317Y-149223941D01*
X114013317Y-149223941D02*
X113946997Y-149212247D01*
X113946997Y-149212247D02*
X113853363Y-149161545D01*
X113853363Y-149161545D02*
X113798737Y-149083531D01*
X113798737Y-149083531D02*
X113783118Y-148978203D01*
X113783118Y-148978203D02*
X113794812Y-148911883D01*
X113794812Y-148911883D02*
X113845513Y-148818249D01*
X113845513Y-148818249D02*
X113974229Y-148669989D01*
X113974229Y-148669989D02*
X114024930Y-148576356D01*
X114024930Y-148576356D02*
X114036624Y-148510035D01*
X114036624Y-148510035D02*
X114021005Y-148404708D01*
X114021005Y-148404708D02*
X113966379Y-148326693D01*
X113966379Y-148326693D02*
X113872745Y-148275992D01*
X113872745Y-148275992D02*
X113806425Y-148264298D01*
X113806425Y-148264298D02*
X113701097Y-148279917D01*
X113701097Y-148279917D02*
X113506061Y-148416483D01*
X113506061Y-148416483D02*
X113416352Y-148537430D01*
X113221478Y-149836525D02*
X113611550Y-149563393D01*
X113611550Y-149563393D02*
X113037974Y-148744241D01*
X112647982Y-149598637D02*
X112374932Y-149789829D01*
X112558355Y-150300848D02*
X112948427Y-150027717D01*
X112948427Y-150027717D02*
X112374851Y-149208565D01*
X112374851Y-149208565D02*
X111984778Y-149481696D01*
X112207290Y-150546667D02*
X111633713Y-149727515D01*
X111633713Y-149727515D02*
X111739203Y-150874425D01*
X111739203Y-150874425D02*
X111165626Y-150055273D01*
X110775635Y-150909669D02*
X110685926Y-151030616D01*
X110685926Y-151030616D02*
X110674232Y-151096936D01*
X110674232Y-151096936D02*
X110689851Y-151202264D01*
X110689851Y-151202264D02*
X110771791Y-151319286D01*
X110771791Y-151319286D02*
X110865424Y-151369987D01*
X110865424Y-151369987D02*
X110931745Y-151381681D01*
X110931745Y-151381681D02*
X111037072Y-151366062D01*
X111037072Y-151366062D02*
X111349130Y-151147557D01*
X111349130Y-151147557D02*
X110775554Y-150328404D01*
X110775554Y-150328404D02*
X110502503Y-150519597D01*
X110502503Y-150519597D02*
X110451802Y-150613230D01*
X110451802Y-150613230D02*
X110440108Y-150679551D01*
X110440108Y-150679551D02*
X110455727Y-150784878D01*
X110455727Y-150784878D02*
X110510353Y-150862893D01*
X110510353Y-150862893D02*
X110603987Y-150913594D01*
X110603987Y-150913594D02*
X110670307Y-150925288D01*
X110670307Y-150925288D02*
X110775635Y-150909669D01*
X110775635Y-150909669D02*
X111048686Y-150718477D01*
X113772004Y-147891357D02*
X110074118Y-150480645D01*
X113656904Y-147727200D02*
X113514047Y-147774819D01*
X113514047Y-147774819D02*
X113275952Y-147774819D01*
X113275952Y-147774819D02*
X113180714Y-147727200D01*
X113180714Y-147727200D02*
X113133095Y-147679580D01*
X113133095Y-147679580D02*
X113085476Y-147584342D01*
X113085476Y-147584342D02*
X113085476Y-147489104D01*
X113085476Y-147489104D02*
X113133095Y-147393866D01*
X113133095Y-147393866D02*
X113180714Y-147346247D01*
X113180714Y-147346247D02*
X113275952Y-147298628D01*
X113275952Y-147298628D02*
X113466428Y-147251009D01*
X113466428Y-147251009D02*
X113561666Y-147203390D01*
X113561666Y-147203390D02*
X113609285Y-147155771D01*
X113609285Y-147155771D02*
X113656904Y-147060533D01*
X113656904Y-147060533D02*
X113656904Y-146965295D01*
X113656904Y-146965295D02*
X113609285Y-146870057D01*
X113609285Y-146870057D02*
X113561666Y-146822438D01*
X113561666Y-146822438D02*
X113466428Y-146774819D01*
X113466428Y-146774819D02*
X113228333Y-146774819D01*
X113228333Y-146774819D02*
X113085476Y-146822438D01*
X112085476Y-147679580D02*
X112133095Y-147727200D01*
X112133095Y-147727200D02*
X112275952Y-147774819D01*
X112275952Y-147774819D02*
X112371190Y-147774819D01*
X112371190Y-147774819D02*
X112514047Y-147727200D01*
X112514047Y-147727200D02*
X112609285Y-147631961D01*
X112609285Y-147631961D02*
X112656904Y-147536723D01*
X112656904Y-147536723D02*
X112704523Y-147346247D01*
X112704523Y-147346247D02*
X112704523Y-147203390D01*
X112704523Y-147203390D02*
X112656904Y-147012914D01*
X112656904Y-147012914D02*
X112609285Y-146917676D01*
X112609285Y-146917676D02*
X112514047Y-146822438D01*
X112514047Y-146822438D02*
X112371190Y-146774819D01*
X112371190Y-146774819D02*
X112275952Y-146774819D01*
X112275952Y-146774819D02*
X112133095Y-146822438D01*
X112133095Y-146822438D02*
X112085476Y-146870057D01*
X111704523Y-147727200D02*
X111561666Y-147774819D01*
X111561666Y-147774819D02*
X111323571Y-147774819D01*
X111323571Y-147774819D02*
X111228333Y-147727200D01*
X111228333Y-147727200D02*
X111180714Y-147679580D01*
X111180714Y-147679580D02*
X111133095Y-147584342D01*
X111133095Y-147584342D02*
X111133095Y-147489104D01*
X111133095Y-147489104D02*
X111180714Y-147393866D01*
X111180714Y-147393866D02*
X111228333Y-147346247D01*
X111228333Y-147346247D02*
X111323571Y-147298628D01*
X111323571Y-147298628D02*
X111514047Y-147251009D01*
X111514047Y-147251009D02*
X111609285Y-147203390D01*
X111609285Y-147203390D02*
X111656904Y-147155771D01*
X111656904Y-147155771D02*
X111704523Y-147060533D01*
X111704523Y-147060533D02*
X111704523Y-146965295D01*
X111704523Y-146965295D02*
X111656904Y-146870057D01*
X111656904Y-146870057D02*
X111609285Y-146822438D01*
X111609285Y-146822438D02*
X111514047Y-146774819D01*
X111514047Y-146774819D02*
X111275952Y-146774819D01*
X111275952Y-146774819D02*
X111133095Y-146822438D01*
X113747381Y-146497200D02*
X111042619Y-146497200D01*
X113704523Y-145187200D02*
X113561666Y-145234819D01*
X113561666Y-145234819D02*
X113323571Y-145234819D01*
X113323571Y-145234819D02*
X113228333Y-145187200D01*
X113228333Y-145187200D02*
X113180714Y-145139580D01*
X113180714Y-145139580D02*
X113133095Y-145044342D01*
X113133095Y-145044342D02*
X113133095Y-144949104D01*
X113133095Y-144949104D02*
X113180714Y-144853866D01*
X113180714Y-144853866D02*
X113228333Y-144806247D01*
X113228333Y-144806247D02*
X113323571Y-144758628D01*
X113323571Y-144758628D02*
X113514047Y-144711009D01*
X113514047Y-144711009D02*
X113609285Y-144663390D01*
X113609285Y-144663390D02*
X113656904Y-144615771D01*
X113656904Y-144615771D02*
X113704523Y-144520533D01*
X113704523Y-144520533D02*
X113704523Y-144425295D01*
X113704523Y-144425295D02*
X113656904Y-144330057D01*
X113656904Y-144330057D02*
X113609285Y-144282438D01*
X113609285Y-144282438D02*
X113514047Y-144234819D01*
X113514047Y-144234819D02*
X113275952Y-144234819D01*
X113275952Y-144234819D02*
X113133095Y-144282438D01*
X112704523Y-145234819D02*
X112704523Y-144234819D01*
X112704523Y-144234819D02*
X112133095Y-145234819D01*
X112133095Y-145234819D02*
X112133095Y-144234819D01*
X111656904Y-145234819D02*
X111656904Y-144234819D01*
X111656904Y-144234819D02*
X111418809Y-144234819D01*
X111418809Y-144234819D02*
X111275952Y-144282438D01*
X111275952Y-144282438D02*
X111180714Y-144377676D01*
X111180714Y-144377676D02*
X111133095Y-144472914D01*
X111133095Y-144472914D02*
X111085476Y-144663390D01*
X111085476Y-144663390D02*
X111085476Y-144806247D01*
X111085476Y-144806247D02*
X111133095Y-144996723D01*
X111133095Y-144996723D02*
X111180714Y-145091961D01*
X111180714Y-145091961D02*
X111275952Y-145187200D01*
X111275952Y-145187200D02*
X111418809Y-145234819D01*
X111418809Y-145234819D02*
X111656904Y-145234819D01*
X112942619Y-142599580D02*
X112990238Y-142647200D01*
X112990238Y-142647200D02*
X113133095Y-142694819D01*
X113133095Y-142694819D02*
X113228333Y-142694819D01*
X113228333Y-142694819D02*
X113371190Y-142647200D01*
X113371190Y-142647200D02*
X113466428Y-142551961D01*
X113466428Y-142551961D02*
X113514047Y-142456723D01*
X113514047Y-142456723D02*
X113561666Y-142266247D01*
X113561666Y-142266247D02*
X113561666Y-142123390D01*
X113561666Y-142123390D02*
X113514047Y-141932914D01*
X113514047Y-141932914D02*
X113466428Y-141837676D01*
X113466428Y-141837676D02*
X113371190Y-141742438D01*
X113371190Y-141742438D02*
X113228333Y-141694819D01*
X113228333Y-141694819D02*
X113133095Y-141694819D01*
X113133095Y-141694819D02*
X112990238Y-141742438D01*
X112990238Y-141742438D02*
X112942619Y-141790057D01*
X112656904Y-141694819D02*
X112085476Y-141694819D01*
X112371190Y-142694819D02*
X112371190Y-141694819D01*
X111799761Y-142647200D02*
X111656904Y-142694819D01*
X111656904Y-142694819D02*
X111418809Y-142694819D01*
X111418809Y-142694819D02*
X111323571Y-142647200D01*
X111323571Y-142647200D02*
X111275952Y-142599580D01*
X111275952Y-142599580D02*
X111228333Y-142504342D01*
X111228333Y-142504342D02*
X111228333Y-142409104D01*
X111228333Y-142409104D02*
X111275952Y-142313866D01*
X111275952Y-142313866D02*
X111323571Y-142266247D01*
X111323571Y-142266247D02*
X111418809Y-142218628D01*
X111418809Y-142218628D02*
X111609285Y-142171009D01*
X111609285Y-142171009D02*
X111704523Y-142123390D01*
X111704523Y-142123390D02*
X111752142Y-142075771D01*
X111752142Y-142075771D02*
X111799761Y-141980533D01*
X111799761Y-141980533D02*
X111799761Y-141885295D01*
X111799761Y-141885295D02*
X111752142Y-141790057D01*
X111752142Y-141790057D02*
X111704523Y-141742438D01*
X111704523Y-141742438D02*
X111609285Y-141694819D01*
X111609285Y-141694819D02*
X111371190Y-141694819D01*
X111371190Y-141694819D02*
X111228333Y-141742438D01*
X113652143Y-141417200D02*
X111137857Y-141417200D01*
X113180714Y-140154819D02*
X113514047Y-139678628D01*
X113752142Y-140154819D02*
X113752142Y-139154819D01*
X113752142Y-139154819D02*
X113371190Y-139154819D01*
X113371190Y-139154819D02*
X113275952Y-139202438D01*
X113275952Y-139202438D02*
X113228333Y-139250057D01*
X113228333Y-139250057D02*
X113180714Y-139345295D01*
X113180714Y-139345295D02*
X113180714Y-139488152D01*
X113180714Y-139488152D02*
X113228333Y-139583390D01*
X113228333Y-139583390D02*
X113275952Y-139631009D01*
X113275952Y-139631009D02*
X113371190Y-139678628D01*
X113371190Y-139678628D02*
X113752142Y-139678628D01*
X112037857Y-139107200D02*
X112894999Y-140392914D01*
X111799761Y-139154819D02*
X111561666Y-140154819D01*
X111561666Y-140154819D02*
X111371190Y-139440533D01*
X111371190Y-139440533D02*
X111180714Y-140154819D01*
X111180714Y-140154819D02*
X110942619Y-139154819D01*
X111842619Y-138877200D02*
X110899762Y-138877200D01*
X112760000Y-137519580D02*
X112807619Y-137567200D01*
X112807619Y-137567200D02*
X112950476Y-137614819D01*
X112950476Y-137614819D02*
X113045714Y-137614819D01*
X113045714Y-137614819D02*
X113188571Y-137567200D01*
X113188571Y-137567200D02*
X113283809Y-137471961D01*
X113283809Y-137471961D02*
X113331428Y-137376723D01*
X113331428Y-137376723D02*
X113379047Y-137186247D01*
X113379047Y-137186247D02*
X113379047Y-137043390D01*
X113379047Y-137043390D02*
X113331428Y-136852914D01*
X113331428Y-136852914D02*
X113283809Y-136757676D01*
X113283809Y-136757676D02*
X113188571Y-136662438D01*
X113188571Y-136662438D02*
X113045714Y-136614819D01*
X113045714Y-136614819D02*
X112950476Y-136614819D01*
X112950476Y-136614819D02*
X112807619Y-136662438D01*
X112807619Y-136662438D02*
X112760000Y-136710057D01*
X112379047Y-137329104D02*
X111902857Y-137329104D01*
X112474285Y-137614819D02*
X112140952Y-136614819D01*
X112140952Y-136614819D02*
X111807619Y-137614819D01*
X110902857Y-137614819D02*
X111236190Y-137138628D01*
X111474285Y-137614819D02*
X111474285Y-136614819D01*
X111474285Y-136614819D02*
X111093333Y-136614819D01*
X111093333Y-136614819D02*
X110998095Y-136662438D01*
X110998095Y-136662438D02*
X110950476Y-136710057D01*
X110950476Y-136710057D02*
X110902857Y-136805295D01*
X110902857Y-136805295D02*
X110902857Y-136948152D01*
X110902857Y-136948152D02*
X110950476Y-137043390D01*
X110950476Y-137043390D02*
X110998095Y-137091009D01*
X110998095Y-137091009D02*
X111093333Y-137138628D01*
X111093333Y-137138628D02*
X111474285Y-137138628D01*
X110617142Y-136614819D02*
X110045714Y-136614819D01*
X110331428Y-137614819D02*
X110331428Y-136614819D01*
X113469524Y-136337200D02*
X110050476Y-136337200D01*
X112649047Y-135170057D02*
X112744285Y-135122438D01*
X112744285Y-135122438D02*
X112839523Y-135027200D01*
X112839523Y-135027200D02*
X112982380Y-134884342D01*
X112982380Y-134884342D02*
X113077618Y-134836723D01*
X113077618Y-134836723D02*
X113172856Y-134836723D01*
X113125237Y-135074819D02*
X113220475Y-135027200D01*
X113220475Y-135027200D02*
X113315713Y-134931961D01*
X113315713Y-134931961D02*
X113363332Y-134741485D01*
X113363332Y-134741485D02*
X113363332Y-134408152D01*
X113363332Y-134408152D02*
X113315713Y-134217676D01*
X113315713Y-134217676D02*
X113220475Y-134122438D01*
X113220475Y-134122438D02*
X113125237Y-134074819D01*
X113125237Y-134074819D02*
X112934761Y-134074819D01*
X112934761Y-134074819D02*
X112839523Y-134122438D01*
X112839523Y-134122438D02*
X112744285Y-134217676D01*
X112744285Y-134217676D02*
X112696666Y-134408152D01*
X112696666Y-134408152D02*
X112696666Y-134741485D01*
X112696666Y-134741485D02*
X112744285Y-134931961D01*
X112744285Y-134931961D02*
X112839523Y-135027200D01*
X112839523Y-135027200D02*
X112934761Y-135074819D01*
X112934761Y-135074819D02*
X113125237Y-135074819D01*
X113244285Y-132011009D02*
X112910952Y-132011009D01*
X112768095Y-132534819D02*
X113244285Y-132534819D01*
X113244285Y-132534819D02*
X113244285Y-131534819D01*
X113244285Y-131534819D02*
X112768095Y-131534819D01*
X113212381Y-129994819D02*
X113545714Y-129518628D01*
X113783809Y-129994819D02*
X113783809Y-128994819D01*
X113783809Y-128994819D02*
X113402857Y-128994819D01*
X113402857Y-128994819D02*
X113307619Y-129042438D01*
X113307619Y-129042438D02*
X113260000Y-129090057D01*
X113260000Y-129090057D02*
X113212381Y-129185295D01*
X113212381Y-129185295D02*
X113212381Y-129328152D01*
X113212381Y-129328152D02*
X113260000Y-129423390D01*
X113260000Y-129423390D02*
X113307619Y-129471009D01*
X113307619Y-129471009D02*
X113402857Y-129518628D01*
X113402857Y-129518628D02*
X113783809Y-129518628D01*
X112783809Y-129471009D02*
X112450476Y-129471009D01*
X112307619Y-129994819D02*
X112783809Y-129994819D01*
X112783809Y-129994819D02*
X112783809Y-128994819D01*
X112783809Y-128994819D02*
X112307619Y-128994819D01*
X111926666Y-129947200D02*
X111783809Y-129994819D01*
X111783809Y-129994819D02*
X111545714Y-129994819D01*
X111545714Y-129994819D02*
X111450476Y-129947200D01*
X111450476Y-129947200D02*
X111402857Y-129899580D01*
X111402857Y-129899580D02*
X111355238Y-129804342D01*
X111355238Y-129804342D02*
X111355238Y-129709104D01*
X111355238Y-129709104D02*
X111402857Y-129613866D01*
X111402857Y-129613866D02*
X111450476Y-129566247D01*
X111450476Y-129566247D02*
X111545714Y-129518628D01*
X111545714Y-129518628D02*
X111736190Y-129471009D01*
X111736190Y-129471009D02*
X111831428Y-129423390D01*
X111831428Y-129423390D02*
X111879047Y-129375771D01*
X111879047Y-129375771D02*
X111926666Y-129280533D01*
X111926666Y-129280533D02*
X111926666Y-129185295D01*
X111926666Y-129185295D02*
X111879047Y-129090057D01*
X111879047Y-129090057D02*
X111831428Y-129042438D01*
X111831428Y-129042438D02*
X111736190Y-128994819D01*
X111736190Y-128994819D02*
X111498095Y-128994819D01*
X111498095Y-128994819D02*
X111355238Y-129042438D01*
X110926666Y-129471009D02*
X110593333Y-129471009D01*
X110450476Y-129994819D02*
X110926666Y-129994819D01*
X110926666Y-129994819D02*
X110926666Y-128994819D01*
X110926666Y-128994819D02*
X110450476Y-128994819D01*
X110164761Y-128994819D02*
X109593333Y-128994819D01*
X109879047Y-129994819D02*
X109879047Y-128994819D01*
X113921905Y-128717200D02*
X109598095Y-128717200D01*
X113490237Y-127454819D02*
X113490237Y-126454819D01*
X113490237Y-126454819D02*
X112918809Y-127454819D01*
X112918809Y-127454819D02*
X112918809Y-126454819D01*
X112442618Y-127454819D02*
X112442618Y-126454819D01*
X112442618Y-126454819D02*
X112109285Y-127169104D01*
X112109285Y-127169104D02*
X111775952Y-126454819D01*
X111775952Y-126454819D02*
X111775952Y-127454819D01*
X111299761Y-127454819D02*
X111299761Y-126454819D01*
X113628333Y-126177200D02*
X111161667Y-126177200D01*
X113259999Y-124914819D02*
X113259999Y-123914819D01*
X113259999Y-124391009D02*
X112688571Y-124391009D01*
X112688571Y-124914819D02*
X112688571Y-123914819D01*
X112259999Y-124629104D02*
X111783809Y-124629104D01*
X112355237Y-124914819D02*
X112021904Y-123914819D01*
X112021904Y-123914819D02*
X111688571Y-124914819D01*
X110879047Y-124914819D02*
X111355237Y-124914819D01*
X111355237Y-124914819D02*
X111355237Y-123914819D01*
X110688570Y-123914819D02*
X110117142Y-123914819D01*
X110402856Y-124914819D02*
X110402856Y-123914819D01*
X113398095Y-123637200D02*
X110121904Y-123637200D01*
X113585475Y-119549104D02*
X113109285Y-119549104D01*
X113680713Y-119834819D02*
X113347380Y-118834819D01*
X113347380Y-118834819D02*
X113014047Y-119834819D01*
X112156904Y-119834819D02*
X112728332Y-119834819D01*
X112442618Y-119834819D02*
X112442618Y-118834819D01*
X112442618Y-118834819D02*
X112537856Y-118977676D01*
X112537856Y-118977676D02*
X112633094Y-119072914D01*
X112633094Y-119072914D02*
X112728332Y-119120533D01*
X111252142Y-118834819D02*
X111728332Y-118834819D01*
X111728332Y-118834819D02*
X111775951Y-119311009D01*
X111775951Y-119311009D02*
X111728332Y-119263390D01*
X111728332Y-119263390D02*
X111633094Y-119215771D01*
X111633094Y-119215771D02*
X111394999Y-119215771D01*
X111394999Y-119215771D02*
X111299761Y-119263390D01*
X111299761Y-119263390D02*
X111252142Y-119311009D01*
X111252142Y-119311009D02*
X111204523Y-119406247D01*
X111204523Y-119406247D02*
X111204523Y-119644342D01*
X111204523Y-119644342D02*
X111252142Y-119739580D01*
X111252142Y-119739580D02*
X111299761Y-119787200D01*
X111299761Y-119787200D02*
X111394999Y-119834819D01*
X111394999Y-119834819D02*
X111633094Y-119834819D01*
X111633094Y-119834819D02*
X111728332Y-119787200D01*
X111728332Y-119787200D02*
X111775951Y-119739580D01*
X113585475Y-117009104D02*
X113109285Y-117009104D01*
X113680713Y-117294819D02*
X113347380Y-116294819D01*
X113347380Y-116294819D02*
X113014047Y-117294819D01*
X112156904Y-117294819D02*
X112728332Y-117294819D01*
X112442618Y-117294819D02*
X112442618Y-116294819D01*
X112442618Y-116294819D02*
X112537856Y-116437676D01*
X112537856Y-116437676D02*
X112633094Y-116532914D01*
X112633094Y-116532914D02*
X112728332Y-116580533D01*
X111299761Y-116628152D02*
X111299761Y-117294819D01*
X111537856Y-116247200D02*
X111775951Y-116961485D01*
X111775951Y-116961485D02*
X111156904Y-116961485D01*
X113585475Y-114469104D02*
X113109285Y-114469104D01*
X113680713Y-114754819D02*
X113347380Y-113754819D01*
X113347380Y-113754819D02*
X113014047Y-114754819D01*
X112156904Y-114754819D02*
X112728332Y-114754819D01*
X112442618Y-114754819D02*
X112442618Y-113754819D01*
X112442618Y-113754819D02*
X112537856Y-113897676D01*
X112537856Y-113897676D02*
X112633094Y-113992914D01*
X112633094Y-113992914D02*
X112728332Y-114040533D01*
X111823570Y-113754819D02*
X111204523Y-113754819D01*
X111204523Y-113754819D02*
X111537856Y-114135771D01*
X111537856Y-114135771D02*
X111394999Y-114135771D01*
X111394999Y-114135771D02*
X111299761Y-114183390D01*
X111299761Y-114183390D02*
X111252142Y-114231009D01*
X111252142Y-114231009D02*
X111204523Y-114326247D01*
X111204523Y-114326247D02*
X111204523Y-114564342D01*
X111204523Y-114564342D02*
X111252142Y-114659580D01*
X111252142Y-114659580D02*
X111299761Y-114707200D01*
X111299761Y-114707200D02*
X111394999Y-114754819D01*
X111394999Y-114754819D02*
X111680713Y-114754819D01*
X111680713Y-114754819D02*
X111775951Y-114707200D01*
X111775951Y-114707200D02*
X111823570Y-114659580D01*
X113585475Y-111929104D02*
X113109285Y-111929104D01*
X113680713Y-112214819D02*
X113347380Y-111214819D01*
X113347380Y-111214819D02*
X113014047Y-112214819D01*
X112156904Y-112214819D02*
X112728332Y-112214819D01*
X112442618Y-112214819D02*
X112442618Y-111214819D01*
X112442618Y-111214819D02*
X112537856Y-111357676D01*
X112537856Y-111357676D02*
X112633094Y-111452914D01*
X112633094Y-111452914D02*
X112728332Y-111500533D01*
X111775951Y-111310057D02*
X111728332Y-111262438D01*
X111728332Y-111262438D02*
X111633094Y-111214819D01*
X111633094Y-111214819D02*
X111394999Y-111214819D01*
X111394999Y-111214819D02*
X111299761Y-111262438D01*
X111299761Y-111262438D02*
X111252142Y-111310057D01*
X111252142Y-111310057D02*
X111204523Y-111405295D01*
X111204523Y-111405295D02*
X111204523Y-111500533D01*
X111204523Y-111500533D02*
X111252142Y-111643390D01*
X111252142Y-111643390D02*
X111823570Y-112214819D01*
X111823570Y-112214819D02*
X111204523Y-112214819D01*
X113585475Y-109389104D02*
X113109285Y-109389104D01*
X113680713Y-109674819D02*
X113347380Y-108674819D01*
X113347380Y-108674819D02*
X113014047Y-109674819D01*
X112156904Y-109674819D02*
X112728332Y-109674819D01*
X112442618Y-109674819D02*
X112442618Y-108674819D01*
X112442618Y-108674819D02*
X112537856Y-108817676D01*
X112537856Y-108817676D02*
X112633094Y-108912914D01*
X112633094Y-108912914D02*
X112728332Y-108960533D01*
X111204523Y-109674819D02*
X111775951Y-109674819D01*
X111490237Y-109674819D02*
X111490237Y-108674819D01*
X111490237Y-108674819D02*
X111585475Y-108817676D01*
X111585475Y-108817676D02*
X111680713Y-108912914D01*
X111680713Y-108912914D02*
X111775951Y-108960533D01*
X113585475Y-106849104D02*
X113109285Y-106849104D01*
X113680713Y-107134819D02*
X113347380Y-106134819D01*
X113347380Y-106134819D02*
X113014047Y-107134819D01*
X112156904Y-107134819D02*
X112728332Y-107134819D01*
X112442618Y-107134819D02*
X112442618Y-106134819D01*
X112442618Y-106134819D02*
X112537856Y-106277676D01*
X112537856Y-106277676D02*
X112633094Y-106372914D01*
X112633094Y-106372914D02*
X112728332Y-106420533D01*
X111537856Y-106134819D02*
X111442618Y-106134819D01*
X111442618Y-106134819D02*
X111347380Y-106182438D01*
X111347380Y-106182438D02*
X111299761Y-106230057D01*
X111299761Y-106230057D02*
X111252142Y-106325295D01*
X111252142Y-106325295D02*
X111204523Y-106515771D01*
X111204523Y-106515771D02*
X111204523Y-106753866D01*
X111204523Y-106753866D02*
X111252142Y-106944342D01*
X111252142Y-106944342D02*
X111299761Y-107039580D01*
X111299761Y-107039580D02*
X111347380Y-107087200D01*
X111347380Y-107087200D02*
X111442618Y-107134819D01*
X111442618Y-107134819D02*
X111537856Y-107134819D01*
X111537856Y-107134819D02*
X111633094Y-107087200D01*
X111633094Y-107087200D02*
X111680713Y-107039580D01*
X111680713Y-107039580D02*
X111728332Y-106944342D01*
X111728332Y-106944342D02*
X111775951Y-106753866D01*
X111775951Y-106753866D02*
X111775951Y-106515771D01*
X111775951Y-106515771D02*
X111728332Y-106325295D01*
X111728332Y-106325295D02*
X111680713Y-106230057D01*
X111680713Y-106230057D02*
X111633094Y-106182438D01*
X111633094Y-106182438D02*
X111537856Y-106134819D01*
X113744285Y-104309104D02*
X113268095Y-104309104D01*
X113839523Y-104594819D02*
X113506190Y-103594819D01*
X113506190Y-103594819D02*
X113172857Y-104594819D01*
X112791904Y-104594819D02*
X112601428Y-104594819D01*
X112601428Y-104594819D02*
X112506190Y-104547200D01*
X112506190Y-104547200D02*
X112458571Y-104499580D01*
X112458571Y-104499580D02*
X112363333Y-104356723D01*
X112363333Y-104356723D02*
X112315714Y-104166247D01*
X112315714Y-104166247D02*
X112315714Y-103785295D01*
X112315714Y-103785295D02*
X112363333Y-103690057D01*
X112363333Y-103690057D02*
X112410952Y-103642438D01*
X112410952Y-103642438D02*
X112506190Y-103594819D01*
X112506190Y-103594819D02*
X112696666Y-103594819D01*
X112696666Y-103594819D02*
X112791904Y-103642438D01*
X112791904Y-103642438D02*
X112839523Y-103690057D01*
X112839523Y-103690057D02*
X112887142Y-103785295D01*
X112887142Y-103785295D02*
X112887142Y-104023390D01*
X112887142Y-104023390D02*
X112839523Y-104118628D01*
X112839523Y-104118628D02*
X112791904Y-104166247D01*
X112791904Y-104166247D02*
X112696666Y-104213866D01*
X112696666Y-104213866D02*
X112506190Y-104213866D01*
X112506190Y-104213866D02*
X112410952Y-104166247D01*
X112410952Y-104166247D02*
X112363333Y-104118628D01*
X112363333Y-104118628D02*
X112315714Y-104023390D01*
X113744285Y-101769104D02*
X113268095Y-101769104D01*
X113839523Y-102054819D02*
X113506190Y-101054819D01*
X113506190Y-101054819D02*
X113172857Y-102054819D01*
X112696666Y-101483390D02*
X112791904Y-101435771D01*
X112791904Y-101435771D02*
X112839523Y-101388152D01*
X112839523Y-101388152D02*
X112887142Y-101292914D01*
X112887142Y-101292914D02*
X112887142Y-101245295D01*
X112887142Y-101245295D02*
X112839523Y-101150057D01*
X112839523Y-101150057D02*
X112791904Y-101102438D01*
X112791904Y-101102438D02*
X112696666Y-101054819D01*
X112696666Y-101054819D02*
X112506190Y-101054819D01*
X112506190Y-101054819D02*
X112410952Y-101102438D01*
X112410952Y-101102438D02*
X112363333Y-101150057D01*
X112363333Y-101150057D02*
X112315714Y-101245295D01*
X112315714Y-101245295D02*
X112315714Y-101292914D01*
X112315714Y-101292914D02*
X112363333Y-101388152D01*
X112363333Y-101388152D02*
X112410952Y-101435771D01*
X112410952Y-101435771D02*
X112506190Y-101483390D01*
X112506190Y-101483390D02*
X112696666Y-101483390D01*
X112696666Y-101483390D02*
X112791904Y-101531009D01*
X112791904Y-101531009D02*
X112839523Y-101578628D01*
X112839523Y-101578628D02*
X112887142Y-101673866D01*
X112887142Y-101673866D02*
X112887142Y-101864342D01*
X112887142Y-101864342D02*
X112839523Y-101959580D01*
X112839523Y-101959580D02*
X112791904Y-102007200D01*
X112791904Y-102007200D02*
X112696666Y-102054819D01*
X112696666Y-102054819D02*
X112506190Y-102054819D01*
X112506190Y-102054819D02*
X112410952Y-102007200D01*
X112410952Y-102007200D02*
X112363333Y-101959580D01*
X112363333Y-101959580D02*
X112315714Y-101864342D01*
X112315714Y-101864342D02*
X112315714Y-101673866D01*
X112315714Y-101673866D02*
X112363333Y-101578628D01*
X112363333Y-101578628D02*
X112410952Y-101531009D01*
X112410952Y-101531009D02*
X112506190Y-101483390D01*
X113744285Y-99229104D02*
X113268095Y-99229104D01*
X113839523Y-99514819D02*
X113506190Y-98514819D01*
X113506190Y-98514819D02*
X113172857Y-99514819D01*
X112934761Y-98514819D02*
X112268095Y-98514819D01*
X112268095Y-98514819D02*
X112696666Y-99514819D01*
X113744285Y-96689104D02*
X113268095Y-96689104D01*
X113839523Y-96974819D02*
X113506190Y-95974819D01*
X113506190Y-95974819D02*
X113172857Y-96974819D01*
X112410952Y-95974819D02*
X112601428Y-95974819D01*
X112601428Y-95974819D02*
X112696666Y-96022438D01*
X112696666Y-96022438D02*
X112744285Y-96070057D01*
X112744285Y-96070057D02*
X112839523Y-96212914D01*
X112839523Y-96212914D02*
X112887142Y-96403390D01*
X112887142Y-96403390D02*
X112887142Y-96784342D01*
X112887142Y-96784342D02*
X112839523Y-96879580D01*
X112839523Y-96879580D02*
X112791904Y-96927200D01*
X112791904Y-96927200D02*
X112696666Y-96974819D01*
X112696666Y-96974819D02*
X112506190Y-96974819D01*
X112506190Y-96974819D02*
X112410952Y-96927200D01*
X112410952Y-96927200D02*
X112363333Y-96879580D01*
X112363333Y-96879580D02*
X112315714Y-96784342D01*
X112315714Y-96784342D02*
X112315714Y-96546247D01*
X112315714Y-96546247D02*
X112363333Y-96451009D01*
X112363333Y-96451009D02*
X112410952Y-96403390D01*
X112410952Y-96403390D02*
X112506190Y-96355771D01*
X112506190Y-96355771D02*
X112696666Y-96355771D01*
X112696666Y-96355771D02*
X112791904Y-96403390D01*
X112791904Y-96403390D02*
X112839523Y-96451009D01*
X112839523Y-96451009D02*
X112887142Y-96546247D01*
X113744285Y-94149104D02*
X113268095Y-94149104D01*
X113839523Y-94434819D02*
X113506190Y-93434819D01*
X113506190Y-93434819D02*
X113172857Y-94434819D01*
X112363333Y-93434819D02*
X112839523Y-93434819D01*
X112839523Y-93434819D02*
X112887142Y-93911009D01*
X112887142Y-93911009D02*
X112839523Y-93863390D01*
X112839523Y-93863390D02*
X112744285Y-93815771D01*
X112744285Y-93815771D02*
X112506190Y-93815771D01*
X112506190Y-93815771D02*
X112410952Y-93863390D01*
X112410952Y-93863390D02*
X112363333Y-93911009D01*
X112363333Y-93911009D02*
X112315714Y-94006247D01*
X112315714Y-94006247D02*
X112315714Y-94244342D01*
X112315714Y-94244342D02*
X112363333Y-94339580D01*
X112363333Y-94339580D02*
X112410952Y-94387200D01*
X112410952Y-94387200D02*
X112506190Y-94434819D01*
X112506190Y-94434819D02*
X112744285Y-94434819D01*
X112744285Y-94434819D02*
X112839523Y-94387200D01*
X112839523Y-94387200D02*
X112887142Y-94339580D01*
X113744285Y-91609104D02*
X113268095Y-91609104D01*
X113839523Y-91894819D02*
X113506190Y-90894819D01*
X113506190Y-90894819D02*
X113172857Y-91894819D01*
X112410952Y-91228152D02*
X112410952Y-91894819D01*
X112649047Y-90847200D02*
X112887142Y-91561485D01*
X112887142Y-91561485D02*
X112268095Y-91561485D01*
X113744285Y-89069104D02*
X113268095Y-89069104D01*
X113839523Y-89354819D02*
X113506190Y-88354819D01*
X113506190Y-88354819D02*
X113172857Y-89354819D01*
X112934761Y-88354819D02*
X112315714Y-88354819D01*
X112315714Y-88354819D02*
X112649047Y-88735771D01*
X112649047Y-88735771D02*
X112506190Y-88735771D01*
X112506190Y-88735771D02*
X112410952Y-88783390D01*
X112410952Y-88783390D02*
X112363333Y-88831009D01*
X112363333Y-88831009D02*
X112315714Y-88926247D01*
X112315714Y-88926247D02*
X112315714Y-89164342D01*
X112315714Y-89164342D02*
X112363333Y-89259580D01*
X112363333Y-89259580D02*
X112410952Y-89307200D01*
X112410952Y-89307200D02*
X112506190Y-89354819D01*
X112506190Y-89354819D02*
X112791904Y-89354819D01*
X112791904Y-89354819D02*
X112887142Y-89307200D01*
X112887142Y-89307200D02*
X112934761Y-89259580D01*
X113744285Y-86529104D02*
X113268095Y-86529104D01*
X113839523Y-86814819D02*
X113506190Y-85814819D01*
X113506190Y-85814819D02*
X113172857Y-86814819D01*
X112887142Y-85910057D02*
X112839523Y-85862438D01*
X112839523Y-85862438D02*
X112744285Y-85814819D01*
X112744285Y-85814819D02*
X112506190Y-85814819D01*
X112506190Y-85814819D02*
X112410952Y-85862438D01*
X112410952Y-85862438D02*
X112363333Y-85910057D01*
X112363333Y-85910057D02*
X112315714Y-86005295D01*
X112315714Y-86005295D02*
X112315714Y-86100533D01*
X112315714Y-86100533D02*
X112363333Y-86243390D01*
X112363333Y-86243390D02*
X112934761Y-86814819D01*
X112934761Y-86814819D02*
X112315714Y-86814819D01*
X113744285Y-83989104D02*
X113268095Y-83989104D01*
X113839523Y-84274819D02*
X113506190Y-83274819D01*
X113506190Y-83274819D02*
X113172857Y-84274819D01*
X112315714Y-84274819D02*
X112887142Y-84274819D01*
X112601428Y-84274819D02*
X112601428Y-83274819D01*
X112601428Y-83274819D02*
X112696666Y-83417676D01*
X112696666Y-83417676D02*
X112791904Y-83512914D01*
X112791904Y-83512914D02*
X112887142Y-83560533D01*
X113744285Y-81449104D02*
X113268095Y-81449104D01*
X113839523Y-81734819D02*
X113506190Y-80734819D01*
X113506190Y-80734819D02*
X113172857Y-81734819D01*
X112649047Y-80734819D02*
X112553809Y-80734819D01*
X112553809Y-80734819D02*
X112458571Y-80782438D01*
X112458571Y-80782438D02*
X112410952Y-80830057D01*
X112410952Y-80830057D02*
X112363333Y-80925295D01*
X112363333Y-80925295D02*
X112315714Y-81115771D01*
X112315714Y-81115771D02*
X112315714Y-81353866D01*
X112315714Y-81353866D02*
X112363333Y-81544342D01*
X112363333Y-81544342D02*
X112410952Y-81639580D01*
X112410952Y-81639580D02*
X112458571Y-81687200D01*
X112458571Y-81687200D02*
X112553809Y-81734819D01*
X112553809Y-81734819D02*
X112649047Y-81734819D01*
X112649047Y-81734819D02*
X112744285Y-81687200D01*
X112744285Y-81687200D02*
X112791904Y-81639580D01*
X112791904Y-81639580D02*
X112839523Y-81544342D01*
X112839523Y-81544342D02*
X112887142Y-81353866D01*
X112887142Y-81353866D02*
X112887142Y-81115771D01*
X112887142Y-81115771D02*
X112839523Y-80925295D01*
X112839523Y-80925295D02*
X112791904Y-80830057D01*
X112791904Y-80830057D02*
X112744285Y-80782438D01*
X112744285Y-80782438D02*
X112649047Y-80734819D01*
X122057438Y-121158095D02*
X122009819Y-121062857D01*
X122009819Y-121062857D02*
X122009819Y-120920000D01*
X122009819Y-120920000D02*
X122057438Y-120777143D01*
X122057438Y-120777143D02*
X122152676Y-120681905D01*
X122152676Y-120681905D02*
X122247914Y-120634286D01*
X122247914Y-120634286D02*
X122438390Y-120586667D01*
X122438390Y-120586667D02*
X122581247Y-120586667D01*
X122581247Y-120586667D02*
X122771723Y-120634286D01*
X122771723Y-120634286D02*
X122866961Y-120681905D01*
X122866961Y-120681905D02*
X122962200Y-120777143D01*
X122962200Y-120777143D02*
X123009819Y-120920000D01*
X123009819Y-120920000D02*
X123009819Y-121015238D01*
X123009819Y-121015238D02*
X122962200Y-121158095D01*
X122962200Y-121158095D02*
X122914580Y-121205714D01*
X122914580Y-121205714D02*
X122581247Y-121205714D01*
X122581247Y-121205714D02*
X122581247Y-121015238D01*
X123009819Y-121634286D02*
X122009819Y-121634286D01*
X122009819Y-121634286D02*
X123009819Y-122205714D01*
X123009819Y-122205714D02*
X122009819Y-122205714D01*
X123009819Y-122681905D02*
X122009819Y-122681905D01*
X122009819Y-122681905D02*
X122009819Y-122920000D01*
X122009819Y-122920000D02*
X122057438Y-123062857D01*
X122057438Y-123062857D02*
X122152676Y-123158095D01*
X122152676Y-123158095D02*
X122247914Y-123205714D01*
X122247914Y-123205714D02*
X122438390Y-123253333D01*
X122438390Y-123253333D02*
X122581247Y-123253333D01*
X122581247Y-123253333D02*
X122771723Y-123205714D01*
X122771723Y-123205714D02*
X122866961Y-123158095D01*
X122866961Y-123158095D02*
X122962200Y-123062857D01*
X122962200Y-123062857D02*
X123009819Y-122920000D01*
X123009819Y-122920000D02*
X123009819Y-122681905D01*
X113768094Y-76654819D02*
X113768094Y-75654819D01*
X113768094Y-75654819D02*
X113529999Y-75654819D01*
X113529999Y-75654819D02*
X113387142Y-75702438D01*
X113387142Y-75702438D02*
X113291904Y-75797676D01*
X113291904Y-75797676D02*
X113244285Y-75892914D01*
X113244285Y-75892914D02*
X113196666Y-76083390D01*
X113196666Y-76083390D02*
X113196666Y-76226247D01*
X113196666Y-76226247D02*
X113244285Y-76416723D01*
X113244285Y-76416723D02*
X113291904Y-76511961D01*
X113291904Y-76511961D02*
X113387142Y-76607200D01*
X113387142Y-76607200D02*
X113529999Y-76654819D01*
X113529999Y-76654819D02*
X113768094Y-76654819D01*
X112863332Y-75654819D02*
X112196666Y-75654819D01*
X112196666Y-75654819D02*
X112625237Y-76654819D01*
X113768094Y-71574819D02*
X113768094Y-70574819D01*
X113768094Y-70574819D02*
X113529999Y-70574819D01*
X113529999Y-70574819D02*
X113387142Y-70622438D01*
X113387142Y-70622438D02*
X113291904Y-70717676D01*
X113291904Y-70717676D02*
X113244285Y-70812914D01*
X113244285Y-70812914D02*
X113196666Y-71003390D01*
X113196666Y-71003390D02*
X113196666Y-71146247D01*
X113196666Y-71146247D02*
X113244285Y-71336723D01*
X113244285Y-71336723D02*
X113291904Y-71431961D01*
X113291904Y-71431961D02*
X113387142Y-71527200D01*
X113387142Y-71527200D02*
X113529999Y-71574819D01*
X113529999Y-71574819D02*
X113768094Y-71574819D01*
X112291904Y-70574819D02*
X112768094Y-70574819D01*
X112768094Y-70574819D02*
X112815713Y-71051009D01*
X112815713Y-71051009D02*
X112768094Y-71003390D01*
X112768094Y-71003390D02*
X112672856Y-70955771D01*
X112672856Y-70955771D02*
X112434761Y-70955771D01*
X112434761Y-70955771D02*
X112339523Y-71003390D01*
X112339523Y-71003390D02*
X112291904Y-71051009D01*
X112291904Y-71051009D02*
X112244285Y-71146247D01*
X112244285Y-71146247D02*
X112244285Y-71384342D01*
X112244285Y-71384342D02*
X112291904Y-71479580D01*
X112291904Y-71479580D02*
X112339523Y-71527200D01*
X112339523Y-71527200D02*
X112434761Y-71574819D01*
X112434761Y-71574819D02*
X112672856Y-71574819D01*
X112672856Y-71574819D02*
X112768094Y-71527200D01*
X112768094Y-71527200D02*
X112815713Y-71479580D01*
X113768094Y-69034819D02*
X113768094Y-68034819D01*
X113768094Y-68034819D02*
X113529999Y-68034819D01*
X113529999Y-68034819D02*
X113387142Y-68082438D01*
X113387142Y-68082438D02*
X113291904Y-68177676D01*
X113291904Y-68177676D02*
X113244285Y-68272914D01*
X113244285Y-68272914D02*
X113196666Y-68463390D01*
X113196666Y-68463390D02*
X113196666Y-68606247D01*
X113196666Y-68606247D02*
X113244285Y-68796723D01*
X113244285Y-68796723D02*
X113291904Y-68891961D01*
X113291904Y-68891961D02*
X113387142Y-68987200D01*
X113387142Y-68987200D02*
X113529999Y-69034819D01*
X113529999Y-69034819D02*
X113768094Y-69034819D01*
X112339523Y-68368152D02*
X112339523Y-69034819D01*
X112577618Y-67987200D02*
X112815713Y-68701485D01*
X112815713Y-68701485D02*
X112196666Y-68701485D01*
X113768094Y-66494819D02*
X113768094Y-65494819D01*
X113768094Y-65494819D02*
X113529999Y-65494819D01*
X113529999Y-65494819D02*
X113387142Y-65542438D01*
X113387142Y-65542438D02*
X113291904Y-65637676D01*
X113291904Y-65637676D02*
X113244285Y-65732914D01*
X113244285Y-65732914D02*
X113196666Y-65923390D01*
X113196666Y-65923390D02*
X113196666Y-66066247D01*
X113196666Y-66066247D02*
X113244285Y-66256723D01*
X113244285Y-66256723D02*
X113291904Y-66351961D01*
X113291904Y-66351961D02*
X113387142Y-66447200D01*
X113387142Y-66447200D02*
X113529999Y-66494819D01*
X113529999Y-66494819D02*
X113768094Y-66494819D01*
X112863332Y-65494819D02*
X112244285Y-65494819D01*
X112244285Y-65494819D02*
X112577618Y-65875771D01*
X112577618Y-65875771D02*
X112434761Y-65875771D01*
X112434761Y-65875771D02*
X112339523Y-65923390D01*
X112339523Y-65923390D02*
X112291904Y-65971009D01*
X112291904Y-65971009D02*
X112244285Y-66066247D01*
X112244285Y-66066247D02*
X112244285Y-66304342D01*
X112244285Y-66304342D02*
X112291904Y-66399580D01*
X112291904Y-66399580D02*
X112339523Y-66447200D01*
X112339523Y-66447200D02*
X112434761Y-66494819D01*
X112434761Y-66494819D02*
X112720475Y-66494819D01*
X112720475Y-66494819D02*
X112815713Y-66447200D01*
X112815713Y-66447200D02*
X112863332Y-66399580D01*
X113768094Y-63954819D02*
X113768094Y-62954819D01*
X113768094Y-62954819D02*
X113529999Y-62954819D01*
X113529999Y-62954819D02*
X113387142Y-63002438D01*
X113387142Y-63002438D02*
X113291904Y-63097676D01*
X113291904Y-63097676D02*
X113244285Y-63192914D01*
X113244285Y-63192914D02*
X113196666Y-63383390D01*
X113196666Y-63383390D02*
X113196666Y-63526247D01*
X113196666Y-63526247D02*
X113244285Y-63716723D01*
X113244285Y-63716723D02*
X113291904Y-63811961D01*
X113291904Y-63811961D02*
X113387142Y-63907200D01*
X113387142Y-63907200D02*
X113529999Y-63954819D01*
X113529999Y-63954819D02*
X113768094Y-63954819D01*
X112815713Y-63050057D02*
X112768094Y-63002438D01*
X112768094Y-63002438D02*
X112672856Y-62954819D01*
X112672856Y-62954819D02*
X112434761Y-62954819D01*
X112434761Y-62954819D02*
X112339523Y-63002438D01*
X112339523Y-63002438D02*
X112291904Y-63050057D01*
X112291904Y-63050057D02*
X112244285Y-63145295D01*
X112244285Y-63145295D02*
X112244285Y-63240533D01*
X112244285Y-63240533D02*
X112291904Y-63383390D01*
X112291904Y-63383390D02*
X112863332Y-63954819D01*
X112863332Y-63954819D02*
X112244285Y-63954819D01*
X113768094Y-61414819D02*
X113768094Y-60414819D01*
X113768094Y-60414819D02*
X113529999Y-60414819D01*
X113529999Y-60414819D02*
X113387142Y-60462438D01*
X113387142Y-60462438D02*
X113291904Y-60557676D01*
X113291904Y-60557676D02*
X113244285Y-60652914D01*
X113244285Y-60652914D02*
X113196666Y-60843390D01*
X113196666Y-60843390D02*
X113196666Y-60986247D01*
X113196666Y-60986247D02*
X113244285Y-61176723D01*
X113244285Y-61176723D02*
X113291904Y-61271961D01*
X113291904Y-61271961D02*
X113387142Y-61367200D01*
X113387142Y-61367200D02*
X113529999Y-61414819D01*
X113529999Y-61414819D02*
X113768094Y-61414819D01*
X112244285Y-61414819D02*
X112815713Y-61414819D01*
X112529999Y-61414819D02*
X112529999Y-60414819D01*
X112529999Y-60414819D02*
X112625237Y-60557676D01*
X112625237Y-60557676D02*
X112720475Y-60652914D01*
X112720475Y-60652914D02*
X112815713Y-60700533D01*
X112291905Y-57965180D02*
X112291905Y-58965180D01*
X112291905Y-58965180D02*
X112530000Y-58965180D01*
X112530000Y-58965180D02*
X112672857Y-58917561D01*
X112672857Y-58917561D02*
X112768095Y-58822323D01*
X112768095Y-58822323D02*
X112815714Y-58727085D01*
X112815714Y-58727085D02*
X112863333Y-58536609D01*
X112863333Y-58536609D02*
X112863333Y-58393752D01*
X112863333Y-58393752D02*
X112815714Y-58203276D01*
X112815714Y-58203276D02*
X112768095Y-58108038D01*
X112768095Y-58108038D02*
X112672857Y-58012800D01*
X112672857Y-58012800D02*
X112530000Y-57965180D01*
X112530000Y-57965180D02*
X112291905Y-57965180D01*
X113482381Y-58965180D02*
X113577619Y-58965180D01*
X113577619Y-58965180D02*
X113672857Y-58917561D01*
X113672857Y-58917561D02*
X113720476Y-58869942D01*
X113720476Y-58869942D02*
X113768095Y-58774704D01*
X113768095Y-58774704D02*
X113815714Y-58584228D01*
X113815714Y-58584228D02*
X113815714Y-58346133D01*
X113815714Y-58346133D02*
X113768095Y-58155657D01*
X113768095Y-58155657D02*
X113720476Y-58060419D01*
X113720476Y-58060419D02*
X113672857Y-58012800D01*
X113672857Y-58012800D02*
X113577619Y-57965180D01*
X113577619Y-57965180D02*
X113482381Y-57965180D01*
X113482381Y-57965180D02*
X113387143Y-58012800D01*
X113387143Y-58012800D02*
X113339524Y-58060419D01*
X113339524Y-58060419D02*
X113291905Y-58155657D01*
X113291905Y-58155657D02*
X113244286Y-58346133D01*
X113244286Y-58346133D02*
X113244286Y-58584228D01*
X113244286Y-58584228D02*
X113291905Y-58774704D01*
X113291905Y-58774704D02*
X113339524Y-58869942D01*
X113339524Y-58869942D02*
X113387143Y-58917561D01*
X113387143Y-58917561D02*
X113482381Y-58965180D01*
X113768094Y-74114819D02*
X113768094Y-73114819D01*
X113768094Y-73114819D02*
X113529999Y-73114819D01*
X113529999Y-73114819D02*
X113387142Y-73162438D01*
X113387142Y-73162438D02*
X113291904Y-73257676D01*
X113291904Y-73257676D02*
X113244285Y-73352914D01*
X113244285Y-73352914D02*
X113196666Y-73543390D01*
X113196666Y-73543390D02*
X113196666Y-73686247D01*
X113196666Y-73686247D02*
X113244285Y-73876723D01*
X113244285Y-73876723D02*
X113291904Y-73971961D01*
X113291904Y-73971961D02*
X113387142Y-74067200D01*
X113387142Y-74067200D02*
X113529999Y-74114819D01*
X113529999Y-74114819D02*
X113768094Y-74114819D01*
X112339523Y-73114819D02*
X112529999Y-73114819D01*
X112529999Y-73114819D02*
X112625237Y-73162438D01*
X112625237Y-73162438D02*
X112672856Y-73210057D01*
X112672856Y-73210057D02*
X112768094Y-73352914D01*
X112768094Y-73352914D02*
X112815713Y-73543390D01*
X112815713Y-73543390D02*
X112815713Y-73924342D01*
X112815713Y-73924342D02*
X112768094Y-74019580D01*
X112768094Y-74019580D02*
X112720475Y-74067200D01*
X112720475Y-74067200D02*
X112625237Y-74114819D01*
X112625237Y-74114819D02*
X112434761Y-74114819D01*
X112434761Y-74114819D02*
X112339523Y-74067200D01*
X112339523Y-74067200D02*
X112291904Y-74019580D01*
X112291904Y-74019580D02*
X112244285Y-73924342D01*
X112244285Y-73924342D02*
X112244285Y-73686247D01*
X112244285Y-73686247D02*
X112291904Y-73591009D01*
X112291904Y-73591009D02*
X112339523Y-73543390D01*
X112339523Y-73543390D02*
X112434761Y-73495771D01*
X112434761Y-73495771D02*
X112625237Y-73495771D01*
X112625237Y-73495771D02*
X112720475Y-73543390D01*
X112720475Y-73543390D02*
X112768094Y-73591009D01*
X112768094Y-73591009D02*
X112815713Y-73686247D01*
X125803866Y-77836856D02*
X125803866Y-78522571D01*
X126184819Y-78179713D02*
X125422914Y-78179713D01*
X125184819Y-79379714D02*
X125184819Y-78951142D01*
X125184819Y-78951142D02*
X125661009Y-78908285D01*
X125661009Y-78908285D02*
X125613390Y-78951142D01*
X125613390Y-78951142D02*
X125565771Y-79036857D01*
X125565771Y-79036857D02*
X125565771Y-79251142D01*
X125565771Y-79251142D02*
X125613390Y-79336857D01*
X125613390Y-79336857D02*
X125661009Y-79379714D01*
X125661009Y-79379714D02*
X125756247Y-79422571D01*
X125756247Y-79422571D02*
X125994342Y-79422571D01*
X125994342Y-79422571D02*
X126089580Y-79379714D01*
X126089580Y-79379714D02*
X126137200Y-79336857D01*
X126137200Y-79336857D02*
X126184819Y-79251142D01*
X126184819Y-79251142D02*
X126184819Y-79036857D01*
X126184819Y-79036857D02*
X126137200Y-78951142D01*
X126137200Y-78951142D02*
X126089580Y-78908285D01*
X125184819Y-79679714D02*
X126184819Y-79979714D01*
X126184819Y-79979714D02*
X125184819Y-80279714D01*
X122057438Y-77978095D02*
X122009819Y-77882857D01*
X122009819Y-77882857D02*
X122009819Y-77740000D01*
X122009819Y-77740000D02*
X122057438Y-77597143D01*
X122057438Y-77597143D02*
X122152676Y-77501905D01*
X122152676Y-77501905D02*
X122247914Y-77454286D01*
X122247914Y-77454286D02*
X122438390Y-77406667D01*
X122438390Y-77406667D02*
X122581247Y-77406667D01*
X122581247Y-77406667D02*
X122771723Y-77454286D01*
X122771723Y-77454286D02*
X122866961Y-77501905D01*
X122866961Y-77501905D02*
X122962200Y-77597143D01*
X122962200Y-77597143D02*
X123009819Y-77740000D01*
X123009819Y-77740000D02*
X123009819Y-77835238D01*
X123009819Y-77835238D02*
X122962200Y-77978095D01*
X122962200Y-77978095D02*
X122914580Y-78025714D01*
X122914580Y-78025714D02*
X122581247Y-78025714D01*
X122581247Y-78025714D02*
X122581247Y-77835238D01*
X123009819Y-78454286D02*
X122009819Y-78454286D01*
X122009819Y-78454286D02*
X123009819Y-79025714D01*
X123009819Y-79025714D02*
X122009819Y-79025714D01*
X123009819Y-79501905D02*
X122009819Y-79501905D01*
X122009819Y-79501905D02*
X122009819Y-79740000D01*
X122009819Y-79740000D02*
X122057438Y-79882857D01*
X122057438Y-79882857D02*
X122152676Y-79978095D01*
X122152676Y-79978095D02*
X122247914Y-80025714D01*
X122247914Y-80025714D02*
X122438390Y-80073333D01*
X122438390Y-80073333D02*
X122581247Y-80073333D01*
X122581247Y-80073333D02*
X122771723Y-80025714D01*
X122771723Y-80025714D02*
X122866961Y-79978095D01*
X122866961Y-79978095D02*
X122962200Y-79882857D01*
X122962200Y-79882857D02*
X123009819Y-79740000D01*
X123009819Y-79740000D02*
X123009819Y-79501905D01*
X125803866Y-120762856D02*
X125803866Y-121448571D01*
X126184819Y-121105713D02*
X125422914Y-121105713D01*
X125184819Y-122305714D02*
X125184819Y-121877142D01*
X125184819Y-121877142D02*
X125661009Y-121834285D01*
X125661009Y-121834285D02*
X125613390Y-121877142D01*
X125613390Y-121877142D02*
X125565771Y-121962857D01*
X125565771Y-121962857D02*
X125565771Y-122177142D01*
X125565771Y-122177142D02*
X125613390Y-122262857D01*
X125613390Y-122262857D02*
X125661009Y-122305714D01*
X125661009Y-122305714D02*
X125756247Y-122348571D01*
X125756247Y-122348571D02*
X125994342Y-122348571D01*
X125994342Y-122348571D02*
X126089580Y-122305714D01*
X126089580Y-122305714D02*
X126137200Y-122262857D01*
X126137200Y-122262857D02*
X126184819Y-122177142D01*
X126184819Y-122177142D02*
X126184819Y-121962857D01*
X126184819Y-121962857D02*
X126137200Y-121877142D01*
X126137200Y-121877142D02*
X126089580Y-121834285D01*
X125184819Y-122605714D02*
X126184819Y-122905714D01*
X126184819Y-122905714D02*
X125184819Y-123205714D01*
D11*
X107674038Y-86711428D02*
X107864514Y-87282856D01*
X107864514Y-87282856D02*
X108054990Y-87473333D01*
X108054990Y-87473333D02*
X108435942Y-87663809D01*
X108435942Y-87663809D02*
X109007371Y-87663809D01*
X109007371Y-87663809D02*
X109388323Y-87473333D01*
X109388323Y-87473333D02*
X109578800Y-87282856D01*
X109578800Y-87282856D02*
X109769276Y-86901904D01*
X109769276Y-86901904D02*
X109769276Y-85378094D01*
X109769276Y-85378094D02*
X105769276Y-85378094D01*
X105769276Y-85378094D02*
X105769276Y-86711428D01*
X105769276Y-86711428D02*
X105959752Y-87092380D01*
X105959752Y-87092380D02*
X106150228Y-87282856D01*
X106150228Y-87282856D02*
X106531180Y-87473333D01*
X106531180Y-87473333D02*
X106912133Y-87473333D01*
X106912133Y-87473333D02*
X107293085Y-87282856D01*
X107293085Y-87282856D02*
X107483561Y-87092380D01*
X107483561Y-87092380D02*
X107674038Y-86711428D01*
X107674038Y-86711428D02*
X107674038Y-85378094D01*
X105769276Y-90139999D02*
X105769276Y-90901904D01*
X105769276Y-90901904D02*
X105959752Y-91282856D01*
X105959752Y-91282856D02*
X106340704Y-91663809D01*
X106340704Y-91663809D02*
X107102609Y-91854285D01*
X107102609Y-91854285D02*
X108435942Y-91854285D01*
X108435942Y-91854285D02*
X109197847Y-91663809D01*
X109197847Y-91663809D02*
X109578800Y-91282856D01*
X109578800Y-91282856D02*
X109769276Y-90901904D01*
X109769276Y-90901904D02*
X109769276Y-90139999D01*
X109769276Y-90139999D02*
X109578800Y-89759047D01*
X109578800Y-89759047D02*
X109197847Y-89378094D01*
X109197847Y-89378094D02*
X108435942Y-89187618D01*
X108435942Y-89187618D02*
X107102609Y-89187618D01*
X107102609Y-89187618D02*
X106340704Y-89378094D01*
X106340704Y-89378094D02*
X105959752Y-89759047D01*
X105959752Y-89759047D02*
X105769276Y-90139999D01*
X105769276Y-92997142D02*
X105769276Y-95282856D01*
X109769276Y-94139999D02*
X105769276Y-94139999D01*
X105769276Y-96044761D02*
X105769276Y-98330475D01*
X109769276Y-97187618D02*
X105769276Y-97187618D01*
X105769276Y-100425713D02*
X105769276Y-101187618D01*
X105769276Y-101187618D02*
X105959752Y-101568570D01*
X105959752Y-101568570D02*
X106340704Y-101949523D01*
X106340704Y-101949523D02*
X107102609Y-102139999D01*
X107102609Y-102139999D02*
X108435942Y-102139999D01*
X108435942Y-102139999D02*
X109197847Y-101949523D01*
X109197847Y-101949523D02*
X109578800Y-101568570D01*
X109578800Y-101568570D02*
X109769276Y-101187618D01*
X109769276Y-101187618D02*
X109769276Y-100425713D01*
X109769276Y-100425713D02*
X109578800Y-100044761D01*
X109578800Y-100044761D02*
X109197847Y-99663808D01*
X109197847Y-99663808D02*
X108435942Y-99473332D01*
X108435942Y-99473332D02*
X107102609Y-99473332D01*
X107102609Y-99473332D02*
X106340704Y-99663808D01*
X106340704Y-99663808D02*
X105959752Y-100044761D01*
X105959752Y-100044761D02*
X105769276Y-100425713D01*
X109769276Y-103854284D02*
X105769276Y-103854284D01*
X105769276Y-103854284D02*
X108626419Y-105187618D01*
X108626419Y-105187618D02*
X105769276Y-106520951D01*
X105769276Y-106520951D02*
X109769276Y-106520951D01*
X109578800Y-111282856D02*
X109769276Y-111854285D01*
X109769276Y-111854285D02*
X109769276Y-112806666D01*
X109769276Y-112806666D02*
X109578800Y-113187618D01*
X109578800Y-113187618D02*
X109388323Y-113378094D01*
X109388323Y-113378094D02*
X109007371Y-113568571D01*
X109007371Y-113568571D02*
X108626419Y-113568571D01*
X108626419Y-113568571D02*
X108245466Y-113378094D01*
X108245466Y-113378094D02*
X108054990Y-113187618D01*
X108054990Y-113187618D02*
X107864514Y-112806666D01*
X107864514Y-112806666D02*
X107674038Y-112044761D01*
X107674038Y-112044761D02*
X107483561Y-111663809D01*
X107483561Y-111663809D02*
X107293085Y-111473332D01*
X107293085Y-111473332D02*
X106912133Y-111282856D01*
X106912133Y-111282856D02*
X106531180Y-111282856D01*
X106531180Y-111282856D02*
X106150228Y-111473332D01*
X106150228Y-111473332D02*
X105959752Y-111663809D01*
X105959752Y-111663809D02*
X105769276Y-112044761D01*
X105769276Y-112044761D02*
X105769276Y-112997142D01*
X105769276Y-112997142D02*
X105959752Y-113568571D01*
X109769276Y-115282856D02*
X105769276Y-115282856D01*
X109769276Y-117187618D02*
X105769276Y-117187618D01*
X105769276Y-117187618D02*
X105769276Y-118139999D01*
X105769276Y-118139999D02*
X105959752Y-118711428D01*
X105959752Y-118711428D02*
X106340704Y-119092380D01*
X106340704Y-119092380D02*
X106721657Y-119282857D01*
X106721657Y-119282857D02*
X107483561Y-119473333D01*
X107483561Y-119473333D02*
X108054990Y-119473333D01*
X108054990Y-119473333D02*
X108816895Y-119282857D01*
X108816895Y-119282857D02*
X109197847Y-119092380D01*
X109197847Y-119092380D02*
X109578800Y-118711428D01*
X109578800Y-118711428D02*
X109769276Y-118139999D01*
X109769276Y-118139999D02*
X109769276Y-117187618D01*
X107674038Y-121187618D02*
X107674038Y-122520952D01*
X109769276Y-123092380D02*
X109769276Y-121187618D01*
X109769276Y-121187618D02*
X105769276Y-121187618D01*
X105769276Y-121187618D02*
X105769276Y-123092380D01*
D10*
X144178095Y-57520561D02*
X144082857Y-57568180D01*
X144082857Y-57568180D02*
X143940000Y-57568180D01*
X143940000Y-57568180D02*
X143797143Y-57520561D01*
X143797143Y-57520561D02*
X143701905Y-57425323D01*
X143701905Y-57425323D02*
X143654286Y-57330085D01*
X143654286Y-57330085D02*
X143606667Y-57139609D01*
X143606667Y-57139609D02*
X143606667Y-56996752D01*
X143606667Y-56996752D02*
X143654286Y-56806276D01*
X143654286Y-56806276D02*
X143701905Y-56711038D01*
X143701905Y-56711038D02*
X143797143Y-56615800D01*
X143797143Y-56615800D02*
X143940000Y-56568180D01*
X143940000Y-56568180D02*
X144035238Y-56568180D01*
X144035238Y-56568180D02*
X144178095Y-56615800D01*
X144178095Y-56615800D02*
X144225714Y-56663419D01*
X144225714Y-56663419D02*
X144225714Y-56996752D01*
X144225714Y-56996752D02*
X144035238Y-56996752D01*
X144654286Y-56568180D02*
X144654286Y-57568180D01*
X144654286Y-57568180D02*
X145225714Y-56568180D01*
X145225714Y-56568180D02*
X145225714Y-57568180D01*
X145701905Y-56568180D02*
X145701905Y-57568180D01*
X145701905Y-57568180D02*
X145940000Y-57568180D01*
X145940000Y-57568180D02*
X146082857Y-57520561D01*
X146082857Y-57520561D02*
X146178095Y-57425323D01*
X146178095Y-57425323D02*
X146225714Y-57330085D01*
X146225714Y-57330085D02*
X146273333Y-57139609D01*
X146273333Y-57139609D02*
X146273333Y-56996752D01*
X146273333Y-56996752D02*
X146225714Y-56806276D01*
X146225714Y-56806276D02*
X146178095Y-56711038D01*
X146178095Y-56711038D02*
X146082857Y-56615800D01*
X146082857Y-56615800D02*
X145940000Y-56568180D01*
X145940000Y-56568180D02*
X145701905Y-56568180D01*
X144178095Y-151627561D02*
X144082857Y-151675180D01*
X144082857Y-151675180D02*
X143940000Y-151675180D01*
X143940000Y-151675180D02*
X143797143Y-151627561D01*
X143797143Y-151627561D02*
X143701905Y-151532323D01*
X143701905Y-151532323D02*
X143654286Y-151437085D01*
X143654286Y-151437085D02*
X143606667Y-151246609D01*
X143606667Y-151246609D02*
X143606667Y-151103752D01*
X143606667Y-151103752D02*
X143654286Y-150913276D01*
X143654286Y-150913276D02*
X143701905Y-150818038D01*
X143701905Y-150818038D02*
X143797143Y-150722800D01*
X143797143Y-150722800D02*
X143940000Y-150675180D01*
X143940000Y-150675180D02*
X144035238Y-150675180D01*
X144035238Y-150675180D02*
X144178095Y-150722800D01*
X144178095Y-150722800D02*
X144225714Y-150770419D01*
X144225714Y-150770419D02*
X144225714Y-151103752D01*
X144225714Y-151103752D02*
X144035238Y-151103752D01*
X144654286Y-150675180D02*
X144654286Y-151675180D01*
X144654286Y-151675180D02*
X145225714Y-150675180D01*
X145225714Y-150675180D02*
X145225714Y-151675180D01*
X145701905Y-150675180D02*
X145701905Y-151675180D01*
X145701905Y-151675180D02*
X145940000Y-151675180D01*
X145940000Y-151675180D02*
X146082857Y-151627561D01*
X146082857Y-151627561D02*
X146178095Y-151532323D01*
X146178095Y-151532323D02*
X146225714Y-151437085D01*
X146225714Y-151437085D02*
X146273333Y-151246609D01*
X146273333Y-151246609D02*
X146273333Y-151103752D01*
X146273333Y-151103752D02*
X146225714Y-150913276D01*
X146225714Y-150913276D02*
X146178095Y-150818038D01*
X146178095Y-150818038D02*
X146082857Y-150722800D01*
X146082857Y-150722800D02*
X145940000Y-150675180D01*
X145940000Y-150675180D02*
X145701905Y-150675180D01*
X100626152Y-127984285D02*
X101292819Y-127984285D01*
X100245200Y-127746190D02*
X100959485Y-127508095D01*
X100959485Y-127508095D02*
X100959485Y-128127142D01*
X100292819Y-128698571D02*
X100292819Y-128793809D01*
X100292819Y-128793809D02*
X100340438Y-128889047D01*
X100340438Y-128889047D02*
X100388057Y-128936666D01*
X100388057Y-128936666D02*
X100483295Y-128984285D01*
X100483295Y-128984285D02*
X100673771Y-129031904D01*
X100673771Y-129031904D02*
X100911866Y-129031904D01*
X100911866Y-129031904D02*
X101102342Y-128984285D01*
X101102342Y-128984285D02*
X101197580Y-128936666D01*
X101197580Y-128936666D02*
X101245200Y-128889047D01*
X101245200Y-128889047D02*
X101292819Y-128793809D01*
X101292819Y-128793809D02*
X101292819Y-128698571D01*
X101292819Y-128698571D02*
X101245200Y-128603333D01*
X101245200Y-128603333D02*
X101197580Y-128555714D01*
X101197580Y-128555714D02*
X101102342Y-128508095D01*
X101102342Y-128508095D02*
X100911866Y-128460476D01*
X100911866Y-128460476D02*
X100673771Y-128460476D01*
X100673771Y-128460476D02*
X100483295Y-128508095D01*
X100483295Y-128508095D02*
X100388057Y-128555714D01*
X100388057Y-128555714D02*
X100340438Y-128603333D01*
X100340438Y-128603333D02*
X100292819Y-128698571D01*
X100388057Y-79724286D02*
X100340438Y-79771905D01*
X100340438Y-79771905D02*
X100292819Y-79867143D01*
X100292819Y-79867143D02*
X100292819Y-80105238D01*
X100292819Y-80105238D02*
X100340438Y-80200476D01*
X100340438Y-80200476D02*
X100388057Y-80248095D01*
X100388057Y-80248095D02*
X100483295Y-80295714D01*
X100483295Y-80295714D02*
X100578533Y-80295714D01*
X100578533Y-80295714D02*
X100721390Y-80248095D01*
X100721390Y-80248095D02*
X101292819Y-79676667D01*
X101292819Y-79676667D02*
X101292819Y-80295714D01*
D12*
G04 #@! TO.C,P10*
X121285000Y-67310000D02*
X123825000Y-67310000D01*
X121285000Y-76835000D02*
X121285000Y-67310000D01*
X121285000Y-76835000D02*
X121285000Y-80645000D01*
X121285000Y-151130000D02*
X121285000Y-80645000D01*
X123825000Y-67310000D02*
X123825000Y-151130000D01*
X123825000Y-151130000D02*
X121285000Y-151130000D01*
X124460000Y-67310000D02*
X124460000Y-148590000D01*
X124460000Y-148590000D02*
X127000000Y-148590000D01*
X127000000Y-67310000D02*
X124460000Y-67310000D01*
X127000000Y-120015000D02*
X127000000Y-67310000D01*
X127000000Y-120015000D02*
X127000000Y-123825000D01*
X127000000Y-123825000D02*
X127000000Y-148590000D01*
G04 #@! TD*
M02*
